<?xml version="1.0" encoding="utf-8"?><svg version="1.1" id="Layer_1" xmlns="http://www.w3.org/2000/svg" xmlns:xlink="http://www.w3.org/1999/xlink" x="0px" y="0px" viewBox="0 0 122.88 100.89" style="enable-background:new 0 0 122.88 100.89" xml:space="preserve"><style type="text/css">.st0{fill-rule:evenodd;clip-rule:evenodd;}</style><g><path class="st0" d="M115.39,56.45l-0.07,2.6L90.3,66.32l-1.46-3.2c-0.81-1.66-4.09-0.71-3.37,1.76c1.04,3.54,2.64,6.28,4.16,9.07 c8.37,15.42,37.85,10.55,29.51-13.36l-0.07-4.54c2.24-0.97,3.81-3.2,3.81-5.8c0-3.49-2.83-6.32-6.32-6.32c-0.08,0-0.16,0-0.24,0 l2.73-1.16l-12.2-31.65C103.06-0.66,99-2.21,92.42,2.41L57.85,35.36l-0.84-0.84h-7.55c-2.3,0-4.18,1.88-4.18,4.18v15.97H33.74V53.9 c0-1.5-1.23-2.73-2.73-2.73H15.74c-1.5,0-2.73,1.23-2.73,2.73v0.77H8.79c-2.86,0-5.2,2.34-5.2,5.2v6.49c0,2.87,2.35,5.21,5.21,5.21 h55.25c2.87,0,5.21-2.35,5.21-5.21v-8.22v-3.47v-7.88l-1.84-1.85L95.39,15.4l14.18,31.39l2.62-1.11c-1.2,1.15-1.94,2.77-1.94,4.56 C110.24,53.33,112.46,55.9,115.39,56.45L115.39,56.45z M13.59,73.72h45.48c7.47,0,13.59,6.11,13.59,13.59l0,0 c0,7.47-6.11,13.59-13.59,13.59H13.59C6.11,100.89,0,94.78,0,87.3l0,0C0,79.83,6.11,73.72,13.59,73.72L13.59,73.72z M17.45,86.08 c0.16,0,0.28,0.55,0.28,1.23s-0.13,1.23-0.28,1.23h-1.09v1.09c0,0.16-0.55,0.28-1.23,0.28c-0.68,0-1.23-0.13-1.23-0.28v-1.09h-1.09 c-0.16,0-0.28-0.55-0.28-1.23s0.13-1.23,0.28-1.23h1.09v-1.09c0-0.16,0.55-0.28,1.23-0.28c0.68,0,1.23,0.13,1.23,0.28v1.09H17.45 L17.45,86.08z M56.42,84.98c0-0.16,0.55-0.28,1.23-0.28s1.23,0.13,1.23,0.28v1.09h1.09c0.16,0,0.28,0.55,0.28,1.23 s-0.13,1.23-0.28,1.23h-1.09v1.09c0,0.16-0.55,0.28-1.23,0.28s-1.23-0.13-1.23-0.28v-1.09h-1.09c-0.16,0-0.28-0.55-0.28-1.23 s0.13-1.23,0.28-1.23h1.09V84.98L56.42,84.98z M57.65,77.36c5.49,0,9.94,4.45,9.94,9.94s-4.45,9.94-9.94,9.94 c-5.49,0-9.94-4.45-9.94-9.94S52.16,77.36,57.65,77.36L57.65,77.36z M15.13,77.36c5.49,0,9.94,4.45,9.94,9.94s-4.45,9.94-9.94,9.94 c-5.49,0-9.94-4.45-9.94-9.94S9.64,77.36,15.13,77.36L15.13,77.36z M97.01,5.3c1.93,0,3.5,1.57,3.5,3.5c0,1.93-1.57,3.5-3.5,3.5 c-1.93,0-3.5-1.57-3.5-3.5C93.51,6.87,95.07,5.3,97.01,5.3L97.01,5.3z"/></g></svg>