<svg id="Capa_1" enable-background="new 0 0 510.68 510.68" height="512" viewBox="0 0 510.68 510.68" width="512" xmlns="http://www.w3.org/2000/svg"><g><g id="XMLID_141_"><path d="m474.57 140.35h-211.24-223.87c-17.65 0-31.96 14.31-31.96 31.97v39.81l38.673 67.133h417.633l39.375-67.133v-43.17c-.001-15.8-12.811-28.61-28.611-28.61z" fill="#f37c7c"/></g><path d="m71.333 140.35h-31.873c-17.65 0-31.96 14.31-31.96 31.97v39.81l38.673 67.133h25.16z" fill="#ee6161"/><path d="m503.18 212.13v-43.17c0-15.8-12.81-28.61-28.61-28.61h-59.006v1.278l-2.531-1.278h-139.691c-.07 1.272-.112 2.551-.112 3.84v18.65c0 34.003 24.623 62.343 56.969 68.172v48.25h81.491v-20.735l4.206-3.548 20.938 17.34c.589 2.397 1.377 4.717 2.344 6.943h24.628z" fill="#ee6161"/><path d="m503.18 212.13v245.22c0 17.66-14.31 31.97-31.96 31.97h-431.76c-17.65 0-31.96-14.31-31.96-31.97v-245.22z" fill="#f9f7f8"/><path d="m103.293 451.045c-17.65 0-31.96-14.31-31.96-31.97v-206.945h-63.833v245.22c0 17.66 14.31 31.97 31.96 31.97h431.76c17.65 0 31.96-14.31 31.96-31.97v-6.305z" fill="#efedef"/><path d="m503.18 298.609v-86.479h-209.288c7.794 7.685 17.392 13.546 28.096 16.874 4.846 1.507 8.211 5.901 8.211 10.976v54.33c0 16.789 13.611 30.4 30.4 30.4h20.691c16.789 0 30.4-13.611 30.4-30.4v-35.782c2.435-2.054 5.99-2.07 8.444-.038l14.325 11.863c1.494 1.237 2.569 2.892 3.156 4.74 5.622 17.709 22.211 30.579 41.757 30.579 8.774 0 16.948-2.603 23.808-7.063z" fill="#efedef"/><path d="m391.69 249.233v45.077c0 5.744-4.656 10.4-10.4 10.4h-20.691c-5.744 0-10.4-4.656-10.4-10.4v-163.292l113.607 57.385z" fill="#f9f7f8"/><g><path d="m455.56 45.17-60.05 49.74h-37.75l-34.258 37.978v42.54l34.258 36.702h33.055c3.034 0 5.973 1.059 8.31 2.994l56.434 46.736 19.04 14.7v-248.85z" fill="#f9f7f8"/><path d="m455.56 45.17-19.996 16.563v126.967c0 7.279-8.416 11.331-14.106 6.791l-25.199-20.105c-2.426-1.935-5.476-2.994-8.626-2.994h-47.053l17.179 39.737h33.055c3.034 0 5.973 1.059 8.31 2.994l56.434 46.736 19.04 14.7v-28.536-11.202-209.111z" fill="#efedef"/><path d="m357.76 94.91v117.22h-15.25c-27.22 0-49.28-22.07-49.28-49.29v-18.65c0-27.22 22.06-49.28 49.28-49.28z" fill="#99e6fc"/><circle cx="255.34" cy="359.871" fill="#f37c7c" r="77.386"/><path d="m237.169 384.383v-49.024c0-6.966 7.819-11.07 13.552-7.112l35.51 24.512c4.977 3.436 4.977 10.789 0 14.225l-35.51 24.512c-5.733 3.957-13.552-.147-13.552-7.113z" fill="#f9f7f8"/></g><path d="m479.372 285.672c-13.149 0-23.808-10.659-23.808-23.808v-216.695c0-13.149 10.659-23.808 23.808-23.808 13.149 0 23.808 10.659 23.808 23.808v216.695c0 13.149-10.659 23.808-23.808 23.808z" fill="#99e6fc"/><path d="m479.372 261.864v-216.695c0-8.811 4.79-16.498 11.904-20.615-3.503-2.027-7.566-3.193-11.904-3.193-13.149 0-23.808 10.659-23.808 23.808v216.695c0 13.149 10.659 23.808 23.808 23.808 4.338 0 8.401-1.166 11.904-3.193-7.114-4.117-11.904-11.804-11.904-20.615z" fill="#62dbfb"/><path d="m342.51 212.13h15.25v-39.737h-20.267c-18.909 0-35.41-9.893-44.263-24.592v15.039c0 27.22 22.06 49.29 49.28 49.29z" fill="#62dbfb"/><g><path d="m503.18 302.601c-4.142 0-7.5 3.358-7.5 7.5v147.253c0 13.49-10.975 24.465-24.464 24.465h-431.752c-13.49 0-24.464-10.975-24.464-24.465v-237.729h266.24c4.142 0 7.5-3.358 7.5-7.5s-3.358-7.5-7.5-7.5h-266.24v-32.308c0-13.49 10.975-24.464 24.464-24.464h223.864c4.142 0 7.5-3.358 7.5-7.5s-3.358-7.5-7.5-7.5h-223.864c-21.76 0-39.464 17.703-39.464 39.464v285.037c0 21.761 17.704 39.465 39.464 39.465h431.751c21.761 0 39.464-17.704 39.464-39.465v-147.253c.001-4.142-3.357-7.5-7.499-7.5z"/><path d="m479.372 13.861c-16.005 0-29.236 12.075-31.08 27.592l-55.488 45.954h-50.292c-31.309 0-56.781 25.472-56.781 56.781v18.656c0 31.309 25.472 56.781 56.781 56.781h.187v10.276c0 4.142 3.358 7.5 7.5 7.5s7.5-3.358 7.5-7.5v-10.276h35.105l10.244 8.484-16.522 15.684c-1.492 1.416-2.336 3.383-2.336 5.439v45.077c0 1.599-1.301 2.9-2.899 2.9h-20.691c-1.599 0-2.9-1.301-2.9-2.9v-32.446c0-4.142-3.358-7.5-7.5-7.5s-7.5 3.358-7.5 7.5v32.446c0 9.87 8.03 17.9 17.9 17.9h20.691c9.87 0 17.899-8.03 17.899-17.9v-41.856l15.494-14.708 33.608 27.834c1.844 15.518 15.075 27.593 31.08 27.593 17.263 0 31.308-14.045 31.308-31.309v-216.694c0-17.263-14.045-31.308-31.308-31.308zm-178.641 148.983v-18.656c0-23.038 18.743-41.781 41.781-41.781h7.75v102.218h-7.75c-23.038 0-41.781-18.742-41.781-41.781zm194.949 99.02c0 8.993-7.316 16.309-16.308 16.309s-16.308-7.316-16.308-16.309v-128.552c0-4.142-3.358-7.5-7.5-7.5s-7.5 3.358-7.5 7.5v112.602l-47.773-39.565c-1.345-1.114-3.037-1.724-4.784-1.724h-30.245v-102.218h30.245c1.747 0 3.438-.61 4.784-1.724l47.773-39.566v40.232c0 4.142 3.358 7.5 7.5 7.5s7.5-3.358 7.5-7.5v-56.18c0-8.992 7.316-16.308 16.308-16.308s16.308 7.316 16.308 16.308z"/><path d="m208.47 421.896c-2.17 3.528-1.069 8.147 2.458 10.318 13.339 8.206 28.697 12.542 44.412 12.542 46.806 0 84.886-38.08 84.886-84.886s-38.08-84.886-84.886-84.886-84.886 38.08-84.886 84.886c0 17.322 5.199 33.996 15.036 48.219 2.355 3.406 7.026 4.26 10.435 1.902 3.407-2.356 4.258-7.027 1.902-10.435-8.094-11.705-12.373-25.428-12.373-39.687 0-38.535 31.351-69.886 69.886-69.886s69.886 31.351 69.886 69.886-31.351 69.886-69.886 69.886c-12.938 0-25.578-3.568-36.552-10.319-3.53-2.17-8.148-1.068-10.318 2.46z"/><path d="m245.816 400.533c3.213 0 6.411-.964 9.166-2.865l35.51-24.513c4.366-3.013 6.972-7.979 6.972-13.284s-2.606-10.271-6.972-13.285l-35.51-24.512c-4.954-3.419-11.342-3.806-16.671-1.008s-8.641 8.274-8.641 14.293v49.024c0 6.02 3.311 11.497 8.641 14.293 2.366 1.243 4.94 1.857 7.505 1.857zm-1.147-65.174c0-.171 0-.69.611-1.011.205-.107.388-.146.548-.146.317 0 .539.152.632.217l35.51 24.512c.327.226.493.542.493.94s-.166.714-.493.94l-35.51 24.512c-.141.097-.568.392-1.18.072-.611-.321-.611-.841-.611-1.012z"/><path d="m43.858 169.268c-4.142 0-7.5 3.358-7.5 7.5s3.358 7.5 7.5 7.5h4.628c4.142 0 7.5-3.358 7.5-7.5s-3.358-7.5-7.5-7.5z"/><path d="m90.141 169.268c-4.142 0-7.5 3.358-7.5 7.5s3.358 7.5 7.5 7.5h4.628c4.142 0 7.5-3.358 7.5-7.5s-3.358-7.5-7.5-7.5z"/><path d="m136.424 169.268c-4.142 0-7.5 3.358-7.5 7.5s3.358 7.5 7.5 7.5h4.628c4.142 0 7.5-3.358 7.5-7.5s-3.358-7.5-7.5-7.5z"/></g></g></svg>