<svg id="Capa_1" enable-background="new 0 0 512 512" height="512" viewBox="0 0 512 512" width="512" xmlns="http://www.w3.org/2000/svg"><g><g><g><g><path d="m512 287.704c0-5.523-4.477-10-10-10h-197.249c-14.592 0-28.855-4.399-40.984-12.641l-111.861-76.007c-7.912-5.376-18.308-5.634-26.355-.463-19.657 12.632-21.884 40.766-4.641 56.441l39.217 35.649h-80.63l35.998 208.867h386.505c5.523 0 10-4.477 10-10z" fill="#fed2a4"/><g><path d="m502 277.704h-30c5.523 0 10 4.477 10 10v191.846c0 5.523-4.477 10-10 10h30c5.523 0 10-4.477 10-10v-191.846c0-5.523-4.477-10-10-10z" fill="#ffbd86"/></g><path d="m89.851 335.714h-55.054c-15.076 0-27.297-12.221-27.297-27.297v-.436c0-15.076 12.221-27.297 27.297-27.297h55.054c15.076 0 27.297 12.221 27.297 27.297v.436c.001 15.076-12.221 27.297-27.297 27.297z" fill="#fed2a4"/><path d="m107.85 390.745h-55.053c-15.076 0-27.297-12.221-27.297-27.297v-.436c0-15.076 12.221-27.297 27.297-27.297h55.054c15.076 0 27.297 12.221 27.297 27.297v.436c0 15.075-12.222 27.297-27.298 27.297z" fill="#fed2a4"/><path d="m107.85 335.714h-3.283c.379 1.812.58 3.689.58 5.613v.436c0 15.076-12.221 27.297-27.297 27.297h-51.77c2.589 12.383 13.565 21.684 26.717 21.684h55.054c15.076 0 27.297-12.221 27.297-27.297v-.436c0-15.075-12.222-27.297-27.298-27.297z" fill="#ffbd86"/><path d="m89.561 280.684h-3.283c.379 1.812.58 3.689.58 5.613v.436c0 15.076-12.221 27.297-27.297 27.297h-51.771c2.589 12.383 13.565 21.684 26.717 21.684h55.054c15.076 0 27.297-12.221 27.297-27.297v-.436c0-15.076-12.221-27.297-27.297-27.297z" fill="#ffbd86"/><path d="m117.468 445.776h-46.672c-15.076 0-27.297-12.221-27.297-27.297v-.436c0-15.076 12.221-27.297 27.297-27.297h46.673c15.076 0 27.297 12.221 27.297 27.297v.436c0 15.075-12.222 27.297-27.298 27.297z" fill="#fed2a4"/><path d="m144.065 500.806h-55.486c-14.957 0-27.081-12.319-27.081-27.515 0-15.196 12.125-27.515 27.081-27.515h55.486c14.957 0 27.081 12.319 27.081 27.515 0 15.196-12.125 27.515-27.081 27.515z" fill="#fed2a4"/><g fill="#ffbd86"><path d="m144.065 445.775h-3.11c.122 1.059.191 2.134.191 3.226 0 15.196-12.125 27.515-27.081 27.515h-52.376c1.573 13.675 13.008 24.289 26.89 24.289h55.486c14.957 0 27.081-12.319 27.081-27.515s-12.125-27.515-27.081-27.515z"/><path d="m135.189 397.287c-.119-.102-.234-.208-.355-.307-.004-.003-.009-.007-.013-.01-4.717-3.889-10.762-6.225-17.353-6.225h-2.91c.122 1.059.191 2.134.191 3.226 0 15.196-12.125 27.515-27.081 27.515h-44.001c1.498 13.66 13.07 24.289 27.129 24.289h46.673c6.591 0 12.636-2.336 17.353-6.225.004-.003.009-.007.013-.01.121-.1.236-.206.355-.307 5.847-5.047 9.561-12.567 9.561-20.973-.002-8.406-3.716-15.926-9.562-20.973z"/></g></g><path d="m428.219 504.5h-41.438c-14.515 0-26.281-11.766-26.281-26.281v-189.184c0-14.515 11.766-26.281 26.281-26.281h41.438c14.515 0 26.281 11.766 26.281 26.281v189.184c0 14.515-11.766 26.281-26.281 26.281z" fill="#fd4755"/><path d="m428.219 262.754h-6.26c1.627 3.418 2.541 7.243 2.541 11.281v154.005c0 33.943-27.516 61.459-61.459 61.459 4.222 8.869 13.264 15 23.74 15h41.438c14.515 0 26.281-11.766 26.281-26.281v-189.183c0-14.514-11.766-26.281-26.281-26.281z" fill="#fb2b3a"/></g><circle cx="136" cy="62.507" fill="#fed402" r="55.007"/><path d="m144.4 8.138c10.241 9.99 16.608 23.933 16.608 39.37 0 30.38-24.628 55.007-55.008 55.007-2.856 0-5.661-.218-8.4-.638 9.914 9.671 23.457 15.638 38.4 15.638 30.38 0 55.008-24.627 55.008-55.007 0-27.524-20.216-50.326-46.608-54.37z" fill="#fac600"/></g><path d="m78.025 136.865c1.693 0 3.396-.57 4.797-1.738l.035-.029c3.182-2.651 3.595-7.366.943-10.549-2.651-3.181-7.399-3.598-10.581-.945-3.182 2.651-3.612 7.381-.96 10.563 1.484 1.779 3.617 2.698 5.766 2.698zm-23.238 19.282c1.319.938 2.837 1.39 4.342 1.39 2.345 0 4.654-1.097 6.117-3.152.019-.026.09-.129.109-.155 2.347-3.391 1.491-8.001-1.884-10.37-3.375-2.371-8.057-1.53-10.446 1.828-2.402 3.375-1.613 8.058 1.762 10.459zm81.213-31.132c34.467 0 62.507-28.04 62.507-62.507s-28.04-62.508-62.507-62.508-62.507 28.041-62.507 62.508 28.04 62.507 62.507 62.507zm0-110.015c26.196 0 47.507 21.312 47.507 47.508 0 26.195-21.312 47.507-47.507 47.507s-47.507-21.312-47.507-47.507c0-26.196 21.311-47.508 47.507-47.508zm-84.004 249.372c1.057 0 2.131-.225 3.153-.699 3.757-1.744 5.389-6.204 3.645-9.961-.031-.065-.082-.172-.115-.237-1.851-3.703-6.354-5.202-10.06-3.353-3.687 1.843-5.191 6.315-3.381 10.01 1.289 2.672 3.965 4.24 6.758 4.24zm-11.4-54.493c4.081.221 7.65-2.927 7.893-7.067l.001-.021c.258-4.134-2.883-7.694-7.018-7.953-4.119-.256-7.695 2.884-7.953 7.018-.002.035-.01.163-.011.198-.199 4.12 2.968 7.602 7.088 7.825zm463.904 272.171h-42.723c.712-6.731.727-190.175 0-196.85h42.723c4.142 0 7.5-3.357 7.5-7.5s-3.358-7.5-7.5-7.5h-48.252c-6.073-9.009-16.37-14.946-28.029-14.946h-41.438c-11.659 0-21.956 5.937-28.029 14.946h-54.002c-13.127 0-25.841-3.923-36.765-11.345l-52.845-35.903c-3.426-2.325-8.091-1.438-10.418 1.989-2.328 3.426-1.438 8.091 1.989 10.419l52.845 35.903c13.421 9.117 29.049 13.937 45.194 13.937h48.474c-.431 3.494-.224 189.194-.224 193.019 0 18.627 15.154 33.781 33.781 33.781h41.438c11.66 0 21.958-5.939 28.031-14.95h48.25c4.142 0 7.5-3.357 7.5-7.5s-3.358-7.5-7.5-7.5zm-57.5-3.831c0 10.356-8.425 18.781-18.781 18.781h-41.438c-10.356 0-18.781-8.425-18.781-18.781v-189.184c0-10.356 8.425-18.781 18.781-18.781h41.438c10.356 0 18.781 8.425 18.781 18.781zm-396.515-249.266c-.01-.053-.039-.197-.05-.249-.85-4.055-4.833-6.68-8.886-5.834-4.054.851-6.658 4.793-5.808 8.847.676 3.604 3.825 6.119 7.363 6.119.458 0 .923-.042 1.391-.13 4.071-.763 6.753-4.682 5.99-8.753zm280.773 253.097h-153.708c5.468-21.213-10.13-42.601-31.531-43.715 3.931-5.635 6.246-12.479 6.246-19.856v-.437c0-13.469-7.697-25.166-18.919-30.947 5.766-6.212 9.301-14.523 9.301-23.647v-.436c0-15.856-10.665-29.26-25.195-33.44 4.508-5.867 7.196-13.201 7.196-21.155v-.436c0-7.353-2.299-14.177-6.207-19.802h34.31c.832 11.344 4.989 31.821 23.222 45.393 13.123 9.768 27.191 11.418 36.872 10.973 4.138-.19 7.338-3.698 7.148-7.836s-3.699-7.334-7.836-7.148c-5.79.265-17.02-.423-27.229-8.021-18.696-13.915-17.407-38.966-17.321-40.332.045-1.825-.332-4.153-2.434-6.077l-39.221-35.65c-6.437-5.849-9.754-14.234-9.102-23.006.649-8.731 5.138-16.49 12.315-21.288 5.639-3.768 12.911-3.737 18.528.077l37.247 25.307c3.427 2.33 8.091 1.438 10.418-1.988 2.328-3.426 1.438-8.091-1.989-10.418l-37.247-25.308c-10.697-7.265-24.548-7.321-35.292-.141-11.042 7.381-17.946 19.28-18.939 32.646-.997 13.407 4.096 26.245 13.972 35.219l24.863 22.6c-1.602-.064-102.904.004-105.931.004-19.185-.001-34.795 15.609-34.795 34.796v.436c0 15.857 10.665 29.26 25.195 33.439-4.508 5.867-7.196 13.202-7.196 21.156v.436c0 15.857 10.665 29.26 25.195 33.44-4.508 5.867-7.196 13.201-7.196 21.155v.437c0 15.863 10.674 29.271 25.214 33.444-4.517 5.917-7.214 13.328-7.214 21.369 0 19.308 15.513 35.016 34.581 35.016h55.486c10.019 0 19.051-4.341 25.373-11.257h161.82c4.142 0 7.5-3.357 7.5-7.5s-3.358-7.502-7.5-7.502zm-316.258-173.633v-.436c0-10.917 8.881-19.798 19.797-19.798h55.054c10.917 0 19.797 8.881 19.797 19.798v.436c0 10.916-8.881 19.797-19.797 19.797h-55.054c-10.916 0-19.797-8.881-19.797-19.797zm17.999 55.03v-.436c0-10.917 8.881-19.798 19.797-19.798h55.054c10.917 0 19.797 8.881 19.797 19.798v.436c0 10.917-8.881 19.798-19.797 19.798h-55.054c-10.916 0-19.797-8.881-19.797-19.798zm17.999 55.032v-.437c0-10.916 8.881-19.797 19.798-19.797h46.672c10.917 0 19.797 8.881 19.797 19.797v.437c0 10.916-8.881 19.797-19.797 19.797h-46.672c-10.917-.001-19.798-8.881-19.798-19.797zm93.067 74.828h-55.486c-10.797 0-19.581-8.979-19.581-20.016s8.784-20.016 19.581-20.016h55.486c10.797 0 19.581 8.979 19.581 20.016s-8.784 20.016-19.581 20.016zm-100.032-311.238c.786.263 1.584.387 2.37.387 3.107 0 6.007-1.948 7.083-5.032l.022-.063c1.375-3.907-.692-8.149-4.599-9.524-3.907-1.376-8.204.718-9.578 4.625-.014.039-.03.087-.043.126-1.31 3.929.815 8.172 4.745 9.481z"/></g></svg>