<svg height="512pt" viewBox="0 0 512 512" width="512pt" xmlns="http://www.w3.org/2000/svg" xmlns:xlink="http://www.w3.org/1999/xlink"><linearGradient id="a" gradientTransform="matrix(1 0 0 -1 0 -13734)" gradientUnits="userSpaceOnUse" x1="0" x2="512" y1="-13990" y2="-13990"><stop offset="0" stop-color="#00f38d"/><stop offset="1" stop-color="#009eff"/></linearGradient><path d="m512 256c0 141.386719-114.613281 256-256 256s-256-114.613281-256-256 114.613281-256 256-256 256 114.613281 256 256zm0 0" fill="url(#a)"/><g fill="#fff"><path d="m347.859375 164.171875c-19.769531-58.191406-75.019531-98.171875-137.09375-98.171875-79.824219 0-144.765625 64.941406-144.765625 144.765625 0 62.300781 39.90625 117.335937 98.175781 137.101563 19.449219 57.015624 73.539063 98.132812 137.058594 98.132812 79.824219 0 144.765625-64.941406 144.765625-144.765625 0-63.519531-41.121094-117.613281-98.140625-137.0625zm-251.859375 46.59375c0-63.28125 51.484375-114.765625 114.765625-114.765625 42.921875 0 81.714844 24.113281 101.335937 60.871094-3.589843-.265625-7.214843-.40625-10.867187-.40625-79.828125 0-144.769531 64.941406-144.769531 144.769531 0 3.660156.140625 7.289063.410156 10.878906-36.800781-19.578125-60.875-58.261719-60.875-101.347656zm205.234375 205.234375c-63.285156 0-114.769531-51.484375-114.769531-114.765625 0-63.285156 51.484375-114.769531 114.769531-114.769531 63.28125 0 114.765625 51.484375 114.765625 114.769531 0 63.28125-51.484375 114.765625-114.765625 114.765625zm0 0"/><path d="m354.621094 230.046875c0 8.191406-6.640625 14.832031-14.828125 14.832031-8.191407 0-14.832031-6.640625-14.832031-14.832031s6.640624-14.828125 14.832031-14.828125c8.1875 0 14.828125 6.636719 14.828125 14.828125zm0 0"/><path d="m334.601562 281.210938c0 8.191406-6.640624 14.832031-14.832031 14.832031-8.191406 0-14.828125-6.640625-14.828125-14.832031 0-8.191407 6.636719-14.828126 14.828125-14.828126 8.191407 0 14.832031 6.636719 14.832031 14.828126zm0 0"/><path d="m296.78125 319.769531c0 8.191407-6.636719 14.832031-14.828125 14.832031s-14.832031-6.640624-14.832031-14.832031c0-8.1875 6.640625-14.828125 14.832031-14.828125s14.828125 6.640625 14.828125 14.828125zm0 0"/><path d="m246.359375 339.050781c0 8.191407-6.636719 14.832031-14.828125 14.832031s-14.832031-6.640624-14.832031-14.832031c0-8.191406 6.640625-14.832031 14.832031-14.832031s14.828125 6.640625 14.828125 14.832031zm0 0"/></g></svg>