<svg id="Layer_1" enable-background="new 0 0 256 256" height="512" viewBox="0 0 256 256" width="512" xmlns="http://www.w3.org/2000/svg"><g><g><g><path d="m180.44 10.217v114.57h-172.28v-114.57l86.15 57.29z" fill="#f9d335"/><path d="m180.44 10.217-86.13 57.29-86.15-57.29z" fill="#f9d335"/><path d="m23.16 20.197v104.59h-15v-114.57z" fill="#f9e27d"/><path d="m101.81 62.517-7.5 4.99-86.15-57.29h15z" fill="#f9e27d"/><g fill="#f2c300"><path d="m180.44 10.217v114.57h-15v-104.59z"/><path d="m180.44 10.217-86.13 57.29-7.5-4.99 78.63-52.3z"/></g></g><g><g><path d="m244.598 242.542c-4.322 4.322-11.33 4.322-15.653 0l-58.033-58.033 15.653-15.653 58.033 58.033c4.322 4.323 4.322 11.331 0 15.653z" fill="#3193f3"/><circle cx="158.542" cy="156.486" fill="#5fcdff" r="66.94"/><ellipse cx="158.542" cy="156.486" fill="#ffe2e2" rx="45.953" ry="45.953" transform="matrix(.383 -.924 .924 .383 -46.704 243.076)"/><path d="m195.898 183.236c-1.435 2.015-3.062 3.939-4.865 5.742-17.918 17.918-47.065 17.918-64.983 0s-17.918-47.065 0-64.983c1.803-1.803 3.726-3.429 5.742-4.865-12.876 17.939-11.25 43.126 4.865 59.241s41.302 17.741 59.241 4.865z" fill="#ffefee"/><path d="m210.882 198.219c-1.542 1.937-3.217 3.811-5.006 5.6-26.099 26.099-68.568 26.099-94.667 0s-26.099-68.568 0-94.667c1.789-1.789 3.663-3.465 5.6-5.006-20.973 26.248-19.304 64.757 5.006 89.067s62.819 25.979 89.067 5.006z" fill="#73d7f9"/></g></g></g><g fill="#5f266d"><path d="m63.822 103.231h-15c-2.209 0-4 1.791-4 4s1.791 4 4 4h15c2.209 0 4-1.791 4-4s-1.791-4-4-4z"/><path d="m82.737 103.231h-3.915c-2.209 0-4 1.791-4 4s1.791 4 4 4h3.915c2.209 0 4-1.791 4-4s-1.791-4-4-4z"/><path d="m193.868 121.169c-19.478-19.479-51.168-19.478-70.645 0-31.581 31.581-8.795 85.254 35.322 85.254 44.694 0 66.431-54.147 35.323-85.254zm-35.323 77.254c-11.22 0-21.755-4.356-29.665-12.267-16.357-16.357-16.357-42.974 0-59.331 16.354-16.354 42.971-16.36 59.331 0 26.034 26.034 8.045 71.598-29.666 71.598z"/><path d="m247.429 224.063-29.21-29.21c23.719-36.791 8.682-87.811-33.772-104.405v-80.197c0-.006 0-.012 0-.018v-.015c0-2.214-1.833-3.991-3.991-3.999-.003 0-.006-.001-.009-.001h-172.289c-2.285.004-4.001 1.9-4.001 4v114.58c0 2.209 1.791 4 4 4h85.064c-3.656 8.641-5.584 18.014-5.584 27.692 0 56.811 62.865 89.507 109.265 59.668l29.215 29.215c2.938 2.938 6.797 4.407 10.656 4.407s7.718-1.469 10.656-4.407c2.846-2.845 4.414-6.628 4.415-10.652 0-4.026-1.568-7.811-4.415-10.658zm-80.221-209.844-72.904 48.485-72.903-48.485zm9.239 3.464v70.17c-5.774-1.491-11.775-2.271-17.901-2.271-.307 0-.611.019-.918.022l-25.147-38.683zm-164.29-.003 43.967 29.24-43.967 67.641zm5.487 103.119 45.141-69.448 29.303 19.488c1.341.891 3.088.893 4.431 0l29.301-19.487 22.711 34.936c-22.257 3.117-40.736 16.4-51.301 34.511zm77.993 35.692c0-56.998 68.817-83.102 107.415-44.506 24.558 24.559 24.559 64.452 0 89.012-39.689 39.687-107.415 11.191-107.415-44.506zm146.134 83.227c-2.756 2.756-7.242 2.756-9.998 0l-28.315-28.315c3.662-3 6.987-6.318 10.003-9.995l28.31 28.311c1.336 1.337 2.072 3.112 2.071 5.001.001 1.887-.735 3.662-2.071 4.998z"/><path d="m183.379 169.153h-49.667c-2.209 0-4 1.791-4 4s1.791 4 4 4h49.667c2.209 0 4-1.791 4-4s-1.791-4-4-4z"/><path d="m183.379 150.777h-49.667c-2.209 0-4 1.791-4 4s1.791 4 4 4h49.667c2.209 0 4-1.791 4-4s-1.791-4-4-4z"/><path d="m146.129 140.401h24.833c2.209 0 4-1.791 4-4s-1.791-4-4-4h-24.833c-2.209 0-4 1.791-4 4s1.791 4 4 4z"/></g></g></svg>