<svg id="Layer_1" enable-background="new 0 0 256 256" height="512" viewBox="0 0 256 256" width="512" xmlns="http://www.w3.org/2000/svg"><g><g><g><path d="m31.465 17.94h193.069v207.933h-193.069z" fill="#f46275"/></g></g><g><g><path d="m31.465 17.937h8v207.94h-8z" fill="#f43075"/></g></g><g><g><path d="m216.535 17.937h8v207.94h-8z" fill="#f48875"/></g></g><g><g><g><path d="m52.502 176.717h20.487v30.266h-20.487z" fill="#63bce7"/></g></g><g><g><path d="m82.026 169.037h20.487v37.947h-20.487z" fill="#f8af23"/></g></g><g><g><path d="m111.55 160.905h20.487v46.078h-20.487z" fill="#63bce7"/></g></g></g><g><g><g><path d="m177.493 45.121v27.513h-27.513c0 15.195 12.318 27.513 27.513 27.513s27.513-12.318 27.513-27.513c.001-15.195-12.318-27.513-27.513-27.513z" fill="#f8af23"/></g></g><g><g><path d="m177.493 45.121c-15.195 0-27.513 12.318-27.513 27.513h27.513z" fill="#63bce7"/></g></g></g><g><g><path d="m149.98 111.572h55.027v9.808h-55.027z" fill="#63bce7"/></g></g><g><g><path d="m171.204 131.572h33.803v9.808h-33.803z" fill="#f8af23"/></g></g><g><g><path d="m190.787 151.572h14.22v9.808h-14.22z" fill="#63bce7"/></g></g><g><g><g><circle cx="92.486" cy="86.099" fill="#f8af23" r="36.811"/></g></g><g><g><ellipse cx="92.486" cy="86.099" fill="#63bce7" rx="25.787" ry="25.787" transform="matrix(.957 -.29 .29 .957 -20.982 30.495)"/></g></g><g><g><g><path d="m174.37 159.367c3.969 3.969 3.969 10.403 0 14.371-3.969 3.969-10.403 3.969-14.371 0l-31.414-31.334c-3.969-3.969-3.969-10.403 0-14.371 3.969-3.969 10.403-3.969 14.371 0z" fill="#f8af23"/></g></g><g><g><path d="m171.352 175.825c-1.318.591-2.739.892-4.161.892-2.605 0-5.209-.996-7.191-2.978l-31.41-31.338c-3.974-3.964-3.974-10.398 0-14.372 1.982-1.982 4.587-2.968 7.181-2.968 1.422 0 2.854.29 4.171.882-1.1.498-2.117 1.183-3.02 2.086-3.974 3.974-3.974 10.408 0 14.372l31.41 31.338c.903.892 1.92 1.588 3.02 2.086z" fill="#f87023"/></g></g><g><g><g><path d="m224.535 16.44h-193.07c-.829 0-1.5.671-1.5 1.5v207.933c0 .829.671 1.5 1.5 1.5h193.07c.828 0 1.5-.671 1.5-1.5v-207.933c0-.828-.672-1.5-1.5-1.5zm-1.5 207.934h-190.07v-204.934h190.07z" fill="#231f20"/></g></g><g><g><path d="m202.869 236.563h-148.726c-.829 0-1.5.671-1.5 1.5s.671 1.5 1.5 1.5h148.727c.828 0 1.5-.671 1.5-1.5s-.673-1.5-1.501-1.5z" fill="#231f20"/></g></g><g><g><path d="m45.133 236.563h-8.344c-.829 0-1.5.671-1.5 1.5s.671 1.5 1.5 1.5h8.344c.829 0 1.5-.671 1.5-1.5s-.672-1.5-1.5-1.5z" fill="#231f20"/></g></g><g><g><path d="m220.428 236.563h-8.346c-.828 0-1.5.671-1.5 1.5s.672 1.5 1.5 1.5h8.346c.828 0 1.5-.671 1.5-1.5s-.672-1.5-1.5-1.5z" fill="#231f20"/></g></g><g><g><path d="m52.502 208.483h20.487c.829 0 1.5-.671 1.5-1.5v-30.266c0-.829-.671-1.5-1.5-1.5h-20.487c-.829 0-1.5.671-1.5 1.5v30.266c0 .829.671 1.5 1.5 1.5zm1.5-30.266h17.487v27.266h-17.487z" fill="#231f20"/></g></g><g><g><path d="m102.513 167.537h-20.487c-.829 0-1.5.671-1.5 1.5v37.947c0 .829.671 1.5 1.5 1.5h20.487c.829 0 1.5-.671 1.5-1.5v-37.947c0-.829-.671-1.5-1.5-1.5zm-1.5 37.946h-17.487v-34.947h17.487z" fill="#231f20"/></g></g><g><g><path d="m132.037 159.405h-20.487c-.829 0-1.5.671-1.5 1.5v46.078c0 .829.671 1.5 1.5 1.5h20.487c.828 0 1.5-.671 1.5-1.5v-46.078c0-.828-.672-1.5-1.5-1.5zm-1.5 46.078h-17.487v-43.078h17.487z" fill="#231f20"/></g></g><g><g><path d="m177.493 43.621c-15.998 0-29.014 13.016-29.014 29.014s13.016 29.014 29.014 29.014 29.014-13.016 29.014-29.014-13.016-29.014-29.014-29.014zm-1.5 3.043v24.471h-24.471c.751-13.153 11.319-23.72 24.471-24.471zm1.5 51.984c-13.841 0-25.191-10.865-25.971-24.514h25.971c.828 0 1.5-.671 1.5-1.5v-25.97c13.648.779 24.514 12.13 24.514 25.971 0 14.343-11.67 26.013-26.014 26.013z" fill="#231f20"/></g></g><g><g><path d="m204.84 205.483h-54.86c-.828 0-1.5.671-1.5 1.5s.672 1.5 1.5 1.5h54.86c.828 0 1.5-.671 1.5-1.5s-.672-1.5-1.5-1.5z" fill="#231f20"/></g></g><g><g><path d="m204.84 192.107h-54.86c-.828 0-1.5.671-1.5 1.5s.672 1.5 1.5 1.5h54.86c.828 0 1.5-.671 1.5-1.5s-.672-1.5-1.5-1.5z" fill="#231f20"/></g></g><g><g><path d="m205.007 110.072h-55.027c-.828 0-1.5.671-1.5 1.5v9.808c0 .829.672 1.5 1.5 1.5h55.027c.828 0 1.5-.671 1.5-1.5v-9.808c0-.829-.672-1.5-1.5-1.5zm-1.5 9.808h-52.027v-6.808h52.027z" fill="#231f20"/></g></g><g><g><path d="m205.007 130.072h-33.803c-.828 0-1.5.671-1.5 1.5v9.808c0 .829.672 1.5 1.5 1.5h33.803c.828 0 1.5-.671 1.5-1.5v-9.808c0-.829-.672-1.5-1.5-1.5zm-1.5 9.808h-30.803v-6.808h30.803z" fill="#231f20"/></g></g><g><g><path d="m205.007 150.072h-14.22c-.828 0-1.5.671-1.5 1.5v9.808c0 .829.672 1.5 1.5 1.5h14.22c.828 0 1.5-.671 1.5-1.5v-9.808c0-.829-.672-1.5-1.5-1.5zm-1.5 9.808h-11.22v-6.808h11.22z" fill="#231f20"/></g></g><g><g><path d="m52.502 33.298h111.234c.828 0 1.5-.671 1.5-1.5s-.672-1.5-1.5-1.5h-111.234c-.829 0-1.5.671-1.5 1.5s.671 1.5 1.5 1.5z" fill="#231f20"/></g></g><g><g><path d="m177.493 33.298h27.514c.828 0 1.5-.671 1.5-1.5s-.672-1.5-1.5-1.5h-27.514c-.828 0-1.5.671-1.5 1.5s.672 1.5 1.5 1.5z" fill="#231f20"/></g></g><g><g><path d="m92.486 58.812c-15.046 0-27.286 12.241-27.286 27.287s12.241 27.287 27.287 27.287 27.287-12.241 27.287-27.287c-.001-15.046-12.242-27.287-27.288-27.287zm0 51.574c-13.392 0-24.287-10.895-24.287-24.287s10.895-24.287 24.287-24.287 24.287 10.895 24.287 24.287-10.895 24.287-24.287 24.287z" fill="#231f20"/></g></g><g><g><path d="m130.798 86.099c0-21.125-17.187-38.311-38.312-38.311s-38.311 17.186-38.311 38.311 17.186 38.311 38.311 38.311c8.537 0 16.43-2.809 22.806-7.549l11.247 11.247c-3.523 4.57-3.202 11.169.986 15.357l31.412 31.333c2.273 2.273 5.26 3.41 8.246 3.41 2.987 0 5.974-1.137 8.247-3.41 4.546-4.547 4.546-11.946 0-16.493l-.001-.001-31.413-31.333c-4.187-4.187-10.787-4.507-15.356-.985l-11.025-11.024c8.057-7.028 13.163-17.357 13.163-28.863zm4.972 40.461c2.219 0 4.438.845 6.127 2.534l31.413 31.333c3.376 3.377 3.376 8.873 0 12.25-3.377 3.377-8.873 3.377-12.252-.001l-31.412-31.333c-3.377-3.377-3.377-8.873 0-12.25 1.688-1.689 3.905-2.533 6.124-2.533zm-78.595-40.461c0-19.471 15.84-35.311 35.311-35.311s35.312 15.84 35.312 35.311-15.841 35.311-35.312 35.311-35.311-15.84-35.311-35.311z" fill="#231f20"/></g></g></g></g><g><g><g><path d="m79.558 73.146h8.637v8.637h-8.637z" fill="#f48875"/></g></g><g><g><path d="m79.556 69.703v3.445h-3.452c1.01-1.285 2.175-2.443 3.452-3.445z" fill="#f48875"/></g></g><g><g><path d="m113.373 86.103c0 1.483-.155 2.93-.452 4.321h-7.512v8.634h-8.578v7.469c-1.398.304-2.859.459-4.349.459-1.468 0-2.901-.148-4.285-.445v-7.483h8.578v-8.634h-8.578v8.634h-8.641v-8.634h-7.505c-.296-1.391-.452-2.838-.452-4.321s.155-2.93.452-4.321h7.505v8.634h8.641v-8.634h8.578v-8.634h-8.578v-7.491c1.384-.297 2.817-.445 4.285-.445 1.49 0 2.951.155 4.349.459v7.476h8.578v8.634h-8.578v8.634h8.578v-8.634h7.512c.297 1.392.452 2.839.452 4.322z" fill="#f48875"/></g></g><g><g><path d="m108.862 73.148h-3.452v-3.445c1.284 1.002 2.449 2.16 3.452 3.445z" fill="#f48875"/></g></g><g><g><path d="m79.556 99.057v3.445c-1.278-1.002-2.443-2.16-3.452-3.445z" fill="#f48875"/></g></g><g><g><path d="m108.862 99.057c-1.01 1.285-2.167 2.443-3.452 3.445v-3.445z" fill="#f48875"/></g></g></g></g></g></svg>