<svg id="Capa_1" enable-background="new 0 0 512 512" height="512" viewBox="0 0 512 512" width="512" xmlns="http://www.w3.org/2000/svg"><g><path d="m206 56-146-16h-5c-30.327 0-55 24.673-55 55v362c0 30.327 24.673 55 55 55h302c30.327 0 55-24.673 55-55v-362c0-30.327-24.673-55-55-55h-5z" fill="#bd8472"/><path d="m357 40h-5l-146 16v456h151c30.327 0 55-24.673 55-55v-362c0-30.327-24.673-55-55-55z" fill="#a05f4b"/><path d="m60 40v312l36 68 64 32h177c8.284 0 15-6.716 15-15v-397z" fill="#f6f9f9"/><path d="m206 40v412h131c8.284 0 15-6.716 15-15v-397z" fill="#e2dff4"/><path d="m60 352v85c0 8.284 6.716 15 15 15h85z" fill="#f6f9f9"/><path d="m277 80h-142c-8.284 0-15-6.716-15-15v-50c0-8.284 6.716-15 15-15h142c8.284 0 15 6.716 15 15v50c0 8.284-6.716 15-15 15z" fill="#ffe278"/><path d="m277 0h-71v80h71c8.284 0 15-6.716 15-15v-50c0-8.284-6.716-15-15-15z" fill="#ffc178"/><path d="m277 150h-142c-8.284 0-15-6.716-15-15s6.716-15 15-15h142c8.284 0 15 6.716 15 15s-6.716 15-15 15z" fill="#0a617d"/><path d="m277 120h-71v30h71c8.284 0 15-6.716 15-15s-6.716-15-15-15z" fill="#05303d"/><path d="m270.052 210h-135.052c-8.284 0-15-6.716-15-15s6.716-15 15-15h135.052c8.284 0 15 6.716 15 15s-6.716 15-15 15z" fill="#0a617d"/><path d="m270.052 180h-64.052v30h64.052c8.284 0 15-6.716 15-15s-6.716-15-15-15z" fill="#05303d"/><path d="m247 270h-112c-8.284 0-15-6.716-15-15s6.716-15 15-15h112c8.284 0 15 6.716 15 15s-6.716 15-15 15z" fill="#0a617d"/><path d="m247 240h-41v30h41c8.284 0 15-6.716 15-15s-6.716-15-15-15z" fill="#05303d"/><path d="m270.053 330h-75.053c-8.284 0-15-6.716-15-15s6.716-15 15-15h75.053c8.284 0 15 6.716 15 15s-6.716 15-15 15z" fill="#0a617d"/><path d="m270.053 300h-64.053v30h64.053c8.284 0 15-6.716 15-15s-6.716-15-15-15z" fill="#05303d"/><path d="m160 452-100-100h85c8.284 0 15 6.716 15 15z" fill="#e2dff4"/><g><g><g><path d="m411.936 287.509-42.426 42.427 91.277 91.277c11.716 11.716 30.71 11.716 42.426 0 11.716-11.716 11.716-30.71 0-42.426z" fill="#05303d"/></g></g><g><path d="m390.722 308.723-21.212 21.212 91.277 91.277c11.715 11.715 30.71 11.716 42.425.001z" fill="#0a617d"/></g><g><path d="m336.997 360c-57.897 0-105-47.103-105-105s47.103-105 105-105 105 47.103 105 105-47.103 105-105 105z" fill="#ff405c"/></g><g><path d="m262.785 180.789c-19.013 19.013-30.789 45.263-30.789 74.211 0 57.897 47.103 105 105 105 28.948 0 55.198-11.776 74.211-30.789z" fill="#ff7d47"/></g><circle cx="336.997" cy="255" fill="#e2dff4" r="75"/><g><path d="m283.988 201.992c-13.581 13.581-21.992 32.331-21.992 53.008 0 41.355 33.645 75 75 75 20.677 0 39.427-8.411 53.008-21.992z" fill="#f6f9f9"/></g></g></g></svg>