<?xml version="1.0" standalone="no"?>
<!DOCTYPE svg PUBLIC "-//W3C//DTD SVG 20010904//EN"
 "http://www.w3.org/TR/2001/REC-SVG-20010904/DTD/svg10.dtd">
<svg version="1.0" xmlns="http://www.w3.org/2000/svg"
 width="722.000000pt" height="480.000000pt" viewBox="0 0 722.000000 480.000000"
 preserveAspectRatio="xMidYMid meet">
<metadata>
Created by potrace 1.16, written by Peter Selinger 2001-2019
</metadata>
<g transform="translate(0.000000,480.000000) scale(0.100000,-0.100000)"
fill="#000000" stroke="none">
<path d="M1205 4787 c-5 -7 -10 -27 -11 -45 -1 -19 -9 -39 -20 -48 -14 -10
-15 -14 -4 -12 11 2 14 -5 13 -26 -3 -39 -18 -53 -38 -36 -8 7 -18 10 -22 7
-3 -4 6 -12 21 -18 20 -9 23 -15 15 -25 -6 -7 -8 -17 -5 -23 3 -5 -3 -7 -14
-4 -11 3 -20 9 -20 14 0 5 -8 9 -17 9 -15 0 -14 -4 6 -19 l23 -18 -32 -37
c-30 -34 -33 -35 -47 -19 -13 16 -13 16 -3 -5 10 -20 3 -31 -67 -107 -77 -85
-115 -135 -80 -106 15 11 17 11 17 -1 0 -8 14 -35 31 -61 21 -32 35 -44 46
-40 13 5 15 1 9 -23 l-6 -29 14 25 c22 40 68 180 63 193 -3 7 -8 -1 -12 -18
-12 -52 -39 -125 -45 -125 -4 0 -15 18 -25 41 -11 23 -29 48 -42 56 l-22 15
66 74 c57 63 70 72 81 60 11 -10 11 -19 3 -34 -6 -12 -8 -23 -4 -25 10 -5 37
25 41 44 2 8 12 33 22 56 11 24 20 47 20 53 0 5 5 10 11 10 13 0 52 -87 44
-100 -3 -6 -2 -10 3 -10 6 0 13 -12 17 -27 14 -56 70 -189 97 -229 32 -47 40
-121 13 -110 -8 3 -15 1 -15 -4 0 -6 5 -10 10 -10 6 0 10 -12 11 -27 0 -17 3
-22 6 -13 7 19 23 30 43 30 11 0 12 -2 3 -8 -8 -5 -3 -12 17 -19 18 -7 32 -7
36 -2 3 5 15 9 27 9 18 0 19 -2 7 -10 -11 -7 -5 -8 20 -4 28 4 32 3 20 -6 -12
-9 -9 -10 13 -5 17 3 26 2 23 -3 -8 -13 31 -22 68 -16 24 5 28 3 16 -5 -12 -9
-8 -10 15 -5 17 4 31 8 32 9 2 1 -59 16 -135 34 -101 25 -142 39 -155 55 -15
18 -16 18 -11 2 5 -13 3 -17 -7 -14 -8 2 -16 15 -17 27 -3 17 0 21 10 16 10
-6 10 -5 2 4 -7 8 -9 25 -4 45 6 28 -2 76 -14 76 -2 0 -2 -19 1 -42 6 -48 -1
-45 -36 15 -22 36 -18 49 8 25 11 -11 12 -10 6 1 -6 11 -2 13 19 9 14 -3 26
-1 26 3 0 5 7 9 15 9 19 0 20 16 1 27 -8 4 -16 19 -19 33 -3 20 -5 19 -6 -9
-1 -30 -3 -32 -18 -20 -9 8 -14 9 -10 3 4 -7 -2 -14 -16 -18 -32 -9 -51 19
-87 132 -18 53 -40 113 -51 134 -21 42 -25 73 -7 62 7 -4 8 -3 4 4 -4 6 -4 23
0 37 l7 26 33 -32 c27 -26 34 -42 35 -73 1 -25 3 -32 6 -18 5 23 5 23 26 5 20
-18 20 -17 -1 14 -12 17 -22 44 -22 59 l0 28 45 -44 c25 -24 45 -50 45 -57 0
-7 5 -13 12 -13 7 0 35 -21 63 -47 45 -43 45 -42 -5 8 l-56 57 -13 128 c-7 71
-14 131 -17 133 -10 11 -12 -8 -4 -44 4 -22 11 -76 15 -120 l6 -80 -45 47
c-31 30 -44 51 -40 62 3 9 1 16 -6 16 -6 0 -8 5 -5 10 3 6 0 10 -7 10 -25 0
-47 37 -42 69 5 32 -3 39 -21 18z"/>
<path d="M1581 4786 c15 -11 45 -134 35 -144 -3 -3 -2 -10 4 -16 5 -7 40 -102
78 -213 76 -219 101 -307 119 -425 l6 -37 -39 5 -39 4 38 -12 c22 -7 35 -16
31 -20 -4 -5 -2 -8 5 -8 7 0 11 -6 8 -14 -3 -8 -3 -17 1 -20 6 -7 8 -14 18
-85 4 -31 2 -46 -8 -52 -10 -7 -10 -9 2 -9 11 0 15 -13 15 -52 1 -29 5 -90 9
-136 l9 -83 -24 5 c-13 3 -105 21 -204 41 -99 20 -182 38 -186 40 -10 7 -86
168 -94 200 -15 59 -14 94 1 88 8 -3 14 -9 14 -15 0 -5 5 -6 10 -3 6 3 56 -4
113 -16 82 -18 109 -28 137 -53 35 -31 35 -31 10 -2 l-25 29 30 -8 c33 -8 68
-13 130 -20 28 -3 18 1 -30 15 -38 11 -86 21 -105 23 -19 2 -42 7 -50 10 -8 3
-64 16 -125 28 -116 23 -140 33 -115 49 10 7 11 10 3 10 -8 0 -13 14 -13 34 0
28 4 35 23 38 20 3 20 4 -5 9 l-26 6 -4 -71 c-4 -89 21 -188 68 -274 19 -35
32 -67 30 -71 -3 -4 -22 -8 -43 -9 -31 0 -34 1 -18 9 16 7 14 9 -12 6 -18 -2
-29 1 -26 6 3 5 -7 7 -22 5 -24 -3 -28 -8 -30 -37 -14 -172 -38 -602 -34 -605
2 -3 92 -17 199 -32 107 -15 198 -30 202 -33 3 -3 2 -30 -2 -58 -6 -35 -4 -83
4 -140 7 -49 12 -89 11 -91 -3 -3 -56 3 -344 39 -46 5 -86 8 -89 4 -3 -3 -6
-46 -6 -97 -1 -64 3 -92 12 -95 7 -3 10 1 6 11 -5 12 -2 15 12 10 15 -6 16 -4
7 6 -9 9 -3 19 23 42 19 17 38 27 42 23 4 -4 1 -10 -5 -12 -7 -3 -13 -9 -13
-15 0 -6 9 -3 20 7 16 15 18 21 7 33 -10 13 -9 15 7 9 14 -5 17 -3 13 8 -5 11
0 14 21 11 15 -2 19 -1 10 1 -20 5 -24 23 -5 23 6 0 25 -7 40 -15 15 -8 25
-10 22 -5 -7 12 -14 12 109 0 54 -5 104 -15 112 -20 11 -10 30 -84 26 -101 -1
-4 18 -44 42 -90 23 -46 41 -90 39 -97 -3 -8 3 -11 18 -10 12 2 24 -3 27 -11
3 -10 -2 -13 -22 -9 -22 4 -26 2 -27 -18 -1 -13 -2 -30 -3 -36 -1 -8 -17 -13
-43 -13 -23 0 -41 -4 -40 -10 3 -16 -154 -19 -164 -3 -6 9 -9 5 -9 -12 -1 -24
-1 -24 -13 -5 -15 25 -47 32 -47 10 0 -17 -16 -20 -25 -5 -4 6 -13 5 -26 -3
-17 -10 -22 -9 -32 3 -7 9 -20 14 -29 12 -11 -2 -18 3 -18 11 0 7 -10 19 -23
24 -19 9 -26 8 -35 -6 -10 -13 -12 -10 -9 21 3 39 -8 52 -16 20 -3 -9 -6 3 -7
28 l-2 45 -9 -40 c-5 -22 -11 -85 -15 -140 -5 -81 -9 -95 -16 -72 -10 27 -20
31 -67 27 -24 -2 -24 -1 -18 77 4 43 10 152 13 242 6 141 5 166 -8 175 -14 10
-14 14 -1 31 14 19 15 19 8 -5 -5 -17 -4 -22 3 -15 13 12 19 81 9 91 -4 4 -7
0 -7 -8 0 -9 -7 -22 -16 -29 -15 -12 -16 -11 -9 10 5 16 4 21 -4 17 -6 -4 -11
-18 -11 -30 0 -13 -7 -29 -15 -36 -12 -10 -15 -7 -21 15 -3 14 -4 29 0 32 3 4
6 -5 6 -18 0 -17 3 -20 9 -11 9 15 -8 112 -20 112 -4 0 -11 -5 -15 -11 -4 -8
-13 -4 -24 11 l-18 24 -26 -30 c-16 -17 -26 -23 -25 -14 1 8 1 47 -1 85 -1 49
-4 64 -10 50 -8 -18 -9 -18 -9 5 0 14 6 93 13 175 8 83 12 151 11 153 -4 4
-48 -64 -135 -207 -50 -82 -60 -107 -61 -147 -2 -46 -2 -47 -8 -14 l-6 35 -19
-32 c-11 -18 -23 -30 -28 -27 -4 3 -5 -2 -2 -10 3 -9 0 -18 -8 -21 -8 -3 -15
-12 -15 -19 0 -13 -72 -136 -80 -136 -2 0 -2 4 1 8 2 4 1 14 -5 22 -6 11 -9 7
-10 -15 -1 -16 -1 -36 0 -44 2 -8 -2 -10 -10 -5 -8 4 -10 3 -5 -5 4 -6 0 -24
-10 -39 -10 -15 -25 -40 -34 -57 -9 -16 -21 -29 -27 -28 -6 1 -13 -7 -16 -17
-3 -13 -1 -18 6 -13 7 3 5 -2 -4 -13 -9 -10 -20 -29 -23 -41 -4 -13 -11 -23
-16 -23 -4 0 -10 -10 -14 -22 -5 -20 -8 -21 -17 -8 -9 12 -10 11 -6 -7 3 -12
0 -29 -7 -38 -14 -19 -6 132 20 389 14 139 14 170 3 176 -7 5 -16 7 -20 4 -4
-2 -10 0 -13 5 -4 5 7 15 24 23 28 12 30 16 30 69 0 38 -5 61 -15 69 -8 7 -15
18 -15 26 0 7 -9 16 -20 19 -11 3 -20 14 -20 23 0 13 4 12 20 -6 12 -12 24
-22 29 -22 4 0 13 -10 20 -22 9 -20 11 -14 8 35 -2 31 0 57 5 57 5 0 7 13 6
29 -2 26 -5 29 -35 28 -30 -2 -33 -5 -33 -34 0 -30 -8 -38 -33 -34 -21 3 -49
-22 -44 -40 4 -13 1 -19 -6 -16 -7 3 -11 10 -9 16 3 17 -15 13 -22 -6 -6 -14
-8 -14 -19 -1 -15 19 -55 29 -63 16 -3 -5 3 -12 15 -15 11 -3 18 -9 15 -14 -3
-5 -10 -6 -16 -3 -7 4 -8 2 -4 -5 4 -6 16 -9 25 -6 12 3 18 0 18 -10 0 -9 -12
-18 -26 -22 -23 -6 -24 -7 -6 -14 16 -6 17 -8 3 -8 -9 -1 -20 4 -23 9 -10 16
-25 12 -19 -5 4 -8 13 -15 21 -15 9 0 13 -6 9 -15 -3 -9 0 -15 10 -15 12 0 15
-6 10 -24 -6 -24 9 -47 16 -25 3 8 10 8 26 -2 24 -15 30 -31 8 -23 -8 3 -24 0
-36 -6 -15 -8 -25 -8 -34 -1 -7 6 -16 8 -19 4 -4 -3 -9 1 -13 10 -3 9 -12 13
-20 10 -10 -4 -6 -12 16 -33 37 -35 39 -53 5 -44 -18 4 -25 2 -25 -8 0 -20 37
-48 55 -42 10 4 15 0 15 -11 0 -13 6 -15 29 -10 33 7 37 4 46 -47 l7 -37 -43
-3 c-25 -2 -44 -9 -47 -17 -4 -11 3 -12 32 -7 31 6 36 4 35 -11 0 -10 -2 -13
-5 -8 -2 6 -25 9 -51 7 -27 -2 -83 1 -125 6 l-78 8 0 -1298 c0 -1267 0 -1298
19 -1298 10 0 52 6 92 14 55 11 213 16 614 22 297 4 563 8 590 9 28 1 136 5
240 9 168 6 256 12 505 31 82 7 381 41 520 60 58 8 139 17 180 20 172 12 311
28 415 45 61 11 148 24 195 31 47 6 164 27 260 45 160 32 553 101 810 144 78
13 158 17 310 16 123 -1 223 4 250 10 25 7 50 8 55 4 6 -4 17 -10 25 -13 8 -2
3 -3 -13 -1 -15 2 -39 -2 -55 -8 -15 -7 -38 -13 -52 -13 -69 -4 -77 -6 -77
-20 0 -12 12 -14 67 -9 45 5 74 3 90 -6 24 -13 23 -13 -20 -35 -28 -14 -39
-24 -29 -28 8 -3 0 -6 -18 -6 -18 -1 -43 4 -57 10 -30 14 -110 4 -130 -17 -8
-8 -19 -14 -25 -14 -5 0 -12 -4 -15 -8 -2 -4 40 -7 95 -6 54 1 99 -2 99 -7 0
-5 9 -9 20 -9 11 0 20 -5 20 -11 0 -7 28 -9 80 -7 44 2 80 6 80 11 0 4 7 7 15
7 10 0 15 -10 15 -30 0 -19 -5 -30 -14 -30 -19 0 -29 -17 -19 -33 4 -6 8 -14
8 -17 0 -3 6 -14 12 -25 12 -19 12 -19 13 -1 0 18 1 18 28 0 36 -23 43 -32 67
-76 11 -21 23 -38 28 -38 4 0 6 -4 3 -9 -7 -11 190 -12 220 -1 15 6 24 6 24 0
0 -6 20 -9 45 -8 37 1 45 4 40 17 -4 11 -1 10 15 -4 21 -19 28 -8 8 14 -11 10
-10 12 2 9 8 -2 18 -11 22 -21 10 -23 66 -23 84 0 13 17 14 17 8 0 -6 -16 33
-17 725 -17 l731 0 0 148 c0 102 -4 152 -12 160 -9 9 -9 12 0 12 8 0 12 17 12
46 0 50 4 49 -77 21 -23 -8 -39 -8 -56 0 -22 10 -24 9 -20 -8 4 -14 0 -19 -13
-19 -14 0 -15 -3 -6 -12 18 -18 14 -38 -8 -38 -12 0 -26 12 -35 30 -9 17 -12
30 -8 29 4 -1 21 -1 37 0 24 1 27 3 16 16 -10 12 -16 13 -28 3 -13 -11 -14
-11 -8 0 7 12 4 12 -14 2 -19 -10 -22 -10 -17 2 4 11 -1 14 -20 10 -18 -3 -24
-1 -19 7 4 6 2 11 -3 11 -6 0 -11 5 -11 10 0 6 30 10 70 10 39 0 70 -4 70 -9
0 -5 24 -12 54 -15 73 -10 96 5 96 59 l0 41 -60 12 c-33 7 -64 11 -69 8 -4 -3
-22 -1 -39 3 -23 7 -34 6 -42 -4 -6 -8 -21 -16 -33 -18 -13 -3 -7 -5 15 -6 21
0 38 4 41 12 4 9 8 8 16 -3 9 -12 4 -17 -27 -27 -61 -19 -75 -16 -94 23 -16
35 -16 35 9 45 13 5 49 12 79 15 30 4 54 10 54 15 0 4 21 11 48 14 47 6 106
25 99 31 -2 2 -20 -1 -41 -7 -20 -6 -45 -9 -54 -6 -9 2 9 9 40 17 50 11 58 16
58 37 0 20 -5 23 -37 23 l-38 -1 25 -15 c21 -12 22 -14 5 -12 -11 1 -38 -2
-60 -6 -29 -5 -49 -2 -72 9 -26 13 -40 14 -70 6 -21 -6 -50 -11 -65 -11 -23 0
-28 4 -28 25 0 19 6 26 28 30 15 4 44 10 64 14 20 5 49 6 65 4 21 -3 24 -2 14
6 -18 12 1 17 102 26 l67 7 0 119 0 119 -57 1 c-64 1 -62 4 10 14 l47 6 0
1569 c0 1236 -3 1569 -13 1573 -9 3 -9 7 1 20 11 12 13 41 8 119 -2 57 -5 108
-5 113 1 6 3 90 6 188 l4 177 -340 -1 c-297 0 -341 -2 -341 -15 0 -11 -6 -13
-19 -9 -24 7 -78 -24 -101 -59 l-17 -26 -11 25 c-10 21 -9 25 3 25 8 0 15 5
15 11 0 6 -9 9 -19 6 -13 -3 -18 -1 -14 9 3 8 -3 12 -16 11 -12 -1 -21 -7 -21
-14 0 -7 -4 -13 -10 -13 -5 0 -10 6 -10 13 0 7 -3 8 -8 2 -4 -5 -14 -10 -22
-10 -8 0 -17 -11 -20 -24 -3 -14 -12 -27 -19 -29 -10 -3 -12 0 -8 11 3 9 9 32
13 51 6 34 4 36 -19 36 -14 0 -33 -8 -44 -17 -10 -10 -13 -14 -6 -9 8 5 13 4
13 -2 0 -6 -28 -36 -62 -67 -49 -44 -67 -55 -85 -50 -20 5 -24 1 -29 -25 -5
-24 -12 -30 -33 -30 -30 0 -45 -9 -55 -30 -4 -9 -5 -7 -2 6 2 13 -4 28 -15 38
-27 22 -24 54 6 68 14 6 25 17 25 23 0 7 9 20 20 30 16 15 22 16 36 5 13 -11
12 -8 -3 22 -17 32 -21 35 -65 35 -26 1 -45 -3 -42 -8 3 -5 -5 -5 -18 0 -40
15 -297 14 -316 -1 -12 -10 -14 -10 -8 0 4 6 2 12 -3 12 -6 0 -11 -8 -11 -17
-1 -39 -23 -50 -82 -44 -6 0 1 15 17 31 35 37 24 39 -21 5 -18 -14 -48 -28
-66 -30 -18 -3 -27 -3 -20 1 19 9 14 18 -21 37 -27 15 -54 17 -162 15 l-130
-3 -2 -30 c-1 -16 0 -24 3 -17 9 19 34 15 27 -5 -5 -15 -3 -15 11 2 10 11 15
15 12 9 -3 -7 3 -9 19 -6 14 2 25 8 25 13 0 5 7 6 15 3 11 -5 14 -1 9 12 -5
15 -4 16 4 4 6 -8 9 -17 6 -21 -2 -4 0 -10 6 -14 9 -5 14 6 12 25 0 3 8 7 20
7 14 1 18 -3 14 -13 -3 -9 -6 -20 -6 -25 0 -5 -7 -9 -15 -9 -11 0 -15 -11 -15
-39 0 -22 6 -44 15 -51 10 -9 15 -9 15 -1 0 6 9 20 20 31 16 16 20 17 20 4 0
-8 4 -13 8 -10 4 2 9 -4 9 -16 1 -11 10 -27 21 -36 10 -10 17 -23 15 -29 -3
-7 0 -13 7 -13 6 0 9 4 6 9 -3 5 0 13 7 19 17 14 54 19 55 7 0 -5 -5 -9 -13
-7 -7 1 -16 -2 -20 -8 -3 -5 0 -7 8 -4 8 3 21 -1 28 -9 8 -8 21 -16 29 -19 11
-3 5 -10 -17 -21 -17 -9 -35 -23 -39 -29 -4 -7 -4 -10 0 -6 5 4 17 -2 29 -12
14 -13 24 -17 32 -10 7 5 15 7 18 3 4 -3 7 3 7 15 0 12 9 26 19 31 15 9 20 7
25 -12 5 -19 8 -20 16 -6 6 10 19 14 38 11 23 -3 29 -8 25 -23 -3 -10 -10 -19
-15 -19 -5 0 -3 -7 6 -15 8 -8 21 -15 29 -15 8 0 18 -7 21 -16 5 -13 9 -14 21
-4 9 8 15 8 15 2 0 -6 14 -10 30 -10 48 2 54 -14 20 -47 -34 -33 -40 -60 -11
-50 30 9 37 -44 8 -69 l-22 -19 33 8 c38 8 39 2 7 -50 -31 -51 -31 -61 0 -30
13 14 30 25 37 25 9 0 9 -3 1 -11 -16 -16 -5 -43 12 -29 22 18 58 21 51 5 -9
-23 14 -28 36 -8 21 18 21 18 15 -8 -4 -15 -1 -33 7 -45 7 -10 17 -34 21 -52
3 -18 10 -30 15 -27 5 3 10 0 12 -7 2 -6 10 -8 16 -4 15 9 16 52 2 61 -17 11
-11 35 15 59 18 17 22 25 13 34 -9 9 -7 12 11 12 12 0 20 -4 17 -9 -6 -10 16
-21 40 -21 9 0 12 5 8 13 -4 6 -3 8 1 4 5 -4 10 -15 11 -23 1 -9 0 -13 -3 -10
-7 7 -35 -43 -29 -53 3 -4 1 -13 -4 -21 -5 -9 -5 -19 2 -27 14 -17 21 -16 48
7 13 11 28 20 35 20 7 0 17 10 23 23 8 17 11 18 11 5 1 -22 -29 -58 -47 -58
-7 0 -10 -5 -6 -12 4 -7 3 -8 -4 -4 -7 4 -12 3 -12 -1 0 -5 -12 -10 -26 -11
-40 -3 -94 -32 -94 -51 -1 -17 -29 -72 -30 -57 0 11 -50 -42 -50 -53 0 -5 -18
-27 -40 -49 -26 -26 -36 -42 -28 -45 10 -3 8 -9 -5 -24 -17 -19 -17 -21 5 -36
l23 -15 -19 -33 -19 -34 21 19 c12 11 22 24 22 31 0 6 7 12 15 12 9 0 15 -9
15 -22 0 -31 28 -54 41 -34 7 11 9 9 9 -8 0 -29 10 -53 22 -53 6 0 8 15 6 34
-3 25 0 32 9 29 8 -3 18 7 24 26 11 31 29 42 29 19 0 -10 2 -10 9 0 8 14 32
13 42 -2 4 -5 10 2 14 15 7 25 18 55 41 104 12 27 24 72 26 101 1 6 13 9 27 6
l26 -4 -26 23 c-20 18 -24 29 -18 44 6 17 8 17 8 3 1 -12 9 -18 25 -18 15 0
26 7 29 18 4 16 5 16 6 -1 1 -15 4 -16 22 -7 11 7 27 9 35 6 8 -3 14 -1 14 5
0 15 -68 41 -89 34 -17 -5 -22 1 -29 38 -1 4 1 8 6 9 17 4 33 29 26 40 -4 7
-4 10 1 6 5 -5 13 2 20 15 6 12 17 21 23 20 7 -2 11 0 11 5 -4 24 3 34 21 29
11 -3 20 -1 20 4 0 4 7 6 15 3 11 -5 13 -10 5 -19 -8 -9 -4 -11 17 -9 16 2 20
1 10 -2 -9 -3 -14 -10 -11 -16 4 -6 2 -8 -4 -4 -17 10 -23 -10 -7 -24 11 -9
15 -9 15 -1 0 7 10 10 23 9 12 -2 24 2 26 7 6 16 63 37 74 26 11 -11 -7 -46
-28 -55 -8 -3 -15 -11 -15 -18 0 -9 3 -9 12 0 19 19 37 14 31 -8 -4 -15 0 -20
16 -21 11 -1 27 -2 34 -3 7 -1 11 -12 9 -29 -2 -15 1 -27 7 -27 6 0 11 5 11
12 0 6 9 1 20 -12 17 -20 22 -21 37 -9 10 8 21 19 26 26 6 9 12 9 30 0 27 -15
87 -61 134 -104 20 -18 39 -33 44 -33 4 0 11 -9 14 -20 4 -11 11 -18 16 -15
15 10 10 -2 -8 -16 -11 -10 -14 -10 -9 -1 10 17 -12 15 -30 -2 -11 -11 -11
-16 -1 -19 9 -4 9 -6 0 -6 -6 -1 -15 4 -18 9 -9 15 -52 12 -58 -4 -4 -10 1
-12 16 -9 21 4 21 4 -2 -17 l-25 -21 29 7 c24 6 27 4 22 -10 -4 -10 -3 -15 3
-11 14 9 11 -4 -10 -50 -15 -32 -18 -34 -13 -11 5 26 4 27 -15 17 -12 -6 -24
-16 -27 -21 -4 -6 -12 -8 -18 -4 -7 3 -3 -2 7 -10 11 -9 24 -16 28 -16 5 0 6
-10 3 -23 -6 -22 -3 -24 29 -22 30 1 33 -2 25 -17 -9 -16 -28 -23 -51 -19 -13
2 -9 -17 5 -22 7 -4 6 -6 -4 -6 -9 -1 -28 5 -42 12 -21 11 -24 16 -14 26 9 9
2 11 -35 9 -25 -2 -44 -6 -42 -9 9 -15 -29 -18 -50 -4 -17 11 -35 14 -65 9
-23 -4 -39 -9 -36 -12 2 -3 -3 -11 -13 -18 -12 -10 -7 -10 21 1 20 8 37 12 37
8 0 -5 4 -2 9 6 7 12 13 12 24 3 7 -7 16 -11 18 -9 2 1 -2 -3 -10 -10 -13 -12
-9 -45 6 -42 22 5 43 -14 37 -33 -4 -14 -2 -18 5 -14 6 4 11 13 11 21 0 19 17
28 26 14 4 -8 3 -9 -4 -5 -7 4 -12 3 -12 -3 0 -5 8 -14 17 -20 16 -8 15 -10
-8 -16 -42 -11 -94 -1 -91 17 3 20 -27 32 -44 17 -8 -6 -21 -9 -29 -5 -8 3
-15 1 -15 -4 0 -6 -11 -10 -25 -10 -14 0 -25 -4 -25 -10 0 -20 -19 -10 -23 13
-4 22 -4 22 -6 -1 -1 -22 -4 -24 -46 -19 -48 4 -68 -11 -57 -43 4 -13 3 -13
-10 -2 -18 14 -72 6 -62 -9 3 -5 9 -7 13 -5 4 3 8 -1 8 -9 0 -10 -5 -11 -18
-5 -9 6 -32 8 -51 5 -23 -4 -27 -3 -14 3 19 8 19 9 -2 14 -12 4 -22 2 -22 -3
0 -5 -7 -9 -16 -9 -10 0 -14 -6 -10 -15 3 -8 1 -15 -4 -15 -6 0 -10 5 -10 11
0 8 -5 8 -15 -1 -8 -7 -15 -19 -15 -26 0 -8 -7 -14 -15 -14 -13 0 -17 -6 -14
-26 0 -4 -5 -10 -12 -15 -9 -5 -5 -10 14 -14 26 -7 26 -8 11 -37 -9 -17 -11
-27 -5 -24 6 4 13 -4 17 -19 6 -24 7 -25 21 -8 12 15 14 15 10 2 -3 -9 0 -22
6 -29 9 -10 9 -11 0 -6 -16 9 -16 5 1 -29 19 -36 11 -53 -27 -58 -31 -4 -31
-4 5 -5 41 -2 38 5 58 -132 6 -41 14 -82 16 -91 3 -11 -3 -18 -16 -22 -24 -6
-17 -37 9 -37 12 0 10 -5 -9 -21 -14 -11 -18 -17 -10 -13 12 6 13 5 3 -8 -7
-8 -10 -18 -7 -21 3 -3 -8 -4 -25 -2 -19 2 -29 0 -26 -5 4 -6 16 -10 28 -10
20 0 20 0 1 -16 -17 -14 -17 -15 -1 -10 11 3 16 2 12 -4 -4 -6 -23 -7 -44 -4
-23 4 -41 2 -45 -4 -4 -6 -13 -9 -21 -5 -9 3 -15 -1 -16 -8 0 -8 -3 -6 -8 4
-6 17 -9 16 -34 -6 -20 -17 -36 -22 -57 -19 -17 2 -30 8 -30 12 0 4 -16 10
-35 12 -27 3 -36 0 -41 -14 -8 -25 -17 -22 -38 12 -9 17 -22 27 -28 24 -6 -4
-5 -10 3 -15 8 -5 9 -9 3 -9 -6 0 -17 7 -24 15 -11 14 -7 19 13 16 14 -2 7 31
-13 56 -11 14 -17 29 -15 33 3 5 -6 18 -21 29 -23 18 -31 58 -11 52 12 -3 37
26 37 43 0 13 -10 15 -58 12 -40 -3 -96 4 -186 24 -132 30 -149 36 -129 48 13
8 -62 28 -557 147 -173 41 -340 82 -370 90 -30 8 -95 24 -145 35 -49 11 -99
23 -110 26 -16 4 -17 3 -5 -5 12 -9 11 -11 -8 -11 -13 0 -21 4 -17 10 9 15
-56 28 -93 18 -38 -10 -56 -3 -47 20 5 13 3 13 -14 -2 -16 -15 -23 -16 -43 -5
-13 7 -38 12 -55 10 -18 -1 -33 1 -33 6 0 5 -17 10 -37 11 -21 1 -47 4 -58 6
-11 3 -33 5 -48 5 -19 1 -26 5 -21 13 5 8 2 9 -9 5 -9 -3 -41 -2 -69 3 -29 5
-125 23 -213 39 -88 16 -187 33 -220 36 -33 4 -68 11 -77 16 -17 9 -18 -1 -18
-160 l0 -169 48 -7 c26 -4 54 -11 62 -15 8 -4 36 -11 63 -15 l47 -7 0 71 c0
58 3 69 15 65 11 -5 15 -23 15 -73 l0 -67 178 -33 c97 -19 197 -37 222 -41 57
-10 190 -36 303 -61 49 -10 101 -19 115 -19 15 0 47 -7 72 -16 24 -8 52 -13
62 -11 10 3 18 2 18 -2 0 -4 28 -12 63 -18 34 -6 190 -36 347 -67 325 -65 654
-130 752 -147 44 -8 65 -16 60 -23 -8 -13 -3 -47 8 -61 4 -5 2 -16 -6 -23 -12
-11 -14 -10 -14 4 0 14 -2 15 -17 3 -28 -24 -152 -13 -478 40 -170 29 -533 87
-805 131 -272 43 -633 102 -801 129 -168 28 -309 51 -313 51 -3 0 -6 -32 -6
-70 l0 -70 80 41 c70 36 85 41 122 35 24 -4 59 -9 78 -12 19 -3 143 -23 275
-44 132 -22 296 -48 365 -59 69 -11 222 -36 340 -55 118 -20 314 -52 435 -72
121 -20 292 -49 380 -66 88 -16 167 -30 175 -30 8 0 25 -10 38 -21 21 -19 22
-27 16 -77 -4 -30 -7 -63 -6 -72 1 -20 -13 -24 -23 -7 -4 6 -22 8 -44 4 -23
-4 -257 21 -607 64 -876 109 -1438 181 -1452 186 -7 3 -39 -8 -70 -23 -31 -16
-83 -39 -116 -52 l-58 -23 -157 16 c-86 10 -163 18 -171 18 -8 1 -4 4 10 9 16
5 -4 7 -55 6 -44 0 -108 3 -142 7 -55 7 -62 6 -57 -8 3 -8 1 -15 -6 -15 -6 0
-9 4 -6 9 12 18 -20 32 -49 21 -15 -6 -31 -8 -36 -4 -14 8 -11 -4 7 -31 9 -14
14 -34 11 -45 -3 -12 -1 -18 5 -14 5 4 7 21 4 39 -4 19 -2 36 4 40 6 3 7 0 4
-10 -5 -11 -2 -14 12 -9 11 3 15 2 9 -3 -6 -4 -10 -22 -11 -39 0 -27 3 -30 20
-26 20 5 20 6 0 13 -15 6 -16 8 -2 8 9 1 24 -2 33 -5 13 -5 11 -10 -12 -24
-18 -11 -36 -37 -52 -76 -13 -32 -37 -71 -52 -85 -15 -15 -25 -30 -21 -35 4
-4 2 -4 -5 0 -6 3 -15 1 -18 -5 -4 -5 -13 -8 -21 -5 -8 3 -14 1 -14 -5 0 -6
-5 -7 -10 -4 -8 5 -7 11 1 21 6 8 9 17 5 21 -3 3 -6 1 -6 -5 0 -6 -9 -13 -20
-17 -11 -3 -19 -11 -17 -18 1 -6 -6 -13 -15 -15 -10 -2 -18 2 -18 8 0 6 4 9 8
6 5 -3 9 1 9 8 0 20 -23 15 -24 -6 -2 -23 -21 -48 -36 -48 -6 0 -2 7 9 15 11
8 14 15 7 15 -7 0 -13 6 -13 14 0 10 -8 13 -26 10 -16 -3 -23 -1 -19 6 4 6 -1
7 -11 3 -11 -4 -13 -8 -6 -11 18 -6 4 -22 -19 -22 -11 0 -34 7 -52 17 -29 15
-30 17 -12 24 11 4 15 8 10 8 -13 1 -17 41 -4 41 5 0 9 5 9 11 0 5 -4 7 -10 4
-5 -3 -10 1 -10 10 0 9 5 13 10 10 6 -3 10 -2 10 4 0 5 -4 13 -10 16 -5 3 -10
2 -10 -3 0 -17 -29 -21 -44 -6 -9 9 -17 10 -21 4 -4 -6 7 -16 24 -23 21 -9 27
-17 21 -26 -4 -8 -6 -20 -3 -28 7 -17 -5 -17 -23 1 -12 13 -12 16 2 24 12 7
13 11 5 17 -7 4 -19 -1 -27 -11 -14 -18 -15 -18 -5 2 6 13 6 25 1 30 -5 5 -5
15 0 23 7 12 11 12 24 2 13 -11 16 -11 16 2 0 28 -18 64 -35 71 -13 4 -16 2
-12 -9 4 -8 2 -17 -4 -20 -5 -4 -12 7 -15 24 -5 21 -11 28 -23 24 -10 -3 -8 2
6 14 l23 18 -35 2 c-33 3 -49 -11 -22 -20 6 -2 0 -6 -15 -9 -21 -4 -28 -1 -30
11 -4 37 -5 47 -11 61 -3 8 -8 29 -11 46 l-5 30 57 -8 c111 -15 402 -48 433
-48 16 0 28 -4 25 -9 -6 -9 23 -5 54 6 8 4 22 5 30 4 8 -2 12 0 8 5 -4 4 -2
14 5 23 11 14 10 14 -5 2 -10 -7 -18 -10 -18 -5 0 5 -4 3 -8 -4 -13 -19 -39
-4 -63 36 -68 115 -70 121 -36 123 19 1 20 2 3 6 -18 5 -18 6 5 19 13 7 18 13
10 14 -8 0 -11 6 -7 16 3 8 2 13 -3 9 -5 -3 -12 1 -14 7 -4 10 -6 10 -6 1 -1
-7 -5 -13 -11 -13 -16 0 -12 37 5 44 22 8 18 37 -5 43 -13 3 -20 13 -19 27 1
17 2 17 6 4 2 -10 9 -18 14 -18 6 0 7 6 3 13 -5 8 -3 8 9 -2 9 -7 14 -17 11
-22 -3 -5 8 -12 25 -15 17 -4 28 -10 25 -15 -8 -14 50 -11 65 4 11 10 12 9 7
-1 -11 -19 13 -45 30 -31 17 14 34 3 34 -20 0 -10 12 -23 26 -30 22 -10 24
-14 13 -27 -16 -20 -20 -42 -8 -50 5 -3 9 3 9 14 0 10 6 19 13 20 6 0 22 4 35
7 14 5 22 3 22 -4 0 -7 -4 -9 -10 -6 -6 4 -10 -7 -10 -24 0 -17 5 -31 10 -31
6 0 10 6 10 14 0 8 7 12 18 10 19 -5 50 32 55 65 4 27 17 39 17 17 0 -10 5
-16 11 -14 6 2 10 8 10 13 0 19 32 46 40 34 5 -8 8 -8 13 0 4 6 2 11 -4 11 -7
0 -9 8 -4 22 4 13 6 52 5 88 -2 77 14 171 32 181 15 9 62 43 122 87 24 17 46
32 49 32 14 0 4 -50 -11 -59 -17 -10 -17 -10 0 -11 11 0 17 -8 17 -25 0 -16 6
-25 16 -25 10 0 14 5 10 16 -3 8 -2 13 3 10 5 -3 12 1 15 10 3 8 2 12 -4 9
-17 -10 -11 1 15 29 26 28 50 100 39 117 -3 6 -25 10 -48 9 -74 -3 -102 0 -88
9 10 6 6 10 -15 14 -164 35 -362 77 -378 81 -11 3 -58 12 -105 21 -47 8 -96
17 -109 20 -32 6 -83 47 -128 102 -21 26 -55 65 -75 88 -21 23 -38 50 -38 59
0 15 7 16 48 10 26 -4 64 -13 86 -20 45 -16 57 -17 36 -4 -11 7 -6 10 20 11
29 0 31 2 15 9 l-20 9 20 1 20 1 -20 9 c-30 13 -38 12 -32 -4 7 -19 -25 -26
-66 -16 -17 5 -51 13 -74 19 l-41 11 -4 108 c-2 59 -3 108 -3 109 1 2 54 -9
118 -24 86 -20 117 -32 117 -43 0 -12 2 -12 8 -2 7 10 45 4 180 -28 95 -23
172 -46 172 -51 0 -4 6 -6 14 -3 20 8 96 -15 96 -29 0 -9 2 -9 8 -1 5 8 45 2
137 -21 72 -18 132 -31 134 -29 2 2 -2 6 -10 9 -21 7 -899 222 -941 230 -32 6
-38 11 -39 34 -2 23 -2 24 -6 4 -4 -22 -23 -30 -37 -16 -11 11 -36 12 -36 2 0
-5 13 -12 30 -15 16 -4 27 -10 25 -14 -3 -5 1 -11 7 -13 10 -4 10 -7 0 -15
-11 -7 -11 -10 2 -15 12 -5 16 -21 16 -70 0 -64 0 -64 -26 -59 -19 3 -25 1
-20 -7 4 -6 12 -8 18 -5 6 4 14 0 19 -7 13 -20 11 -29 -6 -29 -32 0 -50 58
-75 240 -14 105 -46 237 -85 358 -19 56 -30 102 -25 102 5 0 12 -4 15 -10 3
-5 16 -15 28 -21 12 -6 3 5 -20 25 -34 29 -47 51 -63 103 -25 81 -25 80 3 57
12 -10 9 -3 -9 16 -30 34 -60 122 -48 141 3 5 0 16 -6 24 -7 8 -10 21 -7 28 8
21 -9 42 -34 43 -19 1 -20 -1 -8 -10z m4935 -108 c-1 -7 -10 -27 -19 -45 -9
-18 -17 -41 -17 -52 0 -25 20 -38 31 -20 7 11 11 10 23 -6 14 -18 15 -18 16
-3 0 11 5 15 15 12 8 -4 15 -1 15 6 0 6 5 8 10 5 6 -4 10 6 10 24 0 16 5 33
10 36 6 3 10 1 10 -5 0 -6 10 -4 24 5 21 14 24 14 30 0 3 -9 0 -28 -7 -43 -8
-15 -12 -35 -10 -44 5 -19 33 -25 33 -7 0 5 -6 7 -12 3 -10 -6 -10 -4 0 7 6 7
12 21 12 32 0 10 5 17 13 14 6 -2 12 -13 12 -24 0 -12 3 -25 8 -29 4 -4 7 0 7
9 0 11 8 17 23 16 12 0 16 -3 10 -6 -7 -2 -13 -9 -13 -15 0 -6 6 -8 13 -5 19
7 41 -8 33 -22 -4 -6 -18 -11 -31 -11 -60 0 -95 -36 -64 -67 13 -13 -3 -48
-33 -74 -10 -9 -18 -21 -18 -27 0 -6 -8 -16 -17 -21 -15 -9 -11 -11 19 -9 20
1 36 7 35 12 -1 6 4 10 11 9 6 -2 12 1 12 7 0 5 10 8 23 6 15 -2 23 -11 25
-30 2 -14 7 -24 12 -21 12 8 -1 -39 -14 -47 -12 -8 -58 30 -51 42 2 4 -11 7
-29 8 -22 1 -36 -4 -40 -14 -3 -8 -10 -12 -16 -9 -6 4 -8 10 -5 15 3 4 0 10
-7 12 -19 7 -18 38 1 38 10 0 25 8 34 18 15 17 14 18 -13 20 -16 1 -32 -3 -36
-9 -4 -8 -3 -9 4 -5 7 4 12 3 12 -1 0 -12 -31 -30 -68 -38 -24 -5 -33 -3 -38
9 -8 22 -28 20 -77 -7 -53 -30 -100 -40 -93 -21 3 8 1 14 -4 14 -5 0 -10 -7
-12 -16 -2 -9 -14 -18 -28 -20 -14 -1 -32 -4 -40 -6 -10 -2 -14 3 -12 15 2 11
-5 26 -15 34 -10 8 -13 12 -8 10 6 -3 15 1 22 8 10 10 9 14 -2 19 -16 6 -21
36 -7 36 5 0 14 11 20 25 7 15 8 25 2 25 -6 0 -10 -7 -10 -15 0 -8 -4 -15 -10
-15 -16 0 -12 15 11 44 11 14 16 26 10 26 -6 0 -8 6 -5 14 3 8 0 17 -5 21 -15
9 -3 27 12 19 8 -5 8 -3 0 7 -13 13 -19 38 -6 26 3 -4 12 -2 20 5 17 14 29 3
15 -15 -6 -7 -8 -18 -4 -24 10 -16 36 1 30 18 -3 8 -1 23 5 34 9 17 8 18 -5 7
-9 -7 -19 -9 -22 -4 -3 4 7 16 22 24 l27 16 -3 -47 c-3 -37 0 -48 11 -48 11 0
13 7 7 29 -6 18 -5 28 2 28 6 0 8 9 5 20 -7 27 2 25 38 -6 27 -23 30 -24 34
-7 5 29 33 55 54 49 13 -3 17 0 13 9 -3 8 0 16 7 19 7 2 13 5 14 5 1 1 0 -5
-1 -11z m84 -403 c15 9 23 -15 10 -30 -13 -15 -1 -20 42 -16 9 1 20 -3 24 -10
4 -7 3 -9 -4 -5 -6 3 -13 2 -16 -3 -3 -5 0 -11 8 -14 15 -6 50 26 40 36 -5 5
21 2 36 -3 3 -1 8 -2 13 -1 4 0 7 -8 7 -19 0 -11 5 -20 10 -20 6 0 10 10 10
23 1 21 1 21 15 4 9 -13 20 -17 34 -12 17 5 20 3 14 -11 -4 -12 -3 -15 5 -10
7 4 12 15 12 24 1 15 2 15 11 -2 9 -15 13 -16 20 -5 7 11 13 9 28 -10 23 -30
17 -49 -18 -58 -14 -3 -29 -10 -32 -15 -3 -5 -22 -10 -42 -11 -19 -1 -35 -4
-35 -7 1 -19 -3 -30 -13 -30 -5 0 -7 4 -4 10 4 6 -1 7 -11 3 -17 -6 -17 -5 -1
17 25 35 21 47 -6 19 -13 -13 -22 -28 -19 -32 2 -4 -7 -5 -21 -2 -25 7 -46 -8
-27 -20 6 -4 7 -13 1 -23 -6 -11 -4 -21 5 -30 14 -13 20 -4 15 22 -1 5 8 6 19
3 16 -4 19 -2 11 7 -11 13 -5 26 11 26 5 0 6 -4 3 -10 -10 -17 27 -11 48 8 11
9 17 11 13 4 -12 -20 4 -52 26 -52 15 0 18 4 13 18 -5 13 -3 14 5 6 9 -9 8
-17 -2 -33 -14 -23 -28 -28 -28 -10 0 8 -5 8 -15 -1 -8 -7 -12 -16 -9 -21 3
-5 0 -9 -6 -9 -7 0 -10 -7 -6 -15 3 -9 0 -15 -10 -15 -12 0 -12 -3 -2 -14 11
-11 17 -11 38 2 14 9 22 12 17 7 -9 -10 21 -45 39 -45 7 0 23 10 35 23 12 12
19 17 16 11 -4 -7 0 -14 8 -18 10 -3 15 1 16 12 0 11 2 13 6 4 3 -8 0 -33 -7
-57 -9 -33 -18 -44 -37 -48 -15 -3 -27 1 -30 9 -3 8 -9 12 -13 9 -4 -3 -22 11
-39 30 -17 19 -34 35 -38 35 -26 1 -64 31 -105 83 -53 67 -58 83 -28 92 11 3
20 15 20 25 0 14 7 18 29 18 31 -1 51 8 51 23 0 8 -56 4 -87 -6 -7 -2 -13 0
-13 5 0 17 -23 11 -48 -12 l-24 -23 -16 24 c-18 26 -25 54 -12 46 11 -7 34 34
26 43 -4 3 -11 1 -17 -5 -6 -6 -18 -9 -25 -6 -8 3 -14 0 -14 -7 0 -7 -9 -1
-20 13 -21 26 -21 26 -2 45 26 26 43 31 65 20 9 -5 22 -6 27 -3z m-4781 -1426
c68 -11 130 -18 138 -14 11 3 13 1 9 -10 -3 -8 0 -15 7 -15 8 0 6 -4 -3 -10
-9 -6 -10 -10 -3 -10 6 0 11 -9 10 -21 -1 -20 -2 -20 -21 3 -13 15 -17 17 -13
6 4 -10 3 -18 -2 -18 -5 0 -11 -9 -14 -20 -3 -11 -1 -20 5 -20 5 0 6 -4 3 -10
-3 -5 -1 -10 4 -10 6 0 11 5 11 12 0 6 3 8 7 5 3 -4 11 1 18 10 7 9 17 13 25
8 10 -6 9 -10 -1 -17 -11 -8 -10 -9 3 -5 20 7 33 -33 15 -48 -7 -6 -11 -9 -10
-6 2 2 -5 10 -15 18 -9 8 -11 11 -3 7 10 -5 12 -3 6 5 -4 8 -18 11 -35 8 -15
-3 -32 -1 -38 5 -9 9 -10 6 -7 -10 2 -12 -1 -21 -7 -19 -6 1 -13 -4 -16 -12
-2 -8 0 -11 6 -7 6 3 12 0 15 -6 3 -8 9 -3 15 12 6 14 11 19 11 11 1 -11 4
-11 16 -1 18 15 19 7 4 -21 -5 -11 -15 -16 -21 -13 -7 4 -8 2 -4 -5 6 -9 11
-9 22 0 11 9 14 8 14 -2 0 -22 -67 -62 -109 -65 -42 -3 -169 11 -178 19 -7 8
-31 176 -27 196 1 9 6 33 9 54 3 20 11 37 18 37 7 0 68 -9 136 -21z m312 -93
c1 -17 6 -39 15 -60 5 -14 4 -17 -4 -12 -7 4 -12 5 -12 1 0 -9 58 -117 76
-142 20 -28 26 -28 -151 -8 -71 8 -139 15 -150 15 -15 1 -13 4 10 14 17 7 59
41 93 75 45 44 71 62 92 64 26 2 28 5 23 27 -3 14 -10 31 -16 38 -7 9 -6 11 7
6 9 -3 16 -11 17 -18z m1463 -296 c209 -28 382 -53 384 -54 2 -2 -76 -30 -172
-62 -97 -32 -176 -61 -176 -65 0 -16 64 -29 256 -48 115 -12 223 -26 239 -30
l30 -9 -28 -1 c-16 -1 -26 -5 -22 -10 3 -5 -21 -15 -52 -21 -32 -6 -78 -18
-102 -26 -25 -9 -48 -11 -53 -6 -7 7 -217 5 -225 -2 -1 -1 2 -81 7 -177 6 -95
11 -199 12 -229 3 -49 6 -55 26 -58 14 -2 20 -8 16 -15 -5 -9 -4 -9 6 0 18 16
59 -4 57 -28 -1 -11 -4 -19 -8 -19 -4 0 -10 -10 -13 -22 -6 -18 -9 -20 -14 -8
-4 8 -17 16 -28 17 -22 2 -23 -1 -26 -112 -1 -11 3 -82 7 -159 6 -113 5 -140
-6 -147 -21 -13 -35 -11 -21 3 19 19 14 26 -13 23 -14 -1 -24 0 -21 2 2 2 -4
28 -15 58 -10 29 -18 73 -17 97 1 24 -6 79 -15 123 -9 44 -18 91 -20 105 -4
20 -5 19 -6 -7 0 -18 -5 -33 -11 -33 -5 0 -11 15 -11 33 -2 31 -2 31 -9 -8 -4
-22 -8 -35 -9 -28 -1 14 -29 6 -49 -13 -10 -10 -7 -13 10 -17 16 -3 13 -5 -10
-6 -21 0 -31 -5 -27 -12 5 -7 -4 -9 -27 -5 -104 16 -122 16 -130 4 -8 -10 -11
-10 -15 0 -2 6 -20 12 -40 12 -35 0 -62 18 -64 42 0 7 -4 4 -9 -7 -7 -17 -9
-17 -9 -2 -1 13 -10 8 -40 -22 -25 -25 -48 -38 -65 -38 -14 0 -23 4 -20 9 3 5
12 7 20 4 9 -3 11 0 7 11 -5 12 -1 14 14 9 13 -4 25 0 34 11 11 15 11 16 -1 6
-19 -18 -27 -16 -33 7 -3 11 -1 17 4 14 5 -3 12 2 16 12 6 16 7 15 20 -2 12
-17 13 -17 13 3 0 12 -5 25 -11 28 -6 5 -4 11 7 19 9 7 14 18 10 24 -4 7 -3
12 3 12 5 0 8 8 6 19 -3 18 5 18 173 15 97 -2 194 -6 216 -10 l39 -6 -7 93
c-3 52 -9 160 -12 241 -8 166 -2 157 -99 159 -27 0 -70 4 -95 7 l-45 7 113 34
c90 27 112 38 112 53 0 10 5 18 12 18 6 0 9 2 7 5 -7 6 -344 43 -454 49 -49 3
-81 3 -70 0 20 -4 463 -54 487 -54 25 -1 -18 -19 -143 -60 l-124 -42 -111 11
c-60 6 -114 11 -120 11 -5 0 -8 -42 -6 -102 4 -110 -3 -162 -18 -138 -7 12
-10 12 -16 -3 -3 -9 -12 -17 -19 -17 -8 0 -13 20 -14 63 0 34 -3 137 -6 230
-5 154 -4 168 12 174 10 3 26 12 35 20 14 12 193 92 208 93 2 0 175 -23 384
-50z m746 -95 c161 -19 299 -35 308 -35 41 0 -17 -21 -184 -68 l-181 -51 -164
15 c-251 22 -442 43 -446 48 -4 4 343 121 368 125 4 1 138 -15 299 -34z
m-1480 -91 l0 -65 -77 2 -78 2 0 -61 c0 -57 -1 -61 -20 -55 -11 4 -28 7 -37 7
-17 0 -27 16 -10 16 4 0 9 24 10 54 1 44 7 59 32 86 36 38 112 78 153 79 27 1
27 0 27 -65z m2250 -6 l115 -14 -180 -44 c-99 -24 -182 -45 -183 -46 -2 -1 2
-29 8 -61 7 -32 14 -101 16 -153 9 -265 12 -318 19 -339 5 -16 4 -21 -4 -17
-6 4 -11 1 -11 -8 0 -8 6 -17 13 -19 6 -3 -1 -6 -18 -6 -23 -1 -26 2 -15 9 12
7 12 10 1 10 -8 0 -11 6 -7 16 3 8 2 13 -3 10 -5 -3 -9 4 -9 17 1 35 -11 135
-27 227 -23 136 -30 263 -15 289 6 13 10 24 8 26 -2 1 -88 8 -193 14 -104 7
-215 16 -245 19 l-55 7 75 22 c41 13 131 38 199 56 l123 33 137 -17 c75 -10
188 -24 251 -31z m303 -39 c92 -12 97 -14 73 -26 -14 -8 -26 -18 -26 -23 0 -6
-12 -10 -27 -9 -25 0 -25 1 -8 8 12 5 -8 6 -46 4 -62 -5 -67 -4 -74 16 -7 24
-25 28 -25 6 0 -8 -6 -15 -14 -15 -8 0 -16 -4 -18 -9 -1 -4 -14 -12 -27 -16
-16 -5 -21 -4 -17 4 4 6 3 11 -3 11 -5 0 -13 -5 -16 -10 -4 -6 -16 -8 -27 -4
-12 4 -18 2 -14 -4 9 -14 -67 -21 -116 -10 -23 5 -51 7 -60 5 -10 -3 -18 -2
-18 2 0 11 313 90 340 85 14 -2 69 -9 123 -15z m-963 -53 c63 -8 109 -14 102
-15 -7 0 -10 -5 -7 -11 3 -5 1 -10 -5 -10 -6 0 -8 -4 -5 -10 3 -5 -1 -10 -9
-10 -9 0 -16 9 -16 20 0 11 -4 20 -10 20 -5 0 -7 -7 -4 -15 4 -8 1 -15 -6 -15
-6 0 -9 -4 -6 -9 3 -5 -1 -11 -9 -15 -10 -3 -17 5 -24 27 -5 18 -10 24 -10 15
-2 -34 -50 -58 -115 -58 -81 0 -316 22 -316 30 0 10 242 68 285 68 22 1 92 -5
155 -12z m-2478 -1376 c21 0 37 -4 34 -9 -3 -5 2 -8 11 -7 13 1 19 -9 24 -39
3 -22 10 -48 14 -58 5 -13 3 -17 -6 -15 -8 2 -17 11 -21 21 -4 9 -19 22 -33
27 -14 5 -25 14 -25 20 0 11 -33 14 -43 4 -3 -4 -2 -15 4 -25 7 -15 6 -17 -5
-13 -18 7 -30 38 -17 42 27 9 7 24 -28 20 -22 -2 -43 2 -50 9 -9 10 -17 10
-31 3 -11 -6 -20 -7 -20 -2 0 14 38 45 47 39 5 -3 15 -2 23 3 8 5 27 3 48 -6
19 -8 52 -14 74 -14z m420 16 c20 -1 34 -5 31 -9 -5 -9 41 -2 58 9 14 8 29
-14 29 -44 0 -19 5 -22 33 -21 17 1 42 -1 55 -5 15 -5 22 -4 20 4 -2 7 8 14
22 16 13 3 27 9 30 14 7 11 50 9 50 -2 0 -4 9 -8 21 -8 27 0 47 -20 43 -45 -2
-11 1 -24 6 -30 10 -12 -3 -38 -16 -33 -5 1 -9 -12 -10 -29 0 -18 -3 -36 -7
-39 -4 -4 -2 -13 4 -21 6 -7 9 -13 5 -13 -3 0 -1 -11 4 -25 6 -15 6 -26 0 -30
-6 -4 -10 0 -11 7 0 7 -4 4 -9 -7 -5 -11 -9 -14 -9 -7 -1 7 -5 10 -11 7 -9 -6
-15 8 -11 29 1 5 -5 6 -14 2 -9 -3 -13 -2 -10 4 3 6 1 10 -4 10 -6 0 -11 5
-11 11 0 6 7 9 15 5 10 -3 15 1 16 12 0 10 3 12 6 4 9 -22 23 -2 23 34 0 21
-4 33 -10 29 -6 -4 -8 -11 -5 -16 3 -5 -1 -6 -9 -3 -24 9 -19 31 9 38 14 4 23
11 20 16 -9 14 -42 12 -48 -2 -3 -7 -6 -3 -6 9 -1 16 3 21 14 17 11 -5 13 -2
9 11 -4 10 -14 15 -24 12 -9 -2 -25 0 -34 5 -16 9 -16 7 -6 -11 11 -22 6 -41
-12 -41 -5 0 -7 7 -4 15 3 10 -1 18 -12 22 -9 4 -20 11 -24 17 -4 6 -11 6 -20
0 -15 -11 -23 -11 -55 0 -13 4 -23 14 -23 22 0 8 -4 14 -9 14 -5 0 -11 8 -13
18 -3 13 -9 9 -27 -18 -13 -19 -21 -27 -17 -17 5 16 -4 21 -41 20 -7 0 -11 4
-10 9 1 6 -5 13 -13 16 -11 4 -11 0 3 -21 15 -23 15 -27 2 -27 -8 0 -15 5 -15
11 0 12 -15 28 -50 52 l-25 18 35 -7 c19 -5 51 -8 72 -8z m2445 -251 c-31 -28
-56 -32 -76 -12 -11 10 -12 9 -6 -3 8 -13 6 -13 -7 -2 -11 9 -18 10 -23 2 -3
-5 0 -10 7 -10 9 -1 9 -3 -2 -9 -28 -17 -264 -45 -268 -32 -5 15 -32 14 -66
-4 -15 -8 -34 -15 -41 -15 -7 0 -15 -4 -17 -10 -1 -5 -19 -12 -38 -16 -23 -4
-31 -3 -22 4 11 7 9 10 -8 15 -15 4 -20 2 -17 -7 3 -7 0 -13 -6 -14 -7 0 -38
-7 -69 -15 -35 -9 -58 -10 -58 -5 0 6 -6 8 -14 5 -7 -3 -18 -1 -24 5 -7 7 -10
5 -9 -8 2 -14 -12 -20 -78 -31 -71 -12 -81 -12 -91 2 -14 19 -25 20 -18 1 4
-10 -13 -18 -65 -30 -88 -20 -96 -20 -117 2 -17 16 -17 16 -12 -5 5 -20 1 -22
-51 -29 -31 -3 -76 -10 -101 -14 -36 -7 -47 -5 -57 8 -12 16 -13 16 -7 0 6
-17 3 -19 -119 -39 -37 -6 -73 -9 -81 -6 -7 3 -18 1 -23 -4 -19 -19 -222 -32
-242 -16 -12 9 -13 9 -7 0 5 -9 -9 -12 -55 -12 -34 1 -64 -3 -68 -8 -3 -5 -22
-8 -41 -8 -42 1 -60 -4 -60 -17 0 -6 7 -8 15 -4 8 3 15 1 15 -4 0 -18 -29 -10
-40 10 -11 21 -44 27 -55 11 -3 -5 4 -16 15 -24 20 -14 20 -15 -16 -19 -46 -5
-84 1 -84 14 0 5 4 7 8 4 4 -2 14 -1 22 5 10 6 -4 7 -40 4 -114 -10 -156 -18
-172 -32 -9 -8 -25 -13 -35 -10 -14 4 -14 5 5 6 28 1 30 21 2 21 -12 0 -24
-10 -30 -22 -7 -20 -9 -20 -9 -4 -1 17 -6 18 -48 11 -27 -4 -70 -8 -98 -9
-146 -8 -215 -19 -225 -35 -8 -14 -9 -14 -10 2 0 13 -5 17 -17 13 -10 -2 -83
-8 -163 -11 -80 -4 -150 -12 -157 -17 -7 -5 -18 -6 -27 -1 -8 4 -59 5 -113 1
-54 -3 -113 -4 -130 -2 -21 3 -33 1 -33 -6 0 -6 -5 -8 -10 -5 -6 3 -13 0 -16
-9 -3 -8 -12 -17 -19 -20 -9 -3 -12 0 -9 9 5 11 -56 14 -378 13 -211 0 -426 0
-478 1 l-95 2 43 14 c23 7 50 19 58 26 17 14 197 35 374 44 63 3 156 10 207
15 105 11 142 11 98 0 -27 -7 -28 -8 -5 -8 14 -1 59 3 100 8 112 14 474 47
650 60 202 14 315 25 605 61 132 16 337 40 455 54 239 27 380 46 580 76 250
37 283 41 314 35 17 -3 102 5 189 19 86 13 188 27 225 30 37 4 78 8 92 11 20
4 22 2 10 -6 -11 -9 7 -10 70 -5 47 4 139 9 205 11 96 3 186 11 235 22 3 1 -8
-10 -23 -23z m1583 -4 c0 -5 -6 -12 -12 -14 -7 -3 -4 -6 7 -6 17 -1 17 -3 5
-11 -8 -5 -26 -10 -40 -11 -14 0 -19 -3 -12 -6 46 -18 -32 -39 -95 -25 -44 10
-54 0 -23 -25 12 -10 3 -12 -47 -13 -36 0 -63 4 -63 10 0 6 -7 10 -16 10 -8 0
-12 5 -9 10 3 6 -1 10 -9 10 -9 0 -13 -6 -10 -14 9 -24 -55 -30 -117 -12 -30
8 -76 19 -104 22 l-50 8 65 8 c36 5 75 7 87 5 12 -2 20 0 17 4 -3 5 9 9 26 9
18 0 29 -4 25 -10 -8 -12 8 -13 21 -1 12 12 138 49 184 54 71 8 170 7 170 -2z
m354 -154 c-14 -17 -23 -36 -20 -44 4 -8 6 -27 7 -41 l1 -27 10 30 c6 17 17
39 24 49 24 36 27 -8 4 -54 -12 -23 -17 -39 -11 -35 6 3 11 2 11 -4 0 -10 -17
-23 -35 -28 -33 -8 -50 -7 -47 5 1 6 -2 12 -8 12 -5 0 -10 -4 -10 -9 0 -15
-33 -22 -44 -10 -8 9 -8 10 1 5 6 -3 15 -1 19 5 4 7 3 9 -4 5 -11 -6 -52 30
-52 46 0 11 -23 6 -35 -8 -16 -18 -65 -26 -81 -13 -7 6 -24 9 -37 5 -19 -4
-23 -12 -22 -36 1 -16 -2 -30 -7 -30 -13 0 -9 -28 5 -33 6 -2 -7 -3 -30 -3
-24 0 -43 3 -43 6 0 3 15 12 33 20 23 11 27 15 15 18 -21 4 -21 3 -9 35 8 20
6 27 -6 31 -8 4 -22 1 -31 -6 -13 -12 -14 -11 -2 9 8 12 25 25 38 28 19 5 22
8 12 20 -16 20 -45 19 -75 -1 -16 -11 -25 -12 -25 -5 0 8 -5 9 -19 1 -22 -11
-54 -3 -45 11 3 5 11 9 17 8 7 -1 25 3 40 9 16 7 43 12 60 12 18 0 62 3 100 7
57 5 65 8 55 20 -9 11 -9 17 3 24 19 12 189 10 189 -3 0 -6 10 -4 22 4 17 11
27 12 40 5 15 -10 14 -13 -8 -40z m-1319 -62 c-5 -2 -36 -11 -67 -19 -42 -12
-56 -20 -52 -31 4 -10 -1 -13 -20 -9 -20 3 -26 0 -25 -13 0 -13 2 -14 6 -4 5
11 7 11 14 0 7 -11 9 -11 9 -1 0 7 5 10 11 6 6 -3 14 -1 18 5 4 6 26 12 48 14
23 1 39 5 36 10 -2 4 7 7 21 7 19 0 26 -5 26 -19 0 -25 -20 -38 -31 -20 -7 11
-9 10 -9 -5 0 -13 -5 -16 -16 -12 -14 5 -15 4 -4 -9 16 -19 6 -19 -23 -1 -22
15 -43 16 -64 3 -6 -4 -19 -4 -29 0 -13 5 -16 3 -11 -10 3 -9 4 -17 1 -17 -2
0 -9 11 -14 25 -5 14 -15 25 -22 24 -10 0 -10 -2 0 -6 6 -2 10 -9 7 -13 -3 -5
-12 -7 -20 -4 -8 4 -12 10 -9 15 3 5 -2 6 -10 3 -19 -7 -21 7 -3 26 6 8 2 6
-10 -3 -21 -18 -41 -9 -28 13 10 15 55 12 61 -5 4 -8 13 -15 22 -15 8 0 12 3
9 7 -4 3 1 12 11 20 16 12 15 13 -3 7 -14 -5 -17 -4 -10 4 13 14 76 27 140 29
27 1 46 0 40 -2z"/>
<path d="M5460 4210 c0 -5 -7 -10 -15 -10 -8 0 -22 -9 -32 -19 -10 -11 -30
-22 -45 -26 -15 -4 -33 -14 -40 -23 -10 -14 -10 -15 2 -4 26 23 34 12 9 -14
l-24 -26 35 7 c19 4 37 11 40 14 3 4 16 7 30 8 14 1 19 -1 13 -4 -7 -3 -13
-11 -13 -19 0 -8 -6 -14 -12 -14 -8 -1 -6 -6 5 -14 11 -9 14 -16 7 -19 -6 -3
-5 -4 2 -3 7 2 13 15 13 29 -1 25 0 26 16 8 16 -17 16 -23 4 -65 -8 -26 -10
-46 -5 -46 6 0 10 -6 10 -14 0 -15 -21 -26 -51 -26 -10 0 -19 -6 -19 -13 0 -8
-18 -19 -40 -26 -21 -6 -42 -15 -45 -20 -3 -5 15 -3 40 5 25 7 45 9 45 5 0 -5
-7 -12 -16 -15 -8 -3 -12 -10 -9 -16 4 -6 12 -7 18 -3 19 12 49 11 37 -1 -5
-5 -10 -14 -10 -19 0 -5 8 -1 17 9 12 12 18 13 21 4 2 -6 -18 -35 -45 -64 -35
-37 -48 -57 -45 -73 5 -33 21 -28 29 7 6 31 18 39 26 18 3 -7 8 2 12 20 7 28
25 46 25 24 0 -5 7 -9 16 -9 10 0 14 7 11 19 -3 10 -1 18 4 18 5 0 14 12 20
28 10 25 12 26 19 7 8 -18 9 -18 9 4 1 23 2 24 21 6 21 -19 26 -14 33 30 1 11
6 25 10 32 11 17 -34 27 -86 19 -23 -4 -48 -8 -54 -8 -7 -1 -13 -5 -13 -10 0
-5 -5 -6 -11 -2 -8 4 -3 12 13 20 14 7 28 22 31 34 3 11 1 18 -4 14 -12 -7
-11 13 2 37 6 11 11 34 11 50 1 24 6 31 27 35 18 4 32 18 44 45 10 21 23 37
28 33 5 -3 9 0 9 5 0 14 -17 14 -25 1 -9 -14 -28 -1 -21 15 2 7 -5 16 -17 19
-34 9 -67 7 -67 -4z"/>
<path d="M987 4058 c-7 -54 1 -124 20 -160 12 -24 12 -28 -1 -28 -10 0 -13 -6
-10 -15 7 -18 -8 -19 -39 -4 -21 10 -21 9 1 -8 l23 -19 -90 -186 c-64 -130
-91 -197 -91 -223 0 -20 -7 -97 -16 -171 -8 -74 -14 -143 -12 -152 2 -10 32
35 72 108 38 69 80 142 92 162 18 28 26 61 34 143 8 93 15 117 51 190 34 70
44 84 62 81 11 -1 23 -9 25 -17 2 -10 1 -10 -5 -2 -4 6 -8 -14 -8 -49 0 -54 1
-57 14 -38 13 20 15 19 63 -32 l50 -53 -42 50 c-48 57 -75 105 -60 105 5 0 10
-6 10 -12 1 -7 9 3 20 22 12 22 19 55 20 90 0 53 0 54 -16 31 -14 -19 -22 -22
-58 -17 -22 3 -44 5 -48 5 -3 1 -16 18 -28 39 -19 30 -23 52 -23 120 0 45 -1
82 -2 82 -1 0 -5 -19 -8 -42z"/>
<path d="M1086 3426 l-55 -94 -8 -115 c-5 -63 -5 -113 -1 -111 5 3 8 -11 8
-30 0 -20 4 -36 9 -36 14 0 34 -88 40 -172 2 -21 3 -22 15 -6 7 10 17 14 21
10 5 -4 5 -2 2 4 -3 6 3 18 14 27 10 9 19 24 19 33 0 13 -7 10 -26 -12 l-26
-29 6 50 c3 28 13 160 21 295 9 135 17 253 19 263 2 9 3 17 1 17 -1 0 -28 -42
-59 -94z"/>
<path d="M703 3252 c-221 -456 -208 -423 -223 -562 -15 -153 -15 -148 -22
-155 -3 -4 -3 -15 -1 -26 5 -19 6 -19 19 3 7 13 18 33 24 46 43 97 64 132 72
120 5 -8 6 -2 2 15 -4 17 -2 27 5 27 6 0 11 5 11 10 0 21 107 200 115 193 4
-5 5 -2 1 4 -4 7 4 34 19 60 22 41 28 74 44 238 10 105 18 191 17 192 -2 2
-39 -73 -83 -165z"/>
<path d="M2 3229 c0 -82 1 -92 19 -96 20 -6 27 -33 8 -33 -5 0 -8 4 -5 9 3 5
-1 11 -9 15 -13 5 -15 -21 -15 -191 0 -162 2 -194 13 -184 8 6 17 8 20 4 4 -3
7 -1 7 5 0 7 -7 12 -15 12 -8 0 -15 5 -15 10 0 6 7 10 16 10 8 0 12 5 9 10 -8
13 14 42 25 35 5 -3 6 -15 3 -28 -5 -21 -5 -21 10 -2 15 19 13 45 -4 45 -5 0
-9 5 -9 11 0 5 5 7 10 4 6 -3 10 3 10 14 0 12 5 21 10 21 6 0 10 7 10 15 0 8
9 15 21 15 11 0 17 4 14 10 -4 6 -18 5 -40 -4 -29 -13 -33 -13 -28 0 3 8 10
14 17 14 6 0 -3 7 -21 16 -29 15 -30 17 -15 33 10 10 19 17 22 15 3 -1 5 20 5
47 0 32 -5 53 -14 58 -12 8 -12 12 2 25 8 9 21 16 27 16 7 0 9 7 6 16 -3 9 -6
27 -6 40 0 28 -17 32 -28 7 -4 -10 -13 -19 -20 -21 -9 -1 -11 10 -6 45 3 26 8
51 11 56 3 6 1 7 -5 3 -6 -3 -13 -2 -17 4 -16 26 -22 3 -23 -81z"/>
<path d="M2700 2820 l0 -97 68 -7 c78 -8 102 -2 102 26 0 12 -4 17 -12 12 -8
-5 -9 -2 -5 9 4 10 2 28 -3 42 -5 14 -6 25 -1 25 4 0 6 13 3 30 -4 25 -10 30
-41 36 -20 3 -53 10 -73 14 l-38 8 0 -98z"/>
<path d="M5086 233 c-3 -4 -14 -8 -24 -10 -65 -10 -84 -18 -97 -36 -9 -13 -15
-16 -15 -8 0 11 -3 11 -15 1 -9 -7 -14 -18 -12 -24 3 -6 -3 -18 -11 -26 -14
-13 -15 -12 -9 4 5 12 3 16 -5 13 -7 -2 -25 6 -39 19 -24 23 -27 23 -56 9 -35
-18 -68 -48 -102 -93 -13 -18 -30 -32 -37 -32 -8 0 -14 -4 -14 -9 0 -4 10 -7
23 -7 12 1 29 -1 38 -5 13 -7 16 -3 14 16 -2 17 3 26 17 31 13 4 16 9 9 13 -7
5 0 19 19 42 l30 34 -16 -40 c-20 -50 -34 -96 -34 -112 0 -9 21 -13 74 -13 71
0 74 1 70 23 l-5 22 10 -22 c12 -26 46 -31 55 -8 7 19 26 19 26 0 0 -12 19
-15 110 -15 81 0 110 3 110 13 0 9 2 9 9 -1 5 -8 22 -12 42 -10 l34 3 -26 27
c-15 15 -25 29 -23 32 2 3 1 4 -3 1 -3 -3 -13 1 -21 8 -13 10 -15 9 -9 -6 4
-11 4 -24 0 -30 -5 -7 -10 3 -13 23 -4 31 -9 35 -37 38 -25 2 -33 -1 -33 -13
0 -13 -2 -14 -14 -3 -12 11 -9 15 18 25 17 6 24 12 15 12 -9 1 -17 7 -18 14
-2 15 -9 77 -10 95 -1 13 -14 16 -25 5z"/>
</g>
</svg>
