<?xml version="1.0" standalone="no"?>
<!DOCTYPE svg PUBLIC "-//W3C//DTD SVG 20010904//EN"
 "http://www.w3.org/TR/2001/REC-SVG-20010904/DTD/svg10.dtd">
<svg version="1.0" xmlns="http://www.w3.org/2000/svg"
 width="1600.000000pt" height="1226.000000pt" viewBox="0 0 1600.000000 1226.000000"
 preserveAspectRatio="xMidYMid meet">
<metadata>
Created by potrace 1.16, written by Peter Selinger 2001-2019
</metadata>
<g transform="translate(0.000000,1226.000000) scale(0.100000,-0.100000)"
fill="#000000" stroke="none">
<path d="M5265 10797 c-33 -12 -75 -31 -93 -42 -45 -27 -165 -146 -226 -223
-27 -35 -61 -69 -77 -77 -36 -19 -51 -95 -25 -124 21 -23 74 -22 88 2 13 24
23 21 26 -9 3 -36 8 -41 41 -49 22 -5 31 -14 36 -36 6 -29 25 -41 25 -16 0 8
3 8 9 -2 12 -19 41 -6 41 19 0 11 5 20 10 20 6 0 10 10 10 22 0 17 3 19 12 10
19 -19 29 -14 22 12 -3 14 -2 32 3 41 9 15 11 15 23 0 11 -13 10 -15 -4 -9
-20 8 -21 -3 -2 -21 12 -12 15 -11 20 12 7 24 8 25 21 7 9 -12 10 -21 3 -25
-13 -8 -1 -47 20 -68 11 -12 17 -12 19 -4 5 13 53 -32 53 -49 0 -4 11 -6 25
-2 14 3 25 2 24 -2 -2 -8 3 -33 18 -86 2 -10 14 -18 25 -18 11 0 27 -8 34 -17
9 -12 13 -14 14 -5 0 9 7 11 21 7 19 -6 20 -5 9 15 -11 20 -10 21 9 11 28 -15
44 -14 37 4 -10 26 12 16 36 -15 12 -17 23 -41 23 -53 0 -12 4 -28 8 -34 10
-16 77 -17 77 -2 0 8 5 8 15 -1 12 -10 18 -10 30 0 12 10 15 10 15 -3 0 -8 11
-22 25 -31 24 -16 25 -15 29 6 25 140 41 212 62 277 21 64 24 90 21 163 -4 74
-8 94 -31 128 -15 22 -29 54 -33 70 -4 21 -13 32 -29 36 -13 3 -22 11 -21 17
1 6 -8 13 -20 15 -13 2 -23 9 -23 15 -1 11 -114 89 -165 115 -11 5 -67 13
-125 16 -94 6 -111 4 -165 -17z"/>
<path d="M10397 10590 c-15 -12 -40 -20 -65 -20 -55 0 -84 -27 -118 -107 -18
-44 -46 -87 -79 -121 -27 -29 -55 -65 -62 -80 -17 -39 -16 -109 6 -257 16
-109 26 -144 60 -215 23 -46 41 -93 41 -104 0 -12 5 -28 10 -36 7 -11 10 -7
10 19 0 35 21 60 52 61 10 0 30 14 45 31 25 28 31 30 88 27 54 -3 61 -1 70 20
5 12 16 22 23 22 9 0 12 6 8 15 -3 9 0 15 9 15 8 0 14 3 13 8 -1 4 5 21 14 37
8 17 19 44 22 60 8 38 48 83 81 91 13 3 27 14 30 23 3 10 16 28 30 41 35 33
72 21 81 -25 3 -19 11 -38 16 -41 5 -3 13 -17 18 -30 6 -14 18 -27 27 -30 10
-3 25 -9 33 -13 20 -10 40 -3 40 15 0 20 9 17 58 -16 24 -16 48 -31 55 -33 9
-3 9 -8 0 -18 -7 -7 -13 -30 -13 -50 0 -32 3 -36 20 -32 11 3 17 9 15 14 -3 4
3 17 15 29 11 11 20 27 20 36 0 13 6 15 27 9 16 -4 30 -8 32 -10 5 -5 -15 -24
-72 -65 -44 -33 -47 -37 -41 -71 4 -26 1 -41 -10 -52 -9 -9 -16 -23 -16 -31 0
-9 -4 -16 -8 -16 -8 0 -75 -126 -78 -145 0 -5 2 -21 6 -35 l7 -25 11 25 c5 14
17 32 26 39 9 7 16 22 16 32 0 14 7 19 25 19 14 0 27 -1 29 -2 2 -2 13 5 24
15 18 17 19 21 6 64 -8 26 -13 47 -12 48 39 21 62 43 78 75 32 62 23 69 -13
10 -49 -83 -86 -77 -56 8 13 39 78 91 89 72 6 -9 11 -7 19 8 17 31 14 42 -15
52 -15 6 -23 15 -20 23 3 6 9 20 12 30 4 9 13 17 20 17 22 0 54 38 54 63 0 12
-6 34 -14 49 -8 15 -14 42 -13 62 1 41 -31 76 -72 76 -30 1 -83 40 -63 47 6 3
12 16 12 29 0 14 -4 23 -9 19 -6 -3 -15 4 -21 15 -6 11 -16 20 -22 20 -7 0 -7
-4 1 -13 6 -8 8 -17 4 -20 -12 -12 -21 -7 -26 14 -3 12 -10 18 -16 15 -5 -4
-20 7 -32 24 -13 16 -31 33 -42 36 -14 5 -16 9 -7 17 9 9 20 2 46 -28 25 -30
34 -35 34 -22 0 10 -13 32 -30 48 -23 23 -37 29 -64 27 -44 -3 -56 8 -30 27
10 8 14 15 7 15 -6 0 -15 -4 -18 -10 -10 -16 -55 -12 -55 5 0 19 -19 20 -26 1
-4 -11 -13 -12 -35 -6 -17 5 -29 5 -29 -1 0 -5 -4 -9 -10 -9 -5 0 -10 6 -10
14 0 21 -19 30 -35 16 -12 -10 -22 -9 -49 4 -19 9 -46 16 -61 16 -15 0 -38 9
-52 20 -14 11 -31 20 -38 20 -7 0 -24 -9 -38 -20z"/>
<path d="M3275 10088 c-183 -62 -280 -171 -311 -353 -8 -44 -23 -120 -33 -170
-11 -49 -22 -124 -25 -165 -11 -131 -40 -241 -81 -305 -47 -74 -239 -260 -317
-307 -19 -12 -28 -26 -28 -44 0 -42 -59 -170 -100 -217 -42 -48 -55 -73 -71
-145 -19 -85 -58 -357 -63 -442 -3 -47 -10 -120 -16 -163 -12 -80 -10 -96 17
-159 14 -34 14 -41 -1 -78 -9 -22 -16 -51 -16 -65 0 -13 -9 -49 -21 -80 -17
-46 -24 -55 -44 -55 -45 0 -57 -35 -52 -157 9 -225 51 -414 109 -487 37 -46
191 -134 261 -148 31 -7 57 -16 57 -20 0 -5 -18 -43 -39 -86 -92 -182 -130
-292 -247 -717 -81 -297 -88 -325 -83 -325 2 0 42 -7 89 -15 81 -14 203 -30
318 -41 50 -5 52 -7 52 -35 0 -19 5 -29 15 -29 8 0 15 5 15 10 0 6 18 10 40
10 22 0 40 3 40 8 0 4 26 6 58 5 31 -1 100 -4 152 -6 64 -2 104 -9 120 -19 14
-9 42 -21 63 -28 28 -9 38 -18 42 -38 3 -15 10 -42 14 -59 5 -18 5 -35 1 -38
-12 -8 -21 -108 -26 -315 -6 -225 -7 -239 -15 -234 -9 5 -21 -27 -14 -34 3 -3
5 1 5 8 0 7 2 11 5 8 9 -8 -6 -38 -16 -32 -5 3 -6 -2 -3 -10 4 -9 1 -16 -6
-16 -7 0 -10 -6 -7 -14 3 -8 -1 -20 -9 -26 -8 -7 -14 -18 -14 -24 0 -18 -24
-66 -33 -66 -5 0 -5 -5 -2 -11 4 -5 0 -18 -8 -27 -24 -28 -57 -99 -60 -132 -2
-17 -18 -53 -36 -81 -18 -27 -36 -69 -39 -92 -4 -32 -7 -37 -13 -22 -5 15 -8
8 -8 -22 -1 -24 -8 -60 -16 -80 -8 -21 -16 -58 -17 -83 -2 -25 -9 -50 -17 -56
-8 -6 -16 -25 -17 -41 -1 -16 -9 -44 -18 -61 -9 -18 -14 -32 -11 -32 3 0 -4
-18 -15 -39 -11 -22 -25 -69 -32 -105 -7 -36 -16 -60 -19 -54 -9 14 -30 -60
-32 -113 -1 -27 -5 -38 -14 -35 -8 3 -14 -8 -18 -32 -3 -20 -13 -51 -22 -69
-8 -17 -12 -36 -9 -42 5 -7 1 -8 -9 -5 -13 5 -15 2 -9 -20 4 -17 2 -26 -6 -26
-7 0 -10 -8 -7 -20 3 -12 1 -18 -5 -14 -6 4 -8 -3 -6 -17 6 -40 25 -31 38 18
7 26 43 127 81 223 143 370 182 483 245 705 20 72 52 164 71 205 48 102 127
294 146 355 20 61 71 370 92 555 25 216 20 204 90 211 33 4 77 4 97 2 l36 -5
7 -82 c4 -53 0 -150 -13 -283 -11 -111 -19 -210 -17 -220 2 -10 7 -36 10 -57
5 -28 9 -36 15 -26 6 9 4 17 -3 22 -9 6 -9 12 -1 25 6 10 12 39 12 65 2 67 21
214 32 244 6 14 10 51 11 82 0 64 27 141 47 135 8 -3 10 1 6 12 -4 9 -3 15 2
13 13 -4 85 53 79 62 -9 14 119 -2 137 -17 9 -8 21 -13 25 -10 12 7 25 -3 41
-30 9 -16 9 -23 1 -23 -8 0 -8 -4 0 -14 13 -16 17 -141 6 -168 -4 -10 -13 -18
-21 -18 -20 0 -17 -18 6 -32 27 -17 25 -28 -5 -28 -25 0 -35 -15 -14 -22 9 -3
9 -9 0 -26 -28 -55 -29 -60 -19 -70 5 -5 12 -53 13 -106 2 -53 6 -100 10 -106
3 -5 2 -17 -3 -27 -7 -12 -5 -22 8 -36 17 -17 18 -36 16 -171 -1 -83 2 -159 7
-169 6 -13 3 -24 -9 -39 -18 -19 -18 -20 0 -30 12 -7 16 -17 12 -34 -4 -14 -2
-24 4 -24 5 0 10 -20 10 -45 0 -25 4 -45 9 -45 15 0 22 -32 11 -45 -6 -8 -13
-60 -16 -117 -2 -57 -9 -142 -15 -190 -6 -48 -8 -96 -4 -108 4 -12 0 -26 -10
-36 -9 -9 -15 -26 -14 -38 1 -11 -5 -38 -14 -60 -20 -46 -21 -49 -4 -40 6 4 4
-2 -6 -13 -14 -16 -15 -22 -5 -26 24 -8 68 22 68 46 0 13 6 29 13 35 7 8 13
44 14 90 0 42 4 85 8 95 4 9 5 30 3 47 -2 16 -1 27 4 24 4 -3 8 13 8 35 0 23
10 107 21 189 26 176 26 349 3 530 -17 129 -16 195 6 453 12 143 29 217 81
356 52 140 51 138 85 141 57 5 74 13 106 46 33 34 35 34 81 24 27 -5 51 -8 53
-5 3 3 -2 42 -10 88 -16 84 -45 300 -71 524 -15 124 -35 234 -81 440 -14 66
-29 130 -31 141 -4 16 5 29 34 50 75 57 138 129 172 199 18 39 41 78 50 89 13
15 16 47 17 195 0 97 4 191 8 209 l8 32 89 0 c67 0 89 -3 89 -13 0 -32 -58
-216 -72 -231 -31 -31 -46 -108 -51 -258 -5 -173 -2 -182 61 -176 37 3 42 1
42 -17 0 -27 -25 -171 -55 -321 -23 -112 -25 -143 -25 -405 0 -156 5 -302 10
-324 6 -22 14 -85 20 -140 5 -55 23 -161 40 -235 17 -78 30 -164 30 -205 0
-38 4 -86 9 -105 6 -19 19 -152 31 -295 21 -263 57 -481 83 -497 16 -10 25
-10 32 2 8 12 16 12 35 0 12 -7 12 -12 -4 -29 -18 -19 -17 -21 20 -65 37 -44
66 -57 79 -36 9 15 25 2 25 -21 0 -23 -41 -42 -69 -31 -11 4 -41 32 -67 62
l-47 55 6 -58 c4 -45 12 -65 36 -93 28 -32 30 -37 16 -51 -12 -12 -19 -13 -30
-3 -13 11 -15 4 -15 -51 0 -35 5 -104 10 -154 5 -49 14 -164 20 -254 11 -175
26 -283 66 -476 47 -227 54 -271 63 -381 9 -114 16 -138 57 -187 13 -16 24
-36 24 -45 0 -19 57 -144 69 -152 5 -3 10 -31 13 -62 4 -47 2 -56 -9 -47 -10
9 -13 7 -13 -9 0 -11 4 -32 10 -46 5 -14 10 -55 11 -91 1 -36 7 -69 13 -74 35
-27 231 -49 292 -32 67 18 77 36 75 138 l-1 88 55 43 c31 23 60 54 65 67 12
32 -3 153 -24 196 -12 24 -15 48 -10 93 3 34 1 80 -4 104 -9 38 -8 44 10 53
18 10 20 17 14 68 -6 55 -47 156 -84 209 -12 17 -20 46 -21 77 -2 80 -40 619
-52 745 -6 63 -16 140 -23 170 -20 88 -13 272 14 355 17 54 23 96 24 183 1 87
-1 108 -9 88 l-10 -25 -11 35 c-10 30 -9 36 6 44 14 7 20 5 25 -7 9 -26 25 3
24 47 0 19 -3 29 -6 22 -2 -6 -9 -9 -15 -6 -7 4 -2 14 12 24 20 15 22 21 12
49 -6 17 -7 29 -2 26 4 -3 8 25 7 62 -3 146 14 316 39 386 13 38 24 91 24 120
0 65 9 55 54 -62 36 -91 37 -95 29 -180 -4 -47 -6 -121 -3 -164 3 -44 2 -81
-2 -84 -18 -10 -6 -51 22 -78 17 -16 30 -36 30 -45 0 -17 20 -41 54 -64 19
-13 19 -14 -3 -76 -20 -54 -21 -68 -12 -105 15 -61 14 -102 -5 -130 -14 -21
-16 -69 -16 -354 0 -182 4 -355 7 -384 6 -44 3 -62 -14 -96 -12 -22 -28 -67
-36 -99 -15 -57 -14 -67 12 -254 6 -46 -16 -115 -62 -191 -19 -32 -35 -66 -35
-75 0 -10 23 -52 50 -94 33 -50 50 -87 50 -107 0 -40 55 -151 75 -151 21 0 21
-153 0 -203 -20 -48 -19 -93 5 -145 29 -64 68 -110 119 -140 42 -24 54 -26
151 -26 119 1 182 15 215 48 35 35 55 116 55 220 0 75 -5 102 -26 151 -21 49
-78 215 -112 325 -5 16 -3 34 7 51 13 23 13 30 2 43 -7 9 -18 13 -23 10 -5 -3
-1 -12 9 -19 14 -10 15 -16 6 -25 -8 -9 -16 -1 -32 35 -12 27 -20 49 -19 49 2
1 21 11 43 22 43 23 51 41 80 169 7 33 20 87 30 120 14 54 15 82 4 266 -12
200 -11 209 10 286 11 44 26 127 31 184 6 57 13 117 16 134 3 17 10 105 15
195 5 91 12 195 15 231 5 57 2 73 -18 114 l-24 47 34 65 c34 64 34 66 18 94
-15 26 -15 30 1 64 17 35 17 39 -4 98 -22 65 -22 96 6 252 6 33 11 93 11 134
0 53 7 96 26 153 26 79 27 84 22 275 -5 179 -4 199 14 240 30 68 68 229 68
289 0 66 -27 134 -104 264 l-56 95 35 10 c51 15 65 34 77 108 16 95 -2 232
-40 317 -27 59 -29 73 -25 145 2 44 6 95 9 113 5 31 6 32 43 26 24 -4 69 2
125 16 48 12 91 19 94 15 4 -4 8 -57 10 -118 3 -89 7 -115 20 -124 10 -9 52
-13 122 -13 76 0 111 -4 126 -14 20 -14 20 -17 5 -65 -12 -38 -21 -51 -35 -51
-11 0 -16 -3 -12 -7 10 -10 40 -10 47 0 7 9 14 -331 10 -464 -2 -84 -1 -88 29
-122 37 -42 35 -69 -11 -157 -58 -113 -79 -155 -79 -166 0 -6 17 -15 37 -20
53 -13 56 -35 4 -32 -25 2 -41 8 -41 16 0 17 -17 15 -24 -3 -3 -8 -12 -15 -20
-15 -28 0 -133 -99 -174 -163 -43 -68 -122 -243 -122 -270 0 -9 -5 -19 -10
-22 -6 -4 -7 -11 -4 -17 4 -6 2 -13 -4 -17 -13 -8 -63 -161 -52 -161 4 0 13
20 20 45 7 25 17 48 22 52 6 3 8 -3 5 -13 -3 -11 -8 -50 -12 -89 -3 -38 -15
-108 -25 -155 -34 -152 -62 -313 -67 -392 -6 -74 -5 -79 27 -128 28 -43 46
-58 114 -93 45 -23 103 -50 131 -60 27 -9 65 -30 85 -45 68 -53 109 -75 94
-49 -4 7 -3 9 2 4 5 -5 9 -14 9 -19 0 -6 6 -13 14 -16 9 -3 11 0 6 9 -5 8 -4
11 1 6 5 -5 9 -14 9 -19 0 -6 6 -13 14 -16 9 -3 11 0 6 9 -5 8 -4 11 1 6 5 -5
9 -13 9 -19 0 -5 41 -33 91 -61 l92 -52 0 -80 c0 -44 6 -98 14 -120 9 -27 12
-55 7 -85 -15 -92 -10 -355 10 -492 11 -73 22 -167 26 -208 3 -41 15 -167 25
-280 10 -113 23 -257 29 -321 12 -136 28 -177 83 -210 45 -28 68 -47 68 -59 0
-9 -35 -20 -66 -20 -11 0 -28 -8 -37 -18 -28 -31 -21 -82 23 -155 22 -36 40
-70 40 -75 0 -4 -14 -18 -30 -31 -28 -20 -67 -71 -98 -128 -37 -67 28 -165
136 -203 35 -13 67 -31 73 -42 24 -45 116 -59 250 -37 63 11 69 14 69 35 0 13
4 24 8 24 5 0 16 22 25 50 17 53 12 78 -28 152 -8 14 -15 51 -15 81 0 50 2 56
22 59 19 2 27 18 49 88 41 128 36 207 -16 284 -23 34 -24 40 -13 89 12 58 5
320 -12 399 -16 80 -54 665 -51 788 6 230 11 310 21 335 6 17 15 59 20 95 5
36 18 90 29 120 24 65 26 136 7 247 -10 56 -12 92 -6 114 5 18 9 96 8 173 -1
128 1 145 21 184 12 24 25 73 29 115 l8 72 8 -90 c5 -49 10 -198 12 -330 3
-239 9 -333 37 -580 20 -172 36 -427 47 -715 6 -169 13 -251 25 -291 l17 -55
-26 -39 c-40 -58 -35 -111 18 -213 41 -79 43 -84 33 -132 -11 -55 7 -163 31
-186 16 -17 106 -44 142 -44 19 0 43 16 82 53 53 51 54 54 85 172 17 66 43
153 57 193 37 107 41 173 17 256 l-19 69 23 37 c66 105 80 226 64 557 -15 295
-15 444 -1 778 9 243 23 362 62 530 10 44 21 99 25 121 l6 41 -77 -1 c-55 -1
-78 3 -81 12 -4 9 3 11 24 6 19 -5 25 -3 18 4 -5 6 -23 12 -40 14 -22 2 -30 8
-30 23 0 17 9 21 63 27 35 4 74 14 87 22 25 17 72 102 62 112 -3 4 -16 -14
-28 -39 -17 -35 -31 -49 -62 -61 -34 -13 -44 -14 -73 -1 -44 18 -43 31 3 42
67 16 76 40 85 235 5 95 15 196 22 226 11 39 12 69 5 115 -9 67 -124 598 -164
763 -32 130 -43 225 -47 408 l-3 149 25 3 c84 9 186 29 192 38 5 7 14 7 30 -1
60 -29 77 -26 121 20 23 25 56 53 74 62 17 10 41 35 53 57 21 37 21 40 5 99
l-15 62 32 51 c29 44 33 61 37 129 2 55 -3 104 -18 165 -11 48 -31 137 -45
197 -35 157 -70 247 -120 312 -53 70 -114 116 -181 136 -28 8 -70 24 -95 35
-25 10 -67 22 -95 26 -68 10 -129 66 -71 66 13 0 30 7 37 17 13 15 12 15 -8 5
-19 -11 -24 -9 -34 9 -8 16 -13 18 -19 9 -6 -9 -13 -9 -29 -1 -18 10 -20 9
-14 -6 3 -11 -9 -4 -31 17 l-37 35 -122 6 c-196 10 -542 32 -545 34 -6 5 26
61 41 74 16 13 39 19 110 28 26 3 50 10 53 14 8 13 124 10 239 -5 58 -8 104
-10 110 -5 5 6 4 9 -3 9 -9 0 -9 5 0 20 7 11 19 18 25 15 7 -2 17 5 23 16 9
16 19 19 61 15 28 -3 56 -9 62 -14 27 -20 61 -8 79 28 9 19 17 42 18 51 0 17
50 60 83 72 9 3 17 12 17 19 0 6 6 4 13 -6 13 -18 14 -18 20 -2 4 10 1 27 -7
37 -14 21 -11 59 5 59 5 0 16 -12 26 -26 13 -21 14 -30 5 -45 -10 -15 -9 -17
3 -13 17 7 20 46 5 74 -8 15 -4 22 25 39 69 41 96 131 55 183 -10 14 -16 29
-12 33 4 5 1 5 -5 1 -7 -4 -13 -3 -13 3 0 6 -10 13 -23 16 -21 6 -34 45 -15
45 10 0 0 44 -12 48 -5 2 -10 10 -10 18 0 8 -5 14 -10 14 -10 0 -22 22 -51 96
-11 28 -16 31 -39 24 -39 -11 -91 -3 -122 20 -15 11 -34 20 -43 20 -9 0 -26 7
-39 15 -15 10 -56 17 -120 19 -85 4 -100 2 -113 -14 -9 -10 -22 -16 -30 -13
-11 4 -10 8 4 19 11 8 -7 5 -45 -7 -35 -12 -66 -28 -69 -35 -3 -8 -13 -14 -23
-14 -11 0 -21 -4 -24 -9 -4 -5 -26 -19 -51 -31 -51 -25 -185 -164 -185 -192 0
-9 -13 -32 -28 -50 -16 -18 -38 -48 -51 -66 -12 -18 -38 -39 -57 -47 -19 -8
-34 -20 -34 -27 0 -9 3 -9 8 -2 9 14 42 26 42 15 0 -13 -36 -42 -43 -34 -4 3
-7 -10 -7 -30 0 -19 -3 -43 -7 -53 -4 -12 -3 -15 5 -10 8 5 12 -6 13 -36 1
-38 2 -40 10 -18 7 21 8 19 4 -10 -3 -19 -10 -36 -15 -38 -6 -2 -6 -10 0 -22
5 -10 11 -43 14 -72 4 -66 12 -81 70 -138 25 -24 46 -51 45 -60 0 -16 -76 -75
-114 -90 -13 -5 -42 -22 -64 -38 -23 -17 -85 -49 -138 -72 -115 -51 -201 -109
-268 -182 -106 -117 -108 -120 -116 -105 -5 7 -12 63 -17 123 -6 60 -17 134
-27 164 -9 30 -21 73 -27 95 -6 22 -22 52 -36 67 -20 22 -25 37 -24 70 1 40
-2 46 -46 84 -27 24 -92 62 -152 88 -227 102 -235 106 -255 144 -17 31 -34 42
-132 83 -62 26 -131 56 -155 67 -24 12 -68 26 -98 33 -30 6 -64 19 -75 29 -37
34 -148 80 -193 80 -38 0 -45 -4 -63 -35 -20 -33 -24 -35 -58 -29 -20 4 -81 7
-136 8 -101 0 -126 -6 -170 -44 -11 -9 -40 -22 -65 -29 -81 -23 -224 -83 -262
-110 -20 -14 -47 -43 -60 -64 -12 -20 -32 -40 -43 -43 -11 -3 -62 -26 -113
-51 -63 -30 -96 -52 -102 -67 -4 -13 -23 -35 -42 -51 -67 -57 -233 -394 -253
-515 -10 -62 -14 -65 -44 -37 -14 13 -52 43 -83 66 -37 28 -64 58 -78 86 -20
41 -20 46 -6 74 26 50 16 113 -28 176 -12 16 -25 37 -31 46 -5 10 -27 37 -47
61 -51 60 -108 157 -108 184 0 12 16 48 35 80 19 32 35 66 35 76 0 13 11 19
40 24 36 6 39 9 34 31 -4 16 -2 28 7 34 11 6 10 9 -4 15 -12 4 -26 -1 -41 -15
-28 -27 -36 -27 -36 2 0 24 61 68 68 48 6 -17 22 -2 22 20 0 14 -7 19 -24 19
-14 0 -28 -4 -31 -10 -3 -5 -11 -10 -17 -10 -7 0 -9 17 -5 48 3 27 2 66 -3 88
-6 27 -5 43 4 54 6 8 11 33 10 55 -2 22 -3 52 -3 66 -2 49 -80 107 -128 94
-14 -3 -30 -2 -36 3 -7 5 -30 12 -53 15 -23 2 -57 12 -77 22 -30 14 -43 15
-68 6 -18 -6 -45 -11 -61 -11 -16 0 -38 -5 -49 -10 -11 -7 -19 -7 -19 -1 0 5
6 12 13 14 6 3 0 6 -15 6 -14 1 -32 3 -40 5 -7 2 -26 -1 -43 -6z m647 -1060
c53 -57 67 -107 44 -156 l-18 -37 -25 30 c-14 17 -43 50 -64 74 -22 23 -39 47
-39 52 0 5 -6 9 -14 9 -7 0 -21 15 -30 33 -8 17 -16 26 -16 19 0 -7 -4 -10
-10 -7 -19 12 -10 23 15 20 14 -1 28 1 30 5 3 4 24 6 47 3 35 -3 50 -12 80
-45z m1785 -1144 c-2 -51 2 -69 16 -81 9 -9 17 -23 17 -31 0 -11 3 -12 14 -3
16 13 86 5 86 -10 0 -5 12 -6 28 -3 15 2 84 6 154 7 102 2 124 0 116 -11 -9
-10 5 -11 73 -6 142 12 134 15 134 -56 1 -54 0 -57 -11 -32 -7 15 -13 20 -13
12 -1 -13 -3 -13 -10 -1 -8 13 -18 13 -68 1 -70 -16 -335 -17 -375 -1 -18 6
-28 7 -28 1 0 -6 -9 -10 -19 -10 -11 0 -23 -4 -26 -10 -4 -6 6 -10 23 -10 15
0 50 -7 77 -16 42 -15 63 -15 174 -5 69 7 134 9 144 6 9 -4 17 -3 17 2 0 13
33 12 43 -1 6 -8 10 -7 14 2 4 10 8 10 19 1 11 -9 14 -8 14 5 0 13 3 13 20 -4
20 -20 29 -100 11 -100 -4 0 -7 12 -5 28 2 16 1 19 -2 7 -9 -31 -24 -42 -24
-17 0 13 -6 22 -15 22 -18 0 -20 -26 -2 -34 9 -5 9 -7 0 -12 -8 -4 -11 -15 -7
-32 l7 -27 -22 27 c-12 15 -19 32 -16 38 3 5 1 10 -4 10 -6 0 -11 18 -11 40 0
22 -4 40 -8 40 -19 0 -41 -36 -35 -58 3 -12 1 -22 -4 -22 -17 0 -2 -50 16 -51
14 -1 13 -2 -1 -6 -25 -6 -22 -23 5 -25 44 -3 -152 -14 -294 -17 -109 -1 -148
1 -156 11 -6 7 -13 39 -17 72 -3 32 -13 68 -21 79 l-15 21 0 -22 c0 -12 -5
-22 -11 -22 -7 0 -8 7 -4 18 5 9 10 32 13 50 3 27 1 32 -15 32 -26 0 -50 49
-31 61 18 12 5 11 -26 -1 -21 -8 -24 -7 -19 7 4 11 2 14 -5 9 -6 -4 -26 1 -44
10 -18 10 -62 23 -98 30 l-65 13 65 -7 c82 -9 156 -9 165 0 4 3 9 34 12 67 3
34 10 61 15 61 5 0 6 5 3 10 -3 6 3 10 14 10 18 0 20 -6 18 -66z m-349 -114
c220 -32 232 -38 232 -118 0 -37 -35 -251 -46 -282 -3 -8 -5 -17 -4 -19 5 -12
-27 -18 -40 -8 -13 11 -13 10 -1 -5 7 -10 16 -16 20 -14 4 3 8 -4 8 -15 1 -10
0 -19 -3 -19 -11 0 -74 46 -74 55 -1 15 -29 49 -35 43 -3 -3 10 -26 29 -50 35
-46 54 -88 39 -87 -13 1 -89 111 -118 171 -15 32 -34 58 -46 61 -10 3 -19 1
-19 -3 0 -8 81 -142 121 -202 10 -14 20 -32 21 -39 5 -24 84 -109 100 -109 5
0 8 -4 8 -10 0 -16 -53 -12 -121 10 -42 14 -86 20 -129 19 -36 -1 -81 1 -101
5 -20 4 -48 2 -63 -3 -25 -10 -26 -9 -20 13 5 21 3 24 -14 19 -11 -2 -30 1
-42 7 -18 10 -20 14 -9 21 11 7 10 9 -3 9 -10 0 -18 -7 -18 -16 0 -8 -5 -12
-10 -9 -6 4 -16 -7 -23 -24 -18 -43 -27 -29 -27 46 0 49 3 63 15 63 8 0 15 4
15 8 0 5 -10 8 -22 7 -18 -2 -22 -7 -20 -28 2 -20 -1 -25 -13 -21 -24 9 -20
70 5 77 28 7 27 53 -1 62 -16 5 -18 10 -8 21 8 10 8 14 0 14 -6 0 -11 5 -11
11 0 6 7 9 15 5 15 -5 20 10 16 44 -5 50 1 209 9 241 6 21 20 45 33 54 31 22
187 20 355 -5z m376 -223 c15 -6 16 -10 5 -23 -8 -10 -9 -18 -2 -22 9 -6 29
-96 25 -113 -1 -4 8 -5 19 -2 19 5 20 3 11 -14 -6 -11 -9 -36 -5 -56 4 -28 2
-38 -11 -43 -9 -3 -16 -17 -16 -30 0 -13 -6 -24 -12 -24 -9 -1 -7 -5 3 -13 21
-16 10 -48 -27 -71 -26 -18 -27 -18 -19 0 5 11 8 30 8 44 -1 14 -3 66 -4 115
-2 50 0 100 4 113 7 17 5 22 -10 22 -17 1 -17 2 1 15 11 8 15 15 9 15 -6 0
-10 23 -9 54 0 30 3 51 6 47 3 -4 13 -11 24 -14z m266 -184 c-16 -55 -40 -102
-58 -115 -10 -7 -33 -35 -52 -63 -45 -66 -67 -90 -118 -132 -52 -43 -65 -38
-22 8 17 19 28 40 25 47 -2 7 2 15 10 18 8 4 12 10 10 15 -3 4 32 54 77 109
46 56 90 110 98 120 23 30 40 25 30 -7z m1785 -938 c-8 -38 -12 -79 -8 -90 6
-18 7 -17 20 10 13 29 13 29 8 -20 -4 -44 -3 -46 5 -15 5 19 13 58 19 85 l10
50 -4 -50 c-3 -27 -10 -79 -17 -115 -8 -51 -13 -61 -20 -45 -6 14 -7 9 -3 -16
3 -21 -6 -90 -20 -160 -14 -68 -25 -128 -25 -134 0 -5 -5 -3 -11 5 -7 11 -8 6
-4 -19 5 -21 4 -31 -3 -27 -5 3 -12 -3 -15 -15 -4 -16 -10 -19 -32 -13 -18 4
-30 2 -36 -7 -7 -12 -9 -11 -10 1 0 10 -3 9 -10 -5 -8 -18 -9 -17 -5 5 16 93
29 140 37 135 5 -4 6 7 3 25 -4 17 -2 30 3 30 6 0 13 17 17 38 3 20 9 53 12
72 3 19 13 51 21 70 9 19 22 64 28 100 7 36 17 79 23 95 6 17 14 43 17 59 3
15 8 27 10 24 2 -2 -2 -35 -10 -73z m-2725 -1977 c0 -11 29 -37 43 -38 5 0 6
4 3 9 -10 15 19 42 37 35 21 -8 22 -18 2 -34 -24 -20 -18 -47 25 -101 41 -51
48 -73 30 -84 -5 -3 -10 -2 -10 4 0 5 -8 12 -17 16 -10 3 -38 31 -63 61 -25
31 -55 68 -67 82 -20 24 -21 27 -5 39 16 13 15 14 -3 9 -11 -3 -29 1 -39 9
-16 12 -17 17 -6 30 11 13 16 12 41 -6 16 -11 29 -25 29 -31z m-6 -122 c45
-19 76 -61 76 -104 0 -28 -8 -43 -40 -74 -23 -21 -48 -38 -56 -38 -13 0 -11
-5 5 -26 21 -27 29 -74 12 -74 -5 0 -16 10 -24 23 -9 12 -36 45 -61 72 -25 28
-51 63 -57 78 -24 56 21 133 86 150 11 2 21 5 23 6 1 0 17 -5 36 -13z"/>
<path d="M5159 7747 c-49 -24 -112 -80 -102 -91 10 -9 61 -7 83 4 11 6 29 15
40 20 30 15 48 12 106 -16 42 -21 63 -25 101 -21 68 7 153 39 152 57 0 10 -2
11 -6 3 -3 -10 -8 -9 -20 2 -8 8 -28 15 -44 15 -22 0 -28 4 -23 13 6 9 5 9 -7
0 -10 -8 -30 -10 -54 -6 -32 5 -35 8 -20 14 16 7 15 8 -10 8 -36 1 -79 6 -120
14 -21 5 -44 0 -76 -16z"/>
<path d="M4967 4272 c-20 -22 -22 -71 -4 -96 18 -24 76 -28 99 -7 29 28 34 75
9 100 -27 27 -82 28 -104 3z"/>
<path d="M12930 9659 c-32 -11 -67 -16 -83 -13 -21 4 -35 0 -53 -17 -13 -12
-24 -27 -24 -33 -1 -6 -10 -22 -20 -35 -17 -19 -26 -22 -54 -17 -31 6 -37 3
-76 -41 -55 -62 -92 -121 -85 -133 4 -6 1 -10 -4 -10 -6 0 -11 -4 -11 -10 0
-5 -13 -31 -29 -59 -20 -33 -31 -68 -35 -108 -8 -94 -22 -129 -61 -153 -46
-29 -56 -67 -24 -92 22 -19 35 -48 20 -48 -14 0 -31 -51 -23 -68 9 -20 9 -93
0 -108 -4 -6 -10 -30 -13 -55 -4 -24 -12 -69 -19 -99 -12 -52 -14 -55 -54 -67
-111 -32 -223 -117 -261 -197 -32 -69 -80 -255 -95 -371 -9 -60 -25 -139 -36
-175 -12 -36 -37 -132 -55 -214 -19 -82 -40 -155 -47 -163 -9 -12 -7 -23 12
-58 l24 -44 -27 -21 c-63 -50 -86 -158 -50 -237 21 -47 81 -113 103 -113 8 0
26 -7 39 -16 13 -9 42 -22 65 -29 22 -7 40 -17 39 -22 -1 -4 -9 -46 -18 -92
-11 -51 -15 -105 -12 -137 4 -40 2 -56 -9 -65 -23 -19 -44 -65 -44 -96 1 -41
34 -109 65 -129 42 -27 54 -69 39 -129 -44 -169 -56 -225 -83 -360 -66 -337
-89 -493 -141 -940 -48 -410 -47 -383 -19 -389 95 -20 239 -33 279 -25 213 44
202 46 224 -58 10 -49 29 -135 42 -193 20 -92 29 -143 50 -276 4 -29 6 -30 52
-30 62 1 98 -22 113 -75 11 -36 10 -45 -6 -76 -22 -40 -60 -63 -105 -63 l-30
0 0 -102 c0 -173 18 -283 96 -595 32 -127 33 -123 -47 -179 -34 -23 -49 -27
-125 -28 -81 -2 -88 -4 -110 -30 -26 -30 -29 -52 -13 -109 16 -59 68 -108 181
-169 65 -35 127 -78 168 -117 36 -33 84 -69 107 -78 38 -16 45 -24 57 -68 34
-117 47 -195 44 -271 l-3 -79 -75 -1 c-96 -1 -148 -26 -185 -87 -42 -73 -29
-163 34 -226 21 -21 78 -62 127 -91 49 -30 126 -89 171 -132 45 -43 98 -85
117 -93 67 -28 199 -15 247 23 19 16 22 28 22 103 1 92 -17 191 -38 212 -7 7
-16 38 -20 68 -3 30 -11 70 -16 90 -17 66 -38 252 -49 429 -6 95 -15 205 -20
244 -4 39 -13 157 -19 261 -12 209 -26 372 -42 510 -11 90 -11 90 29 230 77
265 83 364 41 725 -12 108 -16 117 -81 192 -13 14 -32 37 -42 50 -11 12 -32
38 -48 56 -15 18 -28 39 -28 47 0 28 33 15 67 -25 36 -42 53 -50 53 -25 0 23
46 48 75 41 22 -6 28 -2 41 29 16 38 27 39 101 8 35 -14 93 -16 133 -3 14 4
19 8 13 9 -15 1 -18 31 -4 31 5 0 12 -8 16 -19 5 -18 7 -18 78 1 58 15 91 18
170 13 l97 -6 0 56 c0 42 3 55 15 55 16 0 20 51 9 109 -5 24 -12 31 -30 31
-17 0 -24 6 -24 20 0 13 7 20 19 20 24 0 33 13 25 33 -4 12 -12 13 -39 4 -48
-14 -85 10 -85 57 0 39 26 66 63 66 20 0 27 -5 27 -20 0 -13 -7 -20 -20 -20
-14 0 -20 -7 -20 -21 0 -18 4 -20 27 -14 16 4 30 8 32 10 2 2 -6 91 -18 197
-12 106 -26 249 -31 318 -5 69 -20 195 -34 280 -13 85 -27 196 -31 245 -5 61
-10 84 -16 70 -6 -15 -8 -16 -8 -4 -1 19 -28 84 -78 187 -35 73 -36 75 -35
200 1 70 6 152 12 182 12 63 33 262 32 303 -1 17 3 25 9 21 7 -4 8 9 4 39 -5
30 -3 47 5 52 9 6 10 -1 6 -26 -6 -29 -5 -31 5 -15 6 11 10 43 8 75 -10 155 6
291 33 291 4 0 8 -2 8 -4 0 -2 5 -28 11 -57 19 -94 11 -337 -13 -366 -5 -7 -5
-13 1 -17 19 -12 54 228 46 314 -14 146 -14 150 2 150 13 0 14 8 9 39 -10 62
1 76 31 41 25 -31 46 -40 38 -17 -3 6 0 19 5 27 13 20 25 2 35 -54 5 -23 10
-33 12 -23 3 9 14 17 26 17 12 0 31 3 42 5 13 4 31 -4 49 -20 16 -14 33 -25
37 -25 8 0 23 -26 71 -124 16 -32 38 -68 50 -80 20 -21 20 -21 -1 21 -24 47
-25 53 -12 53 5 0 12 -9 16 -19 3 -11 12 -18 19 -15 16 6 26 -16 33 -75 4 -30
2 -42 -5 -37 -6 4 -3 -13 8 -36 11 -24 20 -54 20 -68 1 -22 2 -23 9 -6 6 16
10 13 24 -22 9 -23 19 -42 22 -42 3 0 -2 16 -10 36 -24 57 -17 74 10 24 28
-53 34 -36 6 18 -11 21 -23 56 -26 77 -4 22 -12 48 -16 57 -6 11 -5 18 4 21 9
4 9 6 0 6 -7 1 -22 22 -34 49 -51 114 -69 150 -82 161 -8 6 -25 44 -37 84 -12
39 -28 86 -35 102 -27 63 -37 124 -39 235 -1 73 -9 143 -20 190 -17 70 -23 80
-91 150 -91 95 -111 125 -136 202 -12 34 -32 85 -46 113 -34 66 -53 203 -53
385 0 155 -12 283 -35 365 -7 28 -19 82 -25 122 -16 100 -56 178 -124 243 -73
70 -88 77 -220 112 -125 33 -151 33 -226 7z m643 -4790 c68 -18 98 -105 60
-170 -21 -35 -63 -51 -114 -43 -34 6 -47 14 -85 56 -11 13 -4 82 12 111 11 20
63 57 79 57 6 0 27 -5 48 -11z m-926 -427 c7 -9 13 -24 13 -33 0 -9 8 -23 18
-32 11 -10 18 -33 20 -63 1 -26 6 -52 11 -57 5 -5 7 -16 4 -23 -3 -8 0 -14 6
-14 5 0 15 -9 21 -21 9 -16 8 -24 -4 -37 -13 -16 -11 -21 20 -60 33 -39 64
-55 64 -32 0 6 -4 10 -8 10 -5 0 -9 6 -9 13 0 6 -3 23 -7 37 -8 24 -8 24 8 5
16 -19 16 -19 5 8 -7 15 -15 27 -19 27 -4 0 -7 23 -7 52 0 37 5 58 18 72 23
24 24 32 3 40 -24 9 -7 24 22 18 17 -3 22 -7 14 -12 -7 -4 8 -6 33 -3 26 3 59
0 74 -6 86 -37 87 -172 2 -204 -32 -13 -37 -28 -13 -47 30 -25 36 -48 16 -59
-16 -8 -26 -3 -58 29 -22 22 -45 40 -53 40 -7 0 -2 -9 13 -21 21 -17 24 -24
15 -35 -10 -12 -9 -13 6 -8 13 5 16 4 11 -4 -4 -7 -14 -12 -22 -12 -8 0 -14
-7 -14 -15 0 -8 -4 -15 -10 -15 -5 0 -10 4 -10 9 0 5 -13 12 -29 16 -15 3 -41
19 -56 35 -34 36 -53 39 -32 6 12 -17 13 -26 4 -35 -8 -8 -5 -17 11 -34 12
-13 22 -28 22 -34 0 -16 -38 -46 -49 -38 -13 8 -14 3 -2 -28 8 -20 6 -30 -10
-48 l-20 -23 26 -13 c30 -17 33 -27 4 -18 -14 5 -25 2 -30 -6 -7 -11 -12 -11
-26 -2 -10 6 -17 17 -15 23 4 19 -19 42 -36 35 -17 -6 -32 11 -32 37 0 9 9 18
22 20 12 2 23 10 25 18 4 13 3 13 -6 0 -7 -10 -14 -11 -18 -5 -5 6 -21 10 -36
10 -32 -1 -67 34 -67 67 0 23 52 78 74 78 10 0 14 8 11 28 -2 15 -4 30 -4 35
-1 4 -10 7 -20 7 -25 0 -33 23 -16 47 11 15 12 33 6 74 -6 35 -5 59 2 70 8 13
7 25 -3 46 -8 15 -16 31 -18 35 -1 4 4 5 12 2 19 -7 21 7 4 24 -9 9 -7 12 10
12 16 0 22 6 22 21 0 19 4 21 37 14 20 -4 43 -14 50 -23z m-7 -724 c0 -14 12
-24 40 -35 22 -9 40 -20 40 -24 0 -4 -15 -12 -34 -19 -31 -10 -33 -13 -22 -35
13 -30 22 -31 29 -5 9 34 27 23 22 -12 -3 -18 -3 -27 1 -20 7 15 30 16 39 1 4
-5 9 -29 11 -52 3 -23 11 -62 19 -87 38 -124 77 -312 81 -390 2 -41 6 -109 10
-150 3 -41 8 -102 9 -135 5 -82 9 -107 20 -125 5 -8 8 -23 7 -32 -2 -10 1 -33
6 -52 6 -19 7 -51 2 -70 -6 -26 -4 -36 6 -40 8 -3 14 -14 14 -25 0 -11 5 -23
10 -26 6 -4 8 -15 5 -24 -3 -10 1 -24 10 -31 11 -9 14 -22 10 -41 -4 -16 0
-39 8 -54 11 -21 11 -38 4 -78 -8 -38 -7 -52 1 -55 7 -2 12 -22 12 -43 0 -22
5 -50 11 -62 9 -16 9 -22 0 -25 -6 -2 -11 -10 -11 -18 0 -9 5 -12 10 -9 6 3
10 -1 10 -9 0 -8 -4 -18 -10 -21 -13 -8 -1 -67 16 -81 17 -13 19 -54 3 -54 -8
0 -8 -4 -1 -13 6 -7 16 -35 23 -62 7 -29 22 -59 37 -72 15 -14 22 -28 18 -39
-6 -15 -21 -16 -144 -9 -131 7 -178 17 -136 30 42 14 49 22 46 56 -2 26 0 30
7 19 6 -8 11 -12 11 -7 0 18 2 23 17 40 9 9 12 17 7 17 -5 0 -3 4 3 8 20 13
39 177 22 188 -5 2 -7 21 -5 42 5 56 -47 262 -84 327 -11 19 -23 53 -26 75 -4
22 -10 40 -15 40 -4 0 -13 19 -20 43 -6 23 -19 57 -27 75 -14 26 -14 36 -4 52
10 17 10 21 -4 27 -11 4 -14 13 -10 29 4 13 2 42 -3 64 -6 26 -5 40 1 40 6 0
5 6 -2 15 -10 12 -10 18 0 30 9 10 9 15 1 15 -6 0 -11 5 -11 10 0 6 6 10 14
10 24 0 30 20 10 34 -9 7 -14 18 -10 24 4 7 0 12 -11 13 -14 0 -14 2 5 9 24
10 29 25 11 35 -6 4 -8 13 -5 21 3 8 -1 14 -10 14 -13 0 -14 8 -9 40 5 27 3
40 -5 40 -7 0 -9 8 -5 20 4 12 0 31 -7 43 -18 27 -48 119 -48 145 0 11 -6 22
-14 25 -10 4 -13 23 -12 69 1 35 -2 69 -7 75 -5 7 -7 33 -5 58 2 32 -1 45 -10
45 -7 0 -10 5 -7 10 3 6 15 10 26 10 24 0 24 22 2 62 -14 23 -15 32 -5 35 14
6 16 39 2 48 -5 3 -14 14 -20 25 -8 15 -7 17 10 13 11 -3 20 -14 20 -25z"/>
<path d="M10400 9504 c-89 -14 -154 -29 -250 -60 -90 -29 -117 -43 -154 -77
-105 -99 -129 -117 -152 -117 -20 0 -24 -5 -24 -28 0 -37 39 -111 70 -134 45
-33 136 -58 208 -58 84 0 157 20 242 68 84 46 147 106 222 210 37 52 65 81 74
78 8 -3 11 0 8 9 -4 8 12 24 42 41 43 25 45 28 28 41 -33 24 -87 33 -189 32
-55 -1 -111 -3 -125 -5z"/>
<path d="M10985 9407 c-51 -30 -109 -86 -154 -151 -27 -39 -65 -88 -85 -109
-42 -42 -59 -78 -76 -159 -11 -54 -13 -58 -38 -57 -24 0 -25 1 -7 9 20 9 20 9
-1 9 -21 1 -74 -20 -74 -29 0 -3 20 -12 44 -19 154 -45 231 -146 311 -406 52
-171 52 -172 -9 -52 -46 89 -92 163 -116 187 -3 3 -18 22 -34 44 -43 58 -116
126 -158 147 -60 31 -138 34 -278 11 -221 -37 -230 -37 -230 -13 0 11 9 25 19
31 25 13 208 22 230 11 9 -4 43 -5 76 -1 33 4 48 8 33 9 -15 0 -29 5 -33 11
-3 5 -13 6 -22 3 -10 -4 -14 -2 -10 4 4 6 0 14 -9 17 -8 3 -12 2 -9 -4 3 -6
-1 -7 -9 -4 -9 3 -16 10 -16 16 0 5 -5 6 -12 2 -6 -4 -8 -3 -5 3 9 15 -11 29
-58 42 -31 8 -54 7 -105 -5 -36 -8 -74 -19 -85 -24 -11 -5 -60 -19 -110 -30
-49 -12 -97 -24 -105 -27 -8 -4 -18 -7 -22 -7 -3 -1 -10 -4 -14 -8 -13 -13
-24 -9 -24 9 0 15 -2 14 -19 -3 -17 -17 -17 -22 -5 -41 19 -30 18 -39 -6 -63
-26 -26 -30 -25 -30 3 0 28 -29 73 -30 45 0 -9 5 -20 10 -23 6 -3 10 -15 10
-25 0 -10 4 -22 10 -25 11 -7 110 45 110 58 0 4 13 7 30 7 16 0 41 5 55 12 19
9 28 9 37 0 7 -7 17 -12 23 -12 5 0 3 4 -5 10 -17 11 -8 15 51 23 26 4 36 2
36 -9 0 -8 -5 -14 -11 -14 -6 0 -4 -4 3 -9 18 -12 -4 -17 -96 -26 -108 -10
-151 -21 -209 -56 -62 -37 -144 -113 -144 -134 0 -7 -11 -20 -25 -29 -16 -11
-24 -24 -22 -39 1 -13 -3 -21 -10 -20 -7 2 -10 -3 -7 -10 2 -7 -4 -22 -16 -32
-11 -10 -20 -24 -20 -31 0 -7 -11 -33 -24 -56 -13 -24 -29 -60 -36 -81 -6 -21
-14 -37 -16 -35 -6 7 29 137 37 133 4 -3 5 5 1 17 -3 14 -1 19 6 14 8 -5 10
-2 6 8 -15 40 80 251 132 294 29 24 34 34 28 56 -3 14 -10 26 -14 26 -5 0 -11
13 -15 30 -4 16 -11 28 -17 27 -5 -1 -14 9 -19 23 -9 24 -8 24 6 6 8 -11 15
-15 15 -9 0 6 -7 16 -15 23 -8 7 -15 21 -15 32 0 11 -4 16 -11 12 -8 -4 -9 1
-4 16 6 19 4 22 -9 17 -10 -4 -14 -3 -11 2 3 5 1 12 -5 16 -6 4 -8 11 -5 16 4
5 3 14 0 20 -8 12 -38 -6 -107 -63 -43 -37 -51 -52 -116 -216 -56 -141 -73
-198 -86 -282 -9 -58 -25 -154 -35 -215 -26 -148 -61 -383 -61 -410 0 -14 11
-27 33 -38 32 -17 32 -17 4 -12 -19 4 -26 2 -22 -5 3 -5 -1 -10 -9 -10 -10 0
-17 -15 -21 -44 -6 -39 -3 -49 20 -80 15 -20 23 -36 17 -36 -6 0 -12 6 -15 13
-2 6 -8 8 -13 4 -12 -11 24 -37 42 -30 8 3 14 1 14 -5 0 -22 -29 -19 -51 5
l-24 25 -7 -49 c-20 -150 -20 -157 -1 -190 23 -41 165 -134 305 -200 l106 -51
-10 -48 c-8 -38 -7 -54 5 -78 8 -17 18 -39 21 -48 6 -19 36 -25 36 -8 0 6 -4
10 -9 10 -14 0 -24 38 -14 52 5 9 10 3 14 -17 l7 -30 1 35 c0 19 -2 45 -5 58
-5 18 -9 20 -20 11 -8 -6 -14 -17 -14 -23 0 -6 5 -4 10 4 5 8 10 11 10 5 0
-17 -17 -38 -23 -28 -3 5 -5 23 -5 40 1 24 5 29 19 26 11 -3 19 0 19 6 0 5 -7
8 -16 4 -11 -4 -15 -1 -13 13 2 10 -2 28 -8 39 -15 28 -27 85 -13 65 8 -13 10
-13 11 3 1 9 3 22 4 27 1 6 3 19 4 30 1 13 6 18 17 13 13 -5 15 -2 9 18 -4 13
-12 27 -18 30 -6 4 -7 22 -4 40 4 19 8 43 9 54 2 11 8 24 13 28 6 6 6 10 -2
14 -7 2 -13 12 -14 21 0 14 -2 13 -9 -3 -7 -16 -9 -13 -9 17 -1 20 4 39 12 41
9 4 9 6 -1 6 -7 1 -15 -6 -19 -15 -5 -13 -7 -13 -14 -2 -12 18 -11 31 1 23 6
-3 10 -2 10 4 0 5 -6 12 -12 14 -9 4 -10 8 -3 14 6 4 12 24 13 43 2 19 7 39
12 44 6 6 10 22 10 38 0 20 -4 26 -15 22 -12 -5 -15 2 -15 30 0 25 -4 36 -15
36 -11 0 -15 12 -16 43 -1 43 -3 40 -14 -26 -9 -56 -23 -36 -23 33 0 56 9 77
22 48 2 -7 4 -4 3 7 -2 11 -6 25 -10 32 -4 6 -7 22 -7 35 2 59 5 96 9 92 7 -7
30 30 31 49 0 9 5 17 10 17 14 0 13 -127 -1 -132 -5 -2 1 -14 14 -26 24 -23
24 -23 30 -3 3 14 0 21 -9 21 -12 0 -14 15 -12 80 2 45 7 80 13 80 6 0 6 3 -1
8 -15 10 -25 42 -14 42 5 0 12 17 15 38 18 114 37 161 84 208 88 87 173 111
506 139 94 8 224 22 290 30 140 17 207 14 268 -13 57 -25 87 -66 131 -176 30
-73 34 -92 24 -105 -9 -11 -6 -10 9 2 20 17 21 22 8 50 -7 18 -26 63 -41 101
-46 114 -105 165 -215 186 -50 10 -115 5 -529 -41 -99 -11 -234 -33 -272 -45
-33 -10 -18 11 30 43 55 36 95 49 175 56 50 5 57 4 47 -9 -7 -7 -16 -11 -21
-8 -5 3 -6 -1 -3 -9 11 -29 112 -3 181 47 38 27 132 51 269 67 130 15 174 1
238 -75 72 -86 132 -200 139 -261 1 -16 11 -42 21 -57 10 -15 14 -33 10 -40
-4 -7 -3 -10 1 -5 16 14 81 -173 100 -286 7 -43 -11 -79 -27 -55 -6 8 -7 -7
-3 -38 4 -29 2 -54 -3 -58 -11 -7 -44 149 -47 219 -1 28 -5 58 -9 67 -4 9 -5
22 -1 28 3 5 2 10 -3 10 -10 0 -25 -58 -17 -70 2 -4 5 -36 6 -71 1 -35 5 -68
9 -74 5 -5 20 -57 35 -114 23 -86 25 -105 14 -113 -11 -8 -10 -9 3 -5 12 4 20
-3 27 -25 6 -17 11 -39 11 -49 0 -10 8 -25 17 -35 10 -10 13 -19 7 -21 -13 -4
-5 -73 8 -73 6 0 7 7 4 15 -3 9 1 18 10 22 13 5 13 7 2 14 -9 6 -14 37 -15
101 -3 100 7 107 27 18 6 -30 18 -84 26 -120 18 -82 18 -101 0 -94 -15 6 -31
-63 -17 -80 4 -6 14 -39 21 -73 11 -53 10 -65 -1 -80 -12 -15 -12 -16 2 -11
20 8 29 -39 35 -166 1 -43 5 -81 8 -84 10 -9 7 -122 -3 -122 -5 0 -21 -20 -35
-45 -15 -25 -30 -45 -34 -45 -4 0 -13 -9 -19 -19 -10 -16 -9 -25 2 -48 18 -33
19 -53 4 -53 -6 0 -9 6 -6 14 3 8 -1 20 -10 28 -14 11 -15 10 -9 -12 6 -21 5
-22 -4 -7 -6 9 -16 15 -22 11 -7 -4 -5 -10 3 -16 10 -7 5 -8 -14 -3 -19 4 -26
2 -22 -5 3 -5 -1 -10 -9 -10 -9 0 -16 -5 -16 -11 0 -7 -10 -9 -26 -5 -14 4
-31 2 -38 -3 -6 -5 -54 -12 -106 -16 -127 -8 -154 -12 -158 -24 -2 -6 -10 -11
-18 -11 -8 0 -14 -6 -14 -12 -1 -8 -6 -6 -14 5 -14 18 -36 19 -48 2 -6 -8 -63
-12 -223 -16 -11 0 -65 -5 -121 -11 -74 -7 -113 -6 -145 2 -31 9 -44 9 -47 1
-2 -7 -11 -6 -25 4 -29 21 -54 21 -37 0 10 -12 10 -15 -4 -15 -9 0 -16 4 -16
9 0 19 -107 36 -126 20 -7 -6 -25 -3 -48 6 -30 13 -36 20 -36 45 0 24 6 33 28
41 15 6 37 11 49 11 12 0 21 5 20 10 -1 6 18 21 43 34 42 22 42 24 -2 28 -7 1
-17 6 -21 11 -6 6 -10 6 -14 -2 -7 -20 -20 -15 -26 8 -8 31 -32 17 -29 -17 l2
-29 -15 25 c-8 14 -14 35 -15 48 0 12 -4 22 -10 22 -5 0 -10 6 -10 14 0 16
-34 31 -50 21 -5 -3 -18 0 -29 7 -11 7 -22 10 -25 8 -2 -3 -2 -35 1 -71 5 -57
9 -69 29 -80 13 -7 26 -10 29 -7 7 7 -16 60 -30 71 -6 5 -2 6 9 3 13 -5 17 -2
12 9 -3 8 -9 22 -12 30 -3 8 -1 15 5 15 17 0 42 -102 39 -162 -2 -45 -5 -53
-15 -42 -7 7 -13 16 -13 19 0 4 -9 18 -20 32 -25 32 -26 24 -1 -20 17 -30 17
-42 7 -137 -25 -233 -8 -530 54 -955 19 -131 32 -449 34 -825 1 -172 -1 -194
-27 -305 -32 -129 -40 -211 -57 -545 -11 -226 0 -705 20 -825 5 -33 9 -98 9
-145 -1 -63 4 -100 20 -145 14 -39 21 -83 21 -132 0 -45 4 -75 12 -79 6 -4 14
-2 16 4 2 7 8 12 13 12 13 0 11 -39 -6 -86 -12 -34 -15 -218 -6 -332 3 -42
222 -80 305 -52 43 14 66 51 66 107 0 57 11 113 21 107 5 -3 9 -1 9 4 0 4 16
16 35 25 20 9 40 28 45 43 16 42 11 138 -12 237 -13 56 -20 113 -18 147 6 91
5 137 -17 613 -3 82 -1 184 5 250 7 62 17 175 23 252 7 77 18 157 25 177 7 21
16 77 20 125 4 48 15 114 25 145 23 72 37 174 49 358 18 282 59 621 96 795 8
39 19 102 25 140 17 127 21 145 30 145 9 0 12 -73 9 -218 -1 -56 3 -81 18
-106 11 -19 25 -71 31 -121 7 -49 16 -96 20 -104 5 -9 11 -68 14 -131 4 -83
11 -130 26 -168 16 -40 21 -75 21 -145 0 -51 7 -117 15 -147 8 -30 15 -86 15
-125 0 -57 5 -78 27 -115 28 -48 42 -109 47 -205 2 -39 12 -79 28 -110 15 -29
27 -75 31 -111 2 -34 15 -83 27 -110 14 -34 19 -59 15 -82 -3 -18 -1 -134 5
-259 6 -125 16 -336 21 -468 16 -404 27 -556 45 -660 12 -69 18 -155 18 -282
1 -100 4 -185 9 -189 4 -4 7 -21 7 -38 0 -17 4 -45 9 -61 5 -19 4 -48 -4 -80
-7 -28 -15 -94 -19 -147 -5 -79 -4 -98 8 -105 8 -4 16 -24 18 -43 3 -30 7 -35
38 -42 247 -52 268 -55 330 -50 38 2 76 12 90 22 14 9 39 23 57 31 31 13 50
49 38 69 -3 6 -8 33 -10 62 -2 31 -9 56 -18 63 -18 13 -67 147 -67 182 0 13
-10 37 -21 52 -19 26 -20 33 -9 65 8 24 11 117 9 293 -1 156 3 288 10 333 6
41 16 102 21 135 37 225 59 796 42 1059 -11 154 -12 162 -49 240 -36 75 -39
89 -41 180 -2 65 3 122 14 167 18 73 14 106 -27 235 -29 91 -43 480 -20 544 7
20 17 127 22 245 6 116 16 239 23 275 17 79 14 791 -3 935 -16 136 -15 148 11
139 21 -6 21 -6 5 11 -11 10 -14 22 -9 29 5 6 14 29 20 52 11 37 14 40 40 36
16 -2 46 1 67 7 l37 10 -6 -29 c-3 -17 -1 -30 4 -30 5 0 12 17 16 38 13 74 47
168 75 202 15 20 32 58 38 85 5 28 17 82 25 120 12 59 28 167 39 262 2 12 11
31 22 43 15 17 16 24 7 46 -22 46 -14 91 23 146 l35 51 -5 121 c-20 399 -34
517 -101 805 -66 284 -111 390 -200 469 -83 74 -171 117 -281 137 -51 9 -93
21 -93 26 0 7 -54 41 -62 38 -2 -1 -12 -6 -23 -12z"/>
<path d="M10619 8536 c-3 -3 -27 -7 -54 -11 -28 -3 -66 -10 -85 -15 -129 -35
-245 -59 -305 -64 -38 -4 -97 -11 -130 -17 -64 -12 -284 -18 -291 -8 -2 3 -35
-5 -75 -18 -41 -13 -81 -20 -95 -17 -27 7 -28 5 -13 -30 10 -20 9 -30 -5 -50
-9 -14 -15 -41 -14 -61 3 -39 23 -42 24 -4 4 117 42 137 274 149 173 9 384 38
535 75 167 40 209 44 253 25 62 -28 73 -54 87 -210 3 -36 10 -81 15 -100 7
-31 8 -32 9 -8 2 44 -30 262 -40 273 -14 14 -11 25 7 25 8 0 12 5 9 10 -4 6
-11 8 -16 4 -6 -3 -20 4 -31 15 -13 14 -26 20 -39 16 -11 -4 -19 -2 -19 5 0 6
5 8 10 5 6 -3 10 -1 10 4 0 11 -13 15 -21 7z"/>
<path d="M10370 8073 c-30 -2 -100 -10 -155 -19 -201 -31 -340 -45 -361 -37
-12 4 -15 3 -10 -5 4 -7 3 -12 -3 -12 -5 0 -12 4 -15 9 -4 5 -18 4 -34 -4 -15
-7 -47 -15 -72 -16 -25 -2 -62 -11 -82 -21 -44 -21 -61 -23 -55 -5 2 6 10 11
16 10 6 -2 11 2 11 7 0 6 -7 10 -15 10 -23 0 -30 -4 -26 -15 2 -5 3 -35 2 -65
-3 -78 11 -462 16 -456 4 3 4 399 0 456 -2 25 -2 25 90 25 l93 0 0 -27 c0 -41
-9 -56 -31 -51 -10 3 -19 0 -19 -6 0 -6 7 -11 15 -11 8 0 15 -4 15 -10 0 -5
-4 -10 -9 -10 -6 0 -9 -9 -8 -20 1 -11 7 -20 14 -20 6 0 15 -5 19 -12 5 -7 3
-8 -6 -3 -8 5 -11 3 -8 -6 3 -8 11 -13 17 -11 6 1 11 -4 11 -11 0 -7 14 -23
30 -37 17 -14 30 -34 31 -45 0 -17 2 -17 10 4 5 14 7 31 5 38 -3 7 1 13 8 13
18 0 28 37 12 43 -12 5 -36 111 -36 156 0 29 -34 65 -52 56 -9 -6 -10 -5 -3 3
16 16 81 20 71 4 -13 -22 12 -29 74 -21 348 45 465 60 585 74 77 9 144 20 149
25 6 6 24 10 41 11 26 0 27 2 10 9 -19 8 -228 10 -345 3z"/>
<path d="M10775 7930 c2 -25 15 -117 30 -205 14 -88 30 -189 35 -225 5 -36 14
-92 20 -125 22 -124 25 -152 24 -222 -2 -101 -3 -103 -31 -92 -25 9 -80 2 -89
-12 -7 -12 13 -11 36 1 13 7 30 5 62 -9 82 -35 142 -36 80 0 -23 13 -27 23
-30 65 -3 54 -17 150 -56 379 -14 83 -28 170 -31 195 -3 25 -7 52 -10 60 -2 8
-10 47 -16 85 -6 39 -15 88 -19 110 l-9 40 4 -45z"/>
<path d="M3868 3254 c-26 -14 -71 -27 -100 -30 -29 -3 -54 -9 -56 -14 -2 -6
-11 -10 -19 -10 -9 0 -13 6 -9 15 3 9 0 15 -10 15 -13 0 -13 -3 1 -28 16 -26
15 -30 -14 -89 -17 -34 -31 -67 -31 -72 0 -6 -6 -11 -14 -11 -9 0 -18 -19 -25
-52 -7 -28 -16 -57 -22 -65 -17 -19 -27 -262 -12 -282 9 -13 32 -16 125 -16
106 0 117 2 180 32 37 17 87 45 110 61 24 16 85 51 137 78 52 27 107 62 122
77 35 34 45 84 29 142 -14 50 -39 77 -93 100 -61 25 -152 92 -166 121 -9 21
-16 25 -34 19 -26 -8 -57 -8 -65 -1 -2 3 1 12 8 21 16 19 15 19 -42 -11z m42
-84 c0 -16 -3 -29 -7 -29 -20 3 -31 -2 -37 -17 -5 -13 -1 -15 19 -12 27 6 32
-1 13 -20 -9 -9 -8 -12 6 -12 15 0 16 -3 7 -14 -6 -7 -9 -20 -6 -27 7 -19 -4
-33 -45 -58 -41 -25 -70 -27 -70 -6 0 8 -8 15 -17 15 -15 0 -16 2 -3 10 13 8
13 10 1 10 -11 0 -10 4 4 13 17 13 17 14 -2 19 -12 3 -26 3 -31 -1 -6 -4 -29
-5 -51 -3 -36 4 -39 6 -28 23 15 24 59 27 50 3 -5 -14 -3 -15 14 -6 11 6 23 8
27 5 3 -3 6 -2 6 3 0 5 11 11 26 12 32 2 64 19 64 34 0 7 -5 7 -14 -1 -17 -14
-156 -23 -156 -10 0 5 18 9 40 9 61 0 119 21 154 56 17 17 32 32 34 33 1 0 2
-12 2 -29z"/>
<path d="M2505 2871 c38 -13 75 -34 75 -43 0 -5 -10 -2 -22 6 -12 9 -34 16
-48 16 -19 0 -13 -6 30 -26 30 -15 50 -28 43 -31 -7 -2 -21 1 -32 6 -13 7 -22
8 -26 1 -3 -5 -16 -15 -28 -22 -21 -11 -21 -10 -7 8 8 10 19 22 25 26 15 11
-41 28 -88 27 -33 0 -38 -2 -22 -9 11 -5 33 -9 48 -9 25 -1 27 -3 13 -16 -18
-18 -63 -20 -68 -3 -3 9 -6 9 -12 0 -5 -8 3 -14 23 -18 17 -4 31 -11 31 -16 0
-6 -8 -7 -17 -3 -22 8 -21 8 -58 5 l-30 -2 30 -9 c17 -5 57 -13 90 -18 l60 -8
-87 -2 c-51 0 -88 -5 -88 -11 0 -5 9 -10 19 -10 17 0 18 -3 8 -25 -8 -17 -17
-23 -27 -18 -28 12 -105 15 -133 4 -21 -8 -35 -27 -58 -78 -16 -38 -36 -79
-43 -93 -12 -22 -35 -107 -49 -180 -3 -14 -12 -51 -21 -83 -9 -32 -16 -68 -16
-80 0 -24 37 -64 130 -137 30 -24 71 -58 90 -76 55 -52 98 -59 350 -59 l225 0
46 27 c52 31 79 76 79 132 0 52 -56 112 -113 121 -51 9 -69 24 -114 94 -31 48
-33 55 -19 69 14 14 13 17 -13 33 -31 19 -43 57 -28 86 17 30 29 32 68 12 51
-26 105 -25 112 0 6 25 0 31 -33 31 -25 0 -179 36 -187 44 -2 2 1 15 7 30 5
15 8 32 4 37 -8 14 -38 11 -60 -6 -16 -13 -16 -14 -1 -9 20 7 24 -21 6 -46 -8
-12 -9 -9 -4 10 5 22 4 23 -5 7 -9 -13 -9 -22 0 -32 16 -20 -30 -49 -62 -39
-22 7 -22 7 -3 14 18 7 18 8 -7 15 -16 4 -28 11 -28 15 0 5 -9 6 -20 3 -22 -6
-28 12 -7 20 7 3 4 6 -6 6 -11 1 -15 5 -11 13 5 8 2 9 -9 5 -11 -4 -20 1 -28
14 -9 17 -8 20 8 17 10 -2 21 -7 24 -12 4 -4 9 -3 13 3 4 6 -4 13 -19 17 -14
3 -25 10 -25 14 0 13 33 21 44 10 14 -14 41 -13 55 3 11 14 -3 37 -23 37 -5 0
-1 -7 10 -16 10 -8 13 -12 5 -8 -21 11 -71 12 -71 2 0 -5 -4 -6 -10 -3 -6 4
-2 15 9 27 11 11 25 17 31 13 7 -4 16 -1 21 6 8 12 11 12 19 -1 7 -11 10 -12
10 -2 0 8 6 12 13 9 6 -2 11 -10 10 -16 -2 -6 2 -11 8 -11 20 0 38 -27 32 -49
-4 -15 -1 -21 11 -21 21 0 33 29 16 40 -8 5 -8 9 -2 11 6 2 13 27 16 54 3 28
8 66 12 86 6 33 4 37 -31 57 -20 12 -46 22 -58 21 -21 -1 -21 -1 -2 -8z"/>
<path d="M0 500 l0 -500 8000 0 8000 0 0 500 0 500 -8000 0 -8000 0 0 -500z
m776 263 c35 -12 68 -35 117 -84 l67 -68 0 -133 c0 -121 -2 -136 -20 -156 -12
-12 -28 -22 -38 -22 -9 0 -37 -14 -61 -30 -57 -38 -112 -53 -181 -48 -172 13
-294 185 -246 350 47 162 204 245 362 191z m464 -160 c1 -92 2 -96 16 -71 17
33 62 58 101 58 28 0 93 -33 93 -47 0 -4 -26 -33 -57 -65 -53 -53 -55 -58 -32
-58 13 0 35 7 47 16 21 15 22 14 22 -19 0 -29 -5 -37 -30 -47 -58 -24 -127 4
-154 62 -5 10 -7 10 -12 -1 -37 -81 -153 -94 -201 -22 -58 85 7 192 109 178
l38 -5 0 59 c0 59 0 59 30 59 l30 0 0 -97z m1360 38 l0 -59 39 5 c33 5 41 2
55 -19 13 -20 76 -190 76 -206 0 -2 -15 -2 -32 0 -32 3 -34 6 -57 86 -21 71
-27 82 -47 82 -28 0 -34 -17 -34 -101 l0 -69 -30 0 c-27 0 -30 3 -30 34 l0 34
-35 -35 c-34 -34 -38 -35 -90 -31 l-55 5 0 -44 c0 -41 -1 -43 -30 -43 l-30 0
0 110 c0 125 11 160 60 185 59 30 136 10 164 -43 14 -25 15 -21 16 71 l0 97
30 0 c30 0 30 0 30 -59z m-370 -16 c0 -31 3 -35 25 -35 21 0 25 -5 25 -30 0
-25 -4 -30 -25 -30 -24 0 -25 -3 -25 -55 0 -54 4 -60 38 -56 7 1 12 -10 12
-29 0 -28 -3 -30 -35 -30 -56 0 -75 27 -75 105 0 37 -4 65 -10 65 -5 0 -10 14
-10 30 0 17 5 30 10 30 6 0 10 11 10 23 0 15 9 28 23 35 34 16 37 15 37 -23z
m856 -35 c20 0 24 -5 24 -30 0 -25 -4 -30 -25 -30 -24 0 -25 -3 -25 -55 0 -52
1 -55 25 -55 21 0 25 -5 25 -30 0 -28 -3 -30 -35 -30 -56 0 -75 27 -75 105 0
37 -4 65 -10 65 -5 0 -10 14 -10 30 0 17 5 30 10 30 6 0 10 11 10 24 0 18 8
27 28 34 26 8 27 7 30 -25 3 -27 7 -33 28 -33z m-1440 -33 c12 -14 25 -32 28
-39 5 -10 7 -10 12 1 37 81 153 94 201 22 72 -106 -46 -227 -156 -160 -18 11
-35 28 -38 39 -4 16 -10 13 -44 -22 -37 -39 -40 -40 -89 -36 l-50 5 0 -43 c0
-42 -1 -44 -30 -44 l-30 0 0 109 c0 60 4 121 10 135 25 66 140 86 186 33z
m395 14 c24 -19 24 -19 5 -40 -13 -15 -23 -18 -30 -11 -5 5 -16 10 -23 10 -21
0 -15 -20 10 -29 37 -14 52 -42 48 -88 -2 -24 -41 -53 -70 -53 -16 0 -39 9
-52 19 -24 19 -24 19 -5 40 13 15 23 18 30 11 15 -15 36 -12 36 5 0 8 -7 15
-15 15 -25 0 -55 38 -55 70 0 61 71 91 121 51z m908 -15 c22 -22 26 -36 26
-82 0 -49 -4 -59 -28 -80 -51 -44 -103 -44 -154 0 -24 21 -28 31 -28 79 0 58
18 90 60 108 35 15 96 3 124 -25z m349 1 c34 -35 40 -101 13 -145 -37 -58
-107 -69 -160 -24 -58 49 -53 142 11 183 43 26 101 20 136 -14z m163 14 c24
-19 24 -19 5 -40 -13 -15 -23 -18 -30 -11 -5 5 -16 10 -23 10 -22 0 -15 -20
10 -29 58 -22 73 -69 36 -115 -25 -32 -75 -35 -110 -7 -24 19 -24 19 -5 40 13
15 23 18 30 11 13 -13 46 -13 46 0 0 5 -18 19 -40 30 -35 18 -40 25 -40 55 0
66 69 98 121 56z m8447 -3 c7 -7 12 -31 12 -53 0 -55 -24 -77 -77 -73 l-38 3
-1 50 c-1 79 2 85 50 85 23 0 47 -5 54 -12z"/>
<path d="M640 640 c-8 -15 -21 -20 -55 -20 -68 0 -75 -13 -75 -141 0 -61 5
-119 10 -130 10 -18 23 -19 195 -19 154 0 186 3 199 16 13 12 16 39 16 129 0
135 -6 145 -81 145 -38 0 -52 4 -61 20 -11 17 -24 20 -75 20 -52 0 -64 -3 -73
-20z m130 -65 c58 -30 76 -104 40 -163 -44 -72 -156 -68 -195 8 -53 103 52
208 155 155z"/>
<path d="M668 553 c-59 -37 -61 -119 -5 -154 38 -23 59 -24 96 -4 33 17 56 64
47 99 -16 63 -85 93 -138 59z m96 -24 c52 -41 18 -129 -49 -129 -38 0 -75 37
-75 75 0 12 9 34 21 49 25 32 66 34 103 5z"/>
</g>
</svg>
