<?xml version="1.0" standalone="no"?>
<!DOCTYPE svg PUBLIC "-//W3C//DTD SVG 20010904//EN"
 "http://www.w3.org/TR/2001/REC-SVG-20010904/DTD/svg10.dtd">
<svg version="1.0" xmlns="http://www.w3.org/2000/svg"
 width="688.000000pt" height="308.000000pt" viewBox="0 0 688.000000 308.000000"
 preserveAspectRatio="xMidYMid meet">
<metadata>
Created by potrace 1.16, written by Peter Selinger 2001-2019
</metadata>
<g transform="translate(0.000000,308.000000) scale(0.100000,-0.100000)"
fill="#000000" stroke="none">
<path d="M3963 2563 l-83 -4 0 -99 c0 -55 4 -100 9 -100 4 0 8 10 8 23 1 55 4
67 17 67 17 0 26 -22 26 -66 0 -19 5 -34 10 -34 6 0 10 18 10 39 0 52 8 71 31
71 16 0 19 -8 19 -55 0 -30 5 -55 10 -55 6 0 10 25 10 55 0 55 19 79 22 28 0
-16 2 -32 3 -38 2 -5 3 -18 4 -28 1 -15 9 -18 59 -15 36 2 57 7 58 16 1 6 2
30 3 52 1 33 5 40 21 40 18 0 20 -7 20 -56 0 -31 4 -53 9 -49 7 4 8 144 2 208
-1 7 -93 7 -268 0z"/>
<path d="M4270 2466 l0 -104 33 -4 c18 -2 53 -2 78 0 l45 4 -2 40 c-1 22 1 49
4 60 8 32 22 0 22 -53 0 -50 10 -59 72 -59 45 0 53 8 52 49 -1 21 2 44 6 51
15 23 30 -1 30 -48 0 -33 3 -43 11 -35 7 7 9 46 7 104 l-3 94 -177 3 -178 2 0
-104z"/>
<path d="M4679 2563 c-4 -22 3 -199 8 -206 5 -9 232 -9 271 0 22 5 23 8 20
107 l-3 101 -147 3 c-82 1 -149 -1 -149 -5z"/>
<path d="M3088 2553 l-128 -4 -2 -74 c-1 -41 -2 -87 -2 -102 -1 -19 4 -28 14
-28 11 0 18 17 24 58 11 75 26 73 26 -3 0 -33 4 -60 10 -60 6 0 10 25 10 56 0
48 2 55 16 50 12 -4 15 -2 10 9 -3 8 -1 15 4 15 5 0 10 -28 12 -62 4 -74 22
-84 26 -15 2 33 7 47 18 47 16 0 19 16 4 23 -6 3 -5 4 2 3 9 -2 14 -24 16 -65
l3 -62 47 4 47 4 3 54 c3 48 13 68 35 69 4 0 7 -27 7 -60 0 -61 19 -87 21 -27
2 50 13 82 32 85 14 3 17 -5 17 -44 0 -26 2 -45 4 -43 6 6 14 153 9 167 -3 8
-27 11 -81 10 -42 -1 -134 -4 -204 -5z"/>
<path d="M3417 2553 c-4 -3 -7 -51 -7 -105 0 -80 3 -98 15 -98 10 0 15 10 15
29 0 43 11 91 21 91 5 0 9 -27 9 -60 0 -44 4 -60 14 -60 10 0 12 12 8 50 -4
41 -1 51 13 56 23 9 35 -12 35 -63 0 -24 5 -43 10 -43 6 0 10 18 10 39 0 23 7
46 16 55 8 9 12 20 9 26 -3 5 -2 10 3 10 13 0 22 -36 22 -88 l0 -43 80 2 80 2
0 48 c0 56 7 79 25 79 15 0 24 -30 26 -90 l2 -45 7 50 c5 28 9 76 9 108 l1 57
-208 0 c-115 0 -212 -3 -215 -7z"/>
<path d="M2516 2543 c-11 -11 -7 -205 4 -198 6 3 10 24 10 45 0 44 8 70 21 70
5 0 9 -27 9 -61 0 -74 20 -77 27 -4 7 90 43 84 43 -7 0 -32 4 -48 13 -48 9 0
13 15 12 45 0 25 4 45 10 44 5 0 12 8 16 18 8 19 13 -25 9 -79 -1 -27 0 -28
49 -28 l51 0 0 49 c0 28 5 53 10 56 6 3 10 0 10 -7 0 -9 3 -9 10 2 7 11 10 -2
10 -42 0 -74 15 -75 23 -1 5 52 20 78 39 67 4 -3 9 -15 10 -27 1 -12 4 5 7 38
4 33 5 64 3 68 -4 9 -387 9 -396 0z"/>
<path d="M2109 2533 l-37 -4 -1 -100 c-2 -80 1 -99 13 -99 10 0 16 18 21 63 7
53 9 58 17 37 5 -14 8 -40 6 -59 -2 -20 2 -36 9 -38 8 -3 13 14 15 54 2 44 7
58 18 58 11 0 16 -14 18 -58 l3 -58 82 3 c57 2 82 7 83 16 1 6 2 27 3 45 1 36
16 65 28 54 4 -5 6 -30 5 -57 -1 -27 3 -52 8 -55 6 -4 10 5 10 21 0 41 22 104
36 104 7 0 15 -12 17 -27 2 -16 5 2 6 40 l1 67 -162 -2 c-90 -1 -179 -3 -199
-5z"/>
<path d="M5777 2504 c-3 -4 -172 -8 -374 -10 -202 -1 -373 -3 -380 -3 -8 -1
-11 -17 -9 -48 2 -27 4 -75 5 -109 l1 -61 280 -1 c272 -1 280 -1 280 18 0 11
7 20 15 20 18 0 20 -17 3 -23 -24 -8 56 -18 122 -15 l65 3 5 110 c5 104 2 134
-13 119z"/>
<path d="M6276 2503 c-1 -2 -98 -3 -214 -3 -131 -1 -214 -5 -218 -11 -3 -6 -3
-57 1 -114 l7 -103 399 0 c220 -1 400 2 400 6 2 10 6 48 14 143 l8 87 -197 -2
c-109 0 -199 -2 -200 -3z"/>
<path d="M1735 2462 l-180 -2 3 -98 c2 -53 5 -103 8 -111 3 -11 18 -12 67 -8
34 4 133 7 220 8 145 1 158 2 168 20 12 23 3 43 -17 35 -21 -8 -17 18 6 39 17
15 20 29 18 69 l-3 51 -55 0 c-30 0 -136 -1 -235 -3z"/>
<path d="M1346 2453 c-1 -1 -103 -5 -226 -8 -124 -3 -292 -8 -375 -10 -82 -3
-199 -5 -260 -6 -127 -2 -146 -5 -139 -23 4 -9 23 -14 57 -14 95 0 87 8 87
-87 l0 -86 68 3 67 3 7 45 c4 25 11 63 15 85 l8 40 79 3 78 3 -3 -83 -4 -83
72 -3 71 -3 7 78 c8 103 13 123 29 123 9 0 15 -25 19 -90 3 -49 9 -95 12 -101
5 -7 53 -9 154 -5 80 3 188 6 238 7 51 0 95 4 97 7 2 4 7 52 11 107 l7 100
-87 0 c-48 0 -88 -1 -89 -2z"/>
<path d="M2580 2109 c-316 -5 -627 -10 -690 -13 -63 -3 -130 -5 -148 -5 -19
-1 -31 -5 -27 -11 3 -5 -1 -10 -9 -10 -8 0 -18 5 -21 10 -3 6 -13 10 -22 10
-13 0 -13 -3 -2 -16 11 -13 9 -14 -17 -8 -16 4 -30 11 -32 16 -5 12 -30 10
-36 -4 -5 -10 -7 -10 -12 0 -4 7 -27 12 -63 12 -32 0 -63 -6 -70 -12 -11 -10
-14 -10 -18 0 -6 14 -33 16 -33 2 0 -5 -7 -10 -15 -10 -8 0 -15 5 -15 10 0 6
-7 10 -15 10 -8 0 -15 -4 -15 -10 0 -15 -38 -12 -43 3 -3 9 -8 9 -21 -2 -12
-10 -20 -11 -28 -3 -8 8 -17 8 -30 1 -14 -8 -24 -7 -35 2 -13 11 -18 10 -29
-6 -10 -13 -17 -16 -22 -9 -9 15 -102 16 -102 1 0 -8 -4 -7 -12 1 -17 17 -185
16 -191 0 -4 -9 -8 -10 -14 -2 -4 6 -29 11 -55 12 -36 0 -45 -3 -41 -14 7 -18
-7 -18 -34 1 -19 13 -22 13 -27 -2 -6 -14 -8 -14 -24 1 -23 20 -32 20 -32 1 0
-19 -14 -19 -34 0 -18 18 -27 19 -24 3 2 -10 -28 -13 -122 -15 -69 -1 -127 -2
-129 -2 -2 -1 3 -9 11 -18 9 -10 19 -28 23 -41 5 -17 11 -21 23 -16 10 4 40 8
67 8 l50 1 1 -80 2 -80 83 0 c77 0 84 2 86 20 13 137 13 135 42 135 16 0 49
-3 75 -6 l46 -7 0 -67 c0 -45 4 -69 13 -72 6 -3 39 -4 72 -3 l60 2 8 94 c7 90
26 145 28 86 3 -55 6 -83 13 -130 l8 -47 252 2 251 3 10 97 c5 53 13 100 18
104 4 4 7 -1 7 -12 3 -91 9 -174 15 -183 4 -8 61 -10 178 -7 95 3 211 5 259 5
l86 1 6 63 c4 34 9 80 13 102 10 72 20 10 26 -175 4 -96 9 -216 13 -266 4 -60
3 -97 -5 -111 -19 -37 -17 -114 4 -129 13 -10 22 -11 31 -3 8 6 83 7 218 3
163 -5 209 -4 222 7 13 10 17 10 24 0 5 -9 10 -10 14 -2 6 9 69 6 87 -5 9 -5
260 -7 265 -1 3 3 5 56 5 119 -1 128 18 358 30 373 5 5 9 -20 9 -57 0 -75 14
-97 50 -78 12 6 37 8 58 5 31 -5 105 -6 227 -3 11 0 36 0 55 -1 19 0 56 0 83
0 26 0 55 1 65 0 9 0 78 1 152 2 l135 2 3 73 c2 55 6 72 17 72 16 0 20 -79 15
-292 l-2 -88 148 0 c88 0 144 4 139 9 -6 5 -46 28 -90 52 -96 51 -155 87 -155
95 0 3 3 3 8 1 49 -26 202 -97 210 -97 6 0 12 -3 14 -7 2 -5 22 -18 44 -30 39
-21 55 -23 206 -23 l165 0 6 173 c4 94 8 181 11 192 2 11 5 27 6 35 4 31 18
-47 19 -107 l1 -63 154 0 154 0 7 28 c8 30 12 78 24 234 7 102 13 129 27 116
3 -3 8 -53 12 -109 l7 -104 403 -3 c319 -2 403 0 407 10 2 7 6 56 9 108 2 52
8 104 12 114 4 11 4 17 -2 13 -5 -3 -112 -8 -238 -12 -179 -5 -231 -3 -244 7
-12 10 -16 10 -19 0 -3 -6 -9 -9 -15 -6 -5 3 -34 6 -64 5 -30 0 -54 2 -54 4 0
2 7 11 16 19 14 15 13 16 -11 16 -23 0 -26 -3 -21 -23 5 -22 3 -23 -52 -22
-44 0 -57 3 -57 15 0 11 12 15 42 16 24 0 46 3 49 7 9 9 -1830 6 -2576 -4z"/>
<path d="M6123 2082 c-7 -4 -71 -7 -142 -6 -92 1 -131 -2 -132 -10 -2 -14 -2
-14 6 -128 l7 -98 403 0 403 0 10 28 c6 15 12 69 14 120 l3 92 -25 1 c-82 3
-187 0 -203 -6 -9 -4 -23 -2 -31 4 -10 9 -20 9 -40 0 -19 -9 -29 -9 -39 -1 -8
7 -17 8 -23 2 -5 -5 -36 -5 -70 -1 -34 4 -70 4 -80 0 -11 -3 -26 -3 -35 2 -8
4 -20 4 -26 1z"/>
<path d="M28 1862 c-17 -3 -18 -38 -18 -560 0 -306 3 -722 7 -925 l6 -367 724
0 c716 0 723 0 723 20 0 21 -24 28 -35 10 -4 -7 -14 -5 -28 5 -12 8 -31 15
-44 15 -26 0 -41 19 -23 30 9 5 9 9 1 14 -22 14 -10 26 27 26 31 -1 35 -3 21
-13 -14 -10 -14 -14 -3 -25 16 -14 60 -16 69 -2 10 16 45 12 52 -6 3 -9 1 -25
-5 -35 -7 -10 -12 -23 -12 -29 0 -17 41 -11 72 11 16 12 32 18 35 15 4 -3 -2
-13 -13 -20 -16 -13 20 -14 283 -14 166 1 306 4 312 7 11 7 17 46 10 70 -3 8
5 14 19 16 17 1 26 -5 33 -22 12 -33 12 -35 -10 -28 -19 6 -36 -18 -25 -36 7
-12 34 -12 34 1 0 5 15 7 33 3 105 -18 171 -14 137 8 -13 8 -13 10 0 19 22 14
35 6 33 -19 -3 -19 2 -21 50 -21 60 0 105 23 87 45 -8 9 -6 14 5 19 9 3 18 -1
22 -10 5 -13 15 -15 55 -10 33 5 55 3 64 -5 11 -9 18 -9 26 -1 7 7 27 12 46
12 l34 0 -23 20 -24 19 34 -9 c19 -5 41 -16 50 -24 10 -9 39 -15 81 -15 36 -1
157 -3 269 -6 112 -2 209 -1 215 3 12 7 26 9 123 12 34 2 60 7 57 11 -3 5 -12
9 -20 9 -12 0 -12 4 -4 20 8 15 17 19 35 14 19 -5 25 -2 25 10 0 13 -8 15 -40
11 -43 -6 -48 -2 -26 21 17 17 200 20 255 4 23 -6 39 -6 47 1 14 12 86 7 106
-7 7 -5 33 -9 57 -9 45 0 45 0 57 45 12 46 22 41 28 -14 3 -29 16 -48 16 -24
0 20 36 12 64 -14 25 -23 38 -23 34 -1 -3 16 5 18 57 17 140 -3 175 -7 186
-20 11 -13 34 -9 25 4 -4 7 30 7 374 2 113 -2 282 -2 375 -1 94 1 215 -3 270
-10 128 -14 254 -17 282 -6 22 10 83 -10 83 -25 0 -5 16 -8 36 -8 31 0 35 3
29 20 -5 16 -2 20 17 22 51 3 84 -5 106 -25 22 -21 24 -21 36 -4 15 20 36 22
59 4 11 -8 51 -12 115 -11 58 1 100 -3 104 -9 4 -7 11 -7 21 1 7 7 17 9 21 5
3 -4 23 -8 44 -9 53 -3 54 -3 47 -14 -3 -5 -26 -10 -51 -10 -50 0 -57 -13 -16
-28 38 -14 112 -15 92 -1 -11 8 -8 9 15 5 17 -4 76 -9 133 -12 93 -6 104 -4
117 12 13 18 14 18 20 2 18 -45 25 7 25 173 0 177 0 180 -22 188 -29 11 -48 4
-41 -15 6 -17 -20 -19 -49 -3 -29 16 -71 19 -86 6 -10 -8 -16 -7 -22 2 -6 11
-36 11 -156 2 -359 -26 -672 -33 -1179 -28 -286 4 -572 12 -635 18 -63 6 -184
11 -269 10 -119 -1 -159 2 -176 13 -12 8 -32 16 -46 19 -14 2 -3 5 26 7 28 1
95 6 150 10 l100 7 -92 1 c-98 2 -113 10 -113 61 0 21 -44 61 -67 61 -17 0
-52 -39 -53 -57 0 -15 -30 -18 -30 -3 0 6 -12 15 -27 21 -21 8 -30 6 -48 -11
-12 -11 -25 -17 -28 -13 -4 3 -13 -2 -21 -12 -11 -15 -11 -23 0 -43 7 -14 11
-29 8 -34 -3 -4 0 -8 6 -8 6 0 9 -4 5 -9 -3 -6 -24 -3 -51 7 -38 14 -46 14
-53 3 -16 -25 -41 -4 -42 36 -1 24 -3 30 -6 15 -3 -14 -15 -27 -31 -33 -15 -5
-37 -15 -49 -21 -20 -10 -26 -8 -47 15 -14 15 -20 28 -13 28 7 1 -4 5 -23 9
-26 5 -12 8 53 9 l87 1 0 47 c0 46 13 50 23 8 3 -11 5 0 6 24 1 38 -1 42 -14
31 -13 -11 -15 -2 -15 67 l0 80 -112 6 c-62 4 -175 7 -250 7 -116 0 -138 -2
-138 -15 0 -19 -10 -19 -24 -1 -8 11 -45 15 -151 18 l-140 3 -3 -70 c-1 -38
-4 -80 -7 -92 -5 -22 -6 -22 -25 -6 -11 10 -20 23 -20 30 0 18 -5 16 -36 -12
-24 -23 -29 -24 -44 -10 -9 8 -28 15 -43 15 -34 0 -49 29 -46 88 l3 47 -144 8
c-151 8 -226 3 -199 -14 17 -10 15 -11 -33 -14 -21 -1 -35 2 -32 6 3 5 14 9
25 9 10 0 19 7 19 15 0 9 9 15 21 15 14 0 19 5 17 18 -2 9 3 22 12 29 10 8 11
12 3 13 -7 0 -13 4 -13 10 0 5 13 2 29 -8 24 -14 35 -15 63 -5 18 6 59 12 91
12 33 1 63 3 67 6 5 3 11 2 13 -2 3 -5 40 -7 84 -7 71 2 80 -1 100 -23 13 -13
23 -31 23 -39 0 -7 4 -14 9 -14 9 0 20 102 22 200 0 36 6 83 13 105 l13 40 7
-65 c3 -36 7 -91 9 -123 l2 -59 296 0 c162 0 344 -3 403 -7 69 -4 110 -3 116
4 4 5 8 67 8 136 0 78 4 135 12 148 16 31 24 20 30 -42 l5 -52 70 2 c39 0 104
1 145 2 l75 1 -136 74 -137 74 -633 6 c-1092 10 -1174 10 -1172 -5 1 -8 10
-57 19 -109 9 -52 18 -108 20 -125 2 -16 6 -42 9 -57 5 -30 -9 -45 -45 -48
-45 -4 -60 0 -60 15 0 9 -9 15 -25 15 -16 0 -40 16 -68 44 -25 24 -55 48 -68
52 -18 7 -3 10 61 14 l85 5 6 91 c4 50 12 100 18 112 15 28 2 29 -219 32 -102
1 -214 3 -250 4 -182 6 -742 8 -747 2 -10 -9 -69 -7 -141 5 -51 9 -66 9 -72
-1 -6 -10 -30 -11 -101 -5 -103 8 -158 10 -204 5 -16 -1 -72 4 -123 11 l-94
13 7 46 c4 25 9 49 12 54 3 4 25 6 49 3 25 -2 46 -2 48 2 2 3 7 49 10 101 4
52 9 107 12 123 10 52 34 24 34 -40 l0 -36 23 25 c21 22 30 25 75 20 l52 -5 0
-68 0 -69 63 -2 c65 -1 99 0 104 6 2 1 5 25 9 52 11 96 5 90 81 84 l68 -5 3
-67 c3 -76 4 -77 92 -74 l55 1 10 92 c9 85 23 132 26 87 1 -10 3 -50 5 -88 2
-38 7 -73 11 -77 9 -9 497 -14 511 -5 5 3 11 43 14 89 6 123 22 132 28 15 3
-53 8 -99 11 -102 7 -7 518 -10 525 -3 3 3 9 49 14 102 4 53 13 102 20 110 8
10 8 15 -2 22 -7 4 -445 10 -973 13 l-960 5 -1 63 c0 43 2 60 10 52 12 -12 83
-13 90 -1 3 5 -13 18 -36 30 -32 16 -44 18 -50 8 -6 -9 -10 -9 -17 1 -4 8 -24
14 -42 15 -19 1 -36 7 -39 12 -3 6 -13 9 -22 7z m875 -766 c1 -56 6 -79 17
-86 8 -6 126 -10 266 -10 l252 0 7 85 c4 47 11 85 16 85 9 0 11 -10 14 -85 1
-22 5 -50 9 -62 7 -23 12 -24 81 -27 25 -1 30 -5 30 -26 0 -24 -2 -25 -49 -21
l-50 3 17 -26 c15 -22 15 -26 2 -26 -8 0 -15 -6 -15 -13 0 -26 -33 -45 -67
-40 -36 6 -46 23 -14 23 24 0 37 18 23 32 -16 16 -50 -1 -57 -30 -4 -15 -14
-35 -22 -44 -18 -20 -4 -25 15 -6 8 8 12 8 12 1 0 -21 -38 -25 -269 -23 l-234
1 6 -50 c3 -28 2 -53 -4 -56 -5 -4 -9 3 -9 14 0 12 -7 21 -15 21 -11 0 -15 11
-15 38 l0 38 -187 2 c-104 1 -237 5 -296 8 -145 9 -154 4 -163 -87 -8 -80 -24
-83 -24 -5 0 74 10 116 27 116 8 0 12 4 8 10 -3 5 -3 19 0 32 7 26 -16 25 470
16 l169 -3 7 40 c4 22 11 89 14 148 8 125 24 133 28 13z m391 -942 c24 -9 19
-26 -5 -19 -14 5 -28 -1 -47 -21 l-27 -27 26 6 c24 6 26 4 21 -18 -2 -14 -11
-25 -21 -26 -26 -1 -227 1 -338 4 -60 1 -107 7 -113 13 -17 17 4 26 33 15 14
-6 75 -10 136 -9 99 0 113 3 122 19 11 21 30 26 27 7 -2 -9 10 -13 36 -12 28
1 44 8 57 25 10 13 19 20 19 14 0 -5 7 1 16 13 16 23 30 27 58 16z m528 -52
c19 -8 36 -8 58 -1 24 9 35 8 55 -5 13 -9 44 -16 69 -16 46 0 70 -15 39 -24
-10 -2 -39 -3 -65 0 -117 10 -141 11 -178 4 -42 -8 -52 3 -27 29 10 11 9 13
-6 7 -10 -3 -23 -6 -28 -6 -5 0 -9 -7 -9 -15 0 -8 -4 -15 -10 -15 -5 0 -10 4
-10 9 0 15 -105 25 -129 12 -15 -9 -26 -8 -43 1 -13 7 -25 14 -27 15 -37 20
262 24 311 5z"/>
<path d="M5011 1661 c-12 -7 -11 -10 5 -14 10 -2 4 -3 -15 -1 -26 2 -31 0 -23
-8 8 -8 12 -50 12 -114 0 -63 4 -105 11 -109 6 -4 192 -10 413 -13 l403 -5 6
33 c4 18 7 68 7 111 0 60 3 79 14 79 10 0 15 -27 21 -110 l7 -110 413 0 413 0
6 31 c3 17 6 66 6 108 l0 77 38 24 38 25 -48 -1 c-26 0 -51 -3 -55 -7 -10 -11
-53 -8 -53 3 0 6 -4 10 -10 10 -5 0 -10 -7 -10 -16 0 -15 -2 -15 -25 0 -29 19
-61 21 -69 4 -5 -10 -7 -10 -12 0 -7 15 -50 16 -59 2 -5 -8 -11 -8 -20 0 -20
16 -621 9 -617 -7 3 -18 -15 -16 -21 1 -5 13 -64 15 -384 15 -210 1 -384 -3
-392 -8z"/>
<path d="M3027 1573 c-4 -3 -7 -62 -7 -130 l0 -123 38 0 c76 -1 748 -2 765 -1
14 1 17 11 18 54 1 28 4 41 6 27 3 -14 10 -28 17 -32 13 -8 13 -9 15 -85 l2
-58 132 -64 c73 -36 134 -68 137 -71 3 -4 26 -16 51 -28 40 -20 65 -23 205
-25 l159 -2 2 178 1 177 -329 0 c-325 0 -330 0 -364 23 -34 22 -35 23 -35 95
l0 72 -403 0 c-222 0 -407 -3 -410 -7z"/>
<path d="M4658 1572 l-48 -3 0 -150 0 -149 98 -1 c110 -1 186 1 190 6 2 2 4
70 5 152 l2 148 -100 0 c-55 0 -121 -1 -147 -3z"/>
<path d="M4980 1202 c0 -4 4 -12 10 -18 5 -5 11 -63 12 -129 l3 -120 45 -6 45
-5 -45 -5 c-25 -3 36 -7 135 -8 99 -2 250 -7 335 -12 85 -5 163 -9 173 -9 11
-1 17 -9 17 -26 0 -22 4 -24 49 -24 l49 0 7 63 c3 34 10 86 16 116 5 30 9 76
9 103 0 41 3 48 20 48 19 0 20 -7 21 -107 0 -94 24 -259 29 -210 2 9 3 23 4
30 1 15 -20 14 294 17 147 1 251 6 232 10 -27 6 -15 8 48 9 l82 1 0 98 c0 82
3 102 18 114 21 19 81 40 93 32 5 -3 9 -35 9 -72 0 -67 14 -113 24 -82 2 8 7
46 11 84 4 54 11 72 28 87 12 10 17 18 10 19 -6 0 -14 -4 -17 -9 -3 -5 -90 -7
-193 -5 -104 2 -291 3 -417 3 -182 -1 -230 2 -237 12 -7 11 -12 12 -29 2 -25
-16 -425 -19 -415 -3 4 6 -5 10 -19 10 -14 0 -26 -4 -26 -10 0 -6 -71 -10
-194 -10 -119 0 -197 4 -201 10 -7 12 -35 13 -35 2z"/>
<path d="M4618 1123 c-2 -16 -2 -88 0 -161 l3 -133 137 3 137 3 2 158 1 157
-138 0 -139 0 -3 -27z"/>
<path d="M3877 973 c-4 -7 -2 -331 2 -355 1 -3 48 -6 105 -5 89 2 107 -1 125
-17 19 -17 21 -17 27 -2 5 14 30 16 205 16 140 0 199 -3 199 -11 0 -8 5 -7 16
1 9 8 14 25 12 44 l-3 31 -160 7 c-88 3 -184 9 -212 11 -42 4 -53 2 -53 -9 0
-8 -7 -14 -16 -14 -11 0 -14 6 -8 23 3 12 7 23 8 23 0 1 35 -2 76 -6 41 -5
141 -11 223 -14 l148 -7 -3 143 -3 143 -342 3 c-188 1 -344 -1 -346 -5z"/>
<path d="M6787 784 c-2 -2 -1 -21 2 -41 5 -28 12 -39 31 -44 l25 -7 -27 -1
-27 -1 2 -97 2 -98 34 0 34 0 -2 140 c-1 77 -4 142 -7 145 -6 6 -61 9 -67 4z"/>
<path d="M5004 721 c-13 -13 -1 -41 19 -46 12 -3 198 -5 412 -3 l390 3 3 25 3
25 -411 0 c-227 0 -414 -2 -416 -4z"/>
<path d="M5890 698 c0 -9 4 -19 9 -23 8 -5 219 1 719 20 46 1 88 7 92 11 5 5
-173 9 -406 9 -385 1 -414 -1 -414 -17z"/>
<path d="M6205 668 c-159 -5 -296 -11 -303 -13 -10 -4 -12 -35 -10 -137 l3
-133 195 2 c107 2 251 7 320 13 69 5 162 12 208 16 l82 6 0 34 c0 19 4 34 9
34 6 0 8 17 5 38 -2 20 -4 63 -4 95 l1 57 -52 0 -52 0 5 -49 c5 -48 -4 -82
-17 -69 -4 3 -7 28 -8 55 -2 56 -9 63 -57 61 -19 -1 -165 -5 -325 -10z"/>
<path d="M4620 537 l0 -133 143 -11 c78 -5 146 -7 150 -3 5 5 4 17 -2 28 -6
11 -11 70 -11 130 l0 110 -31 6 c-17 3 -80 6 -140 6 l-109 0 0 -133z"/>
<path d="M5003 541 c6 -115 5 -121 -15 -132 -32 -17 -38 3 -38 129 0 68 -4
112 -10 112 -10 0 -9 -255 1 -264 6 -6 887 -12 891 -6 1 3 1 66 -2 140 l-5
135 -414 3 -414 3 6 -120z"/>
</g>
</svg>
