<svg id="Layer_1" enable-background="new 0 0 512.004 512.004" height="512" viewBox="0 0 512.004 512.004" width="512" xmlns="http://www.w3.org/2000/svg"><g><g clip-rule="evenodd" fill-rule="evenodd"><circle cx="256.003" cy="348.595" fill="#cbe558" r="30"/><g><path d="m287.127 68.065c-17.75 17.75-62.004 29.421-84.617 29.421v16.746 12.157c0 16.507 7.577 31.33 19.425 41.162 9.27 7.693 21.154 12.331 34.068 12.331 12.915 0 24.799-4.638 34.068-12.331 11.848-9.833 19.425-24.656 19.425-41.162v-12.157-16.746c-9.273-5.354-20.081-10.724-22.369-29.421z" fill="#ffdcd5"/><path d="m202.481 97.486c22.586 0 66.788-11.671 84.518-29.421 2.284 18.696 13.081 24.067 22.344 29.421v14.684l7.792-2.592 7.792-4.655c27.833-45.393-2.448-75.447-28.637-71.319-57.199-58.096-146.451.634-110.416 72.538l8.304 4.045 8.304 4.045c0-.062 0-.124 0-.187-.001-4.771-.001-8.938-.001-16.559z" fill="#8690af"/><path d="m336.003 239.883c0-31.834-18.846-59.476-45.931-72.331-9.27 7.693-21.154 12.332-34.069 12.332s-24.799-4.638-34.069-12.332c-27.085 12.855-45.931 40.496-45.931 72.331z" fill="#b278d3"/></g><g><path d="m387.935 429.671c-27.085 12.855-45.931 40.496-45.931 72.331h160c0-31.834-18.846-59.476-45.931-72.331-9.27 7.694-21.154 12.332-34.069 12.332s-24.799-4.638-34.069-12.332z" fill="#ff5d7d"/><path d="m422.004 442.003c29.421 0 53.493-24.072 53.493-53.493 0-12.968 0-15.936 0-28.904-22.613 0-41.264-8.24-53.493-29.421-12.229 21.181-30.88 29.421-53.493 29.421v28.904c0 29.421 24.072 53.493 53.493 53.493z" fill="#ffdcd5"/><path d="m352.011 463.383c8.136-14.643 20.735-26.503 35.925-33.711-11.848-9.833-19.425-24.656-19.425-41.162 0-12.968 0-15.936 0-28.904 22.613 0 41.264-8.24 53.493-29.421 12.229 21.181 30.88 29.421 53.493 29.421v28.904c0 16.507-7.577 31.33-19.425 41.162 15.189 7.208 27.788 19.069 35.925 33.712v-121.272c0-38.496-31.497-69.993-69.993-69.993s-69.992 31.497-69.992 69.993v121.271z" fill="#c68a65"/></g><g><path d="m58.879 330.184c17.75 17.75 62.004 29.421 84.617 29.421v16.747 12.157c0 16.507-7.577 31.33-19.425 41.162-9.27 7.693-21.154 12.331-34.068 12.331-12.915 0-24.799-4.638-34.068-12.331-11.848-9.833-19.425-24.656-19.425-41.162v-12.157-16.747c9.273-5.354 20.082-10.724 22.369-29.421z" fill="#ffdcd5"/><path d="m143.525 359.606c-22.586 0-66.788-11.671-84.518-29.421-2.285 18.696-13.08 24.067-22.343 29.421v14.684l-7.792-2.592-7.792-4.655c-27.833-45.393 2.448-75.447 28.636-71.319 57.199-58.096 146.451.634 110.416 72.538l-8.303 4.045-8.304 4.045c0-.062 0-.124 0-.187 0-4.772 0-8.939 0-16.559z" fill="#ffc144"/><path d="m10.003 502.002c0-31.834 18.846-59.476 45.931-72.331 9.269 7.693 21.153 12.332 34.068 12.332s24.799-4.638 34.069-12.332c27.085 12.855 45.931 40.496 45.931 72.331z" fill="#60a4ff"/></g></g><g><path d="m501.997 460.729v-118.617c0-44.108-35.885-79.993-79.993-79.993s-79.993 35.885-79.993 79.993v44.592l-47.473-27.409c.948-3.408 1.465-6.994 1.465-10.701 0-18.604-12.766-34.282-29.999-38.734v-59.978h69.999c5.522 0 10-4.477 10-10 0-30.289-15.023-57.978-39.839-74.634 8.346-10.748 13.333-24.228 13.333-38.859v-6.575l10.558-6.308c1.387-.828 2.552-1.98 3.396-3.357 14.973-24.418 16.633-48.801 4.555-66.896-8.654-12.966-23.203-20.477-38.047-20.016-14.779-13.667-32.236-21.6-50.76-23.012-18.148-1.381-36.291 3.679-51.076 14.259-14.021 10.032-24.062 24.452-28.276 40.603-4.646 17.81-2.196 37.014 7.087 55.536.983 1.963 2.586 3.548 4.561 4.509l11.016 5.367v5.891c0 14.629 4.986 28.107 13.33 38.855-24.823 16.648-39.837 44.31-39.837 74.638 0 5.523 4.477 10 10 10h70v59.978c-17.233 4.452-30 20.13-30 38.735 0 3.706.517 7.292 1.465 10.701l-64.498 37.238c.334-2.631.525-5.305.525-8.025v-5.891l11.016-5.366c1.974-.962 3.577-2.546 4.561-4.51 9.283-18.522 11.733-37.726 7.087-55.536-4.213-16.151-14.255-30.57-28.275-40.603-14.785-10.58-32.926-15.643-51.076-14.259-18.524 1.413-35.981 9.345-50.76 23.012-14.886-.438-29.395 7.051-38.049 20.015-12.078 18.096-10.418 42.479 4.555 66.897.844 1.377 2.009 2.529 3.396 3.357l10.558 6.308v6.575c0 14.631 4.987 28.11 13.333 38.859-24.816 16.656-39.839 44.344-39.839 74.634 0 5.523 4.477 10 10 10h34.997c5.523 0 10-4.477 10-10s-4.477-10-10-10h-24.286c3.023-21.09 15.521-39.663 34.296-50.548 10.041 6.658 22.069 10.549 34.993 10.549 12.926 0 24.956-3.892 34.997-10.552 18.783 10.883 31.275 29.441 34.294 50.551h-24.294c-5.523 0-10 4.477-10 10s4.477 10 10 10h35.003c5.523 0 10-4.477 10-10 0-30.328-15.013-57.989-39.837-74.638.163-.21.333-.415.494-.628l86.826-50.129c7.262 7.392 17.362 11.988 28.518 11.988 11.157 0 21.256-4.596 28.518-11.988l57.489 33.192v50.909c-6.468 12.505-10.007 26.585-10.007 41.295 0 5.523 4.478 10 10 10h160c5.522 0 10-4.477 10-10 0-14.691-3.539-28.767-10.007-41.274zm-289.487-334.339v-19.448c20.748-2.074 49.489-9.979 69.12-22.115 4.624 9.418 11.731 14.682 17.867 18.408v23.155c0 23.982-19.511 43.494-43.494 43.494-23.982 0-43.493-19.511-43.493-43.494zm-2.749-95.641c20.349-14.561 52.792-17.155 79.402 9.871 2.264 2.299 5.5 3.365 8.683 2.862 8.803-1.388 18.258 2.982 23.525 10.875 6.86 10.279 5.996 24.835-2.227 40.502-.684-2.512-2.333-4.696-4.648-6.032l-1.295-.744c-8.461-4.849-14.573-8.353-16.149-21.231-.464-3.796-3.053-6.994-6.668-8.24-3.612-1.245-7.623-.32-10.329 2.383-15.367 15.368-56.987 26.492-77.545 26.492-5.256 0-9.556 4.057-9.96 9.21-12.654-30.366.946-54.309 17.211-65.948zm11.245 148.583c10.042 6.66 22.072 10.552 34.998 10.552 12.924 0 24.953-3.891 34.994-10.549 18.774 10.886 31.272 29.458 34.295 50.548h-138.58c3.018-21.109 15.51-39.667 34.293-50.551zm-196.371 137.143c5.268-7.892 14.723-12.259 23.524-10.875 3.186.503 6.419-.563 8.683-2.862 26.609-27.027 59.052-24.432 79.402-9.871 16.265 11.639 29.865 35.582 17.211 65.947-.404-5.152-4.704-9.21-9.96-9.21-20.559 0-62.178-11.124-77.545-26.492-2.705-2.704-6.714-3.629-10.329-2.383s-6.204 4.444-6.668 8.24c-1.575 12.879-7.688 16.382-16.148 21.231l-1.295.744c-2.315 1.337-3.964 3.522-4.648 6.033-8.223-15.667-9.087-30.224-2.227-40.502zm21.874 72.034v-23.155c6.136-3.726 13.243-8.989 17.867-18.407 19.631 12.136 48.372 20.041 69.119 22.114v19.448c0 23.982-19.511 43.494-43.493 43.494s-43.493-19.512-43.493-43.494zm209.494-19.914c-11.028 0-20-8.972-20-20s8.972-20 20-20 20 8.972 20 20-8.972 20-20 20zm122.508 19.914v-19.425c17.903-1.932 32.464-9.213 43.493-21.746 11.029 12.532 25.59 19.814 43.493 21.746v19.425c0 23.982-19.511 43.494-43.493 43.494s-43.493-19.511-43.493-43.494zm93.654 38.859c4.201-5.411 7.545-11.513 9.833-18.109v25.73c-3.077-2.741-6.359-5.289-9.833-7.621zm-50.161-145.248c33.08 0 59.993 26.913 59.993 59.993v9.904c-1.749-1.499-4.016-2.41-6.5-2.41-20.968 0-35.214-7.76-44.833-24.421-1.786-3.094-5.088-5-8.66-5s-6.874 1.906-8.66 5c-9.619 16.661-23.865 24.421-44.833 24.421-2.484 0-4.751.911-6.5 2.41v-9.904c0-33.081 26.913-59.993 59.993-59.993zm-50.163 145.244c-3.474 2.33-6.755 4.875-9.83 7.614v-25.719c2.287 6.595 5.63 12.696 9.83 18.105zm-19.128 64.638c3.019-21.109 15.511-39.667 34.293-50.551 10.042 6.66 22.072 10.552 34.998 10.552 12.925 0 24.953-3.891 34.994-10.55 18.774 10.886 31.272 29.458 34.295 50.549z"/><path d="m90.003 492.002h-.007c-5.523 0-9.996 4.477-9.996 10s4.48 10 10.003 10 10-4.477 10-10-4.477-10-10-10z"/></g></g></svg>