<svg id="Layer_1" enable-background="new 0 0 512 512" height="512" viewBox="0 0 512 512" width="512" xmlns="http://www.w3.org/2000/svg"><g><g clip-rule="evenodd" fill-rule="evenodd"><path d="m182.494 144.432c13.197 10.663 23.535 24.501 29.915 40.705 4.693-5.898 9.249-12.456 13.555-19.795 17.409-29.673 30.232-71.552 30.232-132.977 0-12.351-10.012-22.364-22.364-22.364-12.351 0-22.364 10.013-22.364 22.364.001 52.512-15.187 88.568-28.974 112.067z" fill="#f5c6af"/><path d="m162.578 131.823c-4.576 19.825-22.428 34.72-43.591 34.72-.065 0-.13 0-.196-.001-21.189-.092-39.022-15.114-43.466-35.034l-1.088.874c-33.054 16.544-55.886 50.771-55.886 90.07l5.032.001 39.695-.003v78.275h111.818v-78.275-2.599c12.13-8.486 25.29-19.358 37.513-34.716-6.38-16.204-16.719-30.041-29.915-40.705-5.668-4.579-11.863-8.574-18.498-11.919z" fill="#b278d3"/><path d="m118.792 166.543c21.166 0 39.021-14.9 43.593-34.73.742-3.217 1.134-6.563 1.134-9.997v-22.364c0-24.6-20.127-44.727-44.727-44.727s-44.727 20.127-44.727 44.727v22.364c0 3.434.392 6.78 1.133 9.997 4.572 19.829 22.427 34.73 43.594 34.73z" fill="#f5c6af"/><path d="m62.882 300.726v-78.275l-44.727.003v78.273c0 12.3 10.063 22.364 22.363 22.364h22.363v-22.365z" fill="#f5c6af"/><path d="m174.7 300.726h-111.818v22.365 178.909h111.818v-178.909z" fill="#8690af"/><path d="m329.507 144.432c-13.197 10.663-23.535 24.501-29.915 40.705-4.693-5.898-9.249-12.456-13.555-19.795-17.409-29.673-30.232-71.552-30.232-132.977 0-12.351 10.012-22.364 22.364-22.364 12.351 0 22.364 10.013 22.364 22.364-.001 52.512 15.187 88.568 28.974 112.067z" fill="#f5c6af"/><path d="m349.422 131.823c4.576 19.825 22.428 34.72 43.591 34.72.065 0 .13 0 .196-.001 21.189-.092 39.022-15.114 43.467-35.034l1.088.874c33.054 16.544 55.886 50.771 55.886 90.07l-5.032.001-39.695-.003v78.275h-111.819v-78.275-2.599c-12.13-8.486-25.29-19.358-37.513-34.716 6.38-16.204 16.719-30.041 29.915-40.705 5.668-4.579 11.863-8.574 18.498-11.919z" fill="#cbe558"/><g fill="#f5c6af"><path d="m393.209 166.543c-21.166 0-39.021-14.9-43.593-34.73-.742-3.217-1.134-6.563-1.134-9.997v-22.364c0-24.6 20.127-44.727 44.727-44.727s44.727 20.127 44.727 44.727v22.364c0 3.434-.392 6.78-1.134 9.997-4.571 19.829-22.426 34.73-43.593 34.73z"/><path d="m449.118 300.726v-78.275l44.727.003v78.273c0 12.3-10.063 22.364-22.363 22.364h-22.363v-22.365z"/><path d="m337.3 401.363h111.818v11.183 89.454h-111.818v-89.454z"/></g><path d="m337.3 300.726h111.818v11.183 89.454h-111.818v-89.454z" fill="#60a4ff"/></g><g><path d="m487.36 163.535c-9.789-15.457-23.201-28.227-39.008-37.24.12-1.479.198-2.969.198-4.478v-22.365c0-30.177-24.55-54.727-54.727-54.727s-54.727 24.55-54.727 54.727v22.364c0 1.506.078 2.994.198 4.47-1.919 1.091-3.79 2.247-5.631 3.441-14.99-29.096-22.321-61.043-22.321-97.363 0-17.846-14.518-32.364-32.364-32.364-8.977 0-17.11 3.676-22.978 9.599-5.869-5.923-14.001-9.599-22.978-9.599-17.845 0-32.364 14.518-32.364 32.364 0 36.321-7.331 68.269-22.32 97.364-1.841-1.194-3.713-2.35-5.632-3.441.12-1.476.198-2.964.198-4.47v-22.365c0-30.177-24.55-54.727-54.727-54.727s-54.727 24.55-54.727 54.727v22.364c0 1.509.078 2.999.198 4.478-15.807 9.014-29.219 21.784-39.008 37.24-11.187 17.664-17.099 38.038-17.099 58.92v78.273c0 17.846 14.518 32.364 32.363 32.364h12.363v158.909h-12.364c-5.523 0-10 4.477-10 10s4.477 10 10 10h432.194c5.523 0 10-4.477 10-10s-4.477-10-10-10h-12.364v-158.909h12.363c17.845 0 32.363-14.518 32.363-32.364v-78.273c0-20.881-5.912-41.255-17.099-58.919zm-128.264-64.083c0-19.148 15.579-34.727 34.727-34.727s34.727 15.579 34.727 34.727v22.364c0 19.148-15.579 34.727-34.727 34.727s-34.727-15.579-34.727-34.727zm-80.118-79.452c6.817 0 12.364 5.546 12.364 12.364 0 40.42 8.854 77.368 26.32 109.94-7.333 6.935-13.669 14.821-18.821 23.46-1.138-1.774-2.263-3.597-3.369-5.482-19.148-32.638-28.857-75.676-28.857-127.917 0-6.819 5.546-12.365 12.363-12.365zm-58.32 12.364c0-6.817 5.546-12.364 12.364-12.364s12.364 5.546 12.364 12.364c0 52.243-9.709 95.28-28.857 127.917-1.106 1.886-2.232 3.709-3.369 5.483-5.152-8.639-11.487-16.524-18.82-23.459 17.464-32.573 26.318-69.521 26.318-109.941zm-137.209 67.088c0-19.148 15.579-34.727 34.727-34.727 19.148 0 34.727 15.579 34.727 34.727v22.364c0 19.148-15.579 34.727-34.727 34.727s-34.727-15.579-34.727-34.727zm-31.182 213.639h-12.363c-6.817 0-12.363-5.546-12.363-12.364v-68.274l24.727-.001v80.639zm-24.181-100.637c2.981-27.159 18.015-51.33 41.151-66.186 8.996 17.932 27.549 30.276 48.94 30.276 21.387 0 39.936-12.339 48.934-30.266 14.321 9.197 25.707 22.063 32.858 37.196-11.363 13.195-22.857 22.058-31.615 28.185-2.675 1.871-4.268 4.93-4.268 8.194v70.95c-.388-.046-.781-.076-1.182-.076h-89.455c-.401 0-.794.03-1.182.076v-68.352c0-2.652-1.054-5.196-2.929-7.071s-4.419-2.929-7.071-2.929zm100.091 279.546v-96.547c0-5.523-4.477-10-10-10s-10 4.477-10 10v96.547h-35.91v-181.349c.388.046.781.076 1.182.076h89.454c.401 0 .794-.03 1.182-.076v181.349zm55.909-267.004c14.377-10.514 33.598-27.162 49.693-54.594 9.573-16.317 16.985-34.868 22.222-55.519 5.237 20.65 12.648 39.202 22.221 55.519 16.095 27.432 35.316 44.08 49.693 54.594v267.004h-143.829zm255.647 166.367h-35.909v-40.91c0-5.523-4.477-10-10-10s-10 4.477-10 10v40.91h-35.909v-80.712c.388.046.781.076 1.182.076h89.454c.401 0 .794-.03 1.182-.076zm-91.819 20h35.909v80.637h-35.909zm55.909 80.637v-80.637h35.909v80.637zm45.911-279.549c-.001 0-.001 0 0 0-2.653 0-5.197 1.053-7.072 2.929-1.875 1.875-2.929 4.419-2.929 7.071v68.352c-.388-.046-.781-.076-1.182-.076h-89.454c-.401 0-.794.03-1.182.076v-70.95c0-3.264-1.593-6.323-4.268-8.194-8.758-6.127-20.252-14.99-31.615-28.185 7.151-15.134 18.536-27.999 32.857-37.196 8.998 17.927 27.547 30.266 48.935 30.266 21.391 0 39.943-12.344 48.94-30.276 23.136 14.856 38.17 39.027 41.151 66.186zm34.725 88.277c0 6.817-5.546 12.364-12.363 12.364h-12.363v-80.639l24.727.001v68.274z"/><path d="m118.184 340.453h-.007c-5.523 0-9.996 4.477-9.996 10s4.48 10 10.003 10 10-4.477 10-10-4.477-10-10-10z"/></g></g></svg>