<?xml version="1.0" standalone="no"?>
<!DOCTYPE svg PUBLIC "-//W3C//DTD SVG 20010904//EN"
 "http://www.w3.org/TR/2001/REC-SVG-20010904/DTD/svg10.dtd">
<svg version="1.0" xmlns="http://www.w3.org/2000/svg"
 width="3147.000000pt" height="2098.000000pt" viewBox="0 0 3147.000000 2098.000000"
 preserveAspectRatio="xMidYMid meet">
<metadata>
Created by potrace 1.16, written by Peter Selinger 2001-2019
</metadata>
<g transform="translate(0.000000,2098.000000) scale(0.100000,-0.100000)"
fill="#000000" stroke="none">
<path d="M25076 19684 c-9 -8 -16 -13 -16 -9 0 13 -60 -27 -85 -57 -15 -18
-31 -33 -35 -33 -5 0 -19 -11 -32 -25 -29 -30 -151 -139 -191 -172 -81 -65
-147 -140 -147 -167 0 -12 -8 -25 -17 -28 -18 -7 -48 -41 -48 -55 0 -4 -7 -13
-16 -20 -9 -7 -33 -35 -55 -63 -21 -27 -56 -66 -76 -86 -21 -20 -38 -42 -38
-48 0 -6 -6 -11 -14 -11 -8 0 -23 -15 -35 -32 -11 -18 -37 -49 -58 -69 -87
-81 -153 -159 -153 -179 0 -24 8 -24 185 -4 28 4 60 6 73 6 12 0 22 3 22 7 0
3 33 7 73 9 39 1 81 4 91 5 11 2 31 -2 44 -9 14 -7 31 -10 39 -7 18 7 42 -25
43 -55 0 -41 30 -91 54 -93 11 0 42 -1 69 -2 31 -1 46 -5 43 -13 -2 -6 1 -17
7 -23 8 -8 7 -11 -6 -11 -20 0 -20 -1 -21 -140 l-1 -105 -65 -31 c-36 -18 -68
-30 -72 -28 -4 2 -9 0 -13 -6 -5 -9 -45 -29 -90 -45 -25 -9 -75 -17 -95 -15
-8 0 -27 2 -42 2 -25 1 -28 5 -28 34 0 18 -5 36 -11 40 -18 11 -57 -47 -69
-104 -13 -60 -5 -169 15 -192 23 -28 23 -46 -1 -85 -37 -63 -38 -67 -20 -81
14 -10 15 -17 7 -32 -6 -12 -8 -28 -5 -36 4 -11 1 -16 -10 -16 -9 0 -16 -5
-16 -11 0 -5 5 -7 10 -4 6 3 10 2 10 -4 0 -6 7 -8 15 -5 19 8 19 -3 1 -38 -13
-24 -13 -28 0 -28 8 0 14 -7 14 -15 0 -9 14 -29 31 -46 23 -23 28 -33 20 -43
-14 -17 26 -46 79 -57 19 -4 53 -13 75 -19 22 -6 47 -12 55 -12 8 0 22 -7 30
-14 10 -8 50 -15 100 -18 47 -3 86 -5 88 -5 1 -1 2 -10 2 -22 0 -11 -4 -18 -9
-15 -10 7 -41 -37 -41 -58 0 -7 -8 -17 -17 -20 -11 -5 -13 -10 -6 -17 6 -6
-14 -58 -63 -155 -40 -80 -77 -151 -83 -157 -5 -7 -17 -35 -26 -64 -9 -28 -28
-61 -41 -74 -13 -12 -24 -30 -24 -38 0 -9 -12 -27 -25 -40 -14 -13 -25 -28
-25 -34 0 -6 -6 -18 -13 -26 -7 -9 -23 -50 -37 -91 -13 -41 -29 -82 -35 -90
-14 -18 -29 -52 -27 -62 1 -5 -3 -8 -9 -8 -5 0 -8 -4 -5 -9 4 -5 1 -11 -6 -13
-6 -2 -12 -24 -14 -47 -1 -24 -8 -47 -15 -52 -10 -6 -14 -29 -12 -83 1 -78 24
-142 66 -187 11 -12 20 -29 21 -38 1 -16 35 -92 45 -101 10 -9 31 -49 31 -60
0 -9 25 -42 57 -75 7 -7 10 -15 7 -18 -3 -2 9 -16 26 -30 16 -14 30 -30 30
-35 0 -5 14 -24 31 -43 66 -73 77 -85 104 -124 16 -22 56 -67 89 -101 34 -33
70 -73 81 -88 30 -43 64 -76 78 -76 18 0 45 -51 50 -92 2 -19 7 -40 11 -46 12
-20 63 14 101 66 19 27 46 54 60 62 14 7 25 21 25 31 0 20 43 64 62 64 7 0 12
11 12 25 -1 14 5 29 12 33 8 4 14 15 14 22 0 21 10 18 45 -10 22 -19 27 -27
17 -33 -9 -6 -15 -46 -18 -123 -7 -147 -8 -141 11 -200 4 -10 2 -19 -4 -19 -5
0 -9 -15 -9 -32 0 -18 0 -97 -1 -175 -1 -78 4 -163 10 -190 6 -26 11 -61 11
-78 -1 -16 4 -36 10 -43 9 -10 9 -15 -1 -21 -16 -10 -7 -111 11 -123 11 -6 10
-10 -1 -17 -9 -6 -12 -19 -8 -39 3 -16 3 -33 -1 -36 -10 -11 -11 -86 0 -92 4
-3 5 -11 1 -17 -4 -7 -9 -21 -10 -31 -2 -11 -7 -24 -12 -30 -14 -18 -59 -199
-60 -239 0 -21 -4 -43 -8 -50 -4 -6 -8 -18 -9 -27 -1 -8 -5 -23 -9 -32 -4 -11
-3 -18 5 -18 7 0 6 -6 -4 -16 -9 -8 -16 -27 -16 -42 0 -15 -4 -33 -9 -40 -4
-7 -4 -32 1 -55 5 -23 11 -61 12 -83 1 -23 7 -49 14 -57 8 -10 9 -16 2 -19
-19 -6 -39 -329 -22 -352 16 -20 13 -95 -5 -128 -23 -44 -26 -69 -12 -95 11
-20 18 -22 68 -18 31 3 70 6 86 8 17 1 33 6 37 11 4 6 13 4 23 -4 20 -16 207
-19 227 -3 7 5 39 9 71 8 32 -1 60 2 63 7 3 4 18 8 33 8 33 0 63 -37 61 -73
-1 -12 -1 -24 0 -27 6 -17 5 -50 -1 -50 -15 0 -22 -50 -9 -65 6 -8 8 -20 4
-26 -17 -29 -19 -140 -2 -150 6 -4 8 -11 4 -17 -3 -6 -2 -13 4 -17 5 -3 10
-19 10 -35 0 -16 5 -42 11 -57 45 -111 51 -131 45 -151 -9 -28 14 -43 51 -33
27 8 30 7 26 -10 -3 -10 -10 -17 -17 -16 -6 1 -10 -4 -8 -10 1 -7 -2 -13 -7
-13 -5 0 -12 6 -14 13 -12 27 -32 -38 -63 -200 -2 -12 -11 -28 -19 -36 -13
-13 -15 -31 -15 -102 1 -112 4 -106 -75 -124 -42 -9 -53 -16 -48 -28 5 -13 3
-13 -15 -2 -17 11 -26 10 -49 -1 -15 -7 -32 -12 -37 -11 -14 3 -185 -52 -181
-58 3 -6 -7 -8 -100 -16 -33 -3 -61 -10 -63 -15 -2 -6 -10 -10 -18 -10 -8 0
-14 -6 -14 -14 0 -20 -32 -45 -37 -28 -8 21 -13 20 -180 -60 -46 -21 -83 -43
-83 -49 0 -5 -6 -9 -12 -8 -24 3 -36 -1 -50 -14 -7 -7 -35 -19 -62 -26 -59
-15 -201 -81 -236 -110 -14 -11 -30 -25 -36 -30 -6 -5 -17 -11 -25 -12 -36 -9
-159 -86 -159 -99 0 -12 -2 -12 -9 -2 -6 10 -10 7 -15 -12 -5 -22 -9 -24 -25
-15 -18 12 -79 4 -67 -8 8 -8 -63 -45 -75 -38 -5 4 -21 -2 -37 -13 -15 -10
-67 -35 -117 -56 -212 -88 -215 -89 -215 -108 0 -10 -6 -19 -12 -19 -7 -1 -29
-3 -49 -4 -44 -3 -130 -47 -179 -90 -53 -48 -88 -67 -93 -52 -3 7 -6 5 -6 -5
-1 -10 -6 -18 -11 -18 -6 0 -37 -25 -70 -55 -34 -31 -65 -53 -71 -49 -13 8 8
34 28 34 8 0 12 4 9 8 -3 5 4 15 15 22 10 8 19 20 19 27 0 7 9 13 19 13 10 0
18 6 17 13 0 7 26 36 59 64 33 27 69 62 80 78 11 15 35 45 53 65 38 44 44 93
13 110 -11 5 -41 10 -68 10 -38 0 -59 -7 -98 -33 -93 -60 -258 -135 -325 -147
-76 -14 -242 -56 -285 -73 -31 -12 -35 -13 -102 -15 -28 -1 -50 -9 -63 -22
-20 -20 -20 -20 -20 5 0 26 -43 100 -70 122 -18 15 -56 17 -64 4 -9 -14 -148
-117 -168 -124 -10 -3 -18 -16 -18 -27 0 -15 -7 -20 -27 -20 -16 -1 -53 -13
-83 -29 -52 -26 -55 -30 -53 -62 2 -19 4 -113 6 -209 1 -96 6 -182 10 -190 6
-12 -2 -19 -30 -29 -21 -7 -55 -24 -75 -37 -21 -13 -42 -24 -48 -24 -6 0 -8
-5 -4 -12 4 -6 3 -8 -3 -5 -13 8 -73 -12 -73 -24 0 -5 -9 -9 -20 -9 -18 0
-120 -50 -147 -72 -7 -6 -13 -8 -13 -4 0 11 -74 -24 -83 -40 -5 -8 -12 -12
-17 -9 -9 6 -144 -36 -176 -54 -53 -30 -195 -80 -210 -74 -10 4 -15 2 -11 -4
3 -5 -12 -17 -33 -27 -22 -10 -40 -21 -40 -25 0 -5 -17 -11 -37 -14 -21 -3
-65 -18 -98 -33 -33 -16 -64 -29 -70 -30 -27 -4 -85 -34 -85 -43 0 -6 -13 -11
-29 -11 -17 0 -32 -4 -35 -9 -3 -5 -17 -12 -31 -15 -31 -8 -210 -111 -238
-137 -19 -17 -38 -24 -60 -20 -4 0 -6 -2 -6 -6 1 -5 1 -18 0 -31 -1 -18 -4
-21 -18 -13 -13 6 -34 1 -76 -19 -52 -25 -70 -28 -220 -34 -188 -7 -242 -12
-260 -23 -16 -10 -38 -13 -33 -4 3 4 -101 5 -231 3 l-235 -4 15 24 c31 47 42
123 38 257 l-1 44 -47 -7 c-27 -4 -95 -9 -153 -12 -58 -3 -118 -10 -134 -15
-16 -5 -58 -9 -93 -9 l-65 0 7 -50 c9 -66 -4 -198 -21 -215 -18 -18 -18 -30 2
-49 14 -15 13 -16 -15 -16 -16 0 -33 5 -36 10 -12 19 -30 9 -53 -27 -28 -43
-49 -131 -58 -235 -9 -99 -2 -108 80 -108 33 0 90 -5 126 -10 100 -14 308 -11
370 5 48 13 120 21 120 14 0 -4 -21 -11 -47 -15 -27 -5 -50 -9 -53 -9 -3 -1
-22 -5 -43 -9 -20 -5 -40 -12 -43 -17 -3 -5 -9 -7 -13 -4 -5 2 -23 0 -42 -6
-35 -10 -196 -30 -237 -29 -13 0 -21 -4 -18 -8 6 -11 -4 -24 -31 -40 -31 -17
-43 -15 -43 6 -1 15 -3 15 -18 -4 -10 -11 -23 -19 -29 -17 -10 4 -99 -41 -113
-57 -3 -3 -12 -6 -20 -8 -8 -2 -16 -7 -18 -12 -2 -5 -10 -6 -18 -3 -8 3 -14 0
-14 -6 0 -6 -9 -11 -21 -11 -11 0 -49 -11 -84 -25 -35 -14 -74 -28 -86 -30
-13 -3 -48 -17 -79 -32 -30 -15 -60 -26 -66 -25 -23 5 -91 -33 -87 -48 4 -12
3 -12 -5 -2 -7 11 -18 11 -50 3 -23 -7 -47 -17 -54 -25 -7 -7 -19 -11 -26 -8
-6 2 -12 -3 -12 -12 0 -9 -4 -16 -10 -16 -5 0 -10 4 -10 9 0 6 -12 6 -31 1
-45 -13 -89 -34 -89 -42 0 -4 -6 -5 -13 -2 -24 9 -274 -106 -259 -120 4 -4 2
-6 -4 -4 -19 6 -134 -56 -129 -69 4 -13 -10 -17 -50 -14 -11 1 -63 -14 -115
-33 -70 -24 -98 -40 -107 -57 -10 -19 -13 -20 -13 -6 0 13 -6 17 -17 14 -10
-3 -40 -11 -66 -17 -37 -10 -54 -21 -70 -46 -22 -34 -41 -46 -31 -20 3 8 1 17
-5 20 -5 4 -13 -4 -17 -16 -6 -19 -8 -20 -13 -7 -5 14 -19 12 -111 -18 -58
-19 -106 -38 -108 -43 -2 -5 -9 -7 -17 -4 -7 3 -31 -3 -52 -13 -21 -10 -40
-18 -43 -19 -19 -3 -158 -47 -172 -55 -10 -5 -24 -9 -33 -9 -27 0 -182 -74
-196 -93 -4 -5 -15 -4 -25 2 -11 6 -40 20 -66 31 -71 29 -151 92 -263 207 -56
57 -105 103 -110 103 -6 -1 -21 -7 -35 -15 -14 -8 -39 -14 -56 -15 -17 0 -56
-9 -87 -19 -93 -32 -256 -44 -355 -26 -24 4 -34 2 -38 -9 -4 -11 -14 -14 -28
-10 -31 7 -50 -18 -43 -58 3 -18 0 -100 -7 -183 -7 -82 -9 -160 -5 -172 5 -12
23 -29 40 -39 45 -23 159 -53 213 -56 66 -4 39 -20 -35 -21 -41 -1 -64 3 -67
11 -2 7 -8 12 -13 12 -5 0 -4 -9 3 -20 13 -20 9 -30 -14 -34 -55 -9 -218 -75
-218 -88 0 -4 -5 -8 -12 -8 -11 0 -61 -20 -228 -90 -25 -11 -88 -36 -140 -56
-52 -21 -97 -41 -98 -46 -2 -4 -8 -5 -14 -2 -5 3 5 20 24 36 24 21 27 28 13
24 -20 -5 -20 -5 0 7 11 7 35 27 54 45 30 29 33 37 28 73 -9 71 -74 119 -159
119 -24 0 -103 -19 -178 -44 -265 -87 -261 -86 -393 -86 -67 0 -150 -1 -184
-2 -34 -2 -60 -1 -57 1 2 2 -26 19 -63 36 -79 37 -131 41 -217 19 -33 -9 -72
-16 -86 -16 -14 1 -38 -5 -55 -13 -16 -7 -63 -23 -102 -36 -40 -12 -73 -26
-73 -29 0 -4 -12 -7 -26 -8 -14 0 -56 -15 -92 -34 -56 -28 -66 -37 -64 -56 2
-13 -2 -22 -10 -22 -10 0 -13 -28 -11 -127 3 -141 23 -251 56 -297 19 -27 22
-28 81 -22 215 21 247 30 339 89 26 17 55 32 65 33 48 5 172 41 165 48 -4 4 0
4 9 1 15 -6 98 6 153 22 17 5 18 3 8 -9 -7 -8 -10 -18 -6 -21 3 -4 1 -7 -5 -7
-7 0 -12 6 -12 13 -1 7 -6 4 -15 -7 -7 -10 -18 -15 -24 -12 -5 4 -12 2 -16 -4
-8 -13 -145 -80 -163 -80 -7 0 -15 -7 -19 -16 -3 -8 -11 -13 -18 -10 -6 2 -41
-11 -76 -30 -35 -19 -74 -39 -87 -46 -12 -6 -21 -17 -18 -24 3 -8 0 -11 -9 -8
-29 12 -109 -47 -100 -73 7 -20 -24 -23 -35 -4 -14 28 -116 52 -106 26 8 -21
-10 -27 -24 -10 -20 25 -57 19 -64 -10 -4 -14 -11 -23 -16 -20 -9 6 -12 -4
-14 -50 -1 -11 -10 -21 -21 -23 -11 -2 -25 -10 -31 -17 -5 -7 -19 -13 -30 -12
-12 1 -19 -4 -18 -14 1 -12 -10 -16 -55 -16 -31 0 -69 -6 -86 -13 -16 -7 -37
-14 -45 -15 -8 -2 -51 -12 -94 -24 -44 -12 -90 -21 -104 -21 -26 0 -200 -44
-244 -61 -16 -7 -28 -16 -28 -21 0 -5 -4 -6 -10 -3 -10 6 -113 -19 -142 -35
-10 -6 -25 -10 -33 -10 -9 0 -18 -7 -21 -15 -4 -10 -14 -13 -28 -9 -24 6 -158
-29 -281 -73 -56 -20 -83 -36 -90 -51 -10 -22 -25 -30 -25 -13 0 5 -16 9 -35
8 -19 -1 -35 -6 -35 -10 0 -5 -4 -6 -9 -3 -5 4 -11 2 -13 -3 -1 -5 -50 -29
-108 -53 -134 -57 -144 -61 -150 -62 -3 -1 -11 -5 -17 -9 -8 -5 -13 -4 -13 2
0 17 41 39 121 66 41 14 115 46 166 70 86 42 96 51 155 126 148 192 176 231
183 256 3 15 13 32 22 38 37 27 -23 115 -78 115 -46 0 -76 -16 -154 -84 -96
-84 -172 -122 -266 -135 -41 -5 -128 -17 -194 -27 l-120 -18 -47 23 c-25 13
-67 45 -92 71 -26 26 -60 53 -76 60 -17 7 -30 16 -30 21 0 5 -8 9 -18 9 -11 0
-24 10 -31 22 -6 13 -25 41 -42 63 -16 22 -42 58 -56 80 -14 22 -45 56 -67 76
-23 20 -61 72 -85 115 -80 144 -121 213 -134 226 -21 21 -93 129 -115 173 -45
88 -114 250 -117 274 -10 76 -158 377 -239 486 -39 52 -170 327 -168 353 1 13
-5 44 -13 69 -8 24 -21 72 -29 106 -8 34 -33 112 -56 172 -23 61 -54 157 -70
215 -15 58 -48 173 -73 255 -26 83 -62 233 -82 335 -19 102 -42 214 -50 250
-8 36 -17 81 -20 100 -4 19 -15 58 -25 85 -18 49 -25 70 -30 90 -20 76 -49
174 -84 280 -60 181 -105 351 -109 410 -2 28 -16 106 -32 174 l-29 124 40 34
c21 18 50 36 64 38 75 16 105 31 114 58 15 42 -18 257 -60 389 -19 62 -37 133
-39 158 -5 54 -27 136 -39 147 -5 4 -7 -2 -4 -14 4 -15 2 -20 -8 -16 -7 3 -12
8 -11 13 4 14 -43 70 -59 70 -16 0 -25 -19 -45 -100 -20 -82 -45 -93 -73 -32
-10 20 -31 55 -47 77 -52 70 -79 115 -79 131 0 8 -3 13 -7 11 -5 -3 -17 7 -27
21 -17 22 -17 25 -3 19 26 -10 20 6 -14 39 -28 26 -30 26 -19 6 9 -20 9 -27
-4 -41 -9 -10 -16 -33 -16 -51 0 -30 -2 -32 -14 -20 -16 16 -126 205 -126 216
0 3 -14 24 -31 45 -28 35 -29 44 -6 40 4 0 7 3 7 7 0 5 -33 25 -72 44 -146 73
-157 77 -191 67 -40 -11 -40 -11 -31 2 4 8 -1 9 -16 4 -15 -5 -20 -3 -16 3 3
6 -3 13 -14 17 -18 6 -20 14 -18 60 2 29 5 51 7 49 9 -8 71 105 65 119 -9 25
-56 32 -74 10 -26 -31 -72 -45 -165 -50 -75 -4 -106 -11 -190 -45 -62 -25
-116 -41 -143 -41 -44 0 -64 9 -46 21 26 17 38 104 25 181 -5 31 -12 88 -16
126 -3 39 -10 93 -15 120 -6 28 -9 68 -7 90 2 36 0 39 -28 45 -81 17 -162 118
-167 210 -1 8 -5 18 -10 21 -11 7 1 79 13 79 5 0 6 6 4 13 -7 16 64 38 85 27
9 -5 23 -4 34 2 14 8 17 7 12 -1 -4 -6 -2 -11 3 -11 6 0 11 5 11 11 0 8 6 7
17 -2 15 -13 15 -12 4 10 -7 13 -8 21 -2 17 5 -4 15 2 20 13 6 10 26 29 45 41
22 13 33 26 29 36 -4 10 3 14 24 14 16 0 33 4 39 10 6 6 15 5 24 -1 13 -9 12
-10 -2 -5 -10 3 -21 0 -25 -7 -5 -7 -15 -12 -23 -12 -8 0 -14 -6 -13 -12 2 -7
-1 -13 -6 -13 -5 0 -16 -11 -25 -25 -16 -25 -16 -25 3 -13 11 6 17 16 15 20
-3 5 0 7 8 6 7 -2 12 5 12 15 -2 26 11 21 25 -10 9 -19 9 -29 2 -31 -6 -2 -9
-7 -7 -11 3 -4 -1 -8 -9 -8 -18 0 -20 14 -2 20 6 2 9 8 5 12 -10 11 -39 -15
-31 -28 3 -6 1 -7 -6 -3 -6 4 -14 0 -17 -8 -5 -12 -11 -13 -24 -6 -25 13 -39
12 -20 -1 12 -8 10 -9 -7 -4 -14 4 -23 2 -23 -4 0 -6 6 -11 13 -11 8 0 8 -3
-2 -9 -12 -8 -12 -12 -2 -25 7 -9 17 -13 22 -10 12 7 49 14 49 9 0 -2 -4 -15
-10 -29 -8 -21 -6 -27 11 -36 11 -6 17 -16 13 -21 -3 -6 4 -21 17 -35 18 -19
25 -22 38 -11 12 9 13 9 7 0 -5 -9 -2 -11 8 -7 9 3 16 10 16 15 0 5 5 9 10 9
6 0 10 -13 10 -29 0 -23 -6 -30 -25 -35 -29 -7 -48 0 -40 15 3 5 -1 6 -9 3
-21 -8 -20 -17 2 -37 25 -23 34 -21 65 11 26 27 26 27 11 79 -11 38 -12 57 -5
72 14 25 14 34 0 25 -6 -3 -4 8 5 24 9 17 14 37 11 44 -18 52 -10 181 8 136 4
-9 6 -10 6 -1 1 6 -8 18 -19 26 -11 8 -17 18 -12 23 4 4 -1 2 -11 -5 -24 -19
-35 -5 -11 15 10 8 12 12 4 8 -19 -10 53 75 86 101 14 11 39 32 57 46 39 31
96 58 123 58 10 0 48 3 83 7 57 6 65 5 80 -14 12 -15 21 -18 39 -11 26 10 28
25 6 68 -13 27 -14 37 -4 62 8 19 10 52 6 92 -9 89 -11 104 -35 187 -14 48
-23 116 -27 190 -7 166 -12 198 -34 210 -14 7 -23 6 -34 -5 -8 -8 -23 -15 -33
-15 -24 0 -113 -43 -138 -67 -11 -10 -51 -44 -90 -74 -38 -31 -76 -68 -84 -82
-8 -15 -18 -24 -23 -21 -16 10 -201 -121 -262 -185 -17 -17 -34 -31 -38 -31
-14 0 -188 -175 -188 -188 0 -7 -6 -12 -13 -12 -8 0 -34 -17 -58 -39 -116
-102 -164 -141 -261 -214 -58 -43 -147 -142 -208 -232 -43 -63 -56 -76 -72
-73 -8 2 -13 -8 -13 -27 0 -29 3 -31 100 -62 55 -17 114 -35 130 -39 19 -4 24
-8 15 -12 -8 -2 -42 -17 -74 -32 l-59 -27 -51 19 c-54 21 -222 36 -253 23 -10
-4 -30 -9 -44 -10 -15 -1 -75 -26 -135 -54 -94 -46 -115 -52 -163 -50 -89 3
-98 1 -125 -28 -92 -99 -114 -126 -163 -194 -29 -42 -64 -84 -77 -92 -28 -19
-77 -131 -101 -232 -9 -38 -22 -83 -28 -100 -7 -17 -12 -83 -12 -150 0 -115 1
-122 28 -160 24 -35 25 -41 12 -51 -8 -6 -15 -16 -15 -21 0 -6 -7 -16 -16 -23
-31 -27 -47 -84 -49 -185 -2 -55 -1 -112 2 -128 13 -68 124 -139 238 -152 75
-9 95 -19 95 -51 0 -36 25 -91 49 -106 12 -7 21 -18 21 -25 0 -7 14 -19 30
-28 17 -9 30 -19 30 -24 0 -4 12 -14 26 -21 14 -8 33 -28 41 -45 33 -66 78
-86 201 -91 69 -3 102 0 130 12 77 33 122 43 130 29 14 -25 106 -24 172 2 8 3
29 5 46 4 18 -1 35 3 39 9 5 7 -2 9 -22 5 -20 -5 -16 -1 15 14 23 11 50 18 60
15 12 -4 14 -3 4 4 -10 7 -7 13 12 25 14 10 27 17 30 17 3 0 16 10 30 23 14
13 41 31 60 40 20 9 51 24 70 33 26 12 39 29 59 74 18 42 34 63 57 75 29 15
85 23 94 14 2 -2 -4 -38 -15 -79 -19 -76 -64 -264 -73 -310 -3 -14 -15 -68
-26 -120 -12 -52 -25 -113 -30 -135 -4 -22 -11 -49 -14 -60 -10 -38 -44 -190
-60 -265 -8 -41 -27 -120 -41 -175 -14 -55 -30 -115 -34 -132 -5 -19 -5 -31 0
-27 5 3 9 1 9 -5 0 -5 -5 -11 -12 -13 -6 -2 -12 -14 -13 -25 0 -12 -6 -27 -11
-35 -16 -20 -44 -117 -44 -151 0 -17 -3 -27 -7 -23 -11 11 -41 -108 -53 -213
-6 -51 -20 -112 -29 -135 -22 -50 -45 -170 -38 -191 4 -8 2 -17 -3 -20 -5 -3
-12 -31 -15 -63 -4 -31 -15 -76 -25 -98 -25 -59 -33 -103 -22 -117 6 -8 6 -21
-1 -37 -15 -37 -15 -80 0 -80 8 0 16 -7 19 -15 4 -9 19 -15 38 -15 18 0 53 -6
77 -13 24 -8 50 -12 58 -9 9 3 11 0 6 -9 -6 -11 -5 -12 6 -1 16 15 59 16 59 1
0 -8 5 -8 15 1 9 7 15 8 15 2 0 -5 9 -8 20 -5 11 3 20 0 20 -6 0 -13 27 -15
32 -2 10 30 241 3 279 -32 16 -15 29 -18 62 -13 69 10 69 9 57 -160 -5 -82 -9
-194 -9 -249 1 -110 -13 -303 -35 -465 -15 -108 -20 -171 -36 -520 -6 -113
-12 -221 -14 -240 -18 -175 -85 -544 -100 -555 -18 -14 -30 -55 -17 -55 6 0
11 -6 11 -13 0 -10 44 -13 207 -12 228 1 394 15 462 39 24 9 46 16 48 16 11 0
-8 -529 -22 -628 -21 -144 -59 -343 -92 -479 -23 -97 -25 -115 -14 -137 12
-21 10 -31 -13 -79 -14 -31 -26 -62 -27 -69 0 -7 -11 -31 -24 -53 -48 -81 -81
-191 -91 -305 -6 -64 -6 -65 30 -101 20 -20 53 -41 74 -47 80 -23 182 -42 226
-42 26 0 46 -5 46 -11 0 -5 31 -24 69 -41 39 -17 73 -38 76 -47 5 -13 4 -14
-6 -3 -7 6 -18 12 -24 12 -5 0 -3 -6 6 -13 9 -7 18 -19 22 -27 4 -12 6 -12 6
2 1 9 9 19 19 22 21 7 146 -8 181 -21 24 -9 23 -11 -22 -33 -26 -13 -47 -29
-47 -37 0 -7 -3 -13 -7 -14 -56 -4 -75 -9 -87 -18 -11 -10 -17 -8 -25 6 -11
17 -11 17 -9 -2 2 -16 -12 -27 -64 -54 -37 -19 -65 -38 -62 -43 3 -4 -4 -8
-16 -8 -12 0 -47 -13 -78 -29 -133 -68 -233 -112 -242 -106 -5 3 -10 1 -10 -4
0 -6 -3 -10 -7 -9 -5 1 -21 -4 -38 -11 -74 -29 -162 -61 -190 -67 -16 -4 -42
-14 -58 -23 -27 -15 -28 -15 -50 11 -29 36 -71 50 -124 42 -35 -5 -46 -12 -54
-32 -5 -13 -7 -27 -5 -30 3 -2 -1 -14 -9 -26 -8 -11 -15 -28 -15 -38 0 -10 -1
-18 -2 -18 -2 0 -48 -16 -103 -36 -55 -19 -107 -36 -115 -38 -17 -2 -95 -31
-150 -54 -19 -8 -43 -16 -53 -17 -11 -1 -22 -8 -27 -15 -4 -7 -22 -14 -40 -16
-17 -2 -37 -7 -43 -11 -7 -4 -16 -8 -22 -8 -21 -1 -150 -48 -156 -57 -3 -5
-10 -9 -15 -9 -19 2 -107 -34 -111 -46 -3 -6 -12 -9 -20 -6 -11 4 -14 2 -9 -5
5 -8 -3 -12 -23 -12 -17 0 -53 -9 -81 -19 -54 -21 -61 -12 -8 10 18 7 35 16
38 19 3 3 21 17 40 30 47 32 50 37 50 92 0 58 -15 65 -97 45 -74 -19 -283 -14
-409 9 -91 17 -96 16 -169 -12 -19 -7 -19 -6 2 17 20 22 21 27 8 54 -7 17 -23
58 -34 93 -22 65 -37 97 -58 120 -7 7 -13 18 -13 25 0 6 -31 74 -69 151 -102
208 -175 360 -177 369 -1 4 -3 9 -4 12 -1 3 -3 8 -4 13 -4 24 -121 280 -167
366 -29 54 -69 174 -69 207 0 23 9 32 53 56 49 27 52 31 51 66 -1 20 -15 70
-31 109 -29 69 -45 112 -91 238 -48 134 -128 396 -137 450 -3 19 -22 73 -42
120 -19 47 -59 144 -88 215 -29 72 -67 163 -84 203 -39 93 -153 396 -196 521
-49 142 -80 221 -104 268 -23 47 -27 67 -7 41 16 -21 58 -38 94 -38 21 0 24 2
12 10 -8 5 -23 10 -33 10 -33 0 -106 59 -123 98 -39 92 -46 123 -32 140 10 12
10 14 1 8 -7 -4 -13 -2 -13 3 0 6 18 22 40 36 23 14 43 32 47 40 3 8 36 35 73
60 53 35 74 57 95 98 25 46 25 50 6 33 -11 -11 -21 -25 -21 -33 0 -7 -3 -13
-7 -13 -5 0 -30 -21 -56 -45 -26 -25 -52 -45 -57 -45 -5 0 -28 -18 -52 -41
-69 -66 -79 -66 -101 -2 -22 62 -19 78 17 87 28 7 156 95 156 107 0 12 32 20
44 10 8 -7 12 -5 13 7 0 9 4 35 7 57 4 22 7 64 7 93 0 47 6 62 53 135 63 99
125 158 155 150 12 -3 24 -9 27 -14 25 -42 27 52 2 111 -8 19 -13 40 -11 47 4
12 -29 85 -51 113 -18 22 -113 267 -126 325 -7 28 -16 59 -21 70 -6 12 -11 27
-12 35 -2 8 -6 20 -10 27 -4 6 -4 18 -1 26 3 8 0 18 -5 22 -6 3 -9 10 -6 15 3
4 -11 57 -31 117 -20 59 -42 137 -49 173 -18 91 -62 251 -86 319 -45 124 -86
262 -125 421 -14 58 -39 142 -54 188 -16 45 -27 82 -23 82 3 0 1 6 -5 13 -5 6
-13 28 -18 47 -10 46 -11 49 -14 58 -1 4 -3 12 -4 17 -1 11 -45 130 -82 220
-31 78 -66 187 -99 304 -40 142 -129 356 -173 414 -21 29 -40 55 -40 60 -1 4
-10 15 -19 26 -10 10 -31 35 -48 56 -42 52 -79 76 -124 80 -21 1 -45 6 -52 11
-37 24 -145 61 -154 53 -17 -16 -27 -9 -19 14 11 35 5 218 -11 309 -8 46 -15
104 -15 129 0 27 -6 51 -14 58 -16 13 -25 4 -51 -51 -11 -24 -24 -38 -36 -38
-10 0 -20 -4 -24 -9 -3 -5 -30 -15 -61 -22 -59 -13 -98 -36 -76 -45 6 -3 10
-9 8 -12 -4 -7 -18 -202 -21 -282 -2 -58 -14 -118 -31 -152 -15 -29 -49 -52
-63 -44 -4 3 -25 -4 -45 -15 -31 -16 -55 -20 -134 -19 -89 1 -190 12 -251 26
-18 4 -21 8 -12 13 9 6 1 13 -26 24 -62 27 -73 39 -63 73 l8 29 1 -34 c1 -25
4 -32 11 -25 6 6 12 50 13 97 2 67 5 83 14 75 7 -6 13 -16 13 -22 0 -20 68
-58 110 -60 22 -1 40 1 40 5 0 4 -16 25 -36 46 -20 21 -40 46 -45 56 -27 50
-70 204 -74 269 -22 319 -22 344 -12 356 9 11 3 13 -35 7 -72 -11 -122 23
-134 91 -5 25 -44 94 -54 94 -10 -1 -61 -90 -63 -111 -1 -12 -11 -25 -24 -30
-14 -5 -23 -17 -23 -29 0 -12 -7 -35 -16 -51 -8 -17 -13 -37 -10 -44 2 -7 -1
-16 -9 -18 -12 -5 -32 -80 -27 -101 2 -4 -2 -14 -8 -21 -5 -6 -13 -34 -16 -61
-4 -27 -11 -55 -17 -61 -5 -7 -5 -13 -1 -13 5 0 8 -20 6 -45 -2 -25 -9 -45
-15 -45 -7 0 -7 -4 1 -12 17 -17 15 -31 -3 -25 -12 5 -12 2 -3 -18 8 -18 8
-28 0 -38 -6 -7 -14 -40 -18 -73 -5 -50 -32 -160 -52 -214 -3 -8 -6 -18 -7
-22 -2 -5 -3 -9 -5 -10 -1 -2 -4 -16 -6 -33 -6 -35 -30 -57 -54 -50 -10 3 -34
-10 -61 -33 -24 -22 -49 -37 -56 -35 -29 10 -153 -156 -153 -204 0 -6 -22 -56
-50 -111 -30 -62 -75 -183 -115 -314 -36 -117 -104 -330 -151 -473 -47 -143
-90 -276 -96 -295 -6 -19 -12 -69 -13 -110 -1 -41 -11 -113 -23 -160 -32 -127
-70 -323 -82 -426 -27 -220 -39 -936 -18 -1034 6 -30 12 -129 13 -220 1 -91 5
-177 8 -191 4 -14 9 -50 13 -80 3 -30 9 -58 11 -62 3 -5 13 -55 23 -110 10
-56 30 -140 45 -187 14 -47 34 -146 44 -222 16 -122 21 -139 45 -163 15 -15
30 -24 33 -21 4 3 14 -1 24 -10 13 -12 22 -13 37 -5 14 7 24 7 38 -3 17 -13
17 -19 5 -91 -7 -43 -19 -95 -27 -117 -7 -22 -16 -54 -18 -71 -3 -18 -12 -66
-20 -107 -9 -41 -20 -131 -25 -200 -5 -69 -19 -197 -31 -285 -11 -88 -20 -178
-20 -200 1 -71 -9 -141 -27 -186 -16 -40 -18 -95 -20 -600 l-3 -556 103 -47
c94 -43 110 -47 197 -51 52 -3 127 -11 165 -20 40 -8 121 -15 188 -15 127 0
125 1 107 -60 -13 -45 -47 -238 -55 -315 -3 -33 -15 -85 -25 -115 -10 -30 -28
-89 -41 -130 -12 -41 -31 -91 -41 -110 -10 -19 -18 -42 -18 -52 0 -9 -4 -18
-10 -20 -9 -3 -54 -166 -64 -233 -2 -16 -5 -30 -6 -30 -2 0 -7 -19 -14 -56 -4
-15 -27 -107 -52 -205 -53 -208 -48 -182 -69 -353 -16 -129 -16 -136 1 -148
10 -7 30 -12 44 -11 30 2 170 -52 170 -66 0 -5 -6 -17 -14 -25 -17 -21 -66
-168 -66 -202 0 -35 31 -61 121 -103 114 -53 239 -64 272 -24 16 20 22 20 66
10 27 -6 91 -30 142 -52 52 -23 101 -43 109 -45 8 -1 42 -10 75 -20 63 -17 86
-22 175 -35 37 -5 44 -8 23 -9 -17 0 -35 -6 -39 -12 -5 -9 7 -10 45 -5 28 4
59 9 69 12 9 3 6 -2 -8 -10 -14 -8 -36 -15 -49 -16 -16 0 -21 -4 -17 -15 4
-12 0 -14 -17 -10 -29 8 -277 -64 -302 -86 -5 -5 -18 -9 -29 -9 -25 0 -106
-30 -106 -39 0 -4 -8 -7 -17 -8 -19 -1 -39 -6 -63 -16 -8 -3 -68 -25 -132 -48
-65 -23 -118 -45 -118 -49 0 -7 -29 -15 -95 -27 -42 -7 -99 -32 -92 -40 9 -9
-12 -33 -29 -33 -8 0 -14 7 -14 16 0 12 -5 14 -17 9 -10 -5 -26 -8 -35 -9 -9
0 -15 -2 -13 -5 3 -2 -28 -17 -68 -33 -76 -31 -113 -54 -66 -43 19 5 28 2 32
-9 5 -13 -1 -14 -36 -10 -23 3 -46 6 -52 6 -9 1 -57 -19 -150 -62 -22 -10 -55
-21 -73 -24 -19 -3 -48 -16 -65 -28 -18 -13 -45 -24 -62 -24 -16 -1 -48 -9
-70 -19 -22 -10 -47 -19 -55 -21 -8 -2 -16 -8 -18 -13 -2 -6 -12 -11 -23 -11
-21 0 -26 -16 -6 -23 16 -7 -33 0 -106 14 -66 13 -140 5 -162 -17 -8 -9 -15
-29 -15 -46 0 -23 -4 -29 -15 -24 -8 3 -15 1 -15 -3 0 -5 -25 -17 -55 -26 -30
-10 -55 -21 -55 -24 0 -4 -8 -8 -17 -8 -82 -9 -98 -12 -101 -22 -2 -6 -11 -11
-20 -11 -21 -1 -47 -20 -55 -40 -3 -9 -6 -10 -6 -2 -1 17 -22 15 -72 -7 -47
-21 -59 -20 -39 4 9 11 9 15 1 15 -6 0 -16 -11 -21 -24 -5 -13 -22 -28 -40
-35 -26 -9 -30 -14 -25 -32 6 -18 4 -21 -9 -16 -9 4 -16 2 -16 -3 0 -6 -7 -10
-15 -10 -8 0 -15 7 -15 16 0 14 -3 14 -15 4 -8 -7 -15 -9 -15 -6 0 7 -16 -5
-48 -35 -9 -9 -25 -19 -34 -22 -26 -9 -26 -94 -1 -92 30 2 123 38 123 48 0 4
4 6 9 2 5 -3 25 1 43 9 18 8 72 31 120 51 50 21 96 35 108 32 11 -3 18 -1 15
3 -3 5 16 16 42 25 27 10 55 20 63 23 8 3 22 6 31 7 9 1 42 14 74 29 31 14 69
26 84 26 25 -1 86 -28 66 -30 -5 -1 1 -5 13 -11 18 -7 30 -4 52 11 15 11 30
17 34 13 3 -3 6 -1 6 5 0 7 4 12 10 12 23 0 121 52 130 70 8 14 8 20 0 20 -7
0 -10 5 -8 11 4 11 78 41 78 32 0 -3 7 0 15 7 8 6 20 8 26 4 8 -4 9 -3 5 4 -7
12 1 14 51 15 12 1 20 4 17 8 -4 7 117 59 137 59 11 0 122 46 195 80 23 11 44
20 48 20 3 0 25 9 49 20 23 11 62 27 87 36 171 62 298 106 315 109 34 6 150
56 157 69 6 8 8 7 8 -2 0 -9 9 -8 37 4 76 32 230 86 287 101 33 8 69 19 80 25
20 11 104 36 141 42 28 5 197 63 268 92 32 13 64 24 71 24 7 0 35 11 63 25 29
13 62 27 75 29 13 3 55 17 93 32 39 14 79 28 90 29 11 2 46 15 77 29 31 14 62
26 68 26 6 0 29 10 52 21 32 17 46 19 59 10 15 -8 19 -7 24 10 5 14 37 35 93
61 48 23 94 43 103 44 9 2 40 15 68 30 29 14 61 24 72 21 10 -3 17 -2 14 2 -5
9 59 41 83 41 9 0 48 14 87 30 38 17 79 30 90 30 12 0 25 4 31 8 10 10 157 62
173 62 6 0 93 32 193 71 306 119 311 121 304 103 -3 -8 -2 -12 4 -9 6 3 10 2
10 -3 0 -5 7 -9 15 -9 18 0 20 13 3 20 -8 4 -7 6 3 6 9 1 19 -6 23 -14 3 -8
16 -14 28 -14 17 1 18 2 6 6 -21 5 -23 19 -5 27 6 3 2 3 -10 1 -23 -6 -41 11
-26 26 5 5 19 11 31 14 11 2 94 33 184 68 90 36 181 71 203 78 22 8 43 18 47
24 4 5 8 7 8 3 0 -3 21 1 48 9 26 8 70 20 97 27 28 7 65 20 83 29 18 8 58 23
90 32 31 9 89 29 127 44 143 58 213 83 237 84 15 1 24 5 22 8 -2 4 24 16 59
27 34 11 81 30 104 41 23 12 49 21 58 21 9 0 39 12 67 26 29 14 61 24 74 21
13 -2 21 0 18 4 -8 14 91 56 251 106 28 9 71 24 97 34 26 11 54 19 63 19 8 0
37 11 63 25 26 13 74 31 106 39 32 9 83 25 113 36 61 23 67 24 58 10 -3 -5 1
-10 9 -10 9 0 16 -4 16 -9 0 -5 9 -13 20 -16 11 -4 18 -9 16 -13 -2 -4 9 -7
25 -8 20 -1 29 4 29 14 0 8 3 12 7 9 3 -4 12 -2 20 4 7 6 13 8 13 5 0 -4 16 5
35 20 19 14 35 35 35 45 0 13 5 17 17 12 16 -6 16 -5 -1 12 -18 18 -17 19 13
35 18 9 28 19 24 23 -4 5 0 5 9 2 8 -3 32 1 52 9 20 8 34 11 31 6 -6 -10 52
11 95 34 14 7 37 16 51 19 14 4 47 16 75 29 27 12 51 23 54 23 3 1 22 9 43 18
20 9 38 16 40 15 1 -1 21 11 44 25 24 15 49 27 56 27 7 0 46 20 87 45 41 24
80 45 86 45 9 0 55 22 142 68 61 33 63 33 80 20 14 -11 15 -10 9 5 -5 14 1 21
28 33 19 8 72 32 117 55 46 23 90 42 98 43 59 8 94 22 127 51 21 18 61 43 88
56 28 12 58 29 68 37 9 8 17 12 17 9 0 -10 72 30 80 44 4 6 24 13 45 16 21 3
53 13 71 24 19 10 44 21 57 23 27 5 106 35 185 72 57 26 88 31 76 12 -4 -7 -3
-8 5 -4 6 4 9 11 6 16 -4 6 13 18 35 25 3 0 50 23 105 49 55 27 106 49 113 49
6 0 12 4 12 8 0 5 19 17 43 29 23 11 74 39 112 62 123 72 185 100 411 182 39
15 80 28 91 30 10 2 43 16 73 30 30 14 60 26 67 26 12 0 33 9 159 67 28 13 62
26 75 27 13 2 31 6 39 10 17 6 216 66 240 71 31 7 105 36 126 50 12 8 30 14
40 13 18 -1 183 61 324 121 76 33 188 72 212 75 9 1 23 7 31 14 7 7 17 9 20 6
3 -4 41 5 84 19 43 14 89 27 103 29 14 2 27 6 30 10 3 4 20 9 37 13 18 3 68
18 112 35 45 16 81 27 81 25 0 -3 17 1 38 9 39 14 157 43 207 50 102 15 272
66 330 100 22 13 59 26 83 29 39 4 44 2 58 -24 18 -36 35 -36 70 -4 14 13 31
22 36 19 13 -8 76 64 83 95 4 19 17 31 53 45 26 11 84 41 130 68 82 48 107 53
95 21 -5 -11 -3 -14 6 -9 8 5 10 18 7 32 -4 13 -2 24 4 24 5 0 33 11 62 24
182 82 261 110 344 121 18 2 54 17 81 34 27 17 76 42 109 57 32 14 83 37 112
50 28 13 70 26 92 29 50 6 174 39 221 59 20 8 39 12 43 9 3 -4 6 0 6 7 0 7 3
11 6 7 4 -3 28 5 55 19 27 13 51 24 54 23 3 0 25 9 49 21 24 11 52 22 63 24
10 2 36 11 57 20 21 9 42 14 46 11 4 -3 10 2 14 10 3 8 13 15 21 15 9 0 67 24
128 54 118 57 212 93 262 100 40 5 152 34 245 62 77 23 168 26 192 6 22 -17
150 -59 223 -72 39 -7 77 -16 86 -21 30 -15 273 -59 329 -59 102 0 313 86 384
156 38 38 35 79 -6 104 -27 16 -172 66 -283 97 -11 3 -40 16 -65 29 -25 13
-51 24 -57 24 -7 0 -13 4 -13 9 0 10 97 58 137 67 32 7 222 73 301 103 28 12
52 18 52 15 0 -4 6 -1 13 5 8 6 16 8 19 5 4 -3 39 8 80 24 106 42 147 54 158
47 6 -3 13 1 16 10 4 10 13 13 26 9 13 -4 18 -2 14 4 -7 11 6 16 68 27 21 3
46 10 55 15 9 4 35 16 58 26 22 10 39 22 37 25 -2 3 7 4 21 2 16 -4 92 29 247
106 124 61 230 111 236 111 7 0 20 4 30 9 25 12 82 31 125 42 21 5 45 14 55
19 35 19 95 40 117 40 13 0 25 5 27 10 2 6 48 26 103 45 55 19 107 39 116 44
9 5 34 13 55 17 45 8 84 24 249 104 66 32 149 71 185 86 213 88 310 127 349
140 25 8 53 22 63 31 10 9 18 13 18 8 0 -4 6 -3 13 2 6 5 30 14 52 20 22 7 56
16 75 22 31 9 32 10 5 6 -113 -15 -120 -16 -104 -6 9 6 33 13 53 15 21 3 44
10 51 16 8 7 18 9 24 6 5 -3 11 -1 13 5 2 6 60 19 128 29 154 24 288 48 303
56 7 3 3 -2 -7 -10 -11 -9 -15 -16 -9 -16 5 0 23 11 39 25 16 14 33 25 37 25
5 0 5 4 2 10 -3 6 1 7 9 4 9 -3 16 -10 16 -15 0 -6 10 -4 23 3 12 7 27 11 32
10 6 -1 1 5 -10 13 -19 16 -19 16 9 11 16 -3 34 -11 40 -17 8 -9 8 -10 0 -6
-14 8 -73 -20 -92 -42 -12 -14 -13 -14 -8 1 3 10 1 20 -3 22 -16 10 -6 -31 12
-48 9 -10 17 -22 17 -27 0 -6 5 -7 11 -3 8 4 8 1 1 -12 -9 -18 -16 -62 -13
-91 1 -7 6 -13 11 -13 6 0 10 8 8 17 -2 10 5 19 16 21 10 2 29 15 42 29 25 27
31 38 15 29 -5 -3 -11 1 -15 9 -3 9 0 15 10 15 8 0 13 4 9 9 -3 6 4 15 15 21
11 6 20 9 20 6 0 -2 14 10 32 27 26 26 33 40 33 74 1 26 -3 39 -10 35 -5 -3
-4 2 4 11 12 15 11 17 -2 17 -25 0 -30 -20 -11 -41 9 -10 14 -19 9 -19 -4 0
-13 7 -19 15 -10 14 -14 14 -34 -1 -19 -13 -21 -18 -10 -32 8 -10 8 -13 1 -9
-6 4 -13 3 -15 -3 -1 -5 -8 1 -14 14 -9 20 -7 27 15 47 13 13 21 18 17 12 -4
-8 -1 -13 8 -13 14 0 20 12 17 33 0 4 5 6 11 5 7 -2 12 2 11 8 -3 15 174 105
215 109 30 3 31 2 15 -10 -16 -12 -15 -13 10 -8 18 4 26 10 23 19 -3 7 -2 15
2 17 4 2 1 2 -5 1 -36 -9 6 39 45 50 12 4 22 12 22 17 0 9 222 119 241 119 5
0 32 11 59 25 27 14 54 25 60 25 6 0 29 9 52 20 42 20 58 19 58 -6 0 -8 4 -14
10 -14 6 0 6 9 0 26 -8 19 -7 25 2 22 7 -3 18 1 25 8 7 7 34 20 60 30 27 9 71
27 98 39 90 41 128 56 245 97 63 22 135 51 160 63 25 13 90 44 145 70 55 25
139 65 187 89 48 23 85 38 82 34 -9 -14 4 -9 22 9 9 9 25 18 34 20 10 1 53 19
96 39 44 21 81 38 84 38 3 1 16 9 30 18 49 31 146 84 187 102 23 10 41 22 38
25 -2 4 10 8 27 9 16 1 58 16 93 32 36 17 71 30 80 30 9 0 32 7 53 16 74 32
137 54 157 54 12 0 25 4 30 9 6 5 42 20 80 34 124 44 176 66 201 82 13 8 28
15 34 15 7 0 62 25 123 56 62 31 198 95 302 141 105 46 245 111 312 144 67 32
127 59 133 59 15 0 168 78 215 110 59 40 203 120 216 120 13 0 256 107 352
156 37 19 69 34 71 34 4 0 19 -42 17 -52 0 -4 9 -5 21 -3 12 3 36 -4 53 -15
44 -27 55 -26 123 19 58 39 72 59 72 111 0 22 9 28 78 53 42 16 92 30 111 32
31 4 86 18 121 32 40 16 100 29 100 22 0 -14 92 2 132 21 20 10 49 21 65 23
32 4 66 17 73 27 16 23 172 86 196 80 4 -1 11 4 15 12 7 10 9 9 9 -4 0 -26 15
-29 29 -6 11 18 11 20 -3 15 -9 -4 -16 -2 -16 3 0 5 12 13 28 16 15 4 54 17
87 29 83 30 158 56 170 59 6 1 15 5 21 9 17 10 176 68 202 73 13 3 55 18 95
33 40 16 87 31 104 34 17 3 42 13 57 22 15 10 44 21 64 25 20 4 71 19 112 33
41 14 127 42 190 62 63 21 126 45 140 54 27 18 144 64 170 66 31 3 127 28 190
51 36 13 110 36 165 53 55 16 111 33 125 39 14 5 48 12 77 16 29 4 82 18 118
31 36 14 72 25 80 25 15 0 59 18 175 73 36 17 67 31 70 32 7 0 126 53 184 81
27 13 53 21 57 18 5 -3 9 0 9 6 0 7 7 9 16 6 8 -3 13 -2 10 3 -3 4 18 19 47
32 29 13 68 35 87 50 37 28 101 58 135 64 43 7 127 41 248 100 15 8 35 11 44
8 10 -4 14 -2 9 5 -3 6 3 13 14 17 11 3 20 11 20 16 0 5 9 9 19 9 11 0 41 9
67 20 26 11 63 23 83 26 l36 5 -25 -20 -25 -20 25 6 c27 7 71 33 55 33 -5 0 1
7 13 16 22 15 24 14 49 -10 29 -29 38 -32 50 -13 4 7 20 18 36 24 15 7 27 17
27 23 0 5 6 10 13 10 26 1 77 60 77 89 0 5 -10 20 -22 33 -13 13 -23 29 -24
36 -1 6 -2 16 -2 20 -2 8 -81 32 -107 32 -9 0 -20 -12 -25 -26 -8 -21 -13 -24
-24 -15 -11 9 -18 7 -30 -11 -9 -12 -16 -33 -16 -45 0 -13 -5 -23 -11 -23 -6
0 -26 -13 -44 -29 -28 -24 -41 -28 -81 -27 -37 2 -57 -3 -84 -21 -21 -15 -44
-23 -58 -20 -12 2 -25 1 -28 -4 -2 -4 -10 -6 -17 -4 -7 3 -28 -5 -47 -17 -27
-17 -31 -23 -17 -26 9 -2 17 -7 17 -12 0 -15 -34 -16 -45 -3 -8 11 -23 9 -75
-13 -36 -14 -69 -29 -75 -33 -5 -4 -21 -8 -35 -9 -13 -1 -30 -8 -36 -17 -6 -8
-16 -15 -23 -15 -6 0 15 28 49 62 33 34 60 68 60 75 0 15 36 69 61 93 9 8 19
25 23 37 4 11 13 27 21 33 17 14 21 45 5 35 -19 -12 -9 10 20 45 16 19 35 41
41 48 5 7 11 21 12 32 1 11 5 20 10 20 5 0 6 7 3 16 -4 10 -2 13 6 8 7 -5 9
-2 5 9 -3 9 0 18 9 21 8 3 19 16 24 28 10 24 23 45 51 88 59 91 59 240 -2 288
-27 22 -30 22 -59 7 -16 -8 -30 -21 -30 -27 0 -6 -3 -9 -6 -5 -5 5 -61 -34
-126 -89 -17 -14 -28 -33 -28 -48 0 -16 -6 -26 -15 -26 -8 0 -15 -6 -15 -14 0
-8 -7 -17 -16 -20 -8 -3 -13 -10 -10 -15 3 -5 -8 -14 -25 -21 -27 -12 -30 -17
-25 -42 6 -31 7 -30 -105 -133 -18 -16 -55 -37 -82 -47 -27 -10 -57 -24 -66
-31 -9 -8 -38 -20 -66 -27 -27 -7 -58 -20 -67 -28 -16 -13 -19 -12 -27 9 -5
13 -10 20 -10 16 -1 -14 -24 16 -50 63 -23 42 -42 67 -98 127 -12 12 -20 23
-18 23 3 0 -4 9 -15 20 -11 11 -20 25 -20 30 0 6 -4 10 -9 10 -14 0 -71 56
-71 70 0 14 -58 101 -79 117 -9 7 -12 13 -7 13 15 0 -46 60 -61 60 -7 0 -13 6
-13 14 0 8 -16 37 -35 65 -19 28 -35 57 -35 65 0 7 -7 19 -15 26 -8 7 -15 18
-15 25 0 7 -6 18 -14 24 -8 7 -18 27 -22 44 -3 18 -9 36 -12 42 -3 5 -7 16 -8
25 -1 8 -5 26 -9 40 -4 14 -9 39 -12 55 -3 17 -11 44 -19 62 -8 17 -14 35 -14
40 0 6 -9 18 -20 28 -11 10 -20 24 -20 30 0 7 -6 18 -14 25 -8 6 -12 18 -9 25
2 8 -2 29 -11 46 -9 18 -16 42 -16 54 0 12 -8 39 -19 61 -10 21 -29 82 -41
134 -43 189 -160 558 -232 730 -22 52 -46 115 -53 140 -37 121 -72 215 -117
320 -27 63 -56 145 -64 182 -8 36 -23 91 -34 122 -10 30 -17 71 -15 90 2 20
-3 40 -10 46 -7 6 -18 38 -24 73 -7 34 -16 69 -20 77 -5 9 -12 35 -16 58 -4
23 -13 48 -20 56 -10 10 -11 16 -3 24 8 8 8 15 -2 27 -10 12 -10 15 0 15 10 0
10 3 1 14 -8 10 -9 16 -2 21 14 8 -10 47 -26 41 -7 -3 -10 1 -6 10 3 8 1 20
-5 27 -13 17 -22 96 -11 103 5 3 6 11 3 17 -4 7 -3 9 1 5 8 -8 88 34 113 59 7
7 20 13 28 13 8 0 13 4 10 9 -3 5 14 14 39 20 25 6 45 16 45 21 0 6 7 10 15
10 9 0 18 6 21 14 3 8 18 19 34 26 16 7 31 18 34 26 3 8 14 14 24 14 10 0 34
14 53 31 19 17 46 36 62 41 15 6 27 14 27 19 0 5 6 9 13 9 6 0 23 9 37 20 14
11 33 20 43 20 9 0 17 5 17 10 0 6 7 10 15 10 9 0 27 7 41 16 24 16 25 20 18
88 -4 39 -10 76 -14 81 -4 6 -12 37 -20 70 -13 63 -35 115 -54 127 -6 4 -7 10
-3 14 4 4 -2 22 -13 40 -20 31 -20 33 -3 46 18 13 34 37 75 116 12 23 26 42
31 42 4 0 5 5 2 10 -3 6 -2 10 4 10 12 0 81 94 81 111 0 7 10 23 21 35 24 26
42 55 61 97 7 15 18 27 25 27 7 0 13 3 14 8 4 39 3 69 -2 66 -4 -2 -13 4 -20
13 -11 13 -11 17 -1 20 6 3 12 12 12 22 0 9 5 22 12 29 9 9 9 12 -2 12 -9 0
-7 6 7 19 12 11 24 39 28 61 6 33 4 44 -11 54 -17 13 -15 16 18 47 20 19 39
48 43 67 5 23 12 32 27 32 17 0 18 2 8 15 -8 10 -21 13 -33 9 -14 -4 -26 1
-38 17 -14 18 -21 21 -27 11 -12 -18 -37 12 -26 30 4 7 4 10 -1 6 -4 -4 -14
-3 -21 3 -9 8 -11 5 -7 -10 3 -12 1 -21 -6 -21 -6 0 -11 6 -11 14 0 9 -7 12
-20 9 -11 -3 -35 1 -52 10 -52 23 -89 30 -86 15 4 -16 -51 -19 -71 -4 -11 8
-13 8 -7 -2 6 -9 2 -10 -17 -1 -20 9 -28 8 -46 -7 -11 -10 -33 -18 -48 -19
-19 0 -31 -7 -38 -22 -15 -35 -71 -43 -127 -19 -18 8 -50 22 -72 31 -60 27
-69 3 -9 -27 26 -14 51 -26 55 -27 10 -2 23 -6 85 -25 28 -9 62 -16 75 -16 39
-1 66 -23 93 -75 23 -46 24 -51 8 -62 -9 -7 -12 -13 -7 -13 5 0 9 -16 9 -35 0
-24 -4 -34 -12 -30 -8 2 -13 -4 -13 -16 0 -27 -27 -79 -43 -81 -21 -2 -31 -4
-63 -12 -31 -7 -31 -7 -23 -53 5 -25 15 -51 23 -57 25 -20 25 -53 0 -87 -13
-18 -24 -38 -24 -45 0 -19 -25 -35 -37 -23 -15 15 -69 -14 -76 -42 -3 -11 -10
-18 -15 -15 -6 3 -24 -10 -41 -29 -17 -19 -35 -35 -41 -35 -5 0 -41 -30 -79
-67 -38 -38 -81 -77 -96 -88 -27 -21 -43 -35 -117 -100 -24 -22 -53 -42 -64
-43 -10 -2 -20 -8 -22 -13 -2 -5 -9 -9 -16 -9 -8 0 -26 -12 -41 -27 -15 -16
-32 -28 -39 -29 -6 0 -21 -4 -34 -8 -16 -5 -29 -3 -40 7 -9 7 -25 17 -34 20
-10 4 -18 11 -18 17 0 6 -5 8 -12 4 -6 -4 -8 -3 -5 3 4 6 0 16 -8 23 -8 7 -15
16 -15 21 0 14 -49 112 -75 149 -72 102 -121 151 -166 165 -13 5 -32 17 -41
28 -10 10 -24 17 -32 14 -8 -3 -21 2 -29 11 -9 9 -33 26 -54 37 -73 37 -223
174 -223 202 0 10 -54 37 -75 38 -5 1 -27 9 -49 20 -31 15 -42 16 -57 7 -11
-7 -19 -8 -19 -2 0 5 -6 7 -14 4 -7 -3 -29 3 -47 14 -39 21 -170 24 -177 4 -8
-26 -21 -10 -17 21 2 17 7 57 11 87 3 30 10 63 15 73 9 15 5 21 -12 19 -10 -2
-5 54 7 69 31 42 38 70 26 101 -8 23 -9 35 -1 45 17 20 -11 163 -32 163 -4 0
-14 18 -23 40 -9 22 -24 48 -33 58 -10 9 -24 30 -30 45 -7 15 -21 31 -30 34
-35 14 -52 38 -84 119 -18 48 -38 84 -45 84 -8 0 -14 4 -14 8 0 18 -85 63
-129 68 -61 7 -64 10 -36 38 16 16 21 30 18 50 -4 21 -20 34 -81 64 -42 20
-84 45 -94 55 -10 9 -23 17 -29 17 -27 0 -88 38 -131 82 -26 26 -54 48 -61 48
-8 0 -24 9 -37 20 -28 24 -53 26 -74 4z m133 -3424 c6 -36 12 -74 14 -85 1
-11 6 -23 10 -26 4 -3 9 -17 11 -30 1 -14 6 -30 10 -37 4 -7 4 -17 0 -24 -9
-14 -10 -76 -1 -85 4 -3 7 -19 7 -34 0 -34 -15 -31 -70 11 -19 15 -53 37 -75
48 -22 11 -71 41 -108 66 -38 25 -73 46 -78 46 -5 0 -9 5 -9 10 0 6 -7 10 -15
10 -8 0 -15 2 -15 5 0 19 197 215 216 215 7 0 17 7 22 16 5 8 20 21 33 28 23
11 24 10 31 -29 3 -22 11 -69 17 -105z m2741 -2894 c0 -7 16 -26 35 -40 19
-15 65 -56 103 -92 69 -66 117 -98 134 -88 5 3 12 -3 15 -15 3 -12 13 -21 24
-21 11 0 19 -4 19 -10 0 -5 5 -10 11 -10 6 0 28 -12 48 -27 121 -92 310 -167
352 -140 11 7 19 15 19 20 0 4 5 5 10 2 6 -3 10 1 10 10 0 9 5 13 10 10 6 -4
26 3 45 14 19 11 35 16 35 12 0 -5 -7 -11 -15 -15 -8 -3 -14 -11 -13 -17 2 -7
-7 -15 -20 -18 -13 -3 -23 -10 -24 -16 0 -5 -9 -22 -19 -37 -10 -14 -19 -29
-19 -32 0 -3 22 -23 48 -44 27 -21 47 -43 45 -49 -6 -18 101 -118 116 -109 4
3 12 -3 18 -13 9 -15 4 -19 -38 -34 -38 -14 -49 -23 -49 -39 0 -17 -3 -19 -12
-10 -14 14 -42 16 -33 3 3 -5 1 -12 -5 -16 -5 -3 -10 -1 -10 5 0 6 -11 5 -30
-5 -16 -9 -30 -13 -30 -10 0 3 -11 -2 -25 -11 -14 -9 -25 -13 -25 -9 0 4 -7 2
-15 -5 -10 -9 -15 -9 -15 -1 0 6 -4 11 -10 11 -5 0 -9 -5 -7 -12 3 -16 -131
-69 -165 -65 -24 3 -27 0 -24 -20 6 -28 -9 -39 -22 -17 -12 22 -81 13 -99 -13
-7 -9 -13 -12 -13 -6 0 18 -70 -8 -71 -26 0 -11 -2 -12 -6 -3 -2 6 -14 12 -24
12 -11 0 -17 -4 -14 -10 3 -6 -1 -7 -9 -4 -19 7 -116 -24 -116 -38 0 -6 -7 -7
-16 -4 -11 4 -18 -1 -21 -14 -6 -21 -18 -26 -28 -11 -6 11 -12 10 -119 -18
-44 -12 -87 -21 -95 -21 -9 0 -28 -6 -43 -14 -14 -8 -42 -19 -61 -25 -19 -7
-52 -27 -71 -46 -29 -27 -42 -33 -65 -29 -37 8 -111 -13 -111 -31 0 -18 -16
-20 -23 -2 -4 8 -8 9 -14 1 -4 -6 -26 -14 -48 -17 -22 -4 -41 -11 -43 -16 -2
-5 -12 -7 -22 -4 -11 3 -20 0 -20 -6 0 -6 -9 -11 -21 -11 -11 0 -18 -4 -15 -9
4 -5 -2 -7 -11 -5 -10 3 -49 -7 -86 -21 l-68 -25 -19 22 c-17 22 -26 23 -152
25 -112 2 -135 0 -145 -13 -6 -9 -18 -14 -25 -11 -19 6 -48 -11 -48 -30 0 -11
-3 -13 -13 -5 -7 6 -28 9 -47 7 -40 -5 -118 -8 -202 -6 -58 1 -58 1 -58 32 0
26 -2 29 -14 20 -17 -15 -29 0 -20 24 6 15 2 16 -27 11 -30 -5 -29 -4 9 10 48
18 64 41 38 56 -15 8 -15 11 4 36 12 14 20 38 19 52 -4 45 13 174 28 211 8 20
13 40 12 45 -1 5 0 11 1 14 2 5 4 19 14 80 21 124 40 217 47 232 6 11 2 28
-12 52 l-21 36 35 0 c20 0 39 5 42 10 4 6 10 8 15 5 5 -3 11 -1 15 5 4 6 11 8
16 4 5 -3 16 -1 23 5 8 7 18 11 22 9 17 -4 144 14 144 20 0 4 39 18 88 31 126
33 226 65 232 72 3 4 21 10 40 13 19 4 44 11 55 16 11 5 36 11 55 14 19 3 66
22 104 41 39 19 73 35 78 35 4 0 35 13 69 30 34 16 65 28 69 25 4 -2 34 9 66
26 33 16 77 35 99 41 22 6 45 15 50 19 6 4 22 10 36 12 13 3 45 16 69 31 50
28 90 34 90 12z m-25660 -1295 c0 -22 5 -41 12 -43 7 -3 11 -26 9 -69 -2 -47
1 -61 9 -53 6 6 12 18 14 25 1 8 9 29 18 47 9 18 12 30 7 27 -5 -4 -9 -1 -9 5
0 7 6 10 13 7 6 -2 11 -15 11 -28 -2 -47 -33 -164 -44 -167 -12 -4 -7 -46 17
-130 25 -90 39 -42 44 156 2 76 16 92 33 36 5 -16 12 -38 16 -49 5 -11 13 -45
18 -75 l9 -55 2 55 2 55 20 -24 c12 -15 16 -27 9 -31 -6 -4 -8 -27 -4 -61 3
-30 6 -61 5 -69 -1 -16 0 -77 1 -97 1 -7 4 -11 6 -8 7 7 32 -31 37 -55 2 -12
0 -18 -6 -15 -5 4 -6 11 -3 17 4 7 2 8 -4 4 -14 -8 -11 -32 6 -63 7 -13 11
-23 8 -23 -2 0 -11 -2 -18 -5 -19 -8 -63 81 -82 164 -14 62 -26 88 -26 60 0
-11 -2 -11 -10 1 -7 11 -8 7 -6 -15 7 -54 18 -90 34 -107 8 -10 12 -18 8 -18
-11 0 25 -63 48 -85 25 -23 63 -81 47 -71 -6 4 -11 3 -11 -2 0 -6 7 -12 15
-16 8 -3 15 -1 15 5 0 6 4 8 8 5 13 -8 39 13 26 22 -6 4 -15 25 -19 47 -13 65
-12 83 4 80 19 -2 41 -34 41 -60 0 -11 7 -30 15 -42 8 -12 12 -28 9 -36 -3 -8
2 -17 13 -21 12 -5 14 -9 6 -14 -15 -10 -5 -52 12 -52 7 0 15 -11 17 -25 3
-13 2 -23 -1 -22 -20 7 -8 -85 14 -103 8 -7 15 -18 15 -24 0 -6 -5 -4 -10 4
-7 11 -10 -10 -11 -70 -2 -193 -5 -230 -25 -302 -3 -10 -10 -17 -16 -15 -11 2
-19 -10 -37 -57 -13 -33 -20 -30 -27 10 -3 15 -8 34 -13 41 -4 7 -4 38 -1 68
3 30 2 59 -3 64 -5 5 -11 33 -13 63 -2 29 -10 57 -17 63 -13 9 -25 36 -31 69
-13 61 -91 200 -146 260 -66 72 -90 103 -73 92 9 -5 11 -2 7 8 -3 9 -10 16
-14 16 -5 0 -12 10 -15 21 -5 15 -10 18 -15 10 -5 -8 -12 -4 -24 13 -9 14 -13
26 -10 26 4 0 1 8 -7 18 -27 32 -49 91 -37 98 7 5 8 3 3 -6 -6 -10 -4 -12 9
-7 14 6 16 3 11 -13 -5 -14 -2 -20 9 -20 22 0 20 32 -3 57 -11 11 -21 35 -22
54 -2 19 -9 43 -15 54 -12 21 -3 65 14 65 11 0 32 -45 32 -70 0 -11 5 -20 10
-20 6 0 10 14 10 30 0 17 5 30 11 30 5 0 7 -4 4 -10 -3 -5 -1 -10 6 -10 11 0
8 99 -6 168 -2 14 1 22 10 22 7 0 15 -10 17 -22 4 -32 22 -29 26 5 3 23 0 27
-21 27 -24 0 -24 0 -22 103 2 120 2 117 15 117 6 0 10 -18 10 -39z m-316
-4183 c8 -18 19 -69 26 -113 7 -44 16 -84 20 -90 4 -5 13 -30 20 -55 12 -44
30 -89 73 -180 12 -25 22 -56 23 -70 0 -14 5 -73 9 -132 l8 -107 -30 -28 c-25
-23 -31 -39 -36 -91 -9 -86 -34 -169 -54 -176 -22 -9 -27 -1 -14 22 6 12 11
39 11 61 0 22 4 42 8 45 4 2 9 56 10 119 1 108 0 115 -17 110 -21 -5 -35 -70
-20 -89 5 -6 6 -14 3 -17 -4 -3 -7 -54 -7 -112 0 -58 -4 -108 -9 -111 -5 -3
-6 -15 -2 -26 7 -22 -4 -93 -13 -84 -3 3 -12 -1 -20 -9 -8 -8 -19 -15 -24 -15
-13 0 -30 46 -23 64 3 8 1 17 -5 21 -7 4 -11 59 -11 151 0 80 -3 143 -7 141
-5 -3 -9 -67 -11 -144 -2 -99 -7 -142 -17 -152 -15 -15 -35 -7 -35 13 0 8 -7
27 -15 42 -10 20 -15 61 -16 134 0 58 -4 123 -8 145 -7 36 -8 37 -14 15 -3
-14 -6 -34 -6 -45 -5 -120 -7 -137 -20 -144 -10 -7 -11 -13 -2 -29 9 -17 7
-23 -11 -36 -14 -10 -26 -12 -32 -6 -5 5 -9 83 -8 177 1 159 -9 277 -28 333
-5 14 -11 50 -15 80 -5 48 -3 59 15 80 11 13 31 40 42 60 22 35 140 191 168
221 8 9 22 25 30 37 21 32 47 27 64 -10z m7781 -718 c-4 -11 -2 -20 4 -20 6 0
11 -8 11 -18 0 -10 29 -50 65 -88 59 -62 126 -158 176 -252 36 -68 111 -159
162 -197 28 -21 61 -50 71 -63 11 -13 59 -57 108 -98 111 -91 159 -148 208
-245 43 -84 61 -97 96 -74 22 14 24 14 24 -2 0 -9 24 -60 53 -112 30 -53 64
-118 78 -145 13 -27 28 -48 33 -47 8 2 87 -122 86 -136 0 -5 -4 -9 -10 -9 -5
-1 -14 -2 -20 -3 -5 0 -19 -10 -30 -21 -11 -11 -20 -16 -20 -10 0 10 -68 -13
-105 -36 -11 -6 -38 -17 -60 -24 -22 -7 -44 -16 -50 -20 -5 -4 -36 -15 -68
-24 -32 -9 -60 -23 -64 -31 -3 -10 -13 -13 -29 -9 -13 4 -30 2 -37 -4 -6 -5
-25 -12 -42 -16 -43 -11 -97 -36 -122 -59 -13 -12 -30 -17 -43 -14 -11 3 -22
2 -25 -3 -3 -4 -25 -17 -51 -29 -25 -12 -56 -32 -68 -44 -12 -12 -35 -29 -52
-37 -16 -8 -31 -17 -34 -20 -13 -13 -70 -40 -84 -40 -25 0 -138 -59 -132 -69
3 -5 -5 -8 -18 -8 -27 0 -111 -37 -139 -61 -9 -8 -20 -13 -23 -9 -5 5 -46 -12
-106 -44 -10 -5 -23 -9 -28 -9 -6 0 -30 -9 -52 -20 -23 -11 -47 -20 -54 -20
-16 0 -109 -43 -130 -61 -9 -8 -20 -13 -23 -12 -12 5 -77 -20 -129 -49 -29
-17 -56 -28 -59 -25 -3 3 -14 -2 -24 -12 -18 -17 -24 -17 -72 -3 -28 8 -63 14
-77 13 -54 -2 -216 58 -276 103 -82 60 -107 90 -156 181 -40 74 -42 84 -36
130 3 28 7 100 8 160 1 109 9 174 29 250 5 22 22 94 36 160 14 66 30 134 36
150 5 17 21 82 35 145 13 63 39 149 56 190 48 115 98 260 110 315 5 28 28 89
50 136 l41 86 61 7 c121 12 432 123 609 217 43 23 89 39 132 45 45 6 86 25 79
36 -4 6 2 8 15 3 12 -4 21 -2 21 4 0 6 12 17 28 25 35 19 34 20 27 -4z m-5137
-2072 c0 -54 9 -117 18 -130 11 -13 34 -133 39 -200 1 -21 3 -39 4 -40 1 -2 3
-38 5 -80 2 -42 6 -81 9 -85 3 -4 8 -39 11 -78 4 -38 11 -86 16 -105 5 -19 21
-116 35 -215 14 -99 34 -209 44 -245 10 -36 22 -101 25 -145 4 -54 11 -84 21
-91 8 -6 15 -16 15 -23 0 -6 5 -11 10 -11 6 0 10 6 10 13 0 9 25 11 102 9
l103 -3 -3 -96 c-2 -59 1 -100 7 -106 6 -6 11 -23 11 -37 0 -15 7 -41 16 -58
12 -25 22 -32 47 -34 80 -4 117 -2 117 5 0 5 5 5 10 2 6 -3 10 -11 10 -16 0
-6 -4 -7 -10 -4 -5 3 -10 -1 -10 -10 0 -15 -1 -15 -16 -1 -19 19 -13 19 -60 0
-85 -34 -94 -39 -94 -54 0 -12 -2 -12 -9 -1 -7 11 -17 9 -57 -10 -55 -25 -58
-26 -80 -28 -10 -1 -14 -7 -10 -16 3 -8 1 -15 -4 -15 -6 0 -10 5 -10 12 0 9
-3 9 -12 0 -7 -7 -22 -12 -35 -12 -13 0 -23 -5 -23 -11 0 -5 -4 -7 -10 -4 -5
3 -29 -4 -52 -17 -24 -12 -48 -21 -54 -20 -5 1 -19 -6 -30 -16 -11 -10 -26
-16 -33 -14 -10 3 -12 0 -8 -12 4 -9 4 -16 2 -16 -11 0 -44 34 -39 41 2 4 -6
4 -18 1 -19 -5 -20 -7 -6 -10 26 -5 4 -24 -55 -47 -33 -12 -46 -23 -43 -32 3
-8 2 -12 -3 -8 -5 3 -12 -1 -15 -7 -3 -10 -8 -9 -15 4 -9 14 -17 14 -48 5 -21
-6 -51 -20 -68 -31 -16 -11 -39 -19 -50 -18 -11 2 -48 -10 -80 -25 -33 -15
-67 -29 -75 -30 -45 -6 -223 -68 -279 -97 -17 -9 -35 -25 -41 -37 -9 -15 -15
-18 -25 -9 -9 8 -16 7 -27 -3 -7 -7 -30 -16 -50 -20 -20 -3 -48 -13 -62 -23
-25 -16 -26 -18 -11 -40 8 -13 14 -25 13 -25 -13 -6 -79 -5 -83 1 -2 4 -24 4
-47 -1 -24 -4 -47 -8 -51 -9 -5 0 -6 -4 -3 -9 4 -5 -13 -12 -36 -16 -24 -4
-49 -12 -55 -17 -7 -6 -13 -7 -13 -3 0 4 -7 2 -15 -5 -8 -7 -15 -9 -15 -5 0 4
-7 1 -17 -6 -9 -8 -26 -15 -37 -16 -22 -1 -106 -25 -140 -39 -27 -11 -11 14
17 27 12 5 37 18 56 30 18 11 39 18 46 15 8 -3 12 2 10 12 -1 9 1 22 6 27 4 6
9 23 11 39 3 28 0 30 -72 53 -41 13 -84 26 -95 28 -213 44 -367 99 -415 150
-21 22 -22 28 -10 35 100 57 105 75 65 230 -6 23 -15 163 -20 300 -4 153 -4
164 11 145 16 -19 16 -18 11 20 -28 186 -36 624 -16 796 34 290 45 375 53 395
2 6 38 14 79 17 41 4 86 11 99 16 14 5 68 12 119 16 102 7 250 24 260 31 29
18 228 38 439 44 159 5 271 13 320 23 41 9 118 25 171 36 89 18 234 62 269 82
23 13 28 11 28 -13z m1197 -1567 c-27 -10 -63 -23 -78 -29 -15 -7 -39 -15 -52
-18 -21 -5 -23 -9 -14 -25 7 -15 6 -19 -6 -19 -8 0 -15 6 -15 14 0 13 -34 12
-70 -1 -8 -3 -20 -7 -26 -8 -6 -2 -21 -6 -32 -9 -19 -6 -20 -4 -12 24 5 17 6
38 3 47 -10 26 18 32 160 32 76 0 141 2 145 5 3 3 15 6 26 5 12 -1 -1 -9 -29
-18z"/>
<path d="M23775 18838 c-11 -6 -22 -14 -25 -17 -12 -15 -89 -71 -97 -71 -5 0
-24 -11 -43 -25 -18 -13 -49 -30 -69 -36 -20 -7 -39 -17 -43 -22 -4 -7 -20 -5
-47 5 -40 16 -41 16 -41 -5 0 -13 -3 -17 -8 -11 -4 7 -23 21 -42 31 -38 22
-108 24 -186 5 -46 -10 -110 6 -130 32 -6 9 -14 13 -17 9 -4 -3 -7 -1 -7 5 0
7 -9 12 -21 12 -11 0 -17 -4 -14 -10 3 -5 -3 -15 -15 -22 -11 -7 -20 -19 -20
-26 0 -10 -5 -10 -21 -2 -11 7 -23 10 -25 7 -7 -7 15 -57 25 -57 5 0 14 -13
20 -30 5 -16 15 -30 21 -30 6 0 30 -9 53 -20 48 -23 171 -29 206 -10 12 6 21
8 21 5 0 -3 13 1 30 10 16 8 38 15 48 15 11 0 22 6 25 14 6 15 47 29 47 15 0
-5 5 -9 11 -9 5 0 7 5 3 11 -4 7 0 9 14 5 11 -4 23 -2 27 4 3 6 22 17 41 25
19 8 34 19 34 25 0 6 4 9 9 5 5 -3 12 -1 15 4 3 5 21 12 40 15 19 4 39 13 46
21 7 8 19 15 27 15 8 0 11 5 7 11 -4 7 -1 10 7 7 8 -3 24 6 36 19 12 12 29 23
38 23 8 0 15 4 15 8 0 5 12 14 26 20 14 7 22 17 19 22 -8 13 -15 12 -40 -2z"/>
<path d="M20485 18182 c-16 -11 -48 -39 -70 -63 -22 -24 -42 -44 -45 -43 -3 0
-43 -25 -90 -55 -47 -31 -101 -65 -121 -76 -45 -25 -179 -126 -199 -150 -40
-49 -193 -176 -205 -171 -8 3 -17 1 -20 -4 -8 -13 13 -50 29 -50 7 0 34 -21
59 -47 61 -65 186 -176 216 -192 9 -6 10 -13 3 -27 -14 -28 -59 -171 -71 -229
-40 -190 -49 -384 -26 -555 21 -162 20 -156 44 -219 20 -53 70 -111 95 -111 7
0 30 -13 52 -30 21 -16 45 -30 52 -30 17 0 15 -25 -3 -40 -9 -7 -14 -19 -11
-26 3 -8 -2 -18 -11 -23 -13 -7 -29 1 -66 32 -83 70 -141 132 -158 168 -31 67
-46 104 -55 134 -8 24 -24 37 -84 67 -107 52 -197 69 -375 71 -143 2 -155 1
-256 -30 -58 -18 -121 -33 -140 -33 -19 0 -59 -7 -89 -15 -30 -8 -73 -15 -96
-15 -22 0 -43 -3 -47 -6 -3 -3 -25 -7 -49 -9 -24 -1 -99 -8 -168 -15 -161 -16
-469 -4 -617 26 -46 9 -136 14 -249 14 -161 0 -178 -2 -201 -20 -23 -17 -40
-20 -142 -19 -99 0 -215 12 -311 32 -14 3 -52 8 -85 12 -33 4 -73 8 -90 10
-107 13 -277 16 -290 5 -12 -10 -15 -9 -15 4 0 10 -5 14 -11 10 -7 -4 -9 -28
-6 -63 l4 -57 -81 29 c-134 47 -228 74 -286 82 -30 3 -68 9 -85 12 -98 16
-302 29 -318 19 -61 -36 -177 -176 -175 -212 0 -10 -3 -28 -7 -38 -6 -14 -5
-17 3 -12 7 4 12 1 12 -10 0 -12 7 -15 29 -12 31 5 36 -6 13 -30 -15 -17 -9
-27 10 -16 7 5 33 9 57 10 l44 2 -42 -24 c-24 -13 -45 -24 -48 -24 -2 0 -11
-7 -20 -15 -24 -25 -7 -29 23 -6 14 11 30 18 35 15 5 -3 9 -1 9 4 0 9 43 32
60 32 5 0 7 -7 4 -15 -5 -11 1 -15 24 -15 17 0 34 -5 38 -11 4 -8 -3 -9 -26
-4 -23 5 -30 4 -26 -4 4 -6 14 -11 23 -11 13 0 13 -3 3 -15 -10 -13 -7 -17 23
-30 20 -8 40 -15 45 -15 5 0 19 -11 32 -25 13 -14 31 -25 41 -25 9 0 24 -11
33 -25 17 -26 7 -34 -16 -12 -17 17 -48 29 -48 18 0 -11 69 -70 96 -83 32 -15
47 -69 34 -120 -7 -24 -18 -55 -26 -70 -8 -14 -14 -33 -14 -42 0 -9 -5 -16
-11 -16 -5 0 -8 -4 -5 -9 3 -5 -1 -11 -9 -15 -8 -3 -15 -11 -15 -17 0 -7 -6
-17 -14 -23 -8 -6 -11 -18 -7 -29 6 -16 8 -16 28 -2 25 18 67 96 78 146 4 18
11 40 16 49 4 8 13 37 19 64 9 39 8 52 -3 65 -14 16 -28 45 -33 69 -1 7 8 17
21 22 12 5 46 29 74 54 33 30 63 47 88 51 21 4 60 11 86 16 72 14 177 10 222
-8 22 -9 59 -16 83 -17 37 -1 45 -5 63 -36 12 -19 28 -42 35 -50 8 -8 26 -31
39 -50 13 -19 51 -73 83 -120 33 -47 73 -101 88 -121 16 -20 36 -47 44 -59 38
-56 75 -99 175 -206 l40 -43 235 -11 c132 -6 260 -18 293 -26 31 -8 74 -17 95
-20 20 -3 62 -9 92 -15 30 -5 105 -12 165 -15 101 -5 243 -32 283 -54 9 -5 42
-20 72 -34 91 -42 232 -119 290 -160 158 -108 176 -123 201 -163 18 -28 20
-77 5 -102 -2 -3 -7 -60 -10 -125 -4 -65 -9 -123 -13 -129 -23 -38 -41 -685
-23 -867 6 -63 20 -151 31 -195 19 -75 28 -202 15 -223 -3 -5 -6 -79 -6 -164
-1 -95 -8 -184 -17 -229 -12 -59 -16 -163 -17 -499 -2 -402 -3 -428 -23 -480
-56 -152 -75 -206 -117 -335 -24 -77 -56 -174 -71 -215 -14 -41 -38 -118 -51
-170 -26 -98 -67 -203 -91 -231 -7 -8 -13 -28 -13 -43 0 -16 -4 -25 -10 -21
-5 3 -10 -1 -10 -9 0 -8 17 -27 37 -41 l37 -25 238 7 c230 6 238 6 239 -13 1
-15 2 -14 8 5 4 15 28 34 71 57 35 19 71 36 80 38 31 6 70 26 90 46 11 11 20
18 20 15 0 -2 23 9 50 25 28 17 57 30 65 30 8 0 17 5 20 10 7 11 59 36 142 69
28 11 66 29 84 40 83 51 103 11 74 -145 -10 -52 -15 -97 -12 -101 4 -3 7 1 7
9 0 17 53 39 140 59 70 16 250 77 360 123 47 19 125 46 174 60 48 14 120 42
160 61 39 19 96 42 126 50 30 8 127 40 215 70 88 30 193 62 233 71 97 22 213
72 292 126 73 50 82 71 51 121 -10 17 -26 50 -34 72 -8 22 -18 48 -22 58 -5
12 -3 17 8 17 8 0 17 6 19 12 3 8 24 13 51 14 26 1 53 6 59 12 16 13 302 112
343 119 25 4 39 -3 78 -37 32 -29 47 -37 47 -26 0 22 22 20 48 -4 20 -19 24
-19 49 -7 16 8 51 20 78 26 28 7 74 24 104 39 45 24 57 35 71 73 l18 45 -28
39 c-16 22 -37 56 -46 75 -10 19 -31 55 -49 80 -47 67 -62 102 -85 198 -12 48
-33 103 -47 124 -13 20 -30 56 -38 80 -7 23 -38 99 -68 168 -42 95 -56 139
-59 184 -2 39 1 60 9 63 6 2 13 -6 15 -19 2 -18 8 -10 23 32 16 45 38 74 128
163 60 60 111 106 115 103 3 -4 9 -38 13 -77 12 -109 33 -154 83 -179 23 -11
48 -20 55 -20 7 0 9 -4 6 -10 -3 -5 1 -10 9 -10 9 0 16 4 16 10 0 5 25 35 55
67 30 32 55 65 55 74 0 9 7 19 15 23 8 3 15 16 15 28 0 13 21 50 45 82 25 33
45 63 45 67 0 4 11 14 25 23 26 17 37 13 90 -26 6 -5 21 -16 34 -26 l24 -19
-36 -1 c-22 -1 -37 3 -37 10 0 6 -8 4 -18 -5 -10 -10 -24 -17 -30 -17 -6 0
-14 -10 -17 -22 -6 -15 -1 -26 16 -40 l24 -18 -30 10 c-22 8 -27 8 -19 0 6 -6
24 -12 40 -14 15 -2 30 -8 32 -15 2 -6 8 -9 13 -5 5 3 9 -2 9 -12 0 -12 -3
-14 -12 -6 -18 14 -115 7 -135 -9 -14 -11 -15 -12 -9 -1 6 10 2 13 -15 10 -19
-2 -25 -10 -27 -35 -2 -20 -9 -33 -17 -33 -9 0 -19 -18 -26 -45 -6 -25 -15
-45 -20 -45 -5 0 -9 -6 -9 -14 0 -27 -20 -28 -30 -2 -9 25 -30 36 -30 16 0 -5
5 -10 11 -10 6 0 9 -7 5 -15 -3 -8 -1 -15 4 -15 6 0 10 -7 10 -15 0 -22 53
-94 70 -95 8 0 22 -5 30 -11 13 -9 12 -10 -2 -5 -10 3 -18 2 -18 -3 0 -9 41
-23 77 -25 12 -1 33 -12 47 -25 21 -20 32 -23 74 -18 27 3 63 12 80 21 17 9
53 16 79 16 84 0 115 40 72 94 -15 18 -17 26 -7 28 76 8 97 41 73 111 -12 36
-12 35 38 74 l29 22 -29 28 c-15 15 -28 31 -28 36 0 4 -28 27 -63 51 -47 33
-59 45 -45 48 10 3 27 -3 38 -13 11 -9 31 -19 44 -21 19 -2 25 2 26 19 1 17
-2 20 -11 12 -14 -12 -34 -9 -52 9 -12 11 -12 16 3 32 15 17 16 24 5 50 -11
27 -70 80 -78 72 -2 -2 -7 0 -10 4 -4 4 -1 4 7 -1 10 -6 12 -4 7 4 -5 7 -18
16 -29 22 -56 24 -86 53 -87 83 0 11 -3 16 -7 13 -3 -4 -14 0 -24 9 -14 12
-42 15 -141 15 -126 0 -145 -2 -163 -13 -6 -4 -12 2 -12 13 -2 28 -18 44 -56
60 -18 7 -34 16 -37 20 -8 10 -163 141 -186 155 -11 8 -30 31 -41 51 -12 21
-40 56 -63 78 -23 22 -50 57 -61 77 -11 21 -43 62 -72 92 -117 121 -137 152
-168 253 -12 37 -31 81 -44 98 -29 39 -38 109 -40 335 -1 154 -4 180 -23 220
-17 38 -22 76 -30 255 -11 233 -14 246 -85 347 -24 35 -53 90 -66 122 -16 45
-37 74 -83 119 -87 84 -119 102 -243 138 -123 35 -144 44 -163 71 -7 10 -20
18 -28 18 -8 0 -14 4 -14 9 0 14 -199 89 -251 95 -41 5 -49 2 -62 -17 -16 -22
-16 -22 -16 9 -1 47 -12 94 -23 94 -5 0 -6 -25 -3 -57 4 -47 2 -62 -12 -78
-23 -26 -53 -39 -54 -22 0 7 -5 2 -11 -11 -6 -12 -18 -22 -27 -20 -9 1 -23 -2
-31 -7 -8 -5 -19 -10 -25 -10 -16 -1 -114 -33 -128 -42 -12 -8 -26 -11 -63
-17 -11 -2 -27 -7 -35 -12 -8 -5 -22 -7 -31 -6 -10 2 -27 -2 -39 -8 -15 -8
-19 -9 -15 -1 4 7 -1 11 -14 11 -20 0 -20 1 -5 30 9 17 20 30 25 30 6 0 10 10
11 23 0 12 3 16 6 10 2 -7 14 -13 26 -13 16 0 18 3 8 9 -10 6 -10 10 -1 16 6
4 18 -1 25 -11 8 -11 15 -14 15 -7 0 7 6 10 14 7 8 -3 30 -1 50 5 20 5 34 6
31 1 -3 -4 6 -7 20 -6 22 1 23 2 9 13 -14 10 -7 16 50 42 115 52 267 225 354
403 18 38 36 68 40 68 10 -1 42 -26 42 -34 0 -4 -5 -4 -12 0 -7 4 -8 3 -4 -5
4 -6 12 -9 17 -5 5 3 16 1 23 -5 7 -6 33 -14 57 -17 56 -8 119 20 174 76 35
36 38 43 38 95 0 50 -4 60 -40 103 -28 33 -55 52 -91 66 -67 24 -71 48 -7 39
33 -4 51 -1 70 11 15 10 56 19 103 22 87 6 342 56 436 84 33 10 78 22 99 26
28 5 41 13 48 32 12 30 3 41 -101 125 -41 33 -129 115 -195 182 -66 66 -146
145 -178 173 -32 29 -55 58 -51 63 7 12 -27 40 -40 32 -5 -4 -1 -12 9 -20 11
-7 14 -13 8 -13 -17 0 -28 21 -28 50 0 20 -6 26 -28 28 -15 2 -25 8 -21 13 3
5 -8 14 -25 20 -17 6 -29 15 -26 20 3 4 -8 15 -25 24 -16 8 -30 13 -30 10 0
-3 -35 19 -77 49 -43 29 -136 87 -208 127 -81 45 -151 93 -185 126 -61 59 -92
67 -145 35z"/>
<path d="M22306 17258 c-9 -17 -16 -35 -16 -39 0 -9 -16 -30 -62 -82 -26 -29
-32 -41 -30 -59 1 -3 -5 -9 -13 -12 -9 -3 -15 1 -15 9 0 23 -18 18 -26 -7 -4
-13 -5 -23 -3 -24 2 0 -2 -8 -10 -17 -7 -9 -17 -15 -21 -12 -16 10 -80 -98
-88 -150 -8 -49 -3 -104 12 -132 11 -23 26 -30 77 -41 108 -23 184 -24 203 -3
15 16 14 18 -11 30 -16 8 -35 17 -43 21 -8 4 -15 19 -15 33 -1 15 -4 29 -8 33
-3 4 -2 14 3 24 5 9 7 30 5 46 -2 16 -4 34 -4 39 -1 6 -6 17 -11 25 -8 13 -11
13 -19 1 -6 -10 -11 -1 -16 28 -4 23 -13 45 -21 48 -10 4 -4 11 18 23 17 9 34
23 36 30 3 7 0 10 -7 6 -6 -4 -11 -2 -11 3 0 6 6 11 13 11 6 0 21 18 31 40 11
22 23 40 28 40 4 0 8 7 8 15 0 8 5 15 10 15 6 0 10 12 10 26 0 14 4 23 10 19
6 -3 10 -2 10 4 0 5 3 16 6 25 11 30 -14 16 -30 -16z"/>
<path d="M10293 17269 c-18 -5 -33 -14 -33 -19 0 -5 -13 -7 -30 -3 -19 3 -30
1 -30 -5 0 -6 -6 -9 -14 -6 -7 3 -20 -1 -27 -9 -8 -7 -20 -12 -27 -9 -7 2 -28
-12 -48 -32 -20 -20 -39 -36 -43 -36 -13 0 -61 -56 -61 -71 0 -8 -7 -25 -16
-37 -8 -12 -12 -22 -7 -22 4 0 -26 -34 -67 -75 -41 -41 -79 -75 -84 -75 -5 0
-24 -11 -42 -25 -18 -14 -40 -25 -49 -25 -9 0 -23 -7 -32 -16 -10 -10 -19 -12
-25 -6 -6 6 -19 5 -36 -4 -44 -22 -77 -9 -151 64 -95 93 -187 137 -248 117
-19 -6 -23 -15 -23 -51 0 -34 7 -51 33 -81 53 -63 85 -93 97 -93 6 0 21 -7 33
-15 24 -15 24 -15 145 -20 45 -1 82 1 82 5 0 5 9 6 20 3 12 -3 22 1 26 11 3 9
11 13 16 10 13 -8 58 16 58 30 0 6 17 20 37 31 20 11 45 29 55 39 10 11 18 17
18 14 0 -4 31 23 70 59 43 40 79 85 94 117 25 50 98 136 117 136 6 0 8 4 5 9
-3 5 7 11 22 14 15 3 61 17 102 32 134 47 309 33 525 -41 44 -15 82 -31 83
-36 2 -5 20 -15 39 -23 19 -8 48 -26 65 -40 16 -14 34 -23 39 -19 5 3 9 2 9
-3 0 -10 57 -43 76 -43 24 0 15 15 -18 29 -18 8 -52 27 -75 43 -24 16 -43 25
-43 21 0 -4 -4 -3 -8 2 -12 17 -65 50 -112 69 -25 10 -58 24 -75 32 -99 42
-372 75 -442 53z"/>
<path d="M11807 17257 c-22 -7 -35 -16 -30 -20 4 -5 1 -7 -7 -6 -27 6 -210
-53 -210 -68 0 -8 -5 -11 -11 -8 -17 11 -99 -16 -114 -39 -11 -15 -18 -17 -26
-9 -9 9 -17 9 -33 1 -12 -7 -27 -13 -35 -14 -27 -5 -176 -59 -179 -65 -2 -4
-13 -5 -25 -2 -18 4 -19 3 -7 -6 13 -10 13 -12 0 -20 -8 -5 -17 -8 -21 -5 -4
2 -35 -5 -70 -15 -35 -10 -91 -25 -124 -32 -33 -7 -64 -16 -70 -21 -5 -4 -17
-8 -27 -8 -10 0 -26 -4 -36 -9 -9 -5 -37 -14 -62 -21 -68 -18 -219 -74 -215
-80 2 -3 -8 -6 -21 -6 -13 -1 -37 -10 -52 -20 -28 -19 -32 -21 -56 -23 -7 0
-30 -12 -50 -26 -20 -14 -49 -27 -64 -31 -58 -13 -62 -15 -62 -40 0 -20 13
-31 84 -66 47 -23 83 -44 81 -47 -1 -3 9 -6 24 -7 15 0 68 -22 119 -48 123
-61 126 -64 197 -117 81 -62 209 -139 265 -160 44 -16 45 -18 48 -64 2 -26 -2
-53 -7 -58 -17 -17 -13 -22 21 -24 33 -3 79 -30 86 -51 2 -7 -9 -5 -28 5 -27
13 -34 13 -41 2 -12 -19 -11 -46 1 -54 5 -3 14 -20 19 -38 8 -29 9 -30 10 -7
1 14 -6 36 -15 48 -24 35 -9 38 37 8 28 -19 38 -31 31 -39 -19 -24 -24 -57 -9
-57 8 0 18 11 21 25 6 25 7 25 29 8 22 -16 22 -18 5 -35 -26 -26 -24 -86 4
-109 27 -24 45 -24 51 -1 4 16 5 16 6 0 2 -36 29 -17 40 28 13 52 11 56 -64
126 -22 21 -35 38 -30 38 6 0 22 -11 36 -24 14 -13 35 -27 47 -30 12 -4 21
-10 20 -14 -7 -28 57 -132 82 -132 9 0 22 11 29 24 11 20 11 29 -2 53 -31 59
-36 81 -41 170 -2 51 -7 97 -10 102 -6 9 23 39 31 33 2 -2 19 6 39 17 19 11
38 21 42 21 4 1 22 10 40 22 l32 20 0 -51 c0 -28 3 -51 8 -51 4 0 7 -26 8 -57
1 -52 4 -59 37 -88 30 -26 42 -30 77 -27 29 3 45 11 56 27 8 13 27 26 42 30
15 3 50 22 78 41 50 34 52 37 66 107 8 40 14 103 13 140 -1 63 1 67 22 67 13
0 23 -3 24 -7 0 -5 2 -16 4 -26 2 -9 -1 -15 -6 -11 -12 7 -11 -11 4 -66 17
-59 55 -132 67 -125 5 3 19 -13 31 -34 12 -22 26 -38 30 -35 4 2 10 0 14 -6
11 -18 25 -10 25 15 0 18 5 25 20 25 11 0 20 6 20 14 0 8 5 27 12 43 16 39 18
50 22 120 2 33 6 65 9 70 9 14 -5 63 -16 56 -6 -3 -7 -1 -3 5 4 7 4 27 1 45
-7 33 -8 34 -48 30 -41 -4 -42 -3 -17 11 14 9 32 15 40 16 8 0 27 6 41 14 14
7 38 16 54 20 16 4 40 15 54 25 14 10 46 26 71 34 124 44 160 62 160 78 0 16
-180 198 -231 232 -106 73 -198 151 -267 226 -40 45 -78 81 -85 81 -6 0 -20 9
-32 20 -28 26 -79 33 -128 17z m228 -676 c3 -5 9 -30 14 -55 8 -41 7 -46 -10
-46 -11 0 -19 5 -19 10 0 16 -30 12 -36 -5 -4 -8 -14 -15 -23 -15 -24 0 -60
-30 -43 -36 18 -8 15 -24 -6 -24 -10 0 -24 8 -31 19 -9 12 -24 18 -45 16 -17
-1 -35 3 -39 9 -6 8 -10 8 -13 0 -2 -6 -17 -9 -32 -7 -33 5 -192 -94 -204
-126 -4 -12 -14 -21 -23 -21 -17 0 -57 -23 -90 -51 -23 -19 -108 -67 -143 -80
-14 -6 8 22 55 69 43 43 98 108 122 145 24 37 49 67 56 67 7 0 13 6 12 13 -1
33 5 43 36 57 38 17 185 19 262 3 48 -11 51 -10 90 22 54 44 96 57 110 36z
m126 -148 c12 -147 -3 -302 -30 -311 -7 -2 -11 2 -10 9 2 8 -1 34 -5 57 -10
56 -30 41 -24 -17 4 -46 2 -48 -28 -23 -35 29 -60 80 -46 94 9 9 12 6 12 -14
0 -33 27 -58 41 -37 5 8 9 26 9 41 0 21 4 26 16 21 14 -5 15 -1 9 25 -12 56
-12 163 0 158 7 -2 18 0 26 5 21 13 29 11 30 -8z m-311 -63 c0 8 3 11 6 7 9
-8 14 -177 6 -177 -4 0 -7 -18 -7 -40 1 -40 -1 -41 -65 -74 -82 -43 -178 -72
-192 -58 -5 5 -8 37 -6 71 1 34 -1 61 -5 61 -4 0 -7 25 -5 56 l3 55 70 36
c106 53 112 56 124 49 6 -4 18 0 27 9 12 12 19 13 30 4 11 -9 14 -8 14 1z"/>
<path d="M11600 15891 c-14 -9 -27 -20 -29 -24 -1 -4 -11 -16 -20 -25 -23 -23
-22 -67 2 -66 10 1 17 -5 17 -15 0 -10 7 -26 15 -37 8 -10 15 -27 15 -37 0
-10 4 -16 9 -12 5 3 12 -4 16 -15 4 -11 11 -17 17 -14 6 4 8 -1 3 -15 -5 -16
-2 -21 10 -21 9 0 29 -9 44 -19 37 -27 100 -41 198 -44 75 -2 82 -1 89 18 3
11 5 24 5 29 -1 5 5 6 13 3 11 -4 16 4 21 32 8 46 30 113 36 107 2 -2 4 13 4
34 0 21 -3 42 -6 45 -4 3 -25 -10 -49 -30 -26 -22 -52 -35 -70 -35 -16 0 -31
-4 -34 -9 -3 -5 -48 -9 -99 -10 -80 -1 -100 2 -144 24 -77 37 -97 88 -43 106
34 12 35 15 17 33 -10 11 -17 10 -37 -3z m65 -165 c28 -10 67 -21 88 -24 50
-6 188 7 182 18 -5 8 56 21 64 14 11 -10 -22 -85 -42 -96 -12 -6 -60 -12 -107
-12 -75 -1 -92 3 -150 31 -42 20 -71 41 -82 61 -18 29 -25 57 -10 37 4 -5 30
-19 57 -29z"/>
<path d="M15138 15873 c-6 -7 -17 -13 -25 -13 -8 0 -28 -8 -46 -17 -18 -9 -34
-18 -37 -18 -17 -3 -61 -19 -100 -35 -25 -11 -63 -27 -85 -36 -22 -9 -48 -16
-58 -15 -28 4 -314 -95 -402 -139 -96 -47 -270 -95 -515 -141 -116 -22 -161
-33 -166 -41 -3 -5 -9 -6 -14 -3 -12 7 -251 -33 -302 -51 -22 -8 -60 -14 -84
-14 -34 0 -44 -4 -44 -16 0 -12 -3 -14 -13 -6 -12 10 -78 6 -287 -19 -85 -10
-178 -8 -265 6 -79 12 -115 12 -131 1 -12 -9 -26 -10 -43 -4 -44 14 -313 76
-364 83 -55 8 -107 -8 -107 -34 0 -14 -7 -17 -30 -13 l-30 4 0 -83 c0 -99 -8
-119 -35 -89 -18 20 -45 27 -45 12 0 -4 6 -14 13 -21 10 -11 9 -12 -3 -5 -8 5
-23 10 -33 11 -15 2 -16 0 -7 -16 6 -13 7 -22 0 -26 -5 -3 -6 -13 -3 -21 8
-22 -16 -35 -52 -29 -57 9 -120 17 -155 20 -19 2 -69 19 -110 38 -41 19 -85
37 -97 41 -13 4 -23 11 -23 16 0 4 -8 11 -17 14 -33 12 -64 34 -80 55 -8 12
-21 20 -28 17 -7 -2 -18 1 -24 7 -9 9 -14 9 -20 -1 -9 -16 -79 -96 -133 -154
-21 -22 -38 -44 -38 -49 0 -5 -14 -22 -31 -37 -16 -15 -31 -34 -33 -44 -1 -9
-26 -35 -56 -59 -65 -50 -79 -68 -80 -92 0 -11 -9 -21 -20 -24 -25 -7 -42 -33
-91 -145 -56 -127 -62 -220 -26 -398 14 -69 33 -170 43 -225 9 -55 27 -127 39
-160 30 -81 120 -383 140 -469 8 -38 19 -74 24 -80 5 -6 9 -18 9 -26 1 -19 84
-327 107 -395 9 -27 25 -84 36 -125 25 -95 86 -274 110 -320 9 -20 34 -79 54
-130 20 -52 42 -108 48 -125 7 -16 40 -86 73 -155 75 -155 135 -292 184 -425
12 -33 25 -69 30 -80 20 -50 68 -221 130 -465 90 -352 108 -410 125 -410 11 0
15 -12 15 -42 0 -24 4 -59 9 -78 5 -19 12 -56 16 -82 3 -26 16 -96 29 -155 28
-125 71 -405 91 -593 3 -30 12 -100 20 -155 22 -157 37 -279 37 -295 0 -8 3
-37 8 -65 5 -27 11 -77 14 -110 10 -112 17 -170 22 -195 7 -26 7 -33 19 -170
11 -125 9 -123 118 -117 104 5 186 20 269 47 41 13 58 15 61 7 2 -8 15 -6 40
7 20 11 34 23 31 27 -2 4 20 14 49 23 29 8 89 34 132 57 179 93 214 107 380
148 94 23 190 50 215 60 25 11 70 22 100 26 64 8 67 9 180 29 47 9 112 20 145
25 33 5 78 14 100 20 35 9 154 12 620 12 122 0 389 35 524 68 42 10 112 24
156 31 53 8 104 24 151 47 96 48 100 31 -67 329 -94 166 -168 285 -414 659
-84 127 -115 184 -105 190 21 13 7 58 -56 181 -36 71 -79 163 -95 204 -17 41
-54 111 -83 155 -29 44 -79 118 -110 165 -31 47 -76 108 -101 135 -48 53 -81
99 -162 230 -54 87 -143 261 -143 280 0 6 -11 33 -24 61 -14 27 -29 65 -34 84
-14 47 -62 156 -143 322 -37 75 -79 175 -94 222 -15 48 -43 112 -62 144 -19
31 -46 81 -58 109 -13 29 -51 97 -83 150 -33 54 -108 197 -167 318 -59 121
-116 231 -125 245 -26 39 -116 212 -125 240 -4 14 -19 52 -34 85 -15 33 -36
80 -46 105 -25 61 -82 188 -101 225 -32 61 -42 81 -58 118 l-16 37 83 1 c115
1 147 6 261 41 232 71 264 79 331 88 39 5 108 15 155 21 47 7 146 15 220 19
163 7 284 35 390 90 273 140 270 139 527 140 195 0 223 10 248 84 9 28 21 94
26 146 6 52 16 146 24 209 7 62 11 124 9 138 -7 36 -25 229 -29 303 -2 36 -6
110 -9 165 -3 55 -2 116 3 136 8 34 7 35 -21 35 -16 0 -33 -6 -40 -13z m-3580
-777 c7 -6 22 -18 32 -27 10 -9 28 -15 41 -12 27 5 311 -77 367 -105 69 -35
113 -52 123 -47 13 8 12 0 -8 -63 -17 -54 -41 -85 -101 -132 -54 -42 -44 -52
14 -15 31 20 53 31 49 25 -3 -5 -2 -10 3 -10 13 0 57 122 72 198 l12 61 51 -3
c45 -3 54 -7 84 -42 26 -31 33 -35 33 -20 0 19 0 19 14 1 12 -17 16 -18 32 -5
16 14 17 13 10 -15 -7 -27 -6 -28 6 -12 13 17 14 17 14 -2 0 -12 -5 -21 -11
-22 -5 0 -1 -4 10 -9 28 -12 43 -12 25 1 -12 8 -10 9 10 7 21 -3 25 -8 25 -35
0 -17 4 -31 9 -30 8 2 45 -55 46 -71 1 -4 3 -16 6 -27 3 -12 1 -39 -4 -62 -5
-23 -7 -45 -4 -48 11 -11 12 -45 1 -45 -5 0 -9 -6 -7 -12 3 -16 -56 -102 -94
-139 -16 -15 -28 -30 -28 -34 0 -4 -9 -20 -21 -36 -11 -16 -18 -29 -14 -29 3
0 -1 -12 -8 -27 -15 -30 -47 -190 -47 -235 0 -18 -5 -28 -15 -28 -18 0 -137
119 -130 130 3 4 -1 10 -8 13 -6 3 -21 19 -31 37 -10 18 -14 30 -8 26 8 -5 10
-2 6 8 -3 9 -11 13 -18 9 -6 -3 -8 -3 -4 1 3 4 1 24 -6 44 -7 21 -11 43 -8 51
2 8 0 11 -5 8 -10 -6 0 106 12 135 4 9 13 14 21 11 15 -5 19 8 7 21 -5 4 -8
13 -8 19 0 7 -4 12 -10 12 -5 0 -19 6 -30 12 -14 9 -16 13 -5 13 13 0 13 1 0
10 -8 5 -10 10 -5 10 6 0 11 9 12 20 1 11 -4 20 -13 20 -8 0 -14 5 -14 10 0 6
-7 10 -15 10 -8 0 -15 -4 -15 -8 0 -5 -7 -9 -15 -9 -8 0 -15 6 -15 13 0 14
-54 29 -69 19 -6 -3 -52 15 -103 41 -51 26 -122 55 -158 65 -84 23 -253 88
-261 101 -9 13 4 70 35 163 28 82 51 118 64 100 12 -16 32 -16 26 0 -5 12 -2
13 12 8 11 -4 25 -12 32 -17z m1085 -444 c45 -18 100 -38 122 -43 52 -14 276
-125 287 -141 16 -26 7 -50 -36 -106 -109 -142 -134 -147 -276 -66 -56 33
-124 74 -152 92 -27 17 -59 32 -69 32 -23 0 -24 -5 6 68 19 47 25 81 26 144 1
46 3 76 5 68 3 -8 42 -30 87 -48z"/>
<path d="M15883 15863 c-7 -3 -13 -11 -13 -19 0 -9 -4 -12 -10 -9 -5 3 -10 -2
-10 -12 0 -21 -29 -65 -30 -45 0 13 -50 17 -50 4 0 -5 16 -16 35 -25 19 -9 35
-22 35 -27 0 -6 4 -9 9 -6 5 3 14 -1 21 -9 10 -12 8 -21 -7 -47 -18 -31 -22
-33 -74 -32 -55 1 -102 8 -129 17 -8 3 -34 8 -57 11 -34 5 -43 3 -43 -9 0 -9
-9 -15 -24 -15 -14 0 -27 -4 -30 -9 -9 -13 61 -23 83 -12 19 11 48 4 120 -26
18 -8 36 -12 39 -9 2 3 17 -3 31 -13 28 -20 104 -45 134 -44 58 2 58 2 45 22
-7 11 -16 17 -20 15 -4 -3 -29 -2 -55 2 l-46 7 38 20 c31 15 43 17 57 8 23
-14 44 -5 29 13 -7 9 -7 16 1 24 9 9 7 12 -9 12 -12 0 -25 5 -29 11 -5 9 1 10
22 5 l29 -7 -35 33 c-41 39 -46 54 -20 54 13 0 16 -4 10 -12 -13 -15 -3 -23
20 -17 21 6 67 90 55 101 -4 4 -10 1 -12 -5 -3 -7 -10 -13 -16 -13 -7 0 -31
-10 -54 -22 -23 -12 -45 -20 -48 -16 -5 5 8 44 32 90 5 10 -10 16 -24 11z"/>
<path d="M11350 15599 c0 -8 6 -25 13 -39 7 -14 19 -47 27 -74 8 -29 26 -61
46 -80 47 -45 129 -89 154 -81 11 3 40 -3 66 -14 25 -12 50 -18 55 -15 5 3 9
0 9 -5 0 -14 148 -13 174 1 13 7 16 7 12 -1 -4 -6 -2 -11 4 -11 6 0 13 7 16
15 3 8 13 17 22 20 20 6 57 55 43 55 -5 0 -16 -6 -23 -13 -18 -17 -114 -40
-129 -31 -8 5 -9 3 -4 -6 6 -10 -4 -11 -46 -5 -30 4 -56 11 -59 15 -3 4 -20
11 -37 15 -18 3 -33 11 -33 16 0 6 -4 8 -9 4 -5 -3 -12 -1 -15 4 -3 4 -27 11
-53 15 -52 7 -121 42 -133 66 -4 8 -20 40 -35 72 -28 59 -65 103 -65 77z"/>
<path d="M3535 13931 c-55 -8 -103 -18 -106 -23 -3 -5 -17 -8 -30 -6 -24 3
-110 -10 -259 -38 -42 -8 -168 -16 -288 -19 -205 -5 -234 -9 -264 -38 -37 -36
-92 -70 -118 -73 -60 -7 -104 -42 -149 -116 -12 -21 -37 -48 -54 -60 -18 -12
-47 -37 -66 -55 -19 -18 -39 -33 -44 -33 -6 0 -30 -21 -54 -47 -30 -32 -53
-48 -73 -49 -15 -1 -54 -17 -87 -36 -32 -19 -64 -33 -71 -30 -7 2 -16 -5 -18
-16 -3 -10 -26 -29 -50 -41 -29 -15 -44 -29 -44 -42 0 -10 4 -19 9 -19 4 0 6
-11 3 -25 -6 -33 11 -32 85 1 40 17 80 26 128 29 39 2 71 8 73 14 6 17 20 13
27 -8 5 -16 -32 -105 -66 -161 -5 -8 -13 -25 -18 -37 -6 -11 -15 -24 -20 -28
-6 -3 -11 -15 -11 -25 0 -10 -4 -20 -9 -22 -4 -1 -20 -22 -34 -45 -20 -31 -32
-41 -44 -37 -14 5 -15 4 -4 -4 15 -11 8 -42 -10 -42 -8 0 -8 4 1 15 16 20 6
19 -14 -1 -22 -22 -20 -34 6 -34 17 0 19 -3 10 -12 -15 -15 -52 -18 -52 -4 0
8 -3 8 -8 1 -4 -6 -18 -12 -32 -13 -47 -3 -120 -42 -131 -69 -5 -14 -17 -23
-29 -23 -11 0 -20 -4 -20 -9 0 -14 -70 -63 -109 -77 -47 -16 -59 -35 -41 -68
7 -14 21 -28 31 -31 29 -9 96 13 132 44 17 15 64 46 102 69 39 23 84 54 100
69 17 16 40 33 50 39 11 6 20 20 20 31 1 29 32 96 91 193 54 90 104 191 123
252 7 21 18 41 24 45 7 4 44 11 82 15 39 4 79 8 90 10 19 3 20 -3 20 -104 0
-72 4 -111 13 -119 15 -16 15 -9 1 27 -5 16 -7 45 -4 65 l6 37 42 -19 c23 -10
49 -19 59 -19 9 0 29 -17 46 -37 28 -35 30 -36 60 -24 17 7 35 25 42 42 14 32
27 37 36 14 4 -8 14 -15 24 -15 13 0 19 -11 23 -41 10 -75 102 -148 198 -156
32 -3 66 -2 76 2 10 5 20 9 23 9 45 10 115 94 105 126 -3 10 1 25 10 33 11 12
14 28 9 67 -4 38 -2 55 9 63 8 7 20 28 27 47 22 57 63 69 80 25 5 -14 16 -28
24 -31 8 -3 18 -24 21 -47 9 -52 30 -133 44 -170 9 -23 8 -33 -4 -50 -19 -28
-19 -43 0 -27 8 7 15 19 15 26 0 8 4 14 9 14 13 0 22 -28 11 -35 -16 -10 -11
-25 5 -19 22 9 29 43 12 62 -16 19 -29 62 -19 62 4 0 16 -7 26 -15 26 -20 113
-19 162 1 77 32 106 77 109 174 2 58 5 65 24 68 25 4 27 24 5 46 -18 19 -26
20 -41 5 -7 -7 -17 -2 -33 20 -12 17 -34 38 -50 46 -35 18 -40 18 -40 3 0 -6
3 -8 6 -5 11 11 61 -31 74 -63 7 -16 17 -30 23 -30 6 0 7 -22 3 -62 -4 -35 -8
-76 -10 -92 -4 -38 -46 -72 -108 -86 -39 -10 -56 -9 -98 5 -27 9 -50 21 -50
26 0 4 -11 32 -23 61 -17 36 -23 68 -22 101 2 43 8 55 46 93 32 32 55 46 84
51 22 4 43 6 48 5 14 -4 7 17 -8 26 -18 9 -26 50 -29 136 l-1 58 105 54 c58
29 118 56 134 58 15 3 39 12 52 21 13 8 24 13 24 10 0 -8 110 34 227 88 113
52 139 77 93 92 -34 11 -411 1 -515 -14z m-142 -418 c2 -12 0 -23 -6 -23 -5 0
-4 -7 4 -16 11 -13 9 -15 -12 -12 -13 1 -40 -5 -59 -14 -19 -9 -52 -24 -72
-32 -45 -20 -54 -32 -31 -40 11 -5 22 -1 30 10 8 11 13 13 13 5 0 -8 10 -5 29
8 39 28 63 26 30 -2 -35 -29 -60 -70 -68 -109 -7 -35 -31 -51 -31 -20 0 33
-24 45 -65 32 -19 -6 -35 -16 -35 -20 0 -5 -6 -7 -14 -4 -11 4 -17 -5 -22 -30
-8 -44 -19 -45 -38 -7 -19 36 -69 79 -102 87 -29 8 -45 -3 -18 -11 49 -15 86
-41 104 -72 20 -34 30 -94 10 -63 -13 20 -19 10 -13 -22 3 -17 10 -25 19 -21
9 3 14 -2 14 -14 0 -10 6 -25 13 -32 10 -11 10 -13 0 -7 -7 4 -14 2 -14 -3 -2
-15 -4 -23 -13 -42 -4 -9 -6 -20 -4 -25 6 -20 -40 -63 -80 -73 -22 -6 -44 -11
-49 -10 -4 1 -16 -1 -25 -5 -10 -5 -26 -5 -35 -1 -10 4 -29 9 -43 10 -50 3
-74 31 -105 120 l-7 20 -8 -20 c-7 -18 -8 -18 -11 5 -2 14 3 33 14 44 11 13
14 23 7 30 -5 5 -10 14 -10 20 0 5 3 6 6 3 4 -4 19 20 35 53 33 71 75 102 130
98 27 -3 36 0 34 11 -1 8 -10 18 -21 22 -25 8 82 16 122 8 28 -5 64 13 64 33
0 17 -189 0 -286 -25 -20 -5 -64 -37 -64 -47 0 -13 37 -13 45 0 3 6 12 10 18
10 7 0 1 -10 -13 -21 -21 -18 -22 -20 -5 -15 18 5 17 4 -2 -10 -13 -9 -23 -21
-23 -26 0 -12 -42 -71 -57 -81 -7 -4 -10 -14 -7 -22 5 -11 -2 -15 -24 -15 -53
0 -58 20 -30 133 14 56 32 72 171 146 116 63 174 72 286 47 69 -16 73 -16 96
2 13 11 21 23 17 27 -4 5 -2 5 5 1 7 -4 23 0 36 8 20 14 125 43 154 43 6 0 13
-11 16 -24z"/>
<path d="M31444 13882 c-11 -10 -25 -17 -32 -14 -7 2 -10 -2 -7 -10 3 -7 -1
-22 -9 -33 -12 -16 -17 -18 -27 -7 -19 18 -49 15 -50 -5 -4 -67 16 -125 36
-105 4 4 10 7 13 7 4 0 28 7 55 15 l47 14 0 78 c0 43 -1 78 -3 78 -2 0 -12 -8
-23 -18z"/>
<path d="M23713 13780 c-4 -16 -8 -18 -19 -9 -18 15 -44 -5 -44 -32 0 -11 -6
-19 -14 -19 -7 0 -20 -10 -29 -23 -8 -13 -50 -59 -93 -104 -44 -44 -98 -101
-121 -127 -24 -25 -43 -44 -43 -41 0 2 -25 -19 -55 -49 -30 -29 -55 -56 -55
-59 0 -14 20 -6 39 14 12 13 25 18 33 13 7 -4 10 -4 6 1 -5 5 1 15 12 22 11 8
18 19 15 24 -4 5 1 9 10 9 9 0 55 40 103 90 123 127 132 137 132 149 0 6 7 11
15 11 9 0 22 14 29 31 7 17 17 31 22 31 27 1 94 88 69 88 -4 0 -9 -9 -12 -20z"/>
<path d="M30999 13601 c-9 -13 -28 -22 -52 -24 -36 -4 -68 -24 -95 -60 -7 -9
-17 -15 -21 -12 -5 2 -20 -6 -35 -18 -24 -21 -26 -27 -16 -51 7 -19 7 -25 0
-21 -7 4 -10 -4 -7 -22 2 -16 10 -28 18 -28 8 0 17 -4 20 -8 3 -5 49 21 102
57 52 36 100 66 106 66 6 0 11 5 11 10 0 6 8 14 18 17 9 4 27 17 39 30 12 13
28 23 35 23 8 1 4 8 -9 19 -12 10 -19 21 -16 25 4 3 -1 6 -9 6 -9 0 -29 3 -45
6 -23 4 -33 1 -44 -15z"/>
<path d="M5475 13463 c-12 -11 -15 -27 -12 -52 8 -60 12 -69 37 -96 40 -42 88
-60 155 -58 245 8 250 7 285 -9 32 -15 191 -46 280 -54 36 -4 186 21 224 36
20 8 20 9 1 9 -11 1 -36 -4 -55 -9 -79 -24 -231 -11 -306 25 -28 14 -56 25
-61 25 -6 0 -13 6 -16 14 -3 7 -21 16 -41 20 -21 4 -40 15 -47 27 -5 11 -16
18 -22 16 -7 -2 -20 5 -29 16 -16 17 -33 20 -132 23 -90 2 -125 7 -160 24 -26
11 -46 25 -46 31 0 6 5 7 12 3 7 -4 8 -3 4 5 -4 6 -11 9 -16 6 -5 -3 -11 -1
-15 5 -9 14 -21 12 -40 -7z"/>
<path d="M30450 13283 c-27 -10 -60 -46 -60 -64 0 -25 -21 -35 -31 -16 -9 15
-20 16 -51 3 -12 -6 -16 -17 -13 -39 2 -17 -1 -34 -6 -38 -6 -4 -1 -17 14 -34
l24 -29 61 32 c60 31 142 87 188 128 l23 21 -22 19 c-22 19 -97 29 -127 17z"/>
<path d="M22785 12719 c-4 -6 -14 -8 -22 -4 -13 4 -13 3 -4 -9 16 -19 -11 -46
-38 -39 -16 4 -22 -2 -30 -28 -5 -19 -10 -29 -10 -22 -1 6 -16 -3 -34 -20 -18
-18 -64 -61 -102 -96 -39 -35 -59 -58 -47 -51 22 11 23 10 17 -10 -5 -17 -4
-21 6 -17 8 2 13 10 12 16 -2 6 6 11 17 11 11 0 20 5 20 11 0 5 4 8 9 4 10 -6
37 34 33 48 -1 5 2 6 8 2 5 -3 24 11 42 32 18 20 41 46 51 56 18 18 18 19 0
33 -17 14 -17 14 3 5 17 -8 25 -6 43 13 11 12 21 26 21 31 0 5 7 17 17 27 9
10 11 18 5 18 -6 0 -14 -5 -17 -11z"/>
</g>
</svg>
