<?xml version="1.0" standalone="no"?>
<!DOCTYPE svg PUBLIC "-//W3C//DTD SVG 20010904//EN"
 "http://www.w3.org/TR/2001/REC-SVG-20010904/DTD/svg10.dtd">
<svg version="1.0" xmlns="http://www.w3.org/2000/svg"
 width="1024.000000pt" height="682.000000pt" viewBox="0 0 1024.000000 682.000000"
 preserveAspectRatio="xMidYMid meet">
<metadata>
Created by potrace 1.16, written by Peter Selinger 2001-2019
</metadata>
<g transform="translate(0.000000,682.000000) scale(0.100000,-0.100000)"
fill="#000000" stroke="none">
<path d="M505 6450 l0 -370 43 -21 c32 -16 42 -27 41 -43 -1 -11 -1 -56 -1
-99 l2 -78 35 26 34 27 0 -96 c0 -53 -3 -96 -6 -96 -4 0 -19 12 -34 26 l-27
25 -6 -55 c-7 -56 -8 -56 -42 -56 l-34 0 0 -54 c0 -30 4 -56 9 -58 4 -2 4 -34
-1 -73 -5 -38 -9 -137 -9 -220 0 -82 0 -364 0 -625 0 -261 1 -569 2 -685 5
-385 4 -667 -3 -987 l-7 -318 89 0 90 0 2 -297 3 -298 73 -3 c66 -3 72 -1 72
17 0 11 4 23 10 26 6 4 10 -5 10 -19 0 -20 4 -25 20 -23 11 2 23 6 26 10 4 4
19 7 34 7 33 0 50 17 50 50 0 20 -2 22 -10 10 -8 -13 -10 -12 -10 3 0 9 5 17
10 17 15 0 12 29 -5 46 -21 21 -19 46 3 42 12 -2 17 4 18 22 1 14 2 31 3 38 1
9 56 12 240 12 l238 0 15 -53 c20 -68 34 -165 53 -370 17 -180 27 -247 49
-317 8 -25 18 -63 23 -85 6 -30 14 -41 33 -45 20 -5 27 -16 38 -60 7 -30 11
-74 9 -97 -3 -22 -1 -47 4 -55 7 -11 9 -11 9 0 0 8 10 22 23 33 21 17 21 18 3
19 -16 0 -17 3 -8 12 9 9 23 9 60 -1 26 -7 53 -14 60 -14 7 0 10 -7 7 -15 -3
-8 0 -12 7 -9 7 2 22 -12 33 -32 11 -20 32 -40 46 -45 35 -12 159 2 159 18 0
15 -38 50 -105 98 -27 20 -63 50 -79 67 -33 34 -87 54 -123 45 -26 -7 -31 8
-10 28 8 7 12 21 9 31 -3 10 3 24 14 32 18 14 18 16 2 25 -15 9 -15 13 -1 40
8 17 13 47 12 68 -2 23 1 36 8 35 6 -1 15 11 18 28 4 18 16 35 31 41 13 6 24
15 24 20 0 4 8 8 18 9 14 0 14 2 -3 9 l-20 9 20 1 c11 2 27 2 35 1 13 -2 13
-1 0 8 -8 5 -17 8 -20 6 -3 -2 2 27 11 65 13 50 15 78 9 101 -5 18 -7 36 -4
41 3 5 0 15 -6 23 -10 12 -9 16 4 21 13 5 14 9 5 20 -9 11 -9 14 0 14 8 0 10
8 6 20 -5 15 0 21 22 26 25 7 25 8 8 15 -11 4 -14 8 -6 8 11 1 11 4 1 16 -11
13 -8 15 14 15 16 0 25 4 21 10 -4 6 11 10 37 10 41 1 42 1 23 17 -19 15 -19
15 6 9 19 -4 29 -1 33 10 8 22 8 22 -16 26 -12 2 -29 17 -39 33 -25 43 -24 57
4 50 14 -4 28 -1 33 7 20 26 47 134 46 185 0 28 5 59 12 68 10 14 12 12 8 -18
-4 -33 11 -57 26 -42 4 4 7 50 7 103 l0 97 29 3 c38 5 73 -5 79 -22 3 -7 2
-29 -2 -48 -15 -66 13 -96 103 -107 40 -5 51 -10 54 -26 5 -28 38 -61 84 -85
44 -23 69 -27 51 -9 -9 9 -8 18 4 36 10 15 14 35 10 58 -3 19 -2 35 2 35 13 0
41 -64 41 -92 0 -13 4 -28 9 -33 5 -6 23 -66 41 -135 26 -104 32 -150 36 -275
9 -295 16 -350 41 -341 8 3 27 -1 43 -9 37 -19 46 -19 29 1 -7 9 -15 32 -16
50 -2 31 1 34 25 34 25 1 25 2 -12 20 -56 28 -75 48 -82 85 -16 89 78 154 182
126 l39 -10 -24 19 c-13 11 -20 21 -17 21 3 1 12 2 19 3 6 1 11 7 10 14 -2 7
5 12 15 12 15 1 15 2 -3 16 -11 8 -19 22 -17 30 2 8 -3 14 -10 14 -9 0 -9 3 2
10 13 9 13 10 0 10 -13 0 -13 1 0 10 10 6 11 10 3 10 -7 0 -13 9 -13 20 0 11
-4 20 -10 20 -20 0 -9 19 13 23 22 4 22 4 -3 15 -14 6 -19 11 -13 11 7 1 12 4
11 9 -1 4 4 18 11 31 7 12 11 31 8 40 -2 11 1 18 9 18 9 0 14 -12 15 -31 0
-17 2 -40 5 -51 11 -50 8 -301 -4 -322 -20 -36 -15 -131 8 -160 14 -18 20 -40
19 -72 0 -35 -2 -41 -9 -26 -5 11 -9 14 -9 7 -1 -8 -6 -10 -13 -6 -9 5 -8 2 1
-9 12 -15 12 -22 1 -42 -8 -14 -11 -40 -7 -65 6 -48 6 -47 32 -52 15 -2 20 2
18 17 -1 11 2 22 7 25 5 3 11 17 14 30 3 14 11 48 17 75 6 28 11 61 10 74 -1
13 3 29 7 35 18 25 7 41 -30 44 -35 3 -38 6 -38 33 0 27 2 29 40 29 38 0 40 2
40 31 0 17 -4 28 -10 24 -7 -4 -7 2 0 19 6 17 6 26 -2 28 -6 2 -4 10 6 20 15
16 15 18 -1 27 -15 9 -14 11 12 12 24 1 25 3 8 6 -13 2 -23 8 -23 13 0 4 10
11 23 14 21 7 21 7 2 16 l-20 9 20 1 c11 1 14 4 8 7 -18 7 -16 23 2 23 18 0
20 20 3 20 -8 0 -5 7 6 15 12 9 15 15 7 15 -10 0 -10 4 -3 13 5 6 15 32 22 57
7 25 34 94 61 155 27 60 49 119 49 130 0 12 5 26 10 31 6 6 13 21 15 35 6 29
37 89 46 89 9 0 106 58 157 93 40 28 42 29 192 29 117 1 154 -2 160 -13 5 -7
8 -42 7 -78 -2 -98 18 -164 59 -201 38 -33 80 -48 95 -33 15 15 -18 70 -46 77
-31 8 -44 32 -38 73 7 47 30 50 38 5 7 -38 21 -62 36 -62 4 0 8 43 8 96 0 64
4 100 12 108 9 8 11 7 7 -4 -7 -20 25 -77 40 -72 7 2 26 -11 42 -29 27 -32 30
-33 63 -21 18 6 43 12 54 12 25 0 49 -25 33 -35 -7 -4 -8 -11 -1 -18 11 -14
36 -98 32 -112 -5 -21 23 -143 45 -192 22 -47 50 -83 40 -51 -3 7 -7 27 -10
43 -6 27 -5 28 6 10 12 -19 12 -19 19 5 12 41 10 187 -3 234 -10 37 -9 46 4
60 24 23 63 36 114 36 42 0 44 1 44 31 0 18 -4 28 -10 24 -6 -4 -8 -11 -5 -16
4 -5 2 -9 -4 -9 -5 0 -12 10 -14 23 -4 21 -4 21 -6 1 -1 -20 -4 -20 -41 -11
-22 6 -40 15 -40 19 0 4 -11 8 -25 8 -17 0 -25 6 -25 18 0 14 -2 15 -10 2 -6
-10 -10 -11 -10 -3 0 7 -3 12 -7 12 -26 -4 -43 3 -44 19 0 10 -3 12 -6 5 -3
-10 -8 -10 -19 1 -9 9 -14 34 -13 68 1 29 3 45 6 36 2 -10 11 -18 19 -18 8 0
14 -6 14 -12 0 -10 3 -9 9 1 7 11 9 11 14 0 4 -10 6 -10 6 -1 1 6 6 12 12 12
5 0 8 -4 4 -9 -3 -5 -1 -12 4 -15 5 -4 12 2 14 11 3 10 6 0 7 -22 l3 -40 7 40
7 40 3 -45 c1 -25 4 -37 7 -27 2 9 11 17 18 17 7 0 16 8 18 18 4 16 5 16 6 0
1 -11 9 -18 20 -18 11 0 23 -4 26 -10 3 -6 -1 -7 -9 -4 -9 3 -16 2 -16 -3 0
-17 40 -12 41 5 1 9 5 4 9 -13 l8 -30 1 28 c0 16 5 26 11 22 6 -3 13 2 17 11
6 16 7 16 14 -2 7 -17 8 -17 8 -1 1 9 8 17 16 17 8 0 15 5 15 10 0 6 -7 10
-16 10 -9 0 -12 5 -8 13 5 8 2 8 -9 -2 -15 -12 -17 -11 -18 5 -1 14 -3 13 -9
-6 -7 -22 -8 -20 -10 15 -2 35 -3 37 -10 15 l-8 -25 -2 25 c-2 16 -4 19 -7 9
-5 -19 -43 -14 -43 5 0 6 -5 4 -10 -4 -7 -11 -10 -7 -10 18 0 22 5 32 15 32 8
0 16 8 16 18 1 9 5 1 9 -18 7 -31 7 -32 9 -7 1 17 7 27 16 27 8 0 15 4 15 10
0 5 -3 9 -7 9 -26 -4 -43 3 -44 19 0 14 -2 14 -9 -3 -7 -17 -9 -17 -9 -2 -1 9
-7 17 -14 17 -9 0 -11 16 -7 65 3 36 2 65 -2 65 -5 0 -9 -8 -10 -17 0 -10 -4
2 -8 27 l-7 45 -1 -37 c-1 -21 -7 -38 -13 -38 -5 0 -7 5 -4 10 3 6 1 10 -4 10
-6 0 -11 -6 -11 -12 0 -10 -3 -9 -9 1 -7 11 -9 11 -14 0 -4 -12 -7 -11 -16 1
-6 8 -11 10 -11 4 0 -6 -16 -10 -40 -8 -35 2 -40 0 -40 -19 0 -18 2 -19 10 -7
9 13 11 13 20 0 9 -13 10 -13 10 0 0 12 2 13 9 1 5 -7 10 -9 12 -3 2 5 19 7
37 5 23 -4 32 -11 32 -24 0 -11 -4 -19 -10 -19 -5 0 -7 7 -4 15 4 8 1 15 -4
15 -6 0 -13 -8 -15 -17 -4 -16 -5 -16 -6 -1 -1 11 -7 15 -21 11 -28 -7 -29
-63 -1 -63 11 0 22 8 24 18 3 9 5 1 6 -18 0 -24 -2 -31 -8 -21 -5 8 -18 12
-30 8 -14 -3 -21 0 -21 9 0 8 -9 14 -20 14 -11 0 -20 -6 -20 -14 0 -10 -17
-17 -55 -21 -31 -4 -59 -5 -62 -1 -4 3 3 6 15 6 11 0 26 8 31 18 6 9 11 11 11
5 0 -7 5 -13 11 -13 5 0 7 5 4 10 -3 5 -1 10 4 10 6 0 11 -4 11 -10 0 -5 4
-10 10 -10 5 0 9 6 7 13 -1 7 10 13 26 15 20 3 27 9 26 25 0 12 -3 16 -6 10
-2 -7 -9 -13 -14 -13 -6 0 -7 5 -4 10 3 6 1 10 -4 10 -6 0 -11 -8 -12 -17 0
-15 -2 -15 -9 2 -7 17 -9 17 -9 3 -1 -12 -9 -18 -23 -17 -19 1 -19 2 -5 6 11
3 16 10 13 20 -3 8 -6 17 -6 19 0 3 -4 2 -10 -1 -5 -3 -10 1 -10 9 0 9 -7 16
-15 16 -7 0 -18 6 -22 14 -4 8 -11 15 -15 15 -21 2 -21 4 2 11 25 8 25 8 -5
10 -22 2 -17 5 20 10 29 4 53 3 56 -3 4 -5 9 -3 13 4 5 11 7 11 12 2 3 -7 17
-13 30 -13 29 0 34 36 7 43 -11 3 -8 5 9 6 20 1 26 -3 22 -14 -4 -8 -1 -15 5
-15 6 0 11 16 11 35 0 28 -4 35 -19 35 -11 0 -22 -8 -24 -17 -4 -16 -5 -16 -6
-1 0 9 -9 19 -18 21 -10 3 8 5 40 6 50 1 57 3 57 21 0 11 -4 20 -10 20 -5 0
-7 -7 -4 -15 4 -8 1 -15 -4 -15 -6 0 -13 8 -15 18 -4 16 -5 16 -6 0 -1 -19
-41 -26 -41 -8 0 5 7 7 15 4 9 -4 15 0 15 10 0 11 9 16 28 17 15 0 21 3 15 6
-7 2 -13 11 -13 19 0 8 -9 14 -20 14 -11 0 -20 -7 -20 -15 0 -8 -7 -15 -15
-15 -9 0 -15 -9 -15 -25 0 -20 -5 -25 -24 -25 -13 0 -29 -7 -36 -15 -7 -8 -22
-15 -34 -15 -17 0 -18 -2 -6 -10 12 -7 7 -11 -20 -16 -28 -6 -31 -9 -15 -15
12 -4 3 -6 -23 -4 -24 1 -45 5 -48 8 -9 9 62 28 80 21 18 -7 19 14 1 29 -6 5
-1 7 10 4 20 -4 48 15 39 27 -2 3 -1 4 3 1 3 -3 21 6 39 20 18 14 39 25 46 25
10 0 10 2 -1 9 -11 7 -9 10 8 16 12 3 19 11 16 16 -4 5 0 9 7 9 9 0 9 3 -2 10
-13 8 -12 10 4 10 13 0 17 -5 13 -20 -3 -11 -2 -20 3 -20 4 0 8 23 8 50 0 40
-4 50 -17 49 -9 0 -11 -3 -5 -5 17 -7 4 -46 -12 -40 -8 3 -14 -1 -14 -9 0 -8
-7 -15 -15 -15 -8 0 -15 -6 -15 -12 0 -10 -3 -9 -9 1 -7 11 -9 11 -14 0 -4
-12 -7 -11 -16 1 -8 11 -11 12 -11 2 0 -22 -62 -10 -87 17 -27 28 -29 41 -7
41 12 0 15 7 12 25 -3 14 -2 25 3 25 4 0 10 -12 12 -27 2 -16 4 -5 4 22 1 28
-1 42 -4 33 -2 -10 -13 -18 -23 -18 -17 0 -18 -4 -10 -25 7 -19 6 -25 -5 -25
-8 0 -12 8 -10 20 3 14 -2 20 -13 20 -9 1 -1 9 18 18 19 9 39 27 45 40 5 12
13 22 17 22 5 0 8 7 8 15 0 8 5 15 11 15 5 0 8 4 4 9 -3 5 -1 12 5 16 6 4 8
11 5 16 -4 5 3 9 14 9 14 0 21 -6 21 -20 0 -11 -7 -20 -16 -20 -8 0 -12 -4 -9
-10 3 -6 -1 -10 -9 -10 -9 0 -16 -7 -16 -15 0 -8 -4 -15 -10 -15 -6 0 -9 -23
-9 -52 1 -29 3 -45 6 -36 2 9 12 19 21 21 15 4 15 5 0 6 -10 0 -18 5 -18 11 0
5 8 6 17 3 12 -5 15 -2 10 10 -5 14 0 17 26 18 18 1 24 3 15 6 -10 2 -18 8
-18 13 0 5 8 6 17 3 12 -5 15 -2 10 10 -3 9 -2 17 3 17 5 0 11 -8 13 -17 3
-10 5 6 6 35 l1 52 -35 0 c-19 0 -35 5 -35 11 0 5 4 7 10 4 6 -3 10 1 10 9 0
9 5 16 10 16 6 0 10 18 10 41 0 24 4 38 10 34 6 -3 10 -1 10 4 0 6 -10 12 -22
13 -13 0 0 4 27 8 38 5 42 7 18 8 -35 2 -39 8 -23 32 8 13 10 12 10 -3 0 -38
16 -6 18 35 1 32 -1 38 -8 23 -9 -20 -9 -20 -9 0 -1 14 -8 21 -22 22 -17 2
-19 -1 -10 -10 6 -6 11 -20 10 -31 -1 -18 -2 -17 -9 4 -7 21 -8 22 -10 5 l-1
-20 -9 20 c-5 11 -9 14 -9 8 -1 -7 -7 -13 -15 -13 -18 0 -30 -31 -15 -40 8 -6
8 -21 0 -59 -13 -63 -14 -96 -1 -66 8 19 9 19 9 -2 1 -26 -17 -31 -25 -8 -3 8
-1 35 4 60 5 25 6 45 1 45 -5 0 -9 -7 -9 -16 0 -9 -7 -40 -15 -69 -14 -45 -19
-52 -36 -48 -12 4 -25 0 -30 -8 -7 -11 -9 -10 -9 4 0 9 -7 17 -16 17 -8 0 -12
5 -9 10 3 6 -1 10 -9 10 -17 0 -20 23 -6 55 8 18 9 18 10 -5 2 -22 3 -23 8 -5
6 17 12 19 37 14 l30 -7 -30 -2 c-25 -2 -26 -3 -7 -7 18 -4 21 -9 18 -36 l-5
-32 14 30 c21 45 19 65 -7 66 -19 1 -17 3 7 9 17 4 22 8 13 9 -9 0 -19 5 -22
10 -3 4 5 6 19 3 13 -2 26 -12 28 -21 4 -12 5 -11 6 5 1 13 -8 24 -26 32 -16
6 -19 9 -7 6 18 -4 22 1 26 26 3 16 1 30 -4 30 -4 0 -8 -9 -8 -20 0 -11 -4
-20 -9 -20 -5 0 -5 15 -1 35 6 28 5 35 -7 35 -12 0 -14 9 -9 40 3 23 1 40 -4
40 -6 0 -10 -9 -10 -19 0 -11 -6 -22 -12 -24 -10 -4 -9 -8 2 -17 12 -10 11
-11 -8 -7 -15 4 -20 1 -15 -6 4 -7 9 -21 10 -32 3 -17 1 -17 -8 -5 -8 11 -9 6
-5 -20 5 -29 4 -31 -4 -12 -10 24 -26 31 -17 7 4 -8 2 -17 -3 -20 -6 -4 -10 6
-10 22 0 15 -6 36 -14 45 -12 16 -15 16 -45 -3 -18 -11 -30 -15 -26 -9 4 6 -4
10 -18 10 -15 0 -27 7 -31 18 -3 9 -10 27 -16 40 -7 18 -7 21 3 16 6 -4 2 3
-11 15 -26 26 -47 20 -32 -10 6 -11 7 -19 1 -19 -5 0 -11 6 -14 14 -4 11 -61
15 -281 21 -256 7 -278 9 -302 28 -16 12 -24 27 -21 37 7 26 -45 216 -77 285
-16 33 -39 74 -52 92 l-24 32 0 464 c0 255 -2 471 -6 480 -4 12 -11 14 -30 7
-69 -27 -124 58 -71 108 31 30 107 29 107 -1 0 -14 -4 -17 -17 -12 -40 17 -59
16 -77 -4 -16 -18 -17 -25 -8 -46 14 -30 39 -42 60 -28 28 17 24 32 -10 36
-30 3 -29 4 9 5 38 2 42 5 48 32 4 17 2 36 -4 43 -5 7 -8 34 -6 60 2 26 5 89
6 140 2 78 -1 92 -15 95 -10 2 -16 14 -16 33 0 22 5 29 20 29 19 0 20 7 20
203 0 111 3 313 7 450 l6 247 -121 0 -122 0 0 -60 c0 -40 6 -69 17 -87 16 -24
16 -27 0 -55 -22 -39 -22 -94 1 -107 11 -7 12 -11 4 -11 -11 0 -13 -23 -11
-103 1 -57 0 -107 -3 -113 -3 -5 -9 -62 -13 -126 l-6 -117 50 6 c36 4 64 1 96
-11 50 -20 53 -24 27 -56 -15 -19 -22 -21 -40 -11 -28 15 -74 14 -96 -2 -33
-24 -15 -50 64 -89 79 -39 110 -74 110 -123 0 -71 -84 -133 -165 -120 -41 6
-45 4 -45 -14 0 -24 36 -48 43 -28 3 6 6 -3 6 -22 1 -29 -2 -33 -19 -28 -11 3
-23 1 -26 -4 -3 -5 7 -9 21 -9 15 0 25 -3 23 -7 -30 -58 -38 -87 -28 -93 8 -5
10 -21 5 -49 -6 -34 -9 -40 -21 -30 -8 6 -14 18 -14 25 0 8 -7 14 -15 14 -8 0
-15 5 -15 12 0 9 -3 9 -12 0 -9 -9 -8 -16 5 -30 9 -9 16 -26 16 -37 -1 -34 26
-118 39 -123 7 -2 12 0 11 5 -5 27 3 73 12 73 8 0 9 -26 4 -92 -8 -97 -9 -164
-4 -358 4 -208 2 -250 -15 -256 -13 -5 -16 -23 -16 -85 0 -58 -5 -90 -19 -117
-23 -46 -54 -158 -77 -277 -16 -86 -19 -92 -65 -137 l-49 -48 -114 0 c-62 0
-128 -3 -146 -7 -29 -5 -33 -4 -26 12 5 15 4 16 -9 5 -17 -14 -21 -35 -4 -24
7 4 9 0 6 -12 -13 -43 -19 -74 -14 -74 3 0 27 18 52 40 34 29 55 40 79 40 47
0 42 -23 -18 -76 -43 -38 -49 -47 -36 -57 8 -7 21 -20 29 -30 14 -18 12 -18
-32 -15 -26 2 -50 7 -53 11 -26 25 -32 -24 -13 -99 11 -41 28 -60 30 -31 1 6
5 1 9 -13 13 -41 12 -53 -6 -46 -12 4 -15 2 -10 -9 3 -8 0 -15 -7 -15 -6 0 -1
-7 11 -16 31 -22 29 -54 -4 -54 -15 0 -23 -4 -19 -10 4 -6 16 -8 28 -4 20 6
21 5 7 -11 -18 -22 -22 -104 -6 -124 9 -12 8 -14 -4 -9 -10 4 -15 -2 -16 -18
-1 -13 1 -23 5 -22 18 2 21 -4 9 -24 -16 -31 -17 -57 -2 -66 14 -8 23 -43 54
-217 11 -66 23 -129 25 -140 11 -53 -31 -64 -292 -82 -88 -6 -88 -6 -98 137
-9 145 7 267 40 297 14 12 25 33 25 47 0 14 5 28 12 32 7 5 4 10 -10 15 -18 7
-22 16 -22 53 0 25 -4 47 -9 50 -17 11 -131 16 -131 6 0 -6 -7 -10 -15 -10 -8
0 -15 5 -15 10 0 6 -12 10 -26 10 -17 0 -23 -4 -19 -12 4 -7 1 -6 -7 2 -8 10
-31 15 -63 15 -27 -1 -60 5 -72 12 -27 16 -79 27 -120 26 -18 -1 -33 3 -33 8
0 6 -8 5 -20 -1 -23 -12 -40 -6 -40 16 0 9 -10 14 -28 14 -25 0 -29 4 -29 30
0 18 -8 36 -22 47 -23 19 -28 42 -15 82 5 17 4 22 -4 17 -8 -5 -12 1 -12 14 0
12 -4 18 -10 15 -7 -4 -9 2 -4 19 3 14 2 26 -3 26 -5 0 -10 15 -11 33 -4 62
-14 107 -24 107 -12 0 -7 -63 6 -72 6 -4 4 -13 -4 -23 -15 -18 -16 -164 -1
-193 5 -9 12 -44 16 -78 l7 -61 -71 2 c-66 2 -107 17 -96 35 5 8 -33 46 -38
39 -13 -17 -35 -93 -30 -105 6 -15 -14 -19 -35 -5 -11 7 -11 9 2 14 14 5 14
11 0 52 -9 25 -20 45 -25 45 -5 0 -9 5 -9 10 0 6 12 10 26 10 20 0 24 -3 16
-13 -7 -8 -6 -20 3 -37 12 -23 14 -23 21 -7 13 36 9 62 -15 82 -22 20 -23 22
-8 58 16 37 16 37 -13 52 -41 21 -45 33 -19 61 17 18 25 21 36 12 19 -16 29
-1 37 54 6 41 5 47 -13 53 -33 10 -71 63 -71 99 0 56 64 116 124 116 22 0 27
8 47 73 26 80 58 123 101 132 62 14 58 -67 65 1313 l6 1262 -444 0 -444 0 0
-370z m505 -2685 c0 -157 1 -154 -56 -139 -19 5 -21 13 -22 136 -1 72 1 135 4
139 3 5 21 9 40 9 l34 0 0 -145z m2264 115 c12 -11 28 -57 42 -117 12 -54 38
-156 58 -227 20 -71 36 -137 36 -147 0 -10 5 -21 10 -24 18 -11 11 -23 -17
-30 -16 -3 -40 -18 -55 -32 -15 -15 -30 -24 -33 -21 -7 7 -9 40 -7 88 2 28 4
32 13 20 9 -12 10 -12 5 3 -3 10 -6 23 -6 28 0 6 -4 7 -10 4 -15 -10 -12 2 6
20 9 9 14 18 11 22 -9 8 -67 -37 -67 -53 0 -8 -11 -15 -27 -15 l-28 -2 26 -4
c21 -3 26 -8 21 -25 -2 -11 0 -23 5 -27 5 -3 13 -27 16 -52 6 -42 4 -49 -23
-75 -16 -16 -30 -36 -30 -44 0 -8 -19 -34 -42 -58 -24 -24 -35 -40 -26 -37 17
7 17 5 3 -29 -8 -19 -15 -45 -15 -57 0 -21 -1 -21 -19 -5 -45 41 -94 -4 -89
-81 3 -36 0 -43 -17 -45 -16 -2 -20 -10 -17 -38 2 -35 2 -35 -37 -37 -23 -1
-44 4 -51 12 -6 8 -19 11 -27 8 -13 -5 -15 -2 -11 15 4 12 3 24 0 26 -4 2 -65
9 -137 16 -71 7 -132 14 -134 16 -4 3 15 110 26 149 3 11 2 17 -2 13 -4 -4
-15 -46 -25 -93 -14 -69 -16 -109 -10 -208 4 -67 6 -123 4 -125 -1 -2 -5 6 -9
18 -5 15 -12 19 -23 15 -10 -4 -30 -9 -47 -12 -30 -5 -30 -6 -30 -66 0 -55 2
-63 25 -74 24 -12 25 -11 28 17 4 39 22 39 22 1 0 -36 -28 -48 -67 -29 -26 13
-28 17 -29 82 -1 39 -6 71 -13 75 -19 12 -18 567 2 736 10 77 18 187 20 245 2
89 6 113 27 154 22 43 25 46 28 25 2 -13 7 -36 13 -50 6 -14 11 -59 12 -101 2
-74 21 -124 37 -98 4 6 10 -9 13 -34 4 -25 18 -63 31 -83 14 -21 28 -50 31
-64 4 -14 20 -41 37 -60 38 -41 95 -53 243 -50 l100 1 32 38 c24 27 32 47 33
76 0 23 16 74 42 130 63 138 78 272 39 345 -6 11 -11 29 -11 41 0 20 4 22 38
15 20 -3 46 -15 56 -25z m100 -60 c37 -67 103 -248 120 -327 4 -18 11 -31 16
-30 16 4 7 -19 -24 -62 l-31 -43 -17 38 c-14 32 -118 452 -118 476 0 21 31 -9
54 -52z m424 22 c-11 -14 -10 -15 7 -8 16 6 17 5 8 -5 -10 -10 -9 -15 5 -26
16 -12 16 -13 -1 -7 -17 6 -18 5 -5 -17 7 -13 18 -27 23 -31 6 -4 2 -8 -7 -8
-12 0 -18 8 -18 21 0 11 -4 18 -9 15 -8 -5 -12 -20 -27 -103 -4 -22 5 -28 31
-23 5 1 1 -8 -9 -19 -11 -12 -15 -21 -10 -21 5 0 2 -5 -6 -10 -10 -6 -11 -10
-2 -10 6 0 11 -3 11 -7 -4 -23 3 -31 22 -26 16 5 18 8 7 15 -10 7 -9 8 5 4 21
-7 22 7 2 27 -8 8 -11 17 -8 21 11 11 53 6 53 -6 0 -9 4 -8 10 2 7 12 10 12
10 1 0 -7 6 -11 15 -7 10 3 15 -1 16 -12 0 -14 2 -14 8 2 7 18 8 18 14 2 4 -9
11 -14 17 -11 5 3 10 2 10 -4 0 -5 -9 -13 -20 -16 -11 -3 -20 -11 -20 -16 0
-5 -7 -9 -15 -9 -8 0 -15 -6 -16 -12 0 -9 -2 -9 -5 -2 -5 12 -44 7 -44 -5 0
-4 -9 -7 -20 -7 -11 0 -20 4 -20 8 0 4 -4 8 -10 8 -5 0 -10 -17 -10 -37 0 -52
-10 -34 -17 29 -8 92 -9 151 -3 196 6 33 3 45 -9 52 -9 5 -11 10 -4 10 7 0 17
10 24 22 10 18 9 20 -7 14 -18 -6 -18 -5 0 9 11 8 16 15 12 15 -4 0 -4 5 -1
10 4 6 11 8 16 4 6 -3 5 -12 -3 -22z m-1988 -1357 c7 -25 16 -48 20 -50 4 -3
6 -63 4 -135 -1 -71 0 -132 5 -134 9 -6 5 -111 -9 -211 -6 -44 -13 -108 -17
-143 -6 -62 -23 -97 -23 -48 0 18 -4 24 -14 20 -8 -3 -12 -13 -8 -26 3 -14 1
-19 -6 -14 -14 9 -34 -28 -26 -48 7 -19 -11 -22 -22 -4 -11 17 -18 65 -18 126
-1 50 -2 53 -24 49 -21 -4 -22 -3 -6 14 9 10 20 16 25 14 4 -3 10 -1 13 4 4 5
-6 11 -21 13 -26 3 -25 5 22 27 28 13 45 25 38 28 -7 2 -21 0 -32 -6 -11 -6
-28 -11 -38 -11 -17 1 -17 1 0 11 9 5 17 21 17 33 0 22 15 35 48 42 23 4 27
14 6 15 -18 0 -18 1 1 10 13 6 2 7 -35 3 -51 -6 -53 -5 -40 11 10 12 22 15 45
11 35 -7 33 -19 22 110 -2 22 -6 45 -10 50 -3 6 -2 16 2 23 10 16 56 11 57 -6
1 -7 2 -21 3 -30 1 -10 4 -13 10 -7 9 9 -1 196 -14 273 -10 58 8 48 25 -14z"/>
<path d="M1816 6788 c-3 -17 -4 -447 -1 -956 l4 -924 46 -49 45 -48 0 -78 c1
-54 5 -84 16 -98 14 -18 14 51 9 675 -4 382 -8 868 -10 1080 -2 212 -4 395 -4
408 -1 20 -6 22 -50 22 -47 0 -49 -1 -55 -32z"/>
<path d="M6653 6813 c25 -6 21 -42 -8 -65 -30 -23 -31 -39 -6 -62 11 -10 17
-25 14 -37 -4 -14 0 -19 16 -19 18 0 21 5 19 28 -2 21 1 27 16 27 14 0 22 -12
31 -49 7 -26 18 -52 25 -56 7 -4 40 -11 73 -14 60 -7 107 -29 107 -49 0 -6 12
-22 28 -34 26 -22 26 -24 9 -37 -10 -8 -17 -23 -15 -33 4 -18 18 -21 53 -10
14 5 24 1 33 -13 16 -26 8 -40 -23 -40 -13 0 -26 -4 -29 -9 -3 -5 -23 -3 -43
4 -32 11 -38 18 -35 38 3 26 -15 34 -92 41 -16 2 -36 13 -46 26 -16 21 -17 21
-24 4 -7 -18 -8 -18 -26 4 -22 27 -32 28 -54 3 -13 -14 -14 -24 -6 -45 12 -33
13 -76 2 -76 -29 0 -53 65 -32 86 6 6 5 23 -4 47 -25 73 -129 112 -117 43 3
-13 -20 -36 -35 -36 -10 0 -14 14 -14 46 0 37 4 47 20 51 34 9 24 49 -25 101
-47 50 -52 61 -34 79 14 14 5 43 -14 43 -7 0 -28 -11 -47 -25 -29 -21 -34 -31
-32 -58 3 -27 -1 -35 -23 -45 -35 -16 -60 -15 -75 3 -7 8 -23 15 -36 15 -12 0
-26 5 -29 10 -5 8 -11 7 -20 0 -10 -8 -12 -29 -8 -79 8 -94 -3 -158 -28 -166
-10 -4 -19 -12 -19 -18 0 -8 27 -12 88 -12 81 0 88 2 97 23 13 29 29 23 32
-12 3 -40 12 -44 35 -17 16 20 30 25 73 27 38 1 58 -2 67 -13 7 -8 22 -19 35
-24 12 -4 32 -26 45 -48 13 -22 33 -45 46 -50 29 -14 38 -37 22 -56 -20 -25
-47 -17 -80 23 -28 33 -32 35 -41 20 -14 -25 -28 -22 -51 8 -13 16 -28 24 -43
22 -15 -2 -32 7 -49 25 -22 23 -28 26 -44 16 -14 -9 -30 -9 -60 -2 -47 12 -59
7 -37 -17 9 -10 13 -25 9 -34 -6 -16 -8 -16 -24 -1 -19 18 -51 17 -51 0 1 -5
15 -14 32 -18 67 -17 109 -55 109 -98 0 -32 11 -41 60 -49 29 -5 34 -9 32 -28
-3 -18 2 -22 25 -22 21 0 36 -9 52 -30 17 -24 26 -28 39 -21 12 7 24 4 43 -10
14 -10 29 -16 32 -12 7 7 57 -24 57 -35 0 -4 -13 -13 -29 -19 -16 -6 -34 -20
-40 -32 -11 -20 -10 -21 39 -21 49 0 50 -1 50 -29 0 -23 -5 -30 -22 -33 -13
-2 -23 -10 -23 -18 0 -17 65 -34 65 -16 0 6 9 22 20 36 l19 25 23 -22 c12 -13
23 -33 23 -45 0 -32 44 -39 52 -9 8 30 23 26 30 -9 7 -36 19 -46 37 -31 7 6
16 8 19 4 4 -3 7 2 7 11 0 12 5 16 16 12 9 -3 24 -6 35 -6 14 0 19 -7 19 -30
0 -41 -16 -72 -50 -95 -28 -19 -44 -50 -34 -67 9 -14 22 -9 27 13 5 17 11 20
32 15 18 -5 27 -2 31 9 4 10 10 12 18 7 6 -5 21 -8 34 -6 12 2 22 -1 22 -6 0
-19 65 -50 105 -50 25 -1 49 -8 65 -21 l24 -21 -23 -17 c-16 -12 -20 -21 -12
-25 6 -4 11 -3 11 3 0 18 37 31 69 25 29 -6 31 -9 31 -53 0 -25 -4 -51 -8 -58
-13 -20 -55 -25 -77 -9 -16 12 -17 15 -4 16 8 0 20 -5 27 -12 10 -10 16 -9 29
4 15 16 15 17 -5 11 -26 -6 -72 21 -72 42 0 8 -4 15 -10 15 -5 0 -10 -9 -10
-20 0 -11 5 -20 12 -20 6 0 9 -3 5 -6 -3 -3 -14 -3 -25 0 -14 5 -18 13 -14 33
3 17 1 24 -6 19 -6 -3 -16 2 -21 11 -10 17 -13 16 -32 -7 l-22 -25 6 26 c6 23
3 27 -17 31 -21 4 -23 2 -14 -12 8 -12 8 -22 0 -36 -10 -17 -11 -16 -12 9 0
24 -4 28 -22 25 -17 -2 -25 -12 -29 -38 -4 -19 -7 -28 -8 -18 -1 13 -5 14 -25
5 -13 -7 -22 -15 -20 -19 3 -5 -4 -8 -14 -8 -15 0 -19 5 -15 20 4 14 0 20 -11
20 -11 0 -16 9 -16 28 0 26 3 28 43 29 23 1 48 -4 55 -10 9 -7 16 -7 23 0 7 7
-1 13 -26 17 -20 4 -39 14 -42 22 -7 19 -23 18 -23 -1 0 -8 -9 -15 -20 -15
-17 0 -20 -7 -20 -40 0 -22 4 -40 8 -40 5 0 9 -7 9 -16 0 -11 -9 -14 -31 -12
-26 2 -32 8 -34 32 -3 24 -1 28 14 22 14 -6 16 -1 11 33 -3 29 -1 41 9 43 9 2
10 8 5 17 -12 19 -31 5 -31 -24 0 -23 -13 -38 -35 -41 -5 0 -15 -2 -21 -2 -11
-2 -50 -90 -46 -104 1 -5 -8 -8 -21 -8 -16 0 -18 3 -8 9 9 6 12 18 7 37 -6 22
-9 25 -16 13 -8 -12 -13 -12 -31 -1 -20 13 -21 12 -16 -7 3 -12 1 -21 -4 -21
-5 0 -9 11 -9 25 0 13 -5 35 -11 49 -10 21 -14 23 -25 11 -17 -17 -18 -72 -1
-78 7 -3 5 -6 -5 -6 -14 -1 -18 7 -18 39 0 23 -5 40 -11 40 -8 0 -8 4 0 14 10
12 7 15 -16 18 -38 4 -44 35 -8 44 26 6 50 36 38 48 -3 3 -23 6 -43 6 -55 0
-130 36 -130 62 0 19 -1 19 -20 -5 -20 -25 -52 -27 -66 -6 -12 21 8 69 31 75
13 3 26 12 29 19 4 11 -3 13 -30 9 -39 -5 -106 25 -135 60 -21 24 -22 26 -10
45 8 12 14 12 40 1 17 -7 40 -21 52 -31 12 -10 30 -19 40 -19 20 0 57 -43 65
-77 4 -12 10 -20 16 -17 5 3 15 0 23 -6 20 -16 19 -3 0 16 -8 9 -15 25 -15 37
0 25 -33 80 -46 76 -5 -1 -14 8 -20 20 -7 13 -16 27 -22 33 -6 6 -8 16 -5 24
6 17 -37 28 -83 21 -25 -4 -34 -2 -34 8 0 7 -10 17 -22 21 l-22 7 23 18 c13
11 32 19 42 19 32 0 33 42 4 100 -26 50 -27 52 -63 48 -20 -3 -44 -8 -53 -12
-11 -5 -27 3 -48 23 -18 17 -37 28 -42 25 -16 -9 -10 -52 9 -66 23 -16 35 -59
24 -89 -6 -16 -3 -27 15 -45 29 -30 29 -49 -1 -69 -22 -15 -27 -15 -55 -1 -40
21 -64 20 -92 -4 l-24 -20 20 -17 c17 -15 19 -23 12 -50 -8 -27 -6 -37 14 -62
13 -16 29 -30 36 -30 6 -1 14 -7 16 -13 6 -15 11 59 8 115 -3 36 -2 37 32 37
32 0 35 -3 41 -37 11 -69 8 -94 -14 -100 -26 -7 -26 -29 0 -36 16 -4 19 -13
17 -56 l-2 -51 -37 0 -38 0 0 49 c0 47 -2 50 -30 56 -44 10 -53 -1 -46 -51 l6
-43 -30 6 c-19 3 -30 1 -30 -6 0 -12 -71 -51 -95 -51 -8 0 -15 -5 -15 -11 0
-13 41 -48 56 -49 21 0 24 -30 8 -62 -18 -36 -11 -45 36 -50 29 -2 37 -9 53
-43 11 -22 28 -56 38 -76 11 -20 19 -44 19 -53 0 -23 -48 -32 -67 -13 -24 24
-73 3 -73 -32 0 -14 -8 -37 -17 -51 -9 -13 -17 -35 -18 -48 -1 -23 -38 -64
-67 -75 -10 -4 -10 -7 -1 -18 11 -10 7 -15 -18 -26 -17 -7 -40 -13 -50 -13
-16 0 -49 -34 -49 -52 0 -3 12 -8 28 -10 24 -3 27 -7 27 -43 l0 -40 72 3 c63
3 78 1 121 -23 75 -41 109 -114 93 -199 -5 -26 -5 -49 0 -52 5 -3 9 -16 9 -30
0 -30 -28 -99 -37 -91 -3 4 -1 12 5 19 9 12 16 58 13 83 -3 18 -32 -59 -37
-95 -2 -19 -8 -57 -12 -85 -4 -27 -5 -66 -2 -85 4 -31 12 -39 62 -65 32 -16
97 -51 145 -77 48 -27 98 -48 111 -48 12 0 22 -6 22 -14 0 -8 7 -22 16 -30 8
-9 12 -16 8 -16 -3 0 -1 -7 6 -15 6 -8 9 -18 6 -23 -3 -5 0 -22 8 -38 7 -16
17 -40 23 -54 10 -23 11 -21 22 32 12 55 16 61 84 114 39 31 99 70 132 86 33
17 73 40 89 51 21 15 48 21 100 24 39 1 90 5 114 9 42 5 43 6 28 27 -9 12 -23
35 -32 51 -15 26 -14 29 4 50 11 11 29 39 40 61 l21 40 1 -32 c0 -17 4 -43 9
-57 9 -23 12 -24 41 -13 28 10 33 10 45 -7 18 -24 9 -39 -15 -26 -31 17 -42
13 -30 -11 9 -16 17 -19 41 -14 24 5 34 1 57 -22 35 -37 80 -57 97 -43 7 6 36
7 72 4 51 -6 61 -4 66 10 4 10 12 14 18 10 9 -5 7 -11 -6 -20 -17 -13 -17 -19
-6 -81 7 -38 18 -137 25 -220 9 -121 9 -153 0 -153 -7 0 -15 15 -17 33 -4 31
-4 31 -5 -5 -1 -21 -6 -38 -12 -38 -15 0 -13 137 2 142 9 3 8 19 -5 64 -63
206 -75 234 -102 234 -14 0 -14 -3 0 -29 16 -32 30 -120 40 -247 5 -64 1 -107
-20 -212 -28 -143 -43 -192 -100 -322 -21 -50 -32 -86 -26 -88 6 -2 11 -18 11
-36 0 -24 -9 -43 -35 -69 -36 -37 -32 -47 22 -47 18 0 24 -5 21 -17 -3 -14
-15 -18 -66 -18 -34 0 -62 -3 -62 -7 0 -5 32 -8 71 -8 68 0 70 -1 63 -22 -4
-13 -7 -49 -6 -82 2 -48 -1 -56 -12 -47 -11 9 -15 5 -20 -24 -8 -40 0 -59 19
-51 9 3 13 -2 12 -14 -1 -10 -5 -16 -10 -13 -5 3 -12 1 -16 -5 -5 -9 -128 -22
-375 -39 -130 -9 -233 27 -208 74 18 34 33 235 32 426 -1 38 3 67 9 67 6 0 8
-20 4 -50 -6 -50 -1 -58 26 -41 9 6 10 11 2 15 -14 9 -14 119 0 169 9 33 7 44
-16 90 -18 35 -24 43 -20 23 l6 -29 -119 6 c-135 8 -153 12 -145 35 5 11 2 14
-8 10 -10 -4 -14 2 -16 20 -1 29 -23 47 -36 29 -5 -7 -7 3 -4 24 6 44 -10 67
-29 41 -12 -16 -13 -15 -14 5 0 12 4 33 9 46 8 20 6 29 -10 43 -18 16 -19 16
-19 -8 0 -13 -14 -67 -31 -119 -27 -82 -30 -103 -24 -164 3 -38 9 -73 13 -77
8 -8 36 5 85 36 35 24 35 9 -2 -32 -21 -22 -35 -30 -47 -25 -13 5 -15 3 -9 -7
6 -9 4 -12 -6 -8 -8 3 -20 0 -26 -7 -10 -10 -9 -16 2 -25 8 -7 15 -21 15 -32
0 -11 5 -28 10 -39 9 -16 18 -18 53 -13 42 6 107 21 130 30 9 3 12 -94 12
-408 l0 -413 26 -55 c22 -45 36 -60 73 -78 25 -13 54 -22 63 -20 16 3 15 6 -5
26 -12 12 -22 25 -22 28 0 3 -14 19 -31 35 -20 19 -29 36 -27 50 5 36 25 33
32 -5 6 -33 36 -63 49 -50 2 3 2 44 0 92 -4 60 -11 97 -24 120 -10 18 -19 47
-19 63 0 44 23 159 32 159 5 0 8 -26 8 -57 0 -78 18 -225 37 -298 15 -62 40
-193 48 -255 2 -19 7 -129 10 -245 3 -115 10 -250 16 -300 6 -49 13 -108 15
-130 2 -22 11 -92 20 -155 8 -63 18 -145 20 -183 5 -64 4 -69 -25 -103 -17
-19 -31 -46 -31 -59 0 -13 -6 -30 -13 -37 -19 -17 -9 -55 16 -62 32 -8 230 -7
242 2 33 22 51 324 23 376 -7 13 -12 100 -13 227 -1 113 -5 210 -8 216 -4 6
-7 60 -8 121 -2 82 1 115 11 127 11 13 15 62 16 209 1 105 5 213 9 241 l8 50
23 -80 c13 -44 24 -100 24 -125 0 -25 12 -85 26 -135 15 -49 27 -103 28 -120
1 -16 9 -44 19 -61 9 -17 14 -34 11 -37 -3 -3 -3 -11 1 -17 4 -6 7 -66 7 -133
1 -76 6 -138 15 -164 11 -36 11 -54 -2 -130 -8 -48 -22 -117 -30 -153 -30
-125 -30 -131 4 -198 26 -52 31 -73 31 -134 0 -83 24 -149 62 -169 l23 -13
-30 -6 c-51 -11 -325 -10 -325 0 0 20 -38 10 -43 -11 -3 -12 -10 -18 -15 -15
-6 3 -18 3 -27 0 -13 -5 -7 -10 22 -20 42 -15 83 -18 83 -6 0 9 43 12 252 16
l167 3 33 32 c30 29 33 38 36 106 3 55 -1 89 -17 137 -20 61 -24 81 -36 196
-5 42 -3 52 9 52 17 0 27 29 25 75 -1 17 6 80 14 140 10 73 15 200 15 375 1
146 1 273 2 284 0 14 5 17 23 12 12 -4 29 -8 37 -10 8 -1 29 -8 45 -15 18 -8
98 -16 205 -21 133 -5 185 -11 218 -25 34 -14 58 -16 115 -11 107 10 110 6
108 -130 -1 -60 4 -151 10 -202 9 -77 8 -94 -4 -107 -8 -8 -17 -11 -21 -8 -3
4 -6 1 -6 -5 0 -6 -20 -10 -52 -8 -49 2 -96 -8 -125 -27 -10 -6 -9 -13 3 -31
14 -23 64 -42 64 -25 0 5 14 9 31 9 16 0 28 -4 25 -9 -3 -5 15 -14 40 -20 26
-7 44 -15 40 -18 -3 -4 7 -12 22 -19 32 -13 46 -53 36 -103 -6 -28 18 -91 35
-91 5 0 14 7 21 15 7 8 19 15 26 15 8 0 14 7 14 15 0 15 30 35 54 35 8 0 20
-16 26 -36 17 -52 30 -24 25 54 -3 39 -1 60 5 57 12 -7 13 -66 4 -193 l-7 -90
-20 19 c-14 12 -35 19 -63 19 -37 0 -47 -5 -81 -42 -21 -23 -59 -63 -85 -89
-27 -26 -48 -54 -48 -62 0 -54 146 -88 196 -46 7 6 16 33 20 59 5 37 14 56 40
81 34 33 46 30 19 -5 -20 -27 -19 -48 5 -69 26 -22 30 -21 30 1 0 29 42 62 79
62 29 0 32 2 21 15 -10 12 -10 15 0 15 10 0 10 3 0 15 -10 12 -10 15 1 15 10
1 8 5 -4 14 -16 13 -14 14 22 9 40 -5 47 0 42 30 0 4 4 7 10 7 5 0 7 5 4 10
-3 6 -2 10 3 10 5 0 12 20 15 43 3 24 20 93 38 152 23 81 32 137 36 215 2 58
6 123 7 145 2 22 -1 48 -6 58 -6 12 -5 19 7 23 8 3 12 11 8 18 -13 20 -10 56
4 56 23 0 11 -281 -17 -412 -13 -60 -20 -111 -16 -115 4 -5 80 -11 169 -14 89
-4 208 -10 265 -14 92 -7 104 -6 123 11 14 13 22 15 27 7 10 -16 135 -16 129
0 -2 7 2 19 11 26 13 13 14 12 8 -12 -5 -20 -3 -27 9 -27 8 0 15 9 15 20 0 16
5 19 30 14 26 -6 30 -4 31 17 2 37 -3 124 -7 128 -15 16 -23 -40 -10 -76 4
-15 3 -23 -3 -23 -6 0 -11 10 -11 23 0 13 -5 28 -11 34 -8 8 -8 17 0 30 7 14
7 23 -1 31 -8 8 -5 9 9 6 13 -4 22 0 26 10 4 10 1 16 -8 16 -8 0 -15 8 -14 18
0 10 3 12 6 5 2 -7 9 -13 15 -13 13 0 7 112 -7 123 -6 4 -3 11 7 18 18 10 17
33 -2 104 -5 17 -11 42 -14 57 -4 19 -11 26 -21 22 -8 -4 -15 -12 -15 -20 0
-8 6 -11 15 -8 8 4 15 1 15 -6 0 -6 -8 -10 -17 -8 -25 4 -29 44 -6 52 10 3 24
9 32 12 9 4 11 2 7 -5 -5 -7 -1 -9 9 -5 11 5 13 10 5 19 -8 9 -7 15 2 19 7 3
3 3 -8 1 -21 -5 -21 -3 -13 41 9 48 3 76 -8 36 -6 -26 -23 -30 -18 -4 2 9 4
20 4 23 1 4 9 9 20 12 13 3 20 16 23 40 5 48 -3 69 -22 57 -20 -13 -40 -13
-40 0 0 5 7 7 15 4 23 -9 53 61 37 86 -15 25 -15 47 1 54 9 4 9 7 0 12 -8 4
-8 12 3 32 10 20 10 28 1 34 -7 4 -11 27 -9 57 1 27 -3 53 -8 56 -6 4 -8 11
-4 16 3 5 9 7 13 5 4 -3 7 13 6 35 0 21 -3 39 -7 39 -5 0 -8 5 -8 11 0 5 4 8
8 5 11 -7 9 55 -2 73 -6 10 -4 12 11 7 18 -6 19 -2 16 56 -2 34 -8 65 -13 68
-7 5 -6 11 3 19 15 11 10 62 -8 90 -3 7 -1 18 5 26 10 12 10 18 0 30 -8 10 -9
20 -3 28 5 6 9 106 9 220 -1 173 -3 209 -16 218 -13 8 -13 11 2 19 17 11 23
70 6 70 -5 0 -16 7 -24 15 -14 13 -13 15 8 16 21 1 20 2 -7 14 l-30 13 28 7
c31 8 30 6 17 40 -8 21 -15 25 -33 20 -15 -4 -18 -4 -8 3 7 5 11 14 8 19 -3 5
-2 15 3 23 6 10 1 18 -17 27 -14 7 -29 10 -34 7 -5 -3 -6 1 -3 9 3 9 13 13 26
9 18 -4 20 -2 14 21 -4 16 -2 27 4 27 5 0 10 -5 10 -12 0 -15 13 -1 16 17 1 9
-4 12 -14 8 -14 -5 -15 -3 -4 8 17 18 15 30 -3 23 -9 -4 -15 0 -15 10 0 9 4
16 8 16 4 0 8 9 9 21 1 14 -3 19 -12 15 -9 -3 -12 0 -8 10 7 20 41 18 46 -3 4
-17 5 -17 6 0 0 9 7 17 15 17 32 0 46 -13 46 -42 0 -24 3 -29 16 -24 13 5 15
1 12 -19 -3 -14 -1 -25 3 -25 5 0 9 7 9 15 0 8 6 15 13 15 9 0 8 3 -2 9 -7 5
-10 14 -7 20 5 7 16 1 32 -16 18 -20 24 -22 24 -9 0 12 7 15 25 12 13 -3 27 0
30 5 4 5 11 9 16 9 6 0 7 -4 4 -10 -3 -5 0 -10 9 -10 8 0 17 -6 20 -12 3 -7 4
-4 1 7 -4 16 1 20 22 22 15 0 32 -6 39 -15 7 -10 16 -14 20 -9 4 4 2 7 -4 7
-7 0 -12 8 -11 18 0 10 3 12 6 5 2 -7 20 -13 40 -13 31 0 34 -2 29 -22 -3 -13
-3 -17 0 -10 3 6 16 12 29 12 13 0 27 5 30 10 11 17 45 11 45 -7 1 -17 1 -17
14 0 14 19 46 23 46 6 0 -6 9 -8 23 -3 12 4 32 7 45 6 12 -1 22 3 22 8 0 21
26 8 44 -23 22 -35 23 -126 2 -139 -8 -6 -8 -10 1 -16 7 -4 11 -29 10 -62 l-2
-55 -165 0 c-91 0 -169 2 -174 4 -7 3 -114 2 -261 -4 l-50 -2 3 -34 c1 -19 7
-36 12 -37 6 -2 7 -8 4 -14 -4 -6 -1 -8 7 -6 8 3 13 11 11 18 -2 7 5 9 18 5
11 -4 20 -2 20 4 0 6 7 11 15 11 9 0 15 -9 14 -22 0 -22 -1 -22 -9 -3 -8 19
-9 18 -9 -4 -1 -18 3 -22 18 -18 26 7 33 -14 15 -48 -8 -15 -12 -30 -9 -33 3
-3 5 0 5 6 0 7 7 12 15 12 9 0 20 11 26 24 10 21 8 28 -15 51 -14 14 -26 32
-26 40 0 8 -7 15 -15 15 -8 0 -15 3 -15 8 0 4 28 7 63 8 44 0 66 -5 74 -16 11
-13 12 -13 13 3 0 9 4 17 10 17 5 0 9 -5 7 -11 -1 -6 4 -14 11 -16 6 -3 12 2
12 11 0 20 20 21 46 1 25 -19 34 -19 34 0 0 12 17 15 95 15 78 0 95 -3 95 -15
0 -8 5 -15 10 -15 6 0 10 6 10 14 0 11 11 14 43 13 l42 -2 2 -93 c1 -51 -2
-90 -7 -87 -4 3 -10 -4 -13 -16 -4 -15 -2 -17 6 -10 9 7 13 -20 14 -109 2
-110 1 -118 -17 -123 -11 -3 -20 0 -20 6 0 8 -3 8 -8 -1 -5 -7 -16 -10 -28 -6
-13 5 -10 -2 11 -22 24 -24 31 -26 37 -14 5 12 7 12 7 -2 1 -10 6 -18 11 -18
7 0 9 -49 8 -135 -2 -85 -7 -134 -13 -131 -5 1 -9 11 -7 20 2 9 -4 19 -12 22
-9 3 -13 11 -9 17 4 6 0 8 -10 4 -10 -3 -17 -2 -17 3 0 5 10 11 23 13 19 4 19
4 -5 6 -36 1 -44 18 -22 42 15 17 19 18 26 4 12 -20 28 -19 28 1 0 8 -4 12
-10 9 -5 -3 -10 3 -10 14 0 10 5 21 12 23 13 5 2 28 -13 28 -6 0 -8 -4 -5 -9
4 -5 3 -16 0 -24 -5 -13 -9 -12 -26 5 -11 11 -23 16 -26 12 -4 -3 -1 -9 6 -11
6 -3 12 -11 12 -19 0 -12 -4 -12 -20 -4 -20 11 -30 -3 -10 -15 14 -9 0 -34
-16 -28 -8 3 -12 8 -10 12 3 4 -4 7 -15 7 -18 0 -18 -2 -5 -12 9 -6 13 -14 9
-18 -4 -3 -8 -15 -10 -26 -2 -14 3 -20 17 -20 11 0 20 -5 20 -10 0 -7 13 -8
35 -4 30 5 36 3 44 -17 7 -19 5 -25 -11 -31 -11 -4 -16 -12 -13 -18 4 -7 12
-7 25 0 33 17 37 11 35 -49 -2 -47 0 -58 11 -54 20 7 17 -17 -3 -32 -14 -11
-13 -13 10 -19 19 -4 27 -13 27 -29 0 -18 -2 -19 -10 -7 -7 11 -10 6 -11 -20
0 -27 -2 -30 -8 -16 -5 14 -10 16 -15 7 -4 -6 -3 -18 4 -26 9 -10 4 -15 -24
-25 -19 -6 -37 -17 -40 -25 -7 -18 5 -20 22 -3 16 16 64 18 51 2 -5 -6 -7 -19
-3 -28 9 -24 -11 -19 -24 7 -7 12 -11 15 -11 7 3 -35 -1 -42 -20 -37 -13 3
-21 -1 -24 -14 -3 -11 -1 -19 4 -19 5 0 13 -10 18 -22 5 -13 10 -17 14 -11 4
6 0 18 -8 27 -14 13 -13 16 4 26 26 13 31 13 31 -5 0 -8 -5 -15 -10 -15 -6 0
-5 -8 2 -20 11 -17 10 -22 -1 -29 -11 -7 -11 -9 0 -14 8 -3 3 -6 -11 -6 -23
-1 -22 -3 14 -25 39 -23 38 -39 -3 -31 -18 3 -21 0 -16 -15 3 -10 1 -21 -5
-25 -20 -13 -10 -25 16 -19 18 5 25 3 20 -4 -3 -6 2 -15 11 -21 15 -9 14 -11
-12 -11 -29 -1 -29 -2 -7 -12 25 -13 30 -31 5 -21 -9 4 -14 2 -10 -4 3 -5 -3
-9 -15 -9 -12 1 -23 -6 -25 -14 -4 -13 -3 -13 6 0 9 13 11 13 11 -2 0 -10 5
-18 12 -18 6 0 1 -11 -12 -25 -12 -13 -26 -23 -30 -20 -10 6 -37 -29 -32 -43
2 -7 -1 -12 -7 -12 -6 0 -11 6 -11 13 0 6 -5 4 -11 -6 -6 -10 -8 -21 -5 -24 3
-4 6 -1 6 6 0 8 5 9 19 2 10 -6 21 -8 23 -5 3 2 6 -15 6 -38 1 -24 3 -58 5
-77 3 -34 -11 -81 -25 -81 -10 0 -10 17 0 24 15 9 13 69 -4 87 -10 11 -12 19
-6 19 7 0 12 5 12 11 0 6 -9 8 -20 4 -13 -4 -20 -2 -20 7 0 10 -3 9 -11 -2 -8
-12 -9 -10 -4 8 5 16 2 22 -10 22 -9 0 -13 5 -10 10 4 6 11 7 17 4 6 -4 8 -2
5 4 -8 12 -43 9 -41 -4 1 -5 5 -19 9 -31 4 -17 2 -23 -8 -23 -8 0 -17 -7 -21
-15 -5 -13 -10 -12 -38 5 -51 31 -76 21 -47 -20 8 -11 12 -12 16 -2 2 6 12 12
21 12 12 0 11 -4 -6 -21 -12 -11 -20 -24 -17 -30 4 -5 2 -9 -4 -9 -5 0 -11 6
-14 13 -2 6 -8 9 -12 5 -9 -8 36 -48 67 -60 12 -5 18 -3 18 7 0 8 -11 17 -25
21 -25 6 -25 7 -8 35 19 32 21 33 43 19 12 -8 12 -10 -5 -10 -18 -1 -18 -2 -3
-11 19 -11 68 -2 68 12 0 5 5 9 10 9 6 0 10 -6 10 -14 0 -8 8 -17 18 -20 9 -3
5 -4 -10 -2 -18 2 -28 -1 -28 -10 0 -7 -6 -15 -12 -18 -7 -3 1 -4 17 -3 29 2
30 1 29 -40 l0 -43 48 0 c47 0 48 -1 48 -30 0 -30 -13 -37 -58 -31 -6 1 -19
-2 -27 -6 -13 -8 -13 -11 1 -28 8 -11 13 -14 9 -7 -4 8 4 12 27 12 l33 -1 -25
-14 c-14 -8 -33 -14 -42 -15 -14 0 -16 -7 -11 -38 7 -48 19 -62 53 -62 23 0
28 -5 32 -30 6 -37 -12 -45 -73 -31 -49 11 -89 49 -89 84 0 16 -3 18 -9 8 -7
-10 -10 -11 -16 -1 -5 8 -1 18 8 25 11 8 17 27 17 54 0 34 -3 41 -20 41 -11 0
-20 -4 -20 -10 0 -5 -12 -10 -26 -10 -20 0 -24 3 -16 13 6 7 7 18 2 26 -4 8
-6 20 -3 28 3 8 -2 13 -12 13 -13 0 -16 -6 -11 -25 4 -14 2 -25 -4 -25 -5 0
-10 7 -10 16 0 8 -4 13 -9 10 -5 -4 -7 3 -4 14 7 26 -21 37 -42 16 -9 -9 -12
-16 -6 -16 6 0 8 -6 6 -13 -3 -7 12 -20 34 -30 20 -9 44 -28 51 -42 9 -17 22
-25 41 -25 15 0 31 -4 34 -10 4 -6 -7 -10 -24 -10 -20 0 -31 -5 -31 -14 0 -8
-3 -23 -6 -33 -5 -15 -4 -15 5 -3 8 12 13 12 22 3 15 -15 10 -21 -18 -26 -23
-3 -58 -35 -49 -44 3 -3 11 -1 18 5 15 12 68 5 68 -9 0 -5 -9 -9 -20 -9 -11 0
-20 5 -20 10 0 6 -6 5 -14 -2 -7 -7 -11 -18 -9 -25 2 -6 -4 -14 -14 -17 -10
-3 -19 -15 -19 -27 0 -16 5 -20 23 -16 13 2 23 1 23 -3 0 -11 33 -7 41 4 4 5
15 5 25 1 11 -5 21 -9 24 -9 3 -1 10 -4 15 -7 17 -11 75 -8 75 3 0 7 4 7 13 0
10 -9 19 -8 34 3 19 13 21 13 27 -8 4 -12 7 -191 6 -397 -1 -373 -1 -375 -23
-392 -12 -9 -44 -19 -72 -21 -97 -10 -295 -62 -307 -80 -4 -6 -20 -12 -35 -12
-15 0 -43 -7 -61 -14 -31 -13 -74 -11 -117 5 -18 6 -18 5 3 -13 12 -11 22 -22
22 -24 0 -2 -28 -5 -63 -6 -86 -4 -138 -13 -131 -24 3 -5 17 -7 32 -4 l27 5
-25 -10 c-17 -8 -66 -9 -148 -4 -109 6 -125 5 -142 -11 -11 -10 -26 -15 -34
-12 -10 4 -13 1 -10 -7 3 -7 0 -25 -6 -40 -8 -22 -15 -27 -31 -23 -14 4 -19 2
-15 -8 4 -12 -33 -25 -76 -26 -26 0 -24 -55 2 -69 23 -13 26 -35 6 -43 -11 -4
-13 -1 -9 10 6 15 4 15 -17 0 -14 -9 -29 -17 -35 -17 -5 0 -3 5 5 10 12 8 9
10 -11 10 -28 0 -48 28 -29 40 6 4 8 15 4 25 -5 13 -4 16 4 11 8 -5 10 -2 6 9
-4 8 -18 15 -33 15 -14 0 -37 1 -51 2 -14 0 -46 -2 -72 -6 -31 -5 -48 -3 -48
4 0 5 8 10 19 10 10 0 25 7 32 16 11 14 11 18 -4 29 -19 13 -23 35 -7 35 6 0
10 -6 10 -14 0 -14 41 -46 60 -46 5 0 10 7 10 15 0 8 -9 15 -20 15 -19 0 -45
32 -34 42 3 3 -7 9 -22 12 -30 8 -44 -5 -44 -41 0 -18 -5 -21 -27 -18 -16 2
-45 11 -66 20 -21 8 -43 12 -50 8 -7 -4 -19 -8 -27 -8 -8 -1 -25 -2 -38 -3
-13 -1 -20 -6 -17 -12 3 -5 1 -10 -4 -10 -6 0 -11 -5 -11 -11 0 -6 8 -9 18 -7
10 3 23 -1 30 -9 7 -7 23 -13 35 -13 13 0 32 -7 43 -16 19 -15 19 -16 -1 -9
-44 15 -51 15 -88 0 -20 -8 -37 -17 -37 -20 0 -3 27 -2 60 2 52 5 60 4 60 -11
0 -14 12 -16 93 -15 142 3 177 0 177 -13 0 -7 18 -33 40 -58 22 -25 40 -48 40
-52 0 -4 -54 -6 -120 -6 -119 2 -151 -5 -117 -23 9 -6 17 -17 17 -24 0 -8 7
-15 15 -15 8 0 15 -5 15 -11 0 -8 5 -7 15 1 12 10 19 10 27 2 9 -9 8 -12 -4
-12 -9 0 -29 -7 -44 -15 -16 -8 -39 -15 -51 -15 -27 0 -31 -25 -5 -35 9 -4 35
-9 57 -11 38 -3 42 -1 53 29 10 25 14 29 22 17 7 -12 12 -12 22 -2 17 17 53
15 90 -4 22 -11 33 -13 41 -5 6 6 16 11 22 11 5 0 3 -5 -5 -10 -12 -8 -9 -10
13 -10 36 0 45 25 24 62 -16 28 -16 29 9 38 40 15 94 13 88 -4 -3 -8 -19 -16
-35 -20 -48 -9 -30 -31 27 -32 27 -1 56 -4 64 -7 8 -4 24 -8 35 -10 11 -2 27
-6 35 -9 32 -11 117 -28 156 -32 23 -2 46 -6 53 -10 6 -4 11 -2 11 5 0 8 4 8
13 1 20 -16 139 -23 515 -28 l352 -5 0 2086 0 2085 -21 0 c-11 0 -17 -4 -14
-10 3 -5 2 -10 -4 -10 -5 0 -12 6 -14 13 -4 9 -8 9 -15 -2 -8 -11 -10 -11 -15
0 -4 12 -7 11 -16 -1 -10 -13 -11 -13 -11 0 0 12 -2 12 -9 2 -4 -8 -10 -13
-12 -12 -2 1 -15 -3 -29 -9 -25 -10 -24 -10 7 -10 17 -1 35 -5 38 -11 3 -6 15
-10 25 -10 25 0 36 -40 23 -83 -6 -21 -15 -32 -26 -31 -9 1 -17 -2 -17 -7 0
-6 -10 -5 -21 2 -12 6 -17 14 -12 18 17 10 20 57 6 77 -7 10 -13 13 -13 8 0
-6 -32 -9 -82 -8 -46 1 -122 3 -170 4 -54 1 -88 5 -88 12 0 7 -4 7 -12 0 -17
-14 -191 -12 -200 2 -5 7 -11 8 -15 1 -12 -15 -43 -18 -59 -4 -8 6 -14 8 -14
3 0 -5 -12 -10 -26 -10 -20 -2 -25 2 -21 16 3 14 0 16 -17 12 -11 -3 -15 -7
-8 -10 31 -10 4 -17 -77 -20 -55 -2 -92 1 -96 8 -3 6 -11 8 -16 4 -17 -10 -79
-12 -85 -3 -3 5 -11 9 -17 9 -7 0 -6 -4 3 -10 13 -8 12 -10 -2 -10 -11 0 -18
8 -18 19 0 10 -7 21 -15 25 -10 4 -15 -1 -15 -15 0 -13 4 -18 13 -13 8 5 8 2
-2 -9 -14 -18 -67 -24 -56 -7 8 12 -1 13 -23 1 -31 -15 -84 -22 -76 -9 5 8 2
9 -12 3 -10 -4 -35 -11 -54 -14 -19 -3 -34 -11 -32 -16 2 -10 185 -10 235 1
23 5 27 2 27 -17 0 -12 3 -20 6 -16 9 9 36 -21 29 -33 -3 -5 -1 -10 4 -10 6 0
11 -4 11 -10 0 -5 -8 -6 -17 -3 -16 6 -16 5 -4 -10 8 -10 11 -27 7 -41 -3 -14
-1 -28 4 -31 6 -4 8 -11 4 -16 -3 -5 -10 -7 -15 -4 -5 3 -6 -1 -3 -9 3 -9 9
-14 13 -12 3 2 7 -6 7 -17 1 -12 6 -37 12 -54 12 -37 6 -45 -8 -10 l-9 22 0
-24 c-1 -20 -3 -22 -16 -11 -25 21 -28 5 -6 -31 12 -19 21 -46 21 -61 0 -25
-4 -28 -31 -28 l-30 0 2 79 c2 44 7 77 11 75 4 -3 8 0 8 5 0 6 -4 11 -10 11
-6 0 -10 29 -10 66 l0 65 -75 -4 c-70 -4 -119 -17 -64 -17 24 0 89 -34 89 -47
0 -4 -9 -17 -21 -29 -19 -20 -23 -21 -47 -8 -26 13 -27 13 -32 -13 l-5 -26
-14 26 c-16 31 -24 33 -41 12 -7 -8 -18 -15 -24 -15 -10 0 -15 -75 -6 -105 6
-23 -1 -37 -15 -31 -13 4 -13 2 -5 -14 12 -23 13 -30 0 -30 -10 0 -50 84 -50
105 0 7 -7 18 -15 25 -12 10 -15 9 -15 -8 0 -11 -5 -22 -12 -24 -7 -3 -11 -28
-10 -71 1 -36 -3 -69 -7 -72 -5 -3 -7 5 -4 17 3 17 2 19 -5 9 -8 -11 -11 -9
-17 8 -3 11 -13 21 -21 21 -8 0 -19 12 -24 26 -10 26 -5 48 10 39 11 -7 20 20
20 61 0 32 -6 41 -51 76 -9 7 -19 25 -23 41 -5 23 -3 27 14 27 12 0 30 -5 41
-10 15 -9 19 -7 19 5 0 9 -4 14 -8 11 -21 -13 -29 12 -22 69 4 37 2 87 -7 130
-15 79 -16 91 -7 82 4 -3 15 -2 24 3 16 8 17 21 13 97 -3 56 -1 83 5 75 17
-24 21 23 7 80 l-13 53 -2 -40 -2 -40 -8 33 c-15 62 -22 47 -17 -33 5 -61 4
-72 -4 -45 -5 19 -11 58 -12 85 -2 41 -6 49 -20 47 -11 -2 -17 4 -17 18 0 11
-6 20 -13 20 -19 0 -37 34 -26 51 6 10 9 10 9 2 0 -7 5 -13 10 -13 6 0 10 10
10 21 0 19 -4 20 -32 15 -38 -8 -50 -8 -96 -5 -26 2 -41 -5 -68 -32 -59 -56
-83 -107 -95 -199 -5 -46 -12 -87 -15 -92 -3 -5 -7 -37 -8 -73 -2 -54 -1 -62
10 -47 11 15 13 14 20 -12 6 -25 2 -33 -27 -57 -19 -15 -34 -34 -34 -41 0 -8
-9 -12 -22 -10 -33 5 -109 -18 -94 -28 8 -5 0 -10 -24 -14 -24 -5 -39 -14 -42
-25 -3 -10 -16 -24 -30 -30 -20 -9 -24 -18 -22 -44 2 -40 -10 -79 -24 -74 -10
3 -11 133 -1 149 3 4 0 8 -6 8 -18 0 0 20 27 31 14 5 23 12 20 15 -3 3 -14 1
-25 -5 -11 -6 -22 -7 -24 -2 -2 5 -23 11 -48 12 -40 4 -45 2 -41 -16 2 -11 4
-133 5 -272 0 -138 4 -249 8 -247 13 8 28 -68 18 -87 -6 -10 -9 -123 -8 -266
2 -255 -6 -526 -17 -543 -3 -5 -2 -51 4 -102 5 -51 7 -114 4 -140 -5 -47 -6
-47 -47 -52 -22 -3 -94 -7 -159 -9 -111 -3 -118 -2 -114 15 5 19 -53 97 -137
185 -43 46 -43 62 1 45 35 -13 255 -25 309 -16 l41 6 1 62 c2 83 -6 116 -24
109 -10 -4 -14 3 -14 24 0 16 -9 36 -20 46 -19 16 -22 15 -24 -10 -1 -7 -5
-13 -9 -13 -4 0 -11 0 -17 0 -5 0 -10 9 -10 20 0 11 5 20 11 20 5 0 8 4 5 8
-2 4 -1 14 5 22 7 12 9 12 9 -3 0 -14 6 -11 28 15 15 18 30 34 33 36 12 5 -4
52 -17 52 -16 0 -18 11 -6 25 18 20 52 134 52 171 -1 68 -26 208 -45 246 -16
32 -17 43 -7 75 8 27 8 40 0 50 -9 11 -13 10 -24 -4 -8 -11 -9 -22 -3 -28 5
-5 9 -20 9 -35 -1 -24 -1 -25 -16 -5 -30 38 -65 115 -52 113 7 -2 12 3 11 10
-2 6 5 12 15 12 13 0 14 2 4 9 -8 5 -14 21 -13 37 0 16 0 42 0 57 1 17 11 36
27 51 32 27 28 58 -5 49 -12 -3 -21 -1 -22 3 -4 46 -6 174 -2 192 5 20 11 22
65 22 43 0 59 3 56 13 -3 7 -26 13 -59 14 -175 7 -249 7 -255 0 -12 -12 27
-128 73 -216 32 -60 41 -86 33 -91 -20 -12 7 -81 43 -112 24 -21 27 -28 14
-28 -24 0 -135 91 -136 111 -1 23 -30 46 -39 32 -5 -8 -18 -5 -42 8 -31 18
-32 19 -9 16 25 -3 25 -3 21 57 -3 34 -12 138 -21 233 l-17 171 27 21 c15 12
30 33 33 46 4 14 13 25 21 25 28 0 53 53 60 133 7 75 7 77 -15 77 -18 0 -21 4
-16 23 3 12 6 30 6 40 0 9 6 17 14 17 11 0 14 36 15 198 l2 198 -46 19 c-42
17 -46 21 -41 46 4 20 0 31 -15 41 -18 11 -19 17 -9 43 14 36 6 68 -22 95 -17
16 -19 23 -10 32 17 17 45 -1 52 -33 7 -28 35 -37 44 -13 7 18 -32 69 -76 100
-34 23 -34 28 -5 41 23 11 67 -2 67 -19 0 -4 4 -8 9 -8 4 0 8 12 9 28 0 15 4
41 7 59 7 32 7 32 -27 27 -46 -8 -77 24 -60 61 6 14 17 25 24 25 9 0 9 -3 0
-12 -19 -19 -14 -28 18 -28 31 0 42 23 18 34 -7 4 -3 4 10 2 38 -7 27 30 -15
51 -44 22 -45 36 -1 43 29 4 33 9 36 38 3 27 -1 35 -18 39 -17 4 -21 12 -17
30 2 13 0 26 -4 29 -13 7 -11 -53 1 -77 12 -21 10 -22 -52 -23 l-38 -1 0 112
c0 82 -3 112 -12 110 -6 -1 -14 7 -16 17 -3 14 0 17 12 13 13 -5 16 1 16 36
l0 43 -35 -4 c-20 -2 -66 5 -103 16 -37 11 -80 23 -95 27 -16 3 -27 11 -24 18
4 12 88 13 196 1 38 -4 56 -2 62 7 11 19 -7 46 -42 65 l-31 16 23 24 c13 14
32 24 44 22 17 -3 20 -10 18 -45 -2 -47 22 -67 44 -37 23 31 15 61 -21 83 -39
24 -51 48 -35 67 12 15 4 34 -16 34 -19 0 -27 30 -10 36 17 7 20 30 5 39 -6 4
-17 1 -25 -5 -17 -14 -52 -4 -64 18 -4 9 -11 34 -15 54 -7 40 -33 62 -60 52
-9 -3 -22 1 -31 9 -18 19 -20 30 -2 24 16 -5 36 22 37 52 0 17 4 22 15 17 11
-4 19 3 25 20 16 40 12 52 -12 47 -13 -2 -34 2 -48 9 -23 13 -24 17 -21 96 l3
82 -79 0 c-75 -1 -77 -1 -57 -18 63 -51 78 -60 90 -55 17 6 17 7 5 -35 -8 -26
-7 -34 5 -39 7 -3 14 -17 14 -32 0 -14 7 -35 15 -45 11 -14 12 -23 4 -33 -27
-32 -63 7 -70 77 -5 40 -41 85 -64 76 -8 -3 -15 -1 -15 5 0 6 -16 27 -35 47
-19 20 -35 40 -35 44 0 4 -57 6 -127 6 -71 -1 -120 -3 -110 -5z m207 -523 c0
-15 39 -18 74 -6 42 15 106 9 106 -9 0 -16 -22 -25 -59 -25 -20 0 -38 -12 -64
-42 -33 -38 -38 -41 -62 -30 -15 7 -25 20 -25 32 0 12 -5 30 -10 41 -14 24 4
61 25 53 8 -4 15 -10 15 -14z m196 -75 c12 -9 43 -14 87 -15 71 0 79 -5 48
-32 -13 -11 -18 -24 -14 -39 4 -16 2 -20 -8 -17 -8 3 -16 13 -17 24 -4 18 -28
44 -43 44 -14 0 -17 -41 -3 -47 8 -3 14 -10 14 -16 0 -7 -4 -7 -12 1 -14 14
-118 17 -118 3 0 -4 5 -22 11 -40 16 -46 3 -50 -31 -10 -35 40 -37 55 -10 62
14 4 20 14 20 35 0 19 8 35 23 45 28 20 29 20 53 2z m-702 -1143 c20 -17 42
-32 49 -32 7 0 21 -13 30 -30 10 -16 30 -35 45 -43 21 -10 27 -19 25 -41 -3
-34 -3 -35 -32 -38 -19 -3 -26 5 -41 42 -13 33 -26 48 -49 58 -25 10 -31 17
-26 32 5 15 -2 24 -27 39 -18 11 -40 26 -48 34 -8 7 -23 17 -32 20 -24 9 -23
27 1 27 11 0 23 5 27 11 4 6 13 -1 23 -18 10 -15 34 -43 55 -61z m854 72 c20
-6 14 -24 -13 -34 -40 -15 -26 -45 25 -52 17 -2 26 -10 28 -27 4 -22 3 -23
-18 -8 -27 19 -50 12 -50 -15 0 -30 -23 -16 -32 20 -10 37 -29 41 -58 12 -24
-24 -29 -24 -54 -5 -26 19 -8 41 46 56 35 9 39 13 35 34 -2 14 1 26 7 28 11 4
58 -1 84 -9z m-41 -276 c16 -13 17 -39 2 -71 -9 -21 -7 -28 17 -52 25 -25 26
-29 11 -40 -21 -15 -22 -39 -3 -58 8 -8 16 -29 18 -48 2 -26 8 -34 22 -34 26
0 45 -30 29 -46 -10 -10 -17 -9 -31 4 -10 9 -28 17 -40 17 -12 0 -23 6 -23 13
-5 49 -29 118 -45 124 -15 6 -20 33 -5 33 13 0 7 75 -7 93 -7 8 -10 22 -6 30
4 12 -2 18 -20 23 -26 6 -32 15 -18 28 9 10 82 -2 99 -16z m2102 -822 c6 -4
19 -2 27 5 8 6 18 9 21 5 4 -4 1 -11 -7 -17 -12 -7 -11 -10 7 -15 13 -4 20
-10 17 -15 -3 -5 -10 -7 -15 -4 -5 4 -9 -1 -9 -10 0 -8 7 -18 15 -21 20 -8 19
-44 -1 -44 -10 0 -14 -6 -11 -14 3 -7 -6 -23 -19 -35 -21 -18 -23 -25 -14 -37
10 -11 9 -14 -4 -14 -9 0 -16 -7 -16 -15 0 -8 -5 -15 -11 -15 -6 0 -9 7 -5 15
8 23 -8 18 -34 -10 l-23 -25 39 -43 c21 -25 49 -50 60 -57 12 -7 28 -23 35
-36 11 -21 10 -27 -6 -42 -17 -16 -18 -16 -11 1 5 16 1 18 -27 16 -28 -3 -41
5 -85 48 -46 45 -52 56 -58 104 -4 39 -2 59 9 73 11 15 12 26 4 47 -8 20 -7
35 2 56 12 27 13 27 27 8 19 -26 18 -31 -8 -40 -20 -6 -21 -8 -5 -12 11 -3 16
-11 13 -19 -4 -11 -2 -12 14 -1 11 6 20 17 20 23 0 7 8 10 20 7 11 -3 20 -1
20 5 0 6 14 13 30 17 27 6 44 35 21 35 -5 0 -7 8 -5 18 2 9 0 24 -5 32 -8 12
-13 12 -23 2 -9 -9 -9 -12 0 -12 7 0 11 -14 10 -35 -1 -35 -20 -48 -32 -22 -5
10 -7 10 -12 0 -8 -18 -31 -16 -38 3 -7 19 2 37 15 29 5 -4 16 0 24 8 12 13
12 15 -5 20 -11 3 -21 -1 -25 -11 -3 -8 -8 -12 -12 -9 -3 4 -14 2 -24 -4 -15
-8 -20 -5 -25 16 -11 45 0 54 59 51 29 -1 59 -6 66 -10z m-290 -346 c20 -17
22 -22 10 -37 -8 -9 -29 -22 -47 -30 l-34 -14 8 -52 c4 -29 7 -79 7 -112 -1
-32 4 -85 11 -117 12 -60 26 -88 18 -38 -4 29 10 41 23 20 4 -6 11 -8 16 -5 5
4 9 -16 9 -45 0 -34 4 -49 11 -45 6 4 8 22 5 44 -7 39 5 68 23 57 6 -4 11 -21
11 -37 0 -18 -4 -28 -10 -24 -6 4 -10 -5 -10 -19 0 -14 5 -26 10 -26 11 0 14
-43 4 -53 -8 -8 -34 18 -34 35 0 10 -3 9 -10 -2 -5 -8 -11 -46 -12 -85 -2 -69
-2 -69 -5 -14 -5 67 -31 101 -62 82 -24 -15 -33 -6 -18 18 10 16 9 21 -2 28
-9 6 -14 24 -13 50 1 23 -3 41 -8 41 -6 0 -10 11 -10 25 0 14 5 25 10 25 6 0
10 9 10 19 0 14 -5 18 -20 14 -18 -5 -19 -2 -13 28 3 19 9 36 12 39 3 3 7 21
8 40 8 147 19 213 33 190 6 -9 11 -8 21 4 18 19 19 19 48 -4z m-223 -563 c13
17 15 17 29 -1 8 -11 15 -14 15 -7 0 7 5 9 11 5 6 -3 15 -1 19 6 13 21 53 -27
45 -53 -4 -12 -7 -30 -8 -39 -1 -9 -5 -14 -9 -12 -14 9 -9 -13 23 -111 20 -60
36 -95 45 -95 8 0 14 -6 15 -12 0 -10 2 -10 6 0 8 20 23 14 23 -10 1 -21 2
-21 13 -6 7 9 24 18 37 20 l25 3 2 -267 c2 -246 -2 -296 -23 -275 -3 3 -7 65
-9 138 -2 74 -6 135 -9 137 -4 2 -12 1 -19 -1 -9 -3 -9 -7 0 -17 9 -10 9 -17
0 -31 -9 -14 -9 -24 -1 -36 14 -24 8 -164 -8 -174 -16 -10 -28 -2 -29 19 0 11
-4 9 -10 -8 -8 -18 -12 -21 -18 -11 -7 10 -10 10 -16 1 -10 -16 -25 6 -25 38
0 12 -4 22 -10 22 -5 0 -10 -13 -10 -30 0 -25 -4 -30 -25 -30 -27 0 -46 27
-27 39 7 4 6 14 -3 31 l-14 25 -1 -36 c0 -38 -23 -79 -37 -66 -9 9 -10 167 -1
207 3 14 13 42 22 63 15 35 15 37 -1 37 -16 1 -16 2 -3 13 17 14 24 37 11 37
-5 0 -4 13 2 29 9 24 8 32 -6 46 -20 19 -21 26 -5 22 6 -1 13 5 15 14 3 12 -4
16 -29 16 -18 0 -36 -5 -40 -11 -5 -8 -11 -7 -19 1 -9 9 -8 21 4 50 16 37 16
37 16 9 1 -24 3 -27 16 -16 8 7 15 9 15 5 0 -5 3 -6 6 -3 3 4 0 17 -8 30 -7
12 -15 61 -18 107 -3 47 -10 86 -16 88 -6 2 -10 -13 -9 -39 0 -24 -4 -56 -11
-72 -11 -28 -11 -28 -16 -5 -5 20 -4 59 1 131 1 3 10 4 21 1 21 -6 25 7 21 72
-1 26 0 28 10 12 10 -18 11 -18 25 0z m-1344 -730 c44 -49 78 -91 75 -93 -2
-2 -24 -7 -48 -10 -24 -3 -48 -10 -53 -15 -6 -5 -23 -9 -38 -9 -15 0 -28 -5
-28 -11 0 -6 -7 -4 -15 5 -12 11 -15 41 -15 137 l0 122 21 -19 c12 -10 57 -59
101 -107z m949 -249 c0 -84 2 -169 4 -188 5 -60 6 -192 2 -197 -3 -2 -13 -6
-22 -7 -9 -1 -20 -8 -24 -15 -5 -8 -11 5 -14 33 -4 25 -15 71 -26 103 -10 32
-22 73 -26 91 -6 28 -4 32 14 32 11 0 23 -4 26 -10 11 -19 22 -10 22 18 0 15
4 87 8 160 6 100 11 132 22 132 10 0 13 -32 14 -152z m562 -23 c-1 -13 5 -16
23 -12 22 4 24 1 24 -37 0 -22 5 -59 11 -81 20 -74 22 -98 10 -91 -7 5 -11 -2
-11 -18 0 -14 5 -26 10 -26 10 0 27 57 21 74 -5 19 9 53 22 53 10 0 13 -11 11
-36 -2 -20 -3 -66 -3 -103 -1 -56 -4 -66 -16 -62 -8 4 -16 20 -16 38 -2 29 -2
28 -9 -9 -5 -27 -8 -32 -9 -15 -1 14 -5 21 -9 15 -9 -13 -23 -16 -100 -19 -48
-2 -65 0 -69 11 -3 8 -12 12 -19 9 -8 -3 -14 -1 -14 3 0 5 7 12 15 15 13 4 14
10 5 26 -6 11 -8 24 -5 29 7 12 -5 41 -16 41 -5 0 -6 -18 -3 -40 4 -25 3 -40
-4 -40 -6 0 -13 6 -15 13 -3 7 -6 5 -6 -5 -1 -10 3 -18 7 -18 4 0 9 -12 10
-26 1 -19 -2 -25 -16 -22 -15 3 -17 14 -15 78 1 41 2 103 3 138 0 55 2 62 20
62 13 0 20 -7 20 -20 0 -11 5 -20 10 -20 6 0 10 9 10 19 0 10 7 22 16 25 16 6
16 8 0 24 -21 24 -20 32 4 32 13 0 20 -7 20 -18 0 -11 9 -27 20 -37 16 -15 22
-15 35 -5 12 10 18 10 30 0 12 -10 15 -10 15 4 0 11 -9 16 -30 16 -25 0 -30 4
-30 24 0 24 15 37 35 32 6 -2 9 -11 8 -21z"/>
<path d="M6592 5798 c-14 -14 -16 -74 -3 -83 5 -3 17 2 25 11 19 18 46 12 46
-10 0 -8 8 -17 18 -20 9 -4 24 -21 32 -39 15 -31 16 -32 85 -33 l70 -2 -40 13
c-26 9 -33 14 -18 14 27 1 41 21 15 21 -11 0 -31 9 -45 20 -29 23 -43 25 -50
8 -6 -18 -17 -5 -32 39 -9 27 -19 37 -30 35 -10 -2 -24 6 -32 17 -16 24 -24
26 -41 9z"/>
<path d="M2630 5338 c0 -51 -3 -134 -6 -185 -4 -86 -3 -93 16 -103 16 -9 25
-8 36 1 13 10 13 15 -1 35 -19 29 -19 133 -1 227 15 76 5 117 -26 117 -16 0
-18 -11 -18 -92z"/>
<path d="M2620 4800 c0 -192 1 -200 20 -200 14 0 22 10 28 32 4 18 15 33 23
34 33 2 38 5 44 23 6 19 -12 71 -25 71 -4 0 -12 -12 -19 -27 -26 -57 -40 10
-41 200 0 53 -3 67 -15 67 -13 0 -15 -29 -15 -200z"/>
<path d="M4194 4925 c-14 -14 -27 -25 -30 -25 -8 0 -64 -60 -64 -68 0 -3 -7
-13 -16 -23 -15 -16 -15 -23 -1 -76 22 -79 45 -142 67 -178 9 -16 23 -48 30
-70 18 -57 21 -60 34 -33 6 12 20 24 31 26 11 2 43 14 71 27 54 25 64 43 64
121 0 19 5 34 10 34 6 0 10 -11 10 -24 0 -35 10 -56 27 -56 11 0 13 5 7 18 -4
9 -9 35 -12 58 -3 35 0 45 27 70 33 31 40 47 16 38 -23 -9 -18 24 6 36 28 15
21 52 -11 61 l-25 7 25 2 c25 1 25 1 3 10 -13 5 -23 13 -23 18 0 20 -99 52
-160 52 -52 0 -65 -4 -86 -25z"/>
<path d="M5430 4905 c-7 -8 -10 -26 -8 -40 3 -15 -1 -30 -9 -37 -9 -7 -12 -21
-8 -36 4 -17 1 -28 -12 -37 -14 -11 -15 -15 -4 -28 7 -9 11 -29 10 -44 -4 -35
6 -52 37 -63 15 -6 22 -15 18 -25 -3 -8 -9 -13 -13 -10 -8 4 -41 -30 -41 -43
0 -5 -10 -19 -22 -32 -12 -13 -22 -35 -23 -48 0 -23 -20 -42 -72 -68 -7 -3
-15 -28 -19 -55 -5 -39 -10 -49 -25 -49 -11 0 -19 7 -19 15 0 18 -16 20 -26 4
-8 -14 -13 -118 -6 -136 8 -23 36 -14 63 18 20 24 30 30 47 25 23 -8 31 -36 9
-36 -17 0 -49 -39 -41 -51 4 -7 10 -6 18 0 7 6 15 9 18 6 2 -3 22 4 44 15 l39
20 7 -42 c11 -73 9 -84 -17 -98 -14 -8 -35 -30 -47 -49 -26 -43 -44 -58 -78
-66 -16 -4 -31 -19 -42 -43 -16 -35 -21 -38 -53 -34 -22 3 -45 -2 -60 -12 -29
-19 -34 -56 -7 -56 24 -1 55 -26 47 -39 -3 -6 -8 -30 -10 -54 -23 -226 -36
-307 -51 -307 -8 0 -14 -3 -15 -7 -5 -70 -4 -153 2 -153 9 0 14 16 30 100 l13
65 13 -85 c7 -47 16 -129 19 -183 4 -54 9 -95 12 -93 3 3 20 -8 38 -24 18 -16
61 -39 94 -51 67 -24 67 -22 43 -109 -4 -14 -7 -137 -8 -275 0 -184 -4 -256
-13 -272 -7 -13 -11 -23 -8 -23 2 0 0 -15 -5 -34 -7 -24 -5 -43 5 -68 10 -22
15 -65 14 -119 -1 -67 7 -117 38 -244 30 -125 39 -179 39 -248 0 -76 3 -90 19
-103 26 -19 76 -19 76 0 0 21 10 25 79 31 96 8 107 24 39 55 -32 13 -37 19
-21 19 12 1 25 -3 28 -9 12 -19 25 -10 25 17 0 14 -7 34 -15 43 -12 13 -17 50
-21 141 -4 82 -13 148 -26 194 -11 39 -22 87 -24 108 -2 22 -8 45 -15 53 -10
12 -9 13 5 8 14 -5 16 -2 11 19 -6 21 1 33 35 66 l41 40 -21 30 c-13 16 -20
33 -17 38 3 5 13 42 21 82 13 64 102 258 113 247 2 -2 11 -49 18 -105 14 -98
23 -639 12 -658 -3 -5 -11 -103 -17 -218 -13 -236 -24 -315 -46 -315 -8 0 -14
-10 -14 -24 0 -37 18 -76 34 -76 9 0 12 -7 9 -20 -4 -13 1 -26 13 -35 22 -17
80 -20 89 -5 4 6 21 8 41 4 29 -5 34 -4 34 13 0 11 -10 25 -22 31 -18 8 -19
11 -5 11 10 1 17 9 17 21 0 11 6 20 13 20 8 0 7 4 -3 10 -11 7 -7 10 18 10 17
0 32 1 33 3 0 1 6 45 14 97 7 52 20 113 28 135 19 50 30 177 28 314 -1 58 3
107 8 110 5 3 11 30 13 60 5 52 4 54 -44 103 -27 28 -47 52 -44 55 2 3 24 -15
47 -38 l43 -43 18 109 c10 61 17 124 16 140 l-3 30 -17 -35 c-14 -28 -18 -31
-18 -13 0 12 4 24 9 27 4 3 14 34 21 68 7 35 15 57 17 51 5 -15 53 -18 53 -4
0 5 -9 28 -19 52 -19 44 -19 45 3 134 19 73 20 91 9 93 -10 3 -9 9 6 30 10 15
22 37 25 50 7 21 5 22 -43 22 -58 0 -50 -19 -76 179 -12 91 -12 116 -2 123 9
6 8 8 -3 8 -8 0 -21 9 -28 20 -11 18 -10 20 13 20 22 0 25 4 25 39 0 24 -5 41
-14 44 -8 3 -21 21 -29 39 -16 35 -40 187 -39 252 0 29 -2 36 -10 25 -8 -11
-9 -10 -4 3 3 10 -1 30 -9 45 -8 16 -32 66 -53 113 -42 92 -80 145 -112 153
-15 4 -20 0 -20 -15 0 -12 -4 -17 -12 -12 -7 4 -8 3 -4 -5 4 -6 11 -9 16 -6
10 6 17 -18 24 -85 2 -25 22 -97 45 -160 39 -111 52 -162 32 -131 -5 8 -10 9
-12 3 -3 -7 -12 -5 -24 5 -20 15 -20 15 3 8 12 -3 22 -3 22 2 -2 24 -50 148
-64 162 -16 15 -16 12 -11 -44 4 -33 8 -71 11 -85 4 -19 2 -22 -6 -10 -5 8
-10 26 -11 40 -1 21 -2 22 -7 5 -3 -14 -9 -5 -21 35 -23 78 -113 250 -149 283
-18 18 -28 35 -25 46 5 19 -79 101 -103 101 -8 0 -14 4 -14 10 0 16 44 22 74
10 25 -9 28 -8 21 7 -3 10 -8 41 -11 68 -3 43 -1 39 14 -27 18 -78 41 -124 28
-59 -3 19 -9 64 -12 100 l-6 66 40 23 c22 12 46 22 54 22 8 0 20 11 26 25 6
14 16 25 22 25 16 0 36 22 44 48 5 14 15 22 30 22 12 0 37 11 56 25 19 14 42
25 52 25 23 0 34 26 19 43 -7 9 -7 24 0 51 7 26 7 41 0 50 -6 8 -7 23 -2 42 7
21 10 24 11 9 1 -11 4 -15 6 -8 3 6 -2 25 -10 42 -18 34 -21 54 -5 31 8 -11 9
-6 7 23 -2 20 -1 37 4 37 10 0 -3 33 -16 42 -6 4 -19 8 -30 8 -18 0 -19 -6 -1
-55 4 -11 3 -16 -2 -10 -4 6 -17 15 -28 21 -11 6 -21 23 -23 38 -4 32 -33 35
-105 10 -39 -13 -50 -23 -69 -63 l-24 -47 -30 18 c-36 22 -37 42 -1 46 19 2
27 9 27 23 0 14 -6 19 -17 17 -27 -4 -70 29 -56 43 8 8 3 20 -19 45 -34 37
-58 43 -78 19z m109 -1010 c15 -7 34 -22 42 -32 13 -17 13 -17 -5 -3 -18 14
-18 14 -7 -5 7 -11 23 -38 36 -60 23 -37 25 -38 26 -15 1 22 3 20 19 -15 11
-22 17 -49 14 -60 -4 -15 -3 -16 4 -6 7 10 13 4 22 -25 9 -27 10 -39 2 -42 -7
-2 -9 -16 -5 -35 6 -29 5 -31 -11 -18 -9 8 -15 20 -12 28 3 8 -2 13 -13 13
-14 0 -20 10 -25 44 -5 31 -11 43 -23 42 -10 0 -26 19 -43 51 -42 80 -78 123
-103 123 -21 -1 -21 -1 -3 -15 19 -14 18 -15 -12 -26 -71 -24 -72 -123 -2
-147 32 -12 90 1 90 20 0 5 5 6 10 3 6 -3 10 -15 10 -25 0 -19 -6 -19 -97 -14
-115 7 -133 19 -133 89 0 53 31 102 84 131 43 24 88 24 135 -1z"/>
<path d="M1557 4721 c-11 -95 -9 -273 3 -266 5 3 12 -7 15 -22 14 -65 24 -68
24 -8 1 33 6 77 12 98 8 32 13 36 25 26 8 -6 14 -24 14 -39 0 -62 11 -90 36
-90 13 0 24 5 24 10 0 6 -4 10 -8 10 -4 0 -8 9 -8 20 0 27 5 26 49 -15 33 -31
67 -46 67 -30 0 3 -11 22 -24 43 -12 20 -36 80 -51 132 -34 116 -41 132 -50
108 -4 -10 -11 -15 -16 -12 -5 3 -9 -3 -9 -13 -1 -15 -4 -14 -22 7 -20 24 -20
24 -14 3 5 -14 3 -23 -3 -23 -6 0 -11 5 -11 10 0 6 -6 10 -14 10 -8 0 -17 19
-22 53 l-10 52 -7 -64z"/>
<path d="M9360 4170 c-267 -8 -199 -11 300 -15 305 -3 418 -1 400 7 -28 12
-400 16 -700 8z"/>
<path d="M4716 3948 c-3 -7 -11 -35 -20 -62 -20 -61 -20 -66 -2 -66 8 0 19
-14 25 -31 14 -40 14 -52 1 -44 -6 4 -8 10 -6 13 2 4 -4 19 -15 32 -22 30 -23
22 -4 -49 14 -55 9 -90 -25 -178 -6 -15 -5 -23 3 -26 9 -3 7 -10 -5 -23 -16
-18 -22 -37 -19 -60 0 -6 15 -17 32 -24 17 -7 27 -16 22 -19 -4 -3 -9 -22 -11
-41 -4 -55 -5 -60 -13 -60 -4 0 -6 -9 -4 -20 2 -11 0 -20 -5 -20 -4 0 -7 -8
-6 -17 2 -10 -1 -20 -5 -23 -5 -3 -9 -20 -11 -38 -1 -18 -5 -32 -8 -32 -8 0
-6 -57 2 -65 3 -3 5 5 5 17 1 46 3 49 22 43 11 -3 23 0 27 6 5 8 3 9 -6 4 -10
-6 -11 -4 -5 11 4 10 9 35 11 54 6 56 7 60 16 60 5 0 6 5 2 12 -5 7 -3 8 5 3
7 -4 11 -16 8 -26 -3 -11 -1 -17 4 -13 12 7 11 -3 -1 -27 -6 -11 -7 -18 -1
-17 5 2 8 -1 8 -7 -1 -5 -8 -9 -14 -9 -8 1 -6 -8 6 -25 19 -27 18 -56 -1 -45
-7 4 -8 2 -4 -5 4 -6 4 -17 -1 -24 -10 -15 -10 -38 0 -55 10 -15 -16 -27 -35
-16 -11 6 -11 5 0 -8 7 -9 9 -18 5 -20 -4 -3 -2 -3 6 -1 7 2 20 -2 27 -8 20
-16 38 -1 22 19 -11 13 -10 15 5 9 13 -5 16 -3 10 6 -4 6 -8 22 -9 35 -1 17 3
21 14 17 11 -4 12 -2 5 7 -13 18 -11 50 5 55 6 3 12 0 12 -7 0 -6 -4 -8 -10
-5 -5 3 -10 1 -10 -4 0 -6 9 -11 21 -11 14 0 19 -5 16 -14 -3 -8 1 -17 10 -20
12 -5 14 -1 11 19 -3 14 -1 25 3 25 5 0 9 -6 9 -12 1 -18 58 49 82 97 26 50
27 52 36 38 5 -8 14 -7 29 5 17 13 24 32 29 73 6 56 6 56 -25 67 -33 12 -35
19 -33 122 1 42 0 43 -9 17 -6 -15 -14 -25 -17 -23 -4 2 -8 -9 -9 -24 -2 -23
1 -28 15 -23 13 4 12 0 -5 -18 -18 -18 -25 -21 -35 -11 -7 7 -33 12 -60 12
-41 0 -47 -2 -42 -17 5 -15 4 -16 -5 -3 -16 22 -13 60 5 67 8 3 13 11 10 19
-3 7 0 15 7 18 8 3 6 5 -3 5 -12 1 -15 13 -13 53 l2 53 -10 -39 c-14 -59 -21
-58 -13 3 4 32 3 56 -3 60 -6 3 -7 14 -2 26 6 16 8 17 8 3 1 -9 5 -19 10 -23
6 -3 9 18 9 50 -1 30 -3 55 -4 55 -2 0 -8 -15 -13 -32 -6 -21 -10 -26 -10 -13
-1 11 -13 31 -26 44 -14 12 -22 27 -19 32 3 5 0 9 -5 9 -6 0 -11 7 -11 15 0 8
4 15 9 15 5 0 8 14 7 30 -2 21 2 30 13 30 11 0 11 3 -4 13 -10 8 -15 19 -11
25 4 7 5 12 1 12 -3 0 -7 -6 -9 -12z"/>
<path d="M4970 3880 c0 -23 -5 -31 -25 -36 -27 -7 -29 -15 -19 -101 4 -33 12
-53 19 -53 24 0 35 -65 13 -73 -8 -2 -7 -3 2 -3 9 1 16 13 18 34 2 19 9 32 17
32 11 0 12 6 5 26 -15 38 -12 65 8 80 14 11 14 15 3 23 -15 10 -5 35 28 65 27
25 18 36 -30 36 -37 0 -39 -2 -39 -30z"/>
<path d="M9587 3483 c-4 -3 -7 -15 -7 -25 0 -32 -51 -103 -65 -90 -5 4 -5 -1
-2 -10 4 -12 2 -15 -10 -11 -12 5 -14 1 -8 -16 6 -20 5 -22 -13 -12 -32 17
-35 -4 -7 -37 14 -16 25 -35 25 -41 0 -6 7 -11 15 -11 8 0 15 -5 15 -11 0 -5
-4 -7 -10 -4 -17 10 -11 -9 11 -35 14 -17 19 -19 15 -7 -3 9 -1 28 4 42 7 19
6 25 -4 25 -9 0 -12 7 -9 19 3 12 11 17 19 14 8 -3 14 0 14 7 0 6 5 8 10 5 7
-4 7 -11 2 -18 -13 -17 -22 -58 -11 -51 5 3 9 13 9 22 0 14 1 14 13 0 18 -24
53 -32 60 -14 4 11 1 13 -10 9 -11 -4 -14 -2 -11 8 2 7 13 16 24 19 13 3 19
14 19 33 1 26 -14 40 -16 15 0 -7 -5 -1 -11 15 -5 15 -14 27 -19 27 -16 0 -10
-23 12 -46 l21 -23 -21 -13 c-12 -7 -21 -18 -21 -25 0 -7 -5 -13 -11 -13 -5 0
-9 8 -8 18 3 37 -1 63 -11 57 -15 -10 -12 22 4 38 11 11 12 17 3 26 -9 9 -8
14 3 21 11 7 11 10 2 10 -7 0 -15 -8 -18 -17 -3 -10 -10 -26 -15 -35 -5 -10
-9 -27 -9 -38 0 -28 -16 -17 -22 15 -4 16 0 29 9 34 8 4 15 11 15 14 0 29 13
47 34 47 19 0 24 -5 24 -25 0 -14 4 -25 9 -25 5 0 7 9 4 20 -3 13 0 20 9 20 7
0 14 10 15 21 2 21 1 21 -12 3 -13 -18 -14 -18 -21 -1 -4 11 -13 16 -21 12
-12 -4 -14 1 -11 20 6 27 5 29 -5 18z"/>
<path d="M4769 2903 c-1 -5 -2 -12 -4 -18 -1 -5 -3 -16 -3 -23 -1 -8 -7 -10
-14 -6 -10 6 -10 5 -1 -7 10 -12 9 -20 -3 -37 -8 -12 -21 -19 -28 -16 -19 7
-32 -16 -15 -27 10 -6 11 -9 2 -9 -17 0 -17 -36 0 -43 7 -2 23 4 36 14 13 11
20 19 17 19 -4 0 3 10 14 22 17 18 23 20 30 9 7 -12 16 -12 53 -1 41 11 45 15
42 39 -1 14 -4 40 -5 56 -2 30 -2 30 -10 5 -4 -14 -8 -20 -9 -14 -2 20 -54 27
-67 9 -11 -14 -12 -14 -19 2 -5 10 -7 21 -7 26 1 4 0 7 -3 7 -3 0 -6 -3 -6 -7z"/>
<path d="M9479 2683 c-7 -34 -5 -82 2 -71 7 10 9 10 9 -2 0 -28 -12 -60 -20
-55 -20 12 -18 -15 2 -29 12 -9 19 -19 15 -23 -4 -3 -13 -1 -19 5 -7 7 -16 12
-22 12 -6 0 -5 -5 2 -12 16 -16 16 -42 0 -32 -8 5 -9 2 -5 -10 4 -10 7 -21 7
-26 0 -4 7 -10 15 -13 11 -5 12 -1 5 18 -10 25 12 57 25 35 3 -5 3 -10 -2 -10
-4 0 -2 -4 5 -8 16 -11 24 -50 11 -57 -5 -4 -9 -15 -9 -26 0 -11 -4 -18 -9
-15 -5 4 -12 0 -14 -6 -4 -10 -8 -9 -16 2 -19 28 -26 -19 -6 -52 12 -22 14
-33 6 -41 -15 -15 -14 -27 4 -27 24 0 23 54 -2 83 -9 9 -11 17 -5 17 6 0 17 3
25 6 12 4 15 -1 12 -22 -1 -15 1 -40 5 -56 6 -20 5 -28 -4 -28 -16 0 -46 -66
-34 -78 6 -6 3 -15 -6 -25 -18 -18 -21 -37 -6 -37 6 0 10 5 10 10 0 6 11 8 26
4 17 -4 29 -2 35 7 7 12 10 12 21 0 10 -10 10 -12 1 -7 -8 4 -13 2 -13 -6 0
-9 -10 -13 -30 -12 -16 1 -30 -3 -30 -8 0 -6 -7 -7 -16 -4 -10 4 -14 1 -11 -6
2 -8 18 -12 38 -10 l34 2 -37 -17 c-21 -10 -38 -24 -38 -31 0 -7 5 -10 11 -6
8 5 8 1 0 -14 -16 -30 -14 -34 10 -22 13 8 18 17 14 28 -4 11 3 8 20 -8 19
-18 28 -21 34 -12 5 8 8 -3 9 -28 2 -35 -2 -42 -33 -62 -19 -13 -35 -26 -35
-29 0 -4 15 -9 33 -11 26 -3 33 0 33 14 0 10 -4 18 -8 18 -4 0 -8 -5 -8 -12 0
-6 -3 -8 -7 -5 -3 4 3 16 15 27 16 15 22 33 22 60 0 40 15 54 27 24 6 -16 7
-15 19 0 6 9 10 27 7 39 -4 18 -3 19 6 7 9 -12 10 -10 6 11 -4 17 -1 30 9 38
12 10 16 10 16 2 0 -7 4 -10 9 -6 13 7 26 -16 14 -24 -6 -3 -13 -16 -17 -28
-4 -13 -12 -23 -17 -23 -5 0 -9 -7 -9 -16 0 -11 5 -14 18 -9 9 4 34 9 54 12
21 3 35 9 32 14 -2 4 -12 5 -21 2 -12 -5 -15 -2 -10 10 3 9 2 17 -3 17 -6 0
-10 11 -10 25 0 19 5 25 17 23 12 -2 18 4 19 20 1 12 5 26 9 30 8 8 -1 -65
-12 -94 -5 -14 -3 -16 11 -11 9 4 15 3 12 -2 -3 -4 3 -16 14 -26 17 -16 20
-16 20 -2 0 8 3 17 8 20 4 2 2 2 -5 1 -12 -3 -27 25 -18 34 3 3 5 -1 5 -8 0
-11 3 -11 12 -2 10 10 10 15 -2 22 -11 7 -3 10 28 10 28 0 41 4 37 11 -5 7 5
8 32 3 36 -7 37 -6 23 11 -9 12 -10 16 -2 11 9 -6 11 -1 8 19 -4 21 -2 24 8
16 7 -6 15 -9 18 -6 8 8 -3 55 -13 55 -5 0 -9 5 -9 11 0 8 4 9 13 0 17 -13 27
-4 26 23 0 12 -3 15 -6 9 -6 -15 -33 -17 -33 -3 0 9 31 30 44 30 3 0 6 -7 6
-15 0 -8 8 -15 18 -14 10 0 12 3 5 6 -7 2 -13 14 -13 25 0 14 -5 18 -15 14 -8
-3 -15 -1 -15 5 0 6 -4 7 -10 4 -5 -3 -10 3 -10 14 0 12 7 21 16 21 19 0 44
24 44 42 0 8 5 19 12 26 9 9 8 12 -4 12 -9 0 -19 -10 -23 -22 -8 -23 -8 -23
-12 2 -3 14 -10 29 -17 33 -6 4 1 5 17 1 17 -4 27 -2 27 5 0 6 -5 11 -11 11
-8 0 -10 12 -6 34 5 33 5 34 -13 19 -10 -9 -16 -23 -12 -31 3 -10 1 -13 -7 -8
-6 4 -11 4 -10 -1 1 -4 -1 -21 -6 -36 -4 -18 -3 -38 4 -54 11 -24 11 -25 -5
-12 -10 8 -15 9 -11 2 10 -15 -3 -45 -17 -40 -6 2 -12 9 -12 15 -1 7 -2 17 -3
22 0 6 -10 10 -21 10 -22 0 -25 -17 -11 -67 6 -21 5 -35 -2 -42 -9 -9 -8 -14
3 -22 12 -8 12 -12 2 -16 -10 -4 -9 -8 5 -18 10 -7 22 -10 28 -5 9 7 12 -22 7
-68 -3 -20 -27 -8 -28 14 -2 31 -8 49 -19 56 -5 4 -10 13 -11 20 0 7 -2 22 -2
32 -2 18 -3 18 -22 1 -17 -15 -20 -16 -25 -2 -4 8 -14 13 -25 10 -13 -3 -21 3
-28 24 l-10 28 -1 -30 c-1 -21 -4 -26 -10 -16 -5 7 -14 10 -20 6 -7 -4 -18 -1
-26 5 -12 10 -15 9 -15 -9 0 -13 -4 -19 -10 -16 -6 4 -8 11 -5 16 4 5 -1 16
-9 25 -14 14 -14 18 2 39 11 15 23 22 35 19 14 -4 17 1 17 25 0 21 -5 31 -15
31 -8 0 -15 -4 -15 -10 0 -5 6 -10 12 -10 7 0 2 -7 -11 -16 -13 -9 -34 -16
-47 -16 -13 0 -24 -4 -24 -9 0 -4 -12 -21 -27 -36 l-26 -28 6 25 c4 14 7 29 7
34 0 4 7 6 15 2 11 -4 15 2 15 25 0 27 2 29 20 19 29 -15 26 5 -5 32 -19 16
-22 24 -13 35 6 7 19 11 29 8 11 -4 19 -2 19 4 0 6 -5 11 -11 11 -6 0 -8 7 -5
15 3 10 -1 19 -12 23 -9 4 -17 14 -17 22 0 8 -8 16 -19 18 -13 3 -16 0 -10
-10 11 -16 12 -78 2 -71 -5 2 -8 13 -8 24 0 11 -3 18 -7 16 -5 -3 -9 15 -11
41 -3 40 -1 44 13 32 12 -10 19 -10 27 -2 20 20 31 13 24 -13 -4 -14 -2 -25 4
-25 5 0 10 7 10 15 0 8 5 15 12 15 6 0 8 3 5 7 -4 3 -1 13 6 21 10 13 9 15 -5
10 -12 -5 -18 1 -23 20 -4 15 -10 21 -12 15 -3 -7 -9 -13 -14 -13 -6 0 -5 8 1
20 11 20 -3 30 -15 10 -10 -16 -35 -12 -35 6 0 8 4 12 10 9 6 -3 7 1 4 9 -6
16 -33 22 -35 9z"/>
<path d="M0 2080 l0 -410 43 1 c23 1 53 4 67 8 14 4 36 4 50 -1 13 -5 36 -6
50 -3 23 6 24 7 7 20 -13 9 -15 15 -7 20 9 6 9 9 0 15 -9 6 -7 18 7 51 15 34
19 65 18 134 -1 50 -2 199 -3 333 l-2 242 -115 0 -115 0 0 -410z"/>
<path d="M9560 1940 c1 -14 1 -27 0 -30 -1 -3 -3 -25 -4 -49 -1 -25 -8 -47
-14 -49 -16 -5 -15 -29 1 -35 10 -4 10 -6 0 -6 -10 -1 -13 -27 -13 -96 l0 -95
-39 0 c-39 0 -40 1 -44 38 -2 20 -4 8 -3 -27 0 -35 3 -56 6 -46 9 26 23 2 16
-28 -3 -12 -3 -16 0 -9 9 19 24 14 24 -8 0 -18 10 -25 33 -21 4 1 39 2 77 2
39 1 67 5 64 10 -3 5 -10 7 -15 4 -5 -4 -9 -1 -9 5 0 6 11 8 26 6 23 -4 25 -2
20 17 -4 18 -1 23 14 23 10 0 16 -5 12 -10 -3 -6 -7 -22 -8 -36 -2 -25 -2 -25
8 -2 7 14 20 22 36 22 21 0 23 3 17 27 -9 37 -12 39 -35 25 -14 -8 -27 -9 -45
-2 -36 14 -54 12 -34 -3 8 -7 18 -20 22 -31 6 -16 3 -18 -20 -13 -18 3 -31 0
-40 -11 -11 -15 -12 -14 -11 10 1 15 5 25 9 22 4 -2 10 3 13 12 9 23 8 24 -11
17 -12 -5 -15 -2 -10 10 4 10 0 18 -12 22 -10 3 -27 16 -37 28 -10 12 -15 19
-10 14 13 -10 57 33 49 47 -4 6 2 4 12 -4 10 -8 28 -15 39 -15 12 0 20 -5 19
-12 -4 -19 34 -25 64 -11 52 25 35 74 -36 104 -40 17 -44 17 -35 3 4 -7 1 -10
-7 -7 -8 3 -14 10 -14 15 0 6 -12 21 -27 33 -16 12 -28 17 -28 11 0 -6 6 -11
13 -11 9 0 8 -3 -2 -9 -11 -7 -9 -10 8 -16 15 -4 21 -15 21 -36 0 -26 -2 -29
-19 -19 -17 9 -20 6 -23 -17 -5 -39 -23 -38 -25 2 -2 26 1 35 12 35 21 0 19
16 -7 42 -17 17 -18 20 -4 15 13 -5 17 -3 13 7 -3 9 -2 43 4 77 7 45 7 65 -1
73 -9 8 -11 4 -10 -14z"/>
<path d="M4470 1368 c0 -4 -6 -8 -14 -8 -29 0 -39 -31 -40 -124 -2 -92 -2 -95
-36 -134 -27 -31 -43 -41 -67 -41 -47 -1 -66 8 -52 25 9 11 8 14 -4 14 -27 0
-37 24 -22 53 11 22 11 27 1 27 -13 0 -30 -49 -28 -80 0 -8 -4 -22 -9 -32 -13
-25 17 -38 85 -38 52 0 56 -2 56 -24 0 -13 9 -35 20 -49 11 -14 20 -27 20 -30
0 -8 -54 -20 -82 -18 -51 4 -37 -17 15 -22 79 -9 91 -11 98 -20 4 -5 15 -4 25
1 11 5 32 16 47 23 15 7 26 18 23 25 -3 7 3 16 13 19 10 3 28 16 41 30 23 24
23 29 21 192 -1 92 -6 174 -11 183 -6 9 -10 10 -10 3 0 -10 -6 -10 -25 -1 -16
7 -21 14 -14 18 6 4 -3 9 -20 12 -17 2 -31 1 -31 -4z"/>
<path d="M5502 1344 c-12 -8 -22 -20 -22 -25 0 -6 -16 -35 -36 -64 -21 -33
-34 -63 -32 -77 3 -22 8 -23 91 -26 106 -3 118 3 106 56 -7 31 -4 43 16 73 31
44 31 53 0 67 -36 17 -97 15 -123 -4z"/>
<path d="M3026 1131 c-3 -5 -1 -11 6 -13 7 -3 9 -12 4 -24 -7 -18 -8 -18 -27
6 l-20 25 6 -24 c5 -15 2 -27 -6 -33 -11 -8 -10 -9 4 -4 11 3 17 0 17 -9 0
-11 -12 -15 -47 -14 -35 1 -41 3 -23 8 16 4 26 14 27 29 2 12 -2 22 -7 22 -6
0 -10 -9 -10 -20 0 -11 -7 -20 -16 -20 -10 0 -13 6 -9 19 5 16 1 18 -22 13
-25 -5 -25 -6 -8 -13 19 -8 19 -8 -2 -15 -13 -3 -23 -10 -23 -15 0 -5 7 -6 15
-3 9 4 15 0 15 -10 0 -9 -4 -16 -10 -16 -5 0 -10 -7 -10 -15 0 -8 7 -15 15
-15 8 0 14 -5 13 -11 -2 -6 6 -16 17 -22 11 -7 22 -13 25 -15 2 -2 -2 -7 -10
-12 -10 -6 -4 -9 18 -8 29 1 60 18 33 18 -21 0 -11 18 14 24 36 9 62 42 63 81
2 39 -12 47 -22 13 -5 -19 -8 -20 -16 -8 -6 10 -4 21 10 35 16 17 17 23 5 38
-7 10 -16 14 -19 8z"/>
<path d="M8218 993 c-10 -2 -18 -9 -18 -14 0 -5 -42 -9 -94 -9 -108 0 -186 -9
-186 -21 0 -5 15 -9 34 -9 18 0 53 -7 77 -16 28 -9 59 -13 84 -9 22 3 96 8
165 11 137 6 173 13 125 24 -16 4 -47 8 -67 9 -20 0 -41 7 -45 15 -9 16 -49
26 -75 19z"/>
</g>
</svg>
