<?xml version="1.0" standalone="no"?>
<!DOCTYPE svg PUBLIC "-//W3C//DTD SVG 20010904//EN"
 "http://www.w3.org/TR/2001/REC-SVG-20010904/DTD/svg10.dtd">
<svg version="1.0" xmlns="http://www.w3.org/2000/svg"
 width="910.000000pt" height="512.000000pt" viewBox="0 0 910.000000 512.000000"
 preserveAspectRatio="xMidYMid meet">
<metadata>
Created by potrace 1.16, written by Peter Selinger 2001-2019
</metadata>
<g transform="translate(0.000000,512.000000) scale(0.100000,-0.100000)"
fill="#000000" stroke="none">
<path d="M515 3355 c-20 -19 -25 -34 -25 -74 0 -44 -4 -52 -32 -75 -55 -43
-68 -59 -68 -78 0 -15 4 -16 27 -7 23 9 30 6 55 -21 25 -28 33 -31 80 -28 32
2 52 8 54 16 1 7 0 8 -3 2 -2 -5 -27 -10 -53 -10 -38 0 -54 5 -70 22 -26 28
-25 32 5 52 14 9 25 22 25 30 0 7 11 18 25 24 14 7 28 19 31 27 4 8 15 15 25
15 24 0 79 39 79 56 0 6 8 15 18 19 15 6 14 9 -11 31 -41 35 -127 35 -162 -1z"/>
<path d="M5240 3293 c-30 -25 -32 -30 -26 -72 3 -25 11 -50 17 -56 8 -7 10 -3
7 15 -2 17 2 26 15 28 13 3 17 -3 17 -28 0 -18 4 -29 10 -25 6 3 10 15 10 25
0 10 9 22 20 25 11 3 20 13 20 21 0 16 9 18 44 4 58 -22 37 39 -24 70 -52 27
-72 25 -110 -7z"/>
<path d="M5984 3293 c-12 -2 -30 -13 -40 -24 -15 -17 -16 -24 -5 -60 10 -32
16 -39 31 -34 15 5 19 0 22 -22 3 -26 7 -28 51 -31 44 -3 48 -1 58 25 6 15 12
45 12 66 1 31 -4 44 -26 63 -27 23 -52 27 -103 17z"/>
<path d="M7871 3266 c-29 -16 -50 -52 -51 -87 0 -15 -7 -46 -15 -70 -9 -24
-13 -49 -10 -57 3 -10 -1 -12 -18 -8 l-22 6 22 -11 c15 -8 25 -25 29 -48 9
-56 14 -61 10 -9 -3 44 -2 47 16 37 24 -13 33 -6 20 16 -5 10 -6 35 -1 58 4
22 4 47 1 55 -3 10 0 13 9 10 8 -3 22 2 32 10 12 11 33 15 62 13 36 -2 45 1
45 14 0 30 -21 56 -55 71 -41 17 -44 17 -74 0z"/>
<path d="M3693 3240 c-33 -14 -73 -98 -61 -131 12 -37 44 -27 65 20 8 20 17
30 20 24 3 -7 9 -13 14 -13 4 0 5 8 2 18 -6 15 -5 15 10 3 14 -11 17 -11 18 0
0 8 5 1 10 -16 5 -16 7 -40 4 -51 -3 -12 1 -27 9 -33 11 -9 16 -5 25 20 24 69
5 134 -45 155 -38 16 -41 16 -71 4z"/>
<path d="M8512 3221 c-12 -16 -27 -51 -33 -78 -7 -26 -16 -53 -20 -59 -5 -6 6
-14 31 -21 37 -10 39 -9 28 10 -6 12 -8 39 -4 66 4 25 7 51 8 58 1 8 15 6 47
-6 41 -15 46 -20 49 -50 4 -34 -14 -91 -28 -91 -5 0 -2 -21 6 -47 8 -26 12
-55 8 -65 -3 -12 0 -18 10 -18 10 0 13 6 10 15 -4 10 0 15 14 15 20 0 21 5 19
125 -3 125 -3 126 -31 150 -41 35 -86 33 -114 -4z"/>
<path d="M1110 3101 c-7 -6 -26 -56 -41 -113 -14 -57 -34 -134 -44 -171 -16
-59 -16 -70 -4 -78 26 -17 53 -5 61 26 10 43 44 134 53 143 9 9 0 -78 -14
-133 -6 -22 -11 -43 -11 -47 0 -7 72 -48 85 -48 3 0 5 16 5 35 0 19 9 67 19
107 26 95 27 119 11 205 -12 67 -15 71 -43 77 -40 8 -59 7 -77 -3z"/>
<path d="M5116 3081 c-14 -5 -16 -10 -8 -15 8 -5 12 -43 12 -114 0 -110 7
-139 33 -129 17 7 27 59 27 155 0 101 -13 123 -64 103z"/>
<path d="M355 3036 c-5 -32 -1 -62 16 -115 l23 -71 55 6 c68 8 119 28 127 49
7 18 78 57 88 48 3 -4 6 -19 6 -35 0 -15 5 -28 11 -28 14 0 1 59 -17 77 -7 7
-15 22 -19 33 -8 25 -59 33 -187 28 l-97 -3 6 28 c3 15 3 27 0 27 -3 0 -9 -20
-12 -44z"/>
<path d="M5950 3060 c-13 -8 -12 -10 4 -10 26 0 103 -46 114 -68 6 -11 3 -44
-9 -92 -10 -41 -21 -95 -24 -120 -3 -25 -8 -61 -11 -80 l-6 -35 -24 48 c-13
26 -29 47 -34 47 -5 0 5 -27 23 -59 l32 -59 -22 -31 c-13 -16 -23 -39 -23 -50
0 -32 -11 -51 -30 -51 -39 0 -36 54 3 70 17 7 18 9 5 9 -19 1 -48 -35 -48 -60
0 -9 -13 -41 -30 -72 -16 -31 -30 -59 -30 -61 0 -10 90 -38 104 -33 26 10 50
70 52 131 2 33 8 70 15 82 l12 23 42 -34 c39 -32 48 -35 108 -35 l66 0 4 -82
3 -83 2 96 c2 93 3 96 33 125 31 29 31 30 26 108 -3 46 -1 86 5 95 21 33 -8
94 -72 154 -45 43 -60 63 -60 84 0 18 -8 33 -21 42 -19 11 -21 11 -15 -4 20
-52 18 -62 -11 -68 -21 -4 -35 1 -58 22 -63 59 -94 71 -125 51z"/>
<path d="M6901 3047 c-6 -6 -11 -16 -11 -23 0 -6 -18 -19 -39 -27 -22 -9 -42
-21 -45 -26 -4 -6 -9 -39 -11 -74 -2 -35 -9 -76 -15 -91 -13 -34 -14 -67 -1
-48 5 9 10 1 14 -26 10 -61 54 -132 82 -132 39 0 41 34 5 88 -25 38 -31 54
-26 82 3 19 10 67 16 105 18 121 30 162 48 163 79 4 84 -28 27 -168 -43 -103
-45 -113 -33 -145 l12 -35 14 33 c7 17 11 42 9 54 -2 14 0 20 9 16 21 -8 69
105 68 165 0 28 4 52 8 52 4 0 7 12 7 28 -2 23 -2 24 -6 5 -5 -25 -13 -29 -30
-12 -17 17 -90 28 -102 16z"/>
<path d="M3556 3037 c-50 -14 -75 -49 -126 -172 -44 -104 -47 -145 -10 -145
10 0 21 -4 24 -9 3 -4 -11 -59 -31 -121 -29 -91 -33 -114 -22 -121 9 -5 20 -2
32 9 10 9 17 12 16 7 -2 -6 1 -20 5 -33 5 -14 1 -50 -8 -90 -13 -52 -15 -81
-7 -132 5 -36 7 -68 5 -72 -3 -4 5 -43 16 -86 23 -88 27 -147 15 -204 -9 -44
5 -68 41 -68 26 0 60 42 49 60 -10 16 4 62 16 54 6 -3 9 -20 8 -38 -4 -65 1
-115 14 -119 6 -2 3 -3 -8 -1 -11 2 -152 4 -312 4 l-293 0 6 48 c3 26 12 85
21 132 8 47 17 114 19 150 3 36 10 93 16 128 6 35 8 65 6 68 -3 2 -16 0 -30
-5 -21 -8 -24 -14 -20 -40 3 -25 0 -32 -22 -42 -14 -7 -28 -10 -31 -7 -3 2 -7
83 -9 179 -2 96 -5 177 -5 182 -1 4 -18 7 -38 7 -44 0 -110 -28 -136 -58 -20
-22 -20 -22 13 -407 6 -66 13 -150 15 -187 2 -37 7 -83 11 -103 6 -33 8 -36
35 -30 16 4 38 4 49 0 27 -8 27 -35 0 -28 -11 3 -36 2 -57 -2 -27 -5 -33 -9
-22 -16 8 -5 10 -9 4 -9 -5 1 -19 8 -30 17 -16 13 -17 15 -2 10 9 -4 17 -2 17
3 0 7 -394 10 -1090 10 -1031 0 -1090 1 -1091 18 -4 73 5 191 22 260 10 46 19
116 19 157 0 40 7 92 16 116 8 24 24 85 35 135 16 79 18 108 10 204 -5 61 -12
114 -16 118 -4 4 -4 -12 0 -35 9 -54 -1 -59 -128 -65 -127 -7 -147 -3 -147 30
0 53 -12 11 -17 -60 -5 -76 6 -150 52 -338 13 -55 26 -150 31 -225 10 -167 9
-202 -7 -221 -11 -14 -10 -18 5 -29 10 -8 15 -19 10 -26 -4 -7 1 -18 11 -26
16 -11 -21 -13 -243 -13 l-262 0 0 -880 0 -880 4550 0 4550 0 0 880 0 880
-537 0 c-296 1 -715 0 -930 0 -225 0 -393 3 -393 8 0 5 -11 7 -25 4 -34 -6
-135 7 -135 19 0 5 12 11 28 15 63 14 63 14 47 30 -8 9 -15 16 -15 17 -3 12
-21 267 -21 282 4 76 1 110 -8 113 -6 2 -11 8 -11 13 0 6 5 7 12 3 8 -5 9 -2
5 9 -20 52 -38 195 -32 249 8 63 0 79 -52 107 -33 17 -84 15 -77 -4 4 -10 0
-15 -15 -15 -29 0 -28 -34 2 -48 22 -11 22 -11 -5 -11 -15 -1 -30 4 -33 9 -4
6 -11 8 -16 5 -15 -10 -10 -59 11 -100 25 -50 25 -86 -1 -171 -12 -38 -22 -74
-23 -81 -1 -7 -6 -16 -11 -20 -4 -4 -5 -2 -1 5 4 6 4 12 1 12 -9 0 -165 -110
-165 -116 0 -3 5 -2 12 2 7 4 8 3 4 -5 -4 -6 -12 -9 -17 -5 -12 7 -51 -25 -44
-37 3 -4 0 -11 -6 -15 -8 -4 -9 -3 -5 4 12 20 -8 13 -38 -14 -24 -21 -27 -30
-22 -59 4 -19 11 -37 17 -40 6 -4 8 4 4 22 -5 25 -4 26 4 5 6 -12 8 -28 5 -36
-5 -14 23 -36 44 -36 5 0 58 52 117 115 59 63 99 113 89 109 -15 -5 -16 -4 -5
4 8 6 19 8 26 6 6 -3 20 6 31 18 16 19 16 21 1 9 -10 -8 -17 -10 -15 -3 2 6
-6 18 -17 27 -19 16 -19 16 5 3 41 -24 90 -6 90 34 0 10 5 16 10 13 6 -4 10
-55 10 -118 0 -62 5 -156 10 -209 5 -54 7 -105 4 -113 -5 -13 -47 -15 -328
-13 l-321 3 -3 23 c-3 20 -5 20 -18 7 -18 -18 -190 -22 -179 -5 3 6 1 10 -4
10 -6 0 -11 -9 -11 -20 0 -20 -7 -20 -465 -20 l-465 0 5 28 c5 22 4 24 -5 10
-7 -12 -24 -18 -47 -18 -30 0 -34 2 -23 15 7 8 11 15 9 16 -2 0 -25 1 -50 2
-47 2 -89 27 -89 52 0 24 -38 97 -44 86 -4 -6 0 -23 8 -38 9 -16 22 -45 31
-67 13 -33 13 -37 0 -32 -9 3 -15 0 -15 -9 0 -8 12 -17 28 -20 95 -20 54 -23
-322 -24 l-408 -1 8 38 c4 20 8 51 7 67 -6 362 -2 502 17 490 5 -3 9 -42 10
-88 5 -303 7 -326 22 -350 9 -13 18 -37 21 -53 l4 -29 2 28 c1 21 6 27 24 27
25 0 53 -50 43 -76 -3 -8 -2 -12 4 -9 14 9 12 27 -5 61 -18 36 -15 205 5 301
11 55 15 62 38 65 59 7 98 152 52 193 -11 10 -20 26 -20 35 0 9 -4 20 -9 26
-12 11 -41 136 -35 146 3 5 12 8 20 8 11 0 14 19 13 98 0 101 -11 197 -22 208
-4 4 -27 8 -52 9 -25 1 -43 -1 -40 -3 11 -11 -19 -32 -45 -32 -18 0 -33 8 -44
24 -16 25 -16 25 -61 9 -53 -18 -85 -54 -85 -97 0 -17 -4 -49 -9 -71 -5 -22
-6 -56 -3 -76 l7 -37 38 15 c30 12 35 18 26 29 -14 17 -5 44 16 44 9 0 27 -7
40 -16 19 -12 37 -14 75 -9 42 6 56 3 86 -16 35 -22 36 -23 15 -31 -13 -4 -52
-3 -91 3 -84 14 -127 3 -65 -17 22 -7 56 -13 75 -13 51 -2 60 -11 53 -54 -3
-20 -9 -37 -13 -37 -4 0 -19 14 -33 30 -25 27 -33 30 -91 30 -36 0 -71 3 -80
6 -13 5 -16 -1 -16 -27 0 -19 -6 -57 -14 -86 -11 -41 -12 -88 -5 -225 4 -95
13 -200 18 -233 5 -33 13 -108 17 -167 l6 -108 27 19 c32 23 53 15 44 -18 -5
-19 -11 -22 -39 -19 -19 2 -34 0 -34 -4 0 -4 -112 -8 -250 -8 -184 0 -250 3
-250 12 0 6 -7 20 -16 30 -15 16 -16 28 -5 110 7 51 18 127 26 168 7 41 16
107 20 145 11 135 25 193 46 198 15 4 18 11 14 30 -9 35 9 64 55 87 21 11 42
25 46 31 10 17 7 155 -6 213 -33 147 -44 178 -70 206 -15 17 -35 30 -44 30 -8
0 -20 8 -26 18 -11 16 -11 16 -6 0 4 -13 -2 -20 -19 -24 -27 -7 -95 12 -95 27
0 11 -33 10 -84 -4z"/>
<path d="M1406 3025 c-11 -8 -16 -27 -16 -57 0 -24 -7 -66 -16 -92 -12 -36
-15 -68 -11 -123 3 -41 7 -77 10 -79 2 -2 25 -7 50 -10 l47 -7 0 115 c0 63 3
149 6 190 l7 75 -30 0 c-17 0 -38 -6 -47 -12z"/>
<path d="M4876 2814 c-3 -9 -6 -23 -6 -32 0 -8 -7 -23 -16 -33 -16 -18 -11
-44 7 -34 5 4 9 -5 9 -19 0 -42 18 -75 52 -96 52 -32 64 -27 84 36 14 46 25
61 58 82 23 14 43 27 45 29 2 2 2 6 -2 9 -3 3 -16 -1 -29 -10 -30 -21 -41 -20
-35 3 3 15 -10 24 -72 50 -90 36 -87 36 -95 15z"/>
<path d="M7727 2783 c-17 -42 -33 -232 -20 -242 5 -3 21 -45 37 -92 33 -101
33 -101 -44 -269 -53 -115 -124 -282 -134 -317 -6 -19 -2 -25 20 -33 15 -6 46
-8 68 -5 41 7 41 7 43 53 1 35 13 69 46 129 25 45 47 92 51 105 7 27 45 92 51
87 2 -2 10 -42 19 -89 10 -59 32 -122 69 -205 30 -65 59 -121 63 -122 5 -2 24
22 42 52 18 30 40 55 48 55 8 0 14 5 14 10 0 6 -4 10 -9 10 -5 0 -23 11 -40
25 -32 27 -40 47 -65 165 -9 41 -26 115 -38 163 l-21 88 22 72 c11 40 21 96
21 126 0 47 -2 52 -17 46 -35 -15 -59 -15 -113 -2 l-55 12 -6 60 -6 60 -1 -60
c-1 -106 -2 -113 -17 -119 -8 -3 -22 -3 -30 1 -23 8 -10 195 16 241 10 17 15
32 10 32 -4 0 -15 -17 -24 -37z"/>
<path d="M2664 2791 c4 -5 -1 -35 -9 -66 -17 -66 -13 -77 42 -125 l37 -33 11
25 c5 14 26 41 46 59 20 19 42 44 48 57 11 21 10 22 -14 16 -17 -4 -32 -1 -44
10 -15 13 -109 66 -119 66 -2 0 -1 -4 2 -9z"/>
<path d="M1775 2618 c-4 -29 -11 -63 -16 -76 -6 -16 -4 -32 6 -52 8 -16 12
-36 8 -46 -4 -10 0 -20 10 -26 13 -7 17 -24 17 -68 0 -33 9 -106 20 -162 11
-57 20 -113 20 -125 0 -13 9 -37 20 -55 11 -18 25 -56 31 -85 7 -32 18 -53 26
-53 22 0 15 -28 -12 -46 -31 -20 -32 -44 -2 -45 81 -6 122 15 114 58 -3 17 0
23 13 23 37 0 44 26 20 83 l-22 53 21 42 c11 22 25 43 31 47 5 3 10 18 10 33
1 15 7 38 15 52 8 14 14 41 15 61 0 20 7 55 15 78 15 45 12 142 -6 192 -10 25
-14 26 -117 33 -132 8 -150 12 -154 40 -2 11 -9 -16 -15 -62 -11 -81 -17 -101
-28 -90 -7 7 24 175 35 199 6 12 0 20 -26 33 -19 9 -36 16 -38 16 -2 0 -7 -24
-11 -52z"/>
<path d="M1100 2574 c0 -22 8 -91 18 -155 10 -64 18 -125 17 -135 -2 -10 -10
-82 -18 -159 -9 -77 -18 -184 -21 -237 l-5 -98 34 0 c18 0 37 5 40 11 5 6 11
4 19 -6 8 -11 23 -16 46 -13 31 3 35 6 37 33 5 94 22 224 32 248 6 16 16 61
22 100 12 77 74 286 90 302 5 5 8 20 8 35 -1 16 -3 19 -6 8 -2 -10 -8 -18 -13
-18 -5 0 -3 19 5 41 8 23 15 43 15 45 0 2 -31 4 -69 4 -38 0 -81 4 -95 10 -14
5 -55 12 -91 16 l-65 7 0 -39z"/>
<path d="M4999 2507 c13 -54 48 -125 68 -136 17 -8 19 -17 13 -60 -6 -47 10
-187 20 -178 3 2 26 7 52 9 36 4 45 2 41 -8 -4 -10 10 -12 69 -7 40 3 74 7 76
8 12 10 0 191 -15 220 -6 11 -14 43 -18 71 -6 48 -8 50 -38 51 -51 1 -85 7
-81 15 5 7 -19 13 -114 27 -34 6 -66 12 -71 15 -5 3 -6 -8 -2 -27z"/>
</g>
</svg>
