<svg width="800" height="600" xmlns="http://www.w3.org/2000/svg">
 <!-- Created with Method Draw - http://github.com/duopixel/Method-Draw/ -->
 <g>
  <title>background</title>
  <rect fill="#fff" id="canvas_background" height="602" width="802" y="-1" x="-1"/>
  <g display="none" overflow="visible" y="0" x="0" height="100%" width="100%" id="canvasGrid">
   <rect fill="url(#gridpattern)" stroke-width="0" y="0" x="0" height="100%" width="100%"/>
  </g>
 </g>
 <g>
  <title>Layer 1</title>
  <path d="m116.89999,335.85001c0,1 0,2 0,2c0,3 0,4 0,6c0,1 0,2 0,3c0,1 0,2 0,3c0,0 0,1 0,2c0,1 0,2 0,3c0,1 0,2 0,3c0,0 1,2 1,3c0,1 0,2 0,3c0,2 1,3 1,5c0,1 -0.76537,2.15225 0,4c0.5412,1.30655 1,1 1,2c0,1 -0.70711,2.29291 0,3c0.70711,0.70709 1.4588,0.69345 2,2c0.38268,0.92389 0,2 0,2c1,1 1,2 1,3c0,1 0,1 0,2c0,1 0,3 1,3c1,0 3,0 5,0c4,0 6,0 10,0c3,0 4,0 5,0c1,0 2,0 3,0c1,0 3,0 4,0c0,0 3,0 5,0c3,0 7,0 9,0c2,0 3,0 5,0c1,0 2,0 4,0c1,0 2,0 4,0c2,0 5,0 8,0c6,0 17,0 27,0c10,0 17,0 22,0c2,0 3,0 4,0c2,0 4,0 6,0c1,0 2,0 3,0c1,0 2,0 3,0c1,0 2.82375,-0.48627 5,-1c1.9465,-0.4595 4,0 7,0c6,0 12,0 18,0c3,0 6,0 11,0c3,0 7.03406,0.68976 14,0c5.07422,-0.50244 8.92578,-1.49756 14,-2c2.98541,-0.29562 5.01498,0.24435 7,0c4.09222,-0.50378 8.01291,-0.83981 9,-1c3.12143,-0.50653 6,-2 8,-2c3,0 7,0 9,0c2,0 4,0 6,0c2,0 4,0 6,0c4,0 6,0 11,0c2,0 3,0 6,0c4,0 7,0 12,0c5,0 7,0 9,0c1,0 5,0 10,0c4,0 7,0 10,0c2,0 5,0 9,0c5,0 11,0 17,0c6,0 8,0 10,0c5,0 10,0 16,0c8,0 12,0 17,0c7,0 14,0 19,0c7.99997,0 12.01944,0.39417 15.99997,0c5.07422,-0.50244 8,-2 13,-2c5,0 10.02521,0.11865 15,-1c4.02264,-0.90457 6.87854,-2.49347 10,-3c2.96124,-0.48056 6.21515,0.63922 13,-2c2.08398,-0.81064 3,-2 4,-2c1,0 1.02673,0.22977 2,0c2.17627,-0.51373 3.69342,-2.4588 5,-3c0.92389,-0.38269 2,0 2,0c1,-1 2.14935,-0.47427 3,-1c1.9021,-1.17557 5,-3 5,-3c1,-1 2,-1 2,-1c2,0 3.18604,-1.69254 5,-3c1.14728,-0.8269 1,-1 2,-1c1,0 1.61731,-1.07611 2,-2c0.5412,-1.30655 1,-2 2,-2c1,0 3.5412,-0.69345 3,-2c-0.38269,-0.92389 -3.07843,-0.21014 -6,1c-2.06586,0.85571 -4,1 -6,1c-1,0 -4.07843,0.78986 -7,2c-2.06586,0.85571 -4.82373,1.48627 -7,2c-0.97327,0.22977 -2,0 -2,0c-1,0 -2,0 -3,0c0,0 -2,1 -3,1c-1,0 -1.797,0.2565 -3,1c-2.69,1.66251 -5,2 -6,2c-2,0 -2,0 -3,0c-1,0 -2,0 -2,0c-1,0 -3,0 -4,0c0,0 -1.82373,0.48627 -4,1c-2.91974,0.68927 -7,0 -11,0c-1,0 -3,0 -4,0c-1,0 -0.69342,0.4588 -2,1c-0.92389,0.38269 -1.69342,0.4588 -3,1c-0.92389,0.38269 -2,0 -3,0c-1,0 -2,0 -4,0c-1,0 -4,1 -7,1c-5,0 -10,0 -12.99997,0c-1,0 -4,0 -5,0c0,0 -2,0 -3,0c-1,0 -3.02676,-0.22977 -4,0c-2.17624,0.51373 -4,1 -5,1c-1,0 -2,0 -4,0c0,0 -1,0 -3,0c-1,0 -3,0 -5,0c-2,0 -4,0 -6,0c-2,0 -4,0 -5,0c-2,0 -5,-1 -5,-1c-2,0 -4,0 -5,0c-2,0 -3,0 -5,0c-2,0 -5,-1 -7,-1c-5,0 -8.90778,-1.49622 -13,-2c-1.98502,-0.24435 -4,0 -6,0c-1,0 -4,-1 -8,-1c-2,0 -4,0 -6,0c-2,0 -3,0 -4,0c-2,0 -3,0 -4,0c-2,0 -2,0 -5,0c-1,0 -2,0 -5,0c0,0 -1,0 -3,0c-1,0 -4.02521,0.11865 -9,-1c-4.02264,-0.90457 -9,-1 -12,-2c-3,-1 -5.01291,-0.83981 -6,-1c-3.12143,-0.50653 -5,-1 -7,-1c-1,0 -3,0 -6,0c-3,0 -5,0 -8,0c-4,0 -8,0 -12,0c-9,0 -14,0 -17,0c-2,0 -4,0 -6,0c-2,0 -4,0 -8,0c-2,0 -6,0 -6,0c-3,0 -4,0 -4,0c-1,0 -4,0 -5,0c-3,0 -6,0 -7,0c-4,0 -6,0 -8,0c-1,0 -4,0 -6,0c-2,0 -2,0 -4,0c-2,0 -4,0 -6,0c-3,0 -4,0 -6,0c-1,0 -5,0 -7,0c-2,0 -3,0 -4,0c-2,0 -3,0 -3,0c-2,0 -3,0 -5,0c-2,0 -4,0 -11,0c-4,0 -7,0 -9,0c-3,0 -8,0 -12,0c-4,0 -9.01257,-0.64557 -14,-1c-7.05328,-0.50125 -15,-2 -21,-2c-2,0 -3,0 -4,0c0,0 -1,0 -2,0c-1,0 -2,0 -2,0c-1,-1 -2.07613,-0.61731 -3,-1c-1.30656,-0.5412 -1.82375,-2.48627 -4,-3c-0.97325,-0.22977 -1,0 -4,0c-1,0 -1.02675,-0.77023 -2,-1c-2.17625,-0.51373 -2.82375,-2.48627 -5,-3c-0.97325,-0.22977 -2,0 -2,0c0,0 -1.69344,-1.4588 -3,-2c-0.92387,-0.38269 -2.07613,-0.61731 -3,-1c-1.30656,-0.5412 -3,-1 -4,-2c-1,-1 -1.29289,-1.29291 -2,-2c-0.70711,-0.70709 -2.07612,-0.61731 -3,-1c-1.30656,-0.5412 -1,-1 -2,-2c-1,-1 -2,-1 -3,-2c0,0 -1,0 -1,0l-1,0l-1,-1l-1,0" id="svg_5" stroke-opacity="null" stroke-width="1.5" stroke="#000" fill="#000000"/>
 </g>
</svg>