<svg id="color" enable-background="new 0 0 24 24" height="512" viewBox="0 0 24 24" width="512" xmlns="http://www.w3.org/2000/svg"><g fill="#2196f3"><path d="m12 24c-3.685 0-7.322-1.629-9.73-4.358-.365-.414-.326-1.046.088-1.412.414-.363 1.045-.327 1.412.088 2.034 2.306 5.111 3.682 8.23 3.682 5.066 0 9.373-3.735 10.019-8.689.071-.548.568-.941 1.12-.863.548.071.934.573.862 1.121-.773 5.947-5.933 10.431-12.001 10.431z"/><path d="m1.001 11.56-.13-.008c-.548-.071-.934-.573-.862-1.121.773-5.947 5.932-10.431 12.001-10.431 3.69 0 7.324 1.63 9.722 4.36.365.415.324 1.047-.091 1.411-.415.363-1.047.323-1.411-.092-2.024-2.304-5.097-3.679-8.22-3.679-5.067 0-9.373 3.735-10.019 8.689-.065.504-.495.871-.99.871z"/><path d="m23.383 2.076c-.374-.155-.804-.07-1.09.217l-4 4c-.286.286-.372.716-.217 1.09.154.373.52.617.924.617h4c.553 0 1-.448 1-1v-4c0-.404-.243-.769-.617-.924z"/><path d="m5 16h-4c-.553 0-1 .448-1 1v4c0 .404.243.769.617.924.124.051.254.076.383.076.26 0 .516-.102.707-.293l4-4c.286-.286.372-.716.217-1.09-.154-.373-.52-.617-.924-.617z"/></g><path d="m5 16h-4c-.553 0-1 .448-1 1v4c0 .404.243.769.617.924.124.051.254.076.383.076.26 0 .516-.102.707-.293l1.3-1.3c-.257-.244-.503-.5-.737-.765-.365-.414-.326-1.046.088-1.412.19-.167.427-.25.662-.25.276 0 .552.114.75.338.207.234.425.459.652.674l1.285-1.285c.286-.286.372-.716.217-1.09-.154-.373-.52-.617-.924-.617z" fill="#1d83d4"/><path d="m12 0c-6.064.005-11.218 4.488-11.991 10.431-.071.547.314 1.049.862 1.121l.13.008c.495 0 .925-.367.99-.871.645-4.95 4.947-8.684 10.009-8.689z" fill="#1d83d4"/><path d="m3.02 17.98c-.235 0-.472.083-.662.25-.414.366-.453.998-.088 1.412.234.266.481.521.737.765 2.38 2.266 5.667 3.593 8.993 3.593v-2c-2.802 0-5.57-1.111-7.578-3.008-.227-.215-.445-.44-.652-.674-.199-.224-.474-.338-.75-.338z" fill="#1d83d4"/><path d="m16.908 10.39c-.132-.241-.384-.39-.658-.39h-3.114l.855-5.126c.057-.343-.129-.68-.449-.814-.319-.137-.691-.033-.895.248l-5.5 7.5c-.167.228-.192.53-.064.782.126.251.385.41.667.41h3.145l-.814 6.151c-.047.349.155.683.486.803l.256.046c.25 0 .491-.126.632-.346l5.427-8.5c.147-.231.157-.524.026-.764z" fill="#ffc107"/><path d="m16.25 10h-3.114l-2.241 3-.814 6.151c-.047.349.155.683.486.803l.256.046c.25 0 .491-.126.632-.346l5.427-8.5c.147-.231.157-.524.026-.764-.132-.241-.384-.39-.658-.39z" fill="#dea806"/></svg>