<svg id="Layer_1" height="512" viewBox="0 0 512 512" width="512" xmlns="http://www.w3.org/2000/svg" data-name="Layer 1"><path d="m374 98-268 335v32h272l30-56v-311z" fill="#f8d2c5"/><path d="m301 17h-240v416h285l28-58v-287z" fill="#f8e6e2"/><path d="m61 17h30v416h-30z" fill="#e5d4d1"/><path d="m407.71 408.9 34.02 34.06a30.466 30.466 0 1 1 -43.06 43.11l-20.94-20.96-31.73-31.77-10.07-10.07 43.07-43.12z" fill="#6d6d93"/><path d="m373.83 374.98-16.97-16.99-43.06 43.12 22.13 22.16 43.07-43.12z" fill="#5a5a77"/><path d="m343.59 371.27-16.52 16.55-20.98-20.99-.11-.13c2.95-2.49 5.83-5.13 8.61-7.92s5.42-5.66 7.9-8.61l.13.11z" fill="#7c707c"/><path d="m314.59 162.68a138.773 138.773 0 0 1 7.9 187.49c-2.48 2.95-5.12 5.83-7.9 8.61s-5.66 5.43-8.61 7.92a138.592 138.592 0 1 1 8.61-204.02z" fill="#979cb0"/><path d="m299.9 177.38a117.808 117.808 0 1 1 -166.51 0 117.971 117.971 0 0 1 166.51 0z" fill="#6addc7"/><path d="m219.59 188.66a72.48 72.48 0 1 1 -72.39 72.48 72.437 72.437 0 0 1 72.39-72.48z" fill="#ea7288"/><path d="m258 254v21h-29v29h-24v-29h-28v-21h28v-30h24v30z" fill="#d4e1f4"/><path d="m373.83 87.61v.15h-72.81v-70.76z" fill="#f8d2c5"/><path d="m163.39 177.38a117.173 117.173 0 0 1 68.255-33.56 117.859 117.859 0 1 0 0 233.82 117.882 117.882 0 0 1 -68.255-200.26z" fill="#5bbcaa"/><g fill="#284268"><path d="m61.346 439h38.654v26.111a5.651 5.651 0 0 0 5.693 5.889h269.442l19.289 19.311a36.468 36.468 0 1 0 51.555-51.593l-31.979-32.018v-308.434a6.488 6.488 0 0 0 -6.293-6.266h-27.707v-4.387a6.083 6.083 0 0 0 -1.906-4.307l-72.852-70.613a6.1 6.1 0 0 0 -4.22-1.693h-239.676a6.305 6.305 0 0 0 -6.346 6v416.343c0 3.314 3.033 5.657 6.346 5.657zm50.654 20v-20h231.17l19.978 20zm268-355h22v290.689l-22-22.024zm-1 284.643 58.489 58.557a24.536 24.536 0 0 1 0 34.633 24.427 24.427 0 0 1 -34.574 0l-58.5-58.565zm-43.065 26.133-13.655-13.67 34.585-34.622 13.654 13.669zm-17.1-51.752c1.348-1.348 2.652-2.723 3.935-4.111l12.348 12.362-8.05 8.06-12.348-12.362c1.39-1.289 2.766-2.6 4.114-3.949zm-8.49-8.481a132.4 132.4 0 0 1 -187.392 0c-51.67-51.727-51.67-135.893 0-187.62a132.4 132.4 0 0 1 187.392 0c51.669 51.727 51.669 135.893-.001 187.62zm-3.345-323.366 52.174 50.823h-52.174zm-240-8.177h228v64.755a6.233 6.233 0 0 0 6.022 6.245h66.978v266.651l-6.89-6.9a6 6 0 0 0 -8.49 0l-9.022 9.032-13.029-13.042c44.282-56.713 40.374-139.134-11.735-191.3a144.4 144.4 0 0 0 -204.373 0c-56.34 56.4-56.34 148.179 0 204.582a144.44 144.44 0 0 0 191.108 11.769l13.017 13.032-9.031 9.041a6 6 0 0 0 0 8.481l21.629 21.654h-264.184z"/><path d="m85 52.057a6 6 0 0 0 6-6v-3.321a6 6 0 1 0 -12 0v3.321a6 6 0 0 0 6 6z"/><path d="m85 170.856a6 6 0 0 0 6-6v-100.293a6 6 0 1 0 -12 0v100.293a6 6 0 0 0 6 6z"/><path d="m177 282h21v22c0 3.313 3.687 7 7 7h24c3.313 0 5-3.687 5-7v-22h24c3.313 0 5-3.687 5-7v-21c0-3.313-1.687-5-5-5h-24v-25c0-3.313-1.687-5-5-5h-24c-3.313 0-7 1.687-7 5v25h-21c-3.313 0-7 1.687-7 5v21c0 3.313 3.687 7 7 7zm5-21h23c3.313 0 5-3.687 5-7v-23h12v23c0 3.313 3.687 7 7 7h22v9h-22c-3.313 0-7 1.687-7 5v24h-12v-24c0-3.313-1.687-5-5-5h-23z"/><path d="m219.594 339.624a78.48 78.48 0 1 0 -78.4-78.48 78.529 78.529 0 0 0 78.4 78.48zm0-144.96a66.48 66.48 0 1 1 -66.4 66.48 66.515 66.515 0 0 1 66.4-66.48z"/><path d="m146.413 190.43c-1.5 1.5-2.96 3.059-4.351 4.64a6 6 0 0 0 9.007 7.93c1.226-1.394 2.516-2.77 3.835-4.089a6 6 0 1 0 -8.491-8.48z"/><path d="m139.57 207.687a6 6 0 0 0 -8.227 2.075 99.357 99.357 0 0 0 15.07 121.275 6 6 0 1 0 8.49-8.481 87.368 87.368 0 0 1 -13.257-106.641 6 6 0 0 0 -2.076-8.228z"/><path d="m304.147 173.144a123.658 123.658 0 0 0 -209.929 69.991 5.993 5.993 0 1 0 11.871 1.656 112.072 112.072 0 1 1 1.065 38.059 6 6 0 0 0 -5.873-4.85h-.018a5.993 5.993 0 0 0 -5.885 7.149 123.658 123.658 0 0 0 208.769 63.174c48.226-48.279 48.226-126.901 0-175.179z"/></g></svg>