<svg id="Layer_1" enable-background="new 0 0 512.002 512.002" height="512" viewBox="0 0 512.002 512.002" width="512" xmlns="http://www.w3.org/2000/svg"><g><g clip-rule="evenodd" fill-rule="evenodd"><path d="m50.002 196.001v-80h-20.002c-11 0-20 9-20 20v240c0 11 9 20 20 20h20.002v-80c5.5 0 10-4.499 10-10v-100.001c0-5.5-4.5-9.999-10-9.999z" fill="#8690af"/><path d="m50.002 116v80c5.5 0 10 4.499 10 10v100c0 5.5-4.5 10-10 10v80l411.998.002v-280.002c-88.792 0-323.208 0-411.998 0z" fill="#99ebfa"/><path d="m462 116v280h20.002c11 0 20-9 20-20v-240c0-11-9-20-20-20z" fill="#8690af"/><path d="m191 256.002c18.929 0 34.897-13.326 38.986-31.059.663-2.877 1.014-5.869 1.014-8.94v-20.001c0-22-17.999-39.999-40-39.999-22 0-40 18-40 39.999v20.001c0 3.071.351 6.063 1.014 8.94 4.089 17.733 20.057 31.059 38.986 31.059z" fill="#f5c6af"/><path d="m141 376.003v-70.002l-39.999.003v70c0 10.926 8.878 19.876 19.776 19.997h20.223z" fill="#f5c6af"/><path d="m331.001 256.002c18.929 0 34.897-13.326 38.986-31.059.663-2.877 1.014-5.869 1.014-8.94v-20.001c0-22-18-39.999-40-39.999s-40 18-40 39.999v20.001c0 3.071.351 6.063 1.014 8.94 4.089 17.733 20.056 31.059 38.986 31.059z" fill="#ffdcd5"/><path d="m369.987 224.943c-4.089 17.734-20.057 31.059-38.986 31.059s-34.897-13.326-38.985-31.06c-30.118 14.594-51.015 45.506-51.015 81.062l40-.003v70.002 19.998h100v-19.998-70.002l40 .003c0-35.556-20.897-66.467-51.014-81.061z" fill="#cbe558"/><path d="m281.001 376.003v-70.002l-40 .003v70c0 10.926 8.878 19.876 19.776 19.997h20.224z" fill="#ffdcd5"/><path d="m381.001 306.001v70.002 19.998h20.224c10.898-.121 19.777-9.072 19.777-19.997v-70z" fill="#ffdcd5"/><path d="m241.001 306.004c0-21.307 7.504-40.946 20-56.405 8.063-9.975 18.204-18.21 29.748-24.03h-59.497c-.42-.212-.842-.42-1.266-.626-4.089 17.734-20.056 31.059-38.986 31.059-18.929 0-34.897-13.326-38.985-31.06-30.118 14.594-51.015 45.506-51.015 81.062l40-.003v70.002 19.998h100v-19.998z" fill="#b278d3"/><path d="m377.547 224.645c-7.811 7.81-5.787 22.498 4.521 32.805 8.77 8.77 20.711 11.543 28.889 7.365 1.434-.732 2.751-1.679 3.916-2.844 7.811-7.81 5.786-22.498-4.521-32.805s-24.994-12.331-32.805-4.521z" fill="#f5c6af"/></g><g><path d="m482.002 106.001h-452.002c-16.542 0-30 13.458-30 30v240c0 16.542 13.458 30 30 30h452.002c16.542 0 30-13.458 30-30v-240c0-16.542-13.458-30-30-30zm-452.002 280c-5.514 0-10-4.486-10-10v-240c0-5.514 4.486-10 10-10h10.002v70c0 5.522 4.478 10 10 10v100c-5.522 0-10 4.478-10 10v70zm81.001 0v-69.997l19.999-.002v69.999zm39.999 0v-80c0-2.652-1.054-5.196-2.929-7.071-1.876-1.876-4.42-2.929-7.072-2.929l-29.379.002c2.88-23.112 15.666-43.672 35.205-56.615 8.407 15.815 25.05 26.614 44.176 26.614 20.629 0 38.378-12.56 46.008-30.434h23.174c-5.159 5.188-9.774 10.937-13.726 17.178-10.111 15.967-15.456 34.383-15.456 53.258v79.997zm10.001-169.999v-20c0-16.542 13.458-30 30-30s29.999 13.458 29.999 30v20c0 16.542-13.457 30-29.999 30s-30-13.458-30-30zm90 169.999v-69.997l20-.002v69.999zm40 0v-80c0-2.652-1.054-5.196-2.929-7.071-1.876-1.876-4.42-2.929-7.072-2.929l-29.38.002c2.88-23.112 15.666-43.672 35.205-56.615 8.407 15.815 25.05 26.614 44.176 26.614 13.643 0 26.021-5.498 35.052-14.387 2.087 4.673 5.116 9.078 8.944 12.907 8.104 8.104 18.16 12.283 27.528 12.283.965 0 1.921-.047 2.868-.136 2.487 6.234 4.157 12.696 4.988 19.335l-29.38-.002h-.001c-2.652 0-5.195 1.054-7.071 2.929-1.875 1.875-2.929 4.419-2.929 7.071v80h-79.999zm10-169.999v-20c0-16.542 13.458-30 30-30s30 13.458 30 30v20c0 16.542-13.458 30-30 30s-30-13.458-30-30zm106.801 38.898c-3.344 3.346-11.83 2.311-18.663-4.521-3.402-3.402-5.669-7.642-6.219-11.632-.241-1.75-.341-4.99 1.699-7.031 1.46-1.46 3.536-1.823 5.24-1.823.675 0 1.292.058 1.789.126 3.99.55 8.23 2.816 11.633 6.219 3.403 3.402 5.67 7.643 6.22 11.633.241 1.749.341 4.989-1.699 7.029zm-16.801 131.101v-69.999l20 .002v69.997zm101.001-10c0 5.514-4.486 10-10 10h-10.002v-85.003c0-5.522-4.478-10-10-10s-10 4.478-10 10v85.003h-20.999v-79.997c0-13.35-2.597-26.246-7.719-38.424 5.009-5.873 7.204-13.932 6.031-22.44-1.149-8.343-5.372-16.527-11.89-23.045 0 0 0 0-.001 0-6.518-6.518-14.701-10.739-23.044-11.89-4.694-.644-9.249-.264-13.378 1.043v-15.246c0-27.57-22.43-50-50-50s-50 22.43-50 50v19.566h-40v-19.566c0-27.57-22.43-50-49.999-50-27.57 0-50 22.43-50 50v20c0 1.149.053 2.286.13 3.416-14.035 8.127-25.946 19.547-34.674 33.328-10.111 15.967-15.456 34.383-15.456 53.258v79.997h-30.999v-62.684c5.974-3.464 10-9.929 10-17.316v-100c0-7.388-4.026-13.853-10-17.316v-62.684h391.998v84.997c0 5.522 4.478 10 10 10s10-4.478 10-10v-84.997h10.002c5.514 0 10 4.486 10 10z"/><path d="m462 245.998c-5.522 0-10 4.48-10 10.003s4.478 10 10 10 10-4.478 10-10v-.007c0-5.522-4.478-9.996-10-9.996z"/></g></g></svg>