<svg height="512" viewBox="0 0 64 64" width="512" xmlns="http://www.w3.org/2000/svg"><g id="Machine_pot" data-name="Machine pot"><path d="m60.88 15-.46 2.56a2 2 0 0 1 -1.92 1.44h-19a2 2 0 0 1 -1.92-1.44l-.46-2.56h9.88v1h4v-1z" fill="#898890"/><path d="m39 3h20v12h-20z" fill="#00d7df"/><path d="m59 3v12h-7a2.006 2.006 0 0 0 2-2v-8a2.006 2.006 0 0 0 -2-2z" fill="#00b6bd"/><path d="m48 45-4 16h-23l-5-16z" fill="#c0ab91"/><path d="m48 45-4 16h-4l4-16z" fill="#a78966"/><path d="m38 49h4v4h-4z" fill="#00d7df"/><path d="m30 49h4v4h-4z" fill="#ffde55"/><path d="m22 49h4v4h-4z" fill="#ff6243"/><circle cx="54" cy="35" fill="#ff6243" r="2"/><path d="m13 41h38v4h-38z" fill="#57a4ff"/><g fill="#ccfc5c"><path d="m38 23h4a6 6 0 0 1 -6 6h-4a6 6 0 0 1 6-6z"/><path d="m36 9c0 3.31-1.79 6-4 6s-4-2.69-4-6 4-6 4-6 4 2.69 4 6z"/><path d="m32 23h-4a6 6 0 0 1 -6-6h4a6 6 0 0 1 6 6z"/><path d="m32 35h-4a6 6 0 0 1 -6-6h4a6 6 0 0 1 6 6z"/></g><path d="m36 8.83c0 3.32-1.79 6-4 6a3.709 3.709 0 0 1 -3.12-2.24 2.718 2.718 0 0 0 1.12.24c2.21 0 4-2.68 4-6a6.032 6.032 0 0 0 -1.42-3.57c1.11.9 3.42 3.06 3.42 5.57z" fill="#a4e276"/><path d="m42 23a6 6 0 0 1 -6 6h-3a6 6 0 0 0 6-6z" fill="#a4e276"/><path d="m32 23h-4a5.98 5.98 0 0 1 -4.67-2.24 5.764 5.764 0 0 0 1.67.24h4a5.9 5.9 0 0 0 -1.33-3.76 6 6 0 0 1 4.33 5.76z" fill="#a4e276"/><path d="m32 35h-4a5.98 5.98 0 0 1 -4.67-2.24 5.764 5.764 0 0 0 1.67.24h4a5.9 5.9 0 0 0 -1.33-3.76 6 6 0 0 1 4.33 5.76z" fill="#a4e276"/><path d="m3 3h14v32h-14z" fill="#00d7df"/><path d="m17 3v32h-14v-4h10v-28z" fill="#009698"/><path d="m48 41h3v4h-3z" fill="#006df0"/><path d="m51 40h-18v-10h3a7.008 7.008 0 0 0 7-7 1 1 0 0 0 -1-1h-4a6.97 6.97 0 0 0 -5 2.11v-8.25c2.31-.63 4-3.42 4-6.86 0-3.8-4.26-6.71-4.44-6.83a1 1 0 0 0 -1.12 0c-.18.12-4.44 3.03-4.44 6.83 0 3.44 1.69 6.23 4 6.86v2.25a6.97 6.97 0 0 0 -5-2.11h-4a1 1 0 0 0 -1 1 7.008 7.008 0 0 0 7 7h3v6.11a6.97 6.97 0 0 0 -5-2.11h-4a1 1 0 0 0 -1 1 7.008 7.008 0 0 0 7 7h3v4h-18a1 1 0 0 0 -1 1v4a1 1 0 0 0 1 1h2.26l4.79 15.3a.987.987 0 0 0 .95.7h23a1 1 0 0 0 .97-.76l3.81-15.24h2.22a1 1 0 0 0 1-1v-4a1 1 0 0 0 -1-1zm-13-16h2.9a5.009 5.009 0 0 1 -4.9 4h-2.9a5.009 5.009 0 0 1 4.9-4zm-10-2a5.009 5.009 0 0 1 -4.9-4h2.9a5.009 5.009 0 0 1 4.9 4zm0 12a5.009 5.009 0 0 1 -4.9-4h2.9a5.009 5.009 0 0 1 4.9 4zm1-25c0-2.06 2-3.94 3-4.75 1 .81 3 2.69 3 4.75 0 2.71-1.37 5-3 5s-3-2.29-3-5zm14.22 51h-21.48l-4.38-14h29.36zm6.78-16h-36v-2h36z"/><path d="m18 35v-32a1 1 0 0 0 -1-1h-14a1 1 0 0 0 -1 1v32a1 1 0 0 0 1 1h14a1 1 0 0 0 1-1zm-2-1h-12v-30h12z"/><path d="m30 54h4a1 1 0 0 0 1-1v-4a1 1 0 0 0 -1-1h-4a1 1 0 0 0 -1 1v4a1 1 0 0 0 1 1zm1-4h2v2h-2z"/><path d="m38 54h4a1 1 0 0 0 1-1v-4a1 1 0 0 0 -1-1h-4a1 1 0 0 0 -1 1v4a1 1 0 0 0 1 1zm1-4h2v2h-2z"/><path d="m22 54h4a1 1 0 0 0 1-1v-4a1 1 0 0 0 -1-1h-4a1 1 0 0 0 -1 1v4a1 1 0 0 0 1 1zm1-4h2v2h-2z"/><path d="m6 22h2v2h-2z"/><path d="m10 22h4v2h-4z"/><path d="m6 26h8v2h-8z"/><path d="m6 30h8v2h-8z"/><path d="m6 6h2v2h-2z"/><path d="m10 6h4v2h-4z"/><path d="m6 10h8v2h-8z"/><path d="m6 14h8v2h-8z"/><path d="m6 18h8v2h-8z"/><path d="m6 38h-2v18a1 1 0 0 0 1 1h11v-2h-10z"/><path d="m46.223 27.223 1.414 1.414a9 9 0 0 1 12.726 0l1.414-1.414a10.994 10.994 0 0 0 -15.554 0z"/><path d="m49.049 30.056 1.421 1.408a4.988 4.988 0 0 1 7.06 0l1.421-1.408a6.989 6.989 0 0 0 -9.9 0z"/><path d="m54 32a3 3 0 1 0 3 3 3 3 0 0 0 -3-3zm0 4a1 1 0 1 1 1-1 1 1 0 0 1 -1 1z"/><path d="m24 56h2v2h-2z"/><path d="m28 56h13v2h-13z"/><path d="m61.788 14.385a1 1 0 0 0 -.788-.385h-1v-11a1 1 0 0 0 -1-1h-20a1 1 0 0 0 -1 1v11h-1a1 1 0 0 0 -.97 1.242l1 4a1 1 0 0 0 .97.758h22a1 1 0 0 0 .97-.758l1-4a1 1 0 0 0 -.182-.857zm-21.788-10.385h18v10h-7a1 1 0 0 0 -1 1h-2a1 1 0 0 0 -1-1h-7zm19.219 14h-20.438l-.5-2h7.719a1 1 0 0 0 1 1h4a1 1 0 0 0 1-1h7.719z"/><path d="m48 8h2v2h-2z"/><path d="m52 8h2v2h-2z"/><path d="m44 8h2v2h-2z"/></g></svg>