<?xml version="1.0" standalone="no"?>
<!DOCTYPE svg PUBLIC "-//W3C//DTD SVG 20010904//EN"
 "http://www.w3.org/TR/2001/REC-SVG-20010904/DTD/svg10.dtd">
<svg version="1.0" xmlns="http://www.w3.org/2000/svg"
 width="412.000000pt" height="274.000000pt" viewBox="0 0 412.000000 274.000000"
 preserveAspectRatio="xMidYMid meet">
<metadata>
Created by potrace 1.16, written by Peter Selinger 2001-2019
</metadata>
<g transform="translate(0.000000,274.000000) scale(0.100000,-0.100000)"
fill="#000000" stroke="none">
<path d="M2357 2162 c-12 -3 -17 -13 -17 -39 0 -31 2 -34 16 -23 8 8 14 9 13
4 -1 -5 0 -20 1 -34 2 -24 3 -24 9 4 9 43 31 45 32 4 l2 -33 7 35 7 35 2 -32
c1 -31 3 -33 36 -33 32 0 35 2 35 30 0 20 5 30 15 30 10 0 15 10 15 31 l0 30
-78 -3 c-42 -2 -85 -4 -95 -6z"/>
<path d="M2557 2163 c-4 -3 -6 -27 -6 -52 1 -25 4 -36 6 -23 4 21 23 32 23 13
0 -5 3 -16 6 -24 3 -10 -2 -17 -13 -20 -10 -3 1 -5 25 -6 41 -1 42 0 43 32 l1
32 7 -30 c5 -26 11 -30 41 -33 33 -3 36 -1 35 25 0 17 5 27 13 26 8 -2 12 9
12 32 l0 35 -93 0 c-52 0 -97 -3 -100 -7z"/>
<path d="M2780 2110 l0 -60 85 0 85 0 0 60 0 60 -85 0 -85 0 0 -60z"/>
<path d="M1413 2152 l-93 -3 0 -54 c0 -61 19 -77 21 -17 l2 37 7 -40 7 -40 2
40 c1 36 3 38 15 22 8 -10 12 -27 9 -37 -5 -18 0 -20 46 -20 50 0 51 1 51 30
0 40 18 38 23 -2 l4 -33 1 33 c1 22 7 32 18 32 11 0 14 8 12 27 -3 30 0 29
-125 25z"/>
<path d="M1567 2153 c-10 -9 -9 -103 1 -103 4 0 9 12 10 27 3 38 12 42 12 5 0
-17 5 -34 10 -37 6 -4 10 8 10 30 0 22 4 34 10 30 6 -3 10 -20 10 -37 0 -17 3
-28 8 -24 7 8 8 13 11 41 2 28 21 15 21 -15 0 -25 4 -30 25 -30 21 0 25 5 25
30 0 21 5 30 16 30 12 0 15 -7 12 -25 -3 -14 -1 -25 3 -25 5 0 9 14 9 30 0 30
14 41 23 18 3 -7 6 4 6 25 l1 37 -108 0 c-60 0 -112 -3 -115 -7z"/>
<path d="M1820 2105 c0 -58 19 -78 21 -22 l2 32 7 -35 c7 -31 7 -32 9 -7 1 17
7 27 16 27 9 0 15 -10 16 -27 1 -28 1 -28 8 -4 9 35 28 37 27 4 -1 -19 5 -29
17 -31 12 -2 17 3 18 20 0 22 1 22 9 3 8 -18 9 -18 9 5 1 14 6 32 11 40 7 11
10 5 10 -22 0 -21 5 -38 10 -38 6 0 10 13 10 29 0 42 18 48 23 9 3 -23 4 -17
5 20 l2 52 -115 0 -115 0 0 -55z"/>
<path d="M2070 2105 c0 -30 5 -55 10 -55 6 0 10 17 10 38 1 31 2 34 11 19 6
-10 9 -27 6 -38 -3 -10 -1 -19 4 -19 5 0 9 16 9 35 0 19 5 35 10 35 6 0 10
-16 10 -35 0 -19 5 -35 10 -35 6 0 10 13 10 29 0 17 5 33 10 36 6 4 10 -8 10
-29 l0 -36 53 0 c37 0 48 3 37 10 -10 6 -11 10 -2 10 6 0 12 12 12 27 0 35 17
18 23 -22 2 -17 5 -5 6 28 l1 57 -120 0 -120 0 0 -55z"/>
<path d="M2972 2067 l3 -58 155 -1 155 -1 6 24 c7 24 7 24 8 2 1 -17 7 -23 26
-24 88 -4 80 -9 83 58 l3 61 -221 -1 -221 -2 3 -58z"/>
<path d="M3437 2123 c-2 -5 -1 -33 1 -64 l4 -56 223 0 223 0 6 36 c3 20 6 48
6 64 l0 27 -229 0 c-127 0 -231 -3 -234 -7z"/>
<path d="M1132 2112 l-103 -3 3 -57 c3 -52 5 -57 26 -56 12 0 69 1 127 2 102
2 105 3 105 25 0 18 -2 19 -10 7 -5 -8 -10 -10 -10 -4 0 6 7 17 15 24 18 15
20 60 3 61 -7 0 -22 1 -33 2 -11 1 -66 1 -123 -1z"/>
<path d="M760 2102 l-45 -3 3 -55 4 -55 138 2 138 1 6 45 c11 79 17 74 -96 71
-57 -1 -123 -4 -148 -6z"/>
<path d="M375 2090 c-33 -8 -25 -12 38 -18 13 -2 17 -11 17 -45 l0 -44 37 1
c36 1 38 3 46 44 4 23 11 43 15 43 4 1 24 3 45 4 l37 3 0 -44 0 -44 40 0 c35
0 40 3 40 24 0 13 3 38 6 55 l7 32 -149 -2 c-82 -1 -162 -6 -179 -9z"/>
<path d="M2010 1919 c-1433 -11 -1500 -12 -1500 -22 0 -5 -6 -4 -14 2 -8 7
-17 8 -19 4 -3 -5 -43 -8 -90 -8 -84 0 -84 0 -68 -21 12 -16 25 -21 54 -19
l39 2 -5 -43 -5 -44 48 0 47 0 7 40 c6 39 7 40 46 40 l40 0 0 -41 0 -40 42 3
43 3 3 48 c4 63 22 61 22 -3 l0 -50 145 0 145 0 0 24 c0 13 3 39 7 57 8 32 8
31 13 -21 l5 -55 147 -2 c163 -2 157 -4 158 72 0 23 3 26 10 15 5 -9 9 -61 9
-115 1 -55 2 -116 4 -135 1 -19 -1 -40 -6 -47 -5 -6 -7 -23 -5 -38 l3 -26 248
-4 247 -4 0 82 c1 80 8 158 16 166 2 2 4 -8 4 -22 0 -27 1 -27 73 -28 98 0
369 0 385 0 6 1 12 13 12 28 0 14 3 24 6 20 3 -3 6 -44 6 -91 l-1 -86 85 0
c46 0 84 2 84 4 0 2 -25 16 -56 30 -31 15 -54 29 -51 32 3 4 36 -10 74 -30 63
-34 73 -36 160 -36 l93 0 1 73 c0 73 6 117 14 126 3 2 5 -12 5 -32 0 -35 2
-37 33 -38 17 0 57 -2 88 -5 53 -5 57 -4 62 18 4 13 7 44 7 69 0 26 3 61 7 80
5 28 7 30 14 14 4 -11 8 -37 8 -58 l1 -37 228 2 227 3 6 60 c3 33 5 61 3 63
-1 2 -82 3 -179 4 -107 0 -172 4 -164 9 11 7 10 9 -3 9 -10 0 -18 -4 -18 -10
0 -5 -14 -10 -31 -10 -16 0 -28 4 -25 9 6 9 -72 22 -113 19 -14 -2 -411 -6
-881 -9z"/>
<path d="M3523 1902 l-83 -3 0 -49 c0 -85 -16 -80 241 -80 l229 0 0 58 c0 32
4 62 9 68 10 9 -214 13 -396 6z"/>
<path d="M17 1824 c3 -8 0 -14 -6 -14 -8 0 -11 -143 -11 -524 1 -487 2 -525
18 -529 15 -4 16 -5 0 -6 -15 -1 -17 -18 -17 -156 -1 -121 2 -154 12 -149 9 5
9 4 -1 -7 -6 -7 -12 -38 -12 -70 0 -46 3 -58 18 -62 16 -4 16 -5 0 -6 -15 -1
-18 -11 -18 -62 0 -52 2 -60 14 -50 11 10 15 8 20 -6 6 -21 3 -49 -7 -59 -4
-4 -7 0 -7 9 0 9 -4 17 -10 17 -6 0 -10 -32 -10 -75 l0 -75 149 0 c110 0 151
3 154 13 4 10 6 10 6 0 1 -7 10 -13 21 -13 11 0 20 6 20 13 0 9 2 9 8 0 6 -9
72 -17 72 -8 0 1 -7 25 -16 54 -13 45 -18 52 -35 48 -12 -3 -19 -1 -17 5 2 6
19 12 36 13 18 2 42 11 54 21 20 18 21 18 15 1 -4 -11 -1 -20 8 -23 8 -4 13
-10 10 -15 -3 -4 -13 -5 -22 -2 -12 5 -15 2 -10 -10 19 -48 19 -51 0 -27 -28
33 -34 24 -21 -28 8 -34 15 -42 33 -42 13 0 26 6 29 13 5 9 7 9 12 0 3 -7 12
-13 20 -13 9 0 12 5 9 10 -6 9 8 15 29 11 5 -1 4 5 -4 13 -16 21 -6 21 14 0 9
-8 17 -11 17 -5 3 21 4 26 12 39 5 6 5 17 2 22 -3 6 -1 10 4 10 6 0 11 -4 11
-10 0 -5 7 -7 16 -3 9 3 12 9 7 12 -4 3 -9 18 -10 33 -1 22 2 26 23 24 13 -2
27 -5 30 -9 3 -3 17 -2 30 3 19 8 24 6 24 -6 0 -9 5 -12 11 -8 6 3 15 0 20 -7
7 -11 9 -11 9 -1 0 7 4 11 9 8 5 -3 12 1 15 10 4 11 14 15 31 12 21 -5 23 -3
14 15 -9 15 -8 18 3 11 13 -8 18 -10 50 -12 11 -1 15 -7 12 -17 -4 -9 0 -15
10 -15 9 0 16 -5 16 -11 0 -5 5 -7 11 -3 8 4 9 -1 5 -17 -3 -13 -3 -18 0 -11
3 6 13 12 21 12 9 0 14 3 10 6 -3 4 1 13 10 22 14 14 17 14 29 -2 12 -17 13
-17 20 8 3 14 10 26 16 26 5 0 7 -4 4 -9 -3 -5 1 -22 9 -37 l14 -28 10 25 c5
13 10 18 10 10 1 -9 8 -11 22 -8 18 5 20 2 15 -16 -5 -21 -5 -21 9 -3 8 11 15
25 15 32 0 7 3 19 6 28 4 11 1 16 -11 16 -9 0 -14 -4 -10 -9 3 -5 1 -13 -5
-16 -6 -4 -16 6 -23 24 -6 17 -16 32 -22 34 -5 2 -2 3 8 2 23 -4 22 7 -3 28
-11 9 -20 25 -19 34 0 14 2 13 9 -5 10 -24 26 -29 33 -9 3 6 6 1 6 -12 1 -16
5 -21 16 -17 10 4 15 -1 15 -16 0 -16 3 -18 13 -9 8 6 17 8 20 4 4 -3 7 -1 7
5 0 7 8 12 17 12 13 0 14 -3 5 -12 -7 -7 -12 -22 -12 -35 0 -13 -4 -23 -10
-23 -5 0 -2 -9 7 -20 11 -13 21 -16 27 -10 6 6 22 10 37 10 19 0 28 6 32 21 4
15 2 19 -9 15 -8 -3 -14 -1 -14 5 0 6 -5 7 -10 4 -15 -9 -12 2 6 20 12 12 19
13 30 4 8 -6 20 -9 27 -6 7 3 19 -4 25 -14 7 -10 8 -19 3 -19 -5 0 -12 6 -14
13 -4 9 -6 9 -6 -1 -1 -7 -5 -10 -11 -7 -5 3 -10 2 -10 -4 0 -5 -3 -18 -6 -28
-5 -15 -4 -16 5 -3 9 12 12 13 20 1 7 -11 9 -11 14 0 3 8 6 5 6 -8 1 -12 6
-25 12 -29 8 -4 9 0 4 15 -4 14 -1 23 9 27 21 8 21 54 1 54 -8 0 -15 7 -15 15
0 8 5 15 11 15 5 0 7 6 3 13 -5 8 -3 8 9 -2 9 -7 14 -17 11 -22 -3 -5 -1 -9 5
-9 5 0 12 8 15 17 3 10 4 4 2 -14 -2 -28 0 -31 16 -22 10 5 18 17 18 25 0 8
-5 12 -10 9 -6 -3 -10 1 -10 10 0 9 5 13 10 10 6 -4 10 -3 9 2 -1 4 -1 17 0
27 1 18 2 17 20 -3 11 -13 24 -20 30 -17 5 4 12 2 16 -4 3 -5 1 -10 -6 -10 -8
0 -8 -4 1 -15 7 -8 19 -15 27 -15 13 0 13 -2 2 -17 -13 -15 -12 -15 8 -5 18
10 24 9 40 -11 16 -20 25 -23 72 -20 30 2 61 9 68 15 8 6 13 7 13 0 0 -5 21
-8 51 -6 44 3 49 1 38 -12 -10 -12 -14 -12 -20 -2 -5 7 -9 9 -9 3 0 -5 4 -16
9 -24 8 -12 12 -12 25 -2 14 11 16 11 16 -4 0 -12 5 -15 16 -11 9 3 20 6 26 6
6 0 8 7 4 15 -3 8 -1 15 4 15 5 0 8 -13 8 -30 -1 -22 -6 -30 -19 -30 -13 0
-17 -8 -16 -35 1 -20 6 -34 11 -32 6 3 10 14 9 26 -2 11 2 21 8 21 5 0 7 -4 4
-10 -3 -5 0 -10 9 -10 8 0 17 -6 19 -12 3 -8 6 -6 6 5 1 9 -3 17 -8 17 -5 0
-7 10 -3 22 3 12 7 17 9 11 3 -7 10 -10 18 -7 7 3 16 1 20 -5 3 -6 -2 -11 -12
-12 -16 0 -16 -1 2 -8 15 -6 22 -3 27 10 10 25 26 24 49 -3 10 -13 18 -17 19
-10 0 6 -4 12 -8 12 -11 0 -8 27 5 60 10 23 10 23 17 -13 4 -20 12 -37 18 -37
5 0 8 7 4 15 -3 9 0 15 10 15 11 0 14 -5 10 -16 -4 -9 -1 -23 5 -31 10 -11 9
-18 -5 -31 -12 -12 -16 -13 -14 -3 2 7 -3 16 -9 18 -15 5 -17 -15 -4 -35 5 -8
22 -12 45 -10 l37 3 -21 40 c-20 39 -20 92 0 80 6 -3 10 -1 10 6 0 6 -8 9 -20
6 -11 -3 -20 -2 -20 3 0 4 9 10 20 13 14 4 22 -2 29 -22 l9 -26 7 33 c9 39 15
40 39 7 20 -27 49 -35 40 -11 -3 8 -1 23 6 33 9 15 10 11 8 -23 -3 -38 -1 -42
26 -53 16 -6 32 -8 35 -6 2 3 0 5 -6 5 -5 0 -10 16 -11 36 -2 38 5 42 13 8 16
-68 24 -96 29 -102 4 -3 3 9 0 26 -4 21 -1 40 10 57 21 32 20 55 -1 56 -12 0
-8 5 11 14 29 12 29 13 8 24 -25 13 -35 14 -27 2 5 -8 -23 -31 -38 -31 -10 0
-14 39 -6 51 7 11 9 10 9 -3 0 -10 5 -18 10 -18 13 0 13 27 0 35 -6 4 -27 9
-46 11 -30 4 -37 1 -41 -16 -8 -32 -39 -24 -61 15 -6 11 -12 14 -12 7 0 -24
-20 -1 -20 24 0 41 -25 27 -39 -22 l-14 -47 -13 29 c-7 16 -13 23 -13 16 -1
-7 -6 -10 -12 -6 -8 4 -8 9 0 17 6 6 11 15 11 20 0 5 -8 -1 -18 -13 -16 -20
-21 -21 -41 -11 -14 8 -20 18 -17 28 4 10 2 13 -8 10 -8 -3 -17 1 -20 9 -7 18
-21 18 -40 -2 -14 -13 -17 -13 -22 -1 -4 11 -11 9 -33 -12 -15 -14 -26 -29
-24 -32 1 -3 -4 -6 -12 -6 -8 0 -15 4 -15 9 0 4 5 8 10 8 6 0 10 11 10 25 0
14 -5 25 -11 25 -6 0 -9 -7 -5 -15 3 -8 0 -14 -7 -12 -7 1 -11 -6 -9 -15 2
-13 -2 -16 -15 -12 -14 5 -13 3 3 -10 12 -8 38 -15 58 -14 36 1 48 12 24 21
-7 2 -10 8 -6 12 5 5 18 0 30 -11 13 -10 17 -12 11 -4 -17 19 -16 27 2 27 8 0
15 -4 15 -9 0 -4 5 -8 11 -8 6 0 8 9 4 23 l-6 22 14 -23 c7 -12 16 -19 20 -16
11 11 8 -5 -4 -28 -8 -14 -13 -17 -18 -9 -10 16 -89 -8 -95 -29 -3 -11 -4 -11
-5 3 -1 11 -9 17 -27 17 -14 0 -23 -4 -19 -10 3 -5 -1 -10 -9 -10 -9 0 -13 7
-11 20 5 24 -1 25 -21 5 -9 -8 -11 -15 -5 -15 6 0 11 -4 11 -10 0 -5 -9 -10
-21 -10 -11 0 -18 -4 -15 -9 3 -5 -3 -11 -13 -14 -12 -3 -22 1 -25 10 -5 13
-9 13 -23 2 -12 -10 -10 -4 5 18 19 27 20 31 5 28 -10 -1 -17 -8 -15 -15 2 -8
-3 -10 -13 -6 -9 3 -26 1 -37 -5 -19 -10 -20 -9 -14 16 6 24 5 26 -7 13 -10
-9 -13 -25 -10 -44 3 -17 2 -25 -3 -21 -10 10 -11 13 -13 65 -2 34 -3 36 -16
18 -13 -18 -16 -18 -40 -2 -17 11 -25 13 -25 4 0 -6 -11 -1 -24 11 -26 24 -48
21 -44 -7 2 -11 -2 -16 -12 -13 -8 2 -21 4 -27 4 -7 0 -13 4 -13 9 0 7 13 11
30 10 3 0 6 8 7 18 1 13 -5 18 -18 17 -10 -1 -19 -6 -19 -12 0 -5 -5 -2 -11 8
-5 9 -15 17 -20 17 -6 0 -7 -6 -3 -12 5 -8 0 -7 -11 2 -11 9 -16 10 -11 3 4
-7 3 -13 -3 -13 -5 0 -11 6 -14 13 -2 6 -8 9 -12 5 -4 -4 -3 -21 3 -37 6 -17
8 -31 4 -31 -5 0 -13 18 -18 40 -6 22 -7 37 -3 34 5 -3 9 0 9 6 0 7 -12 9 -29
7 -17 -3 -32 0 -35 6 -3 9 -5 9 -5 0 -1 -7 -8 -10 -18 -6 -11 4 -14 3 -9 -5 4
-7 1 -12 -8 -12 -8 0 -21 -3 -29 -6 -19 -7 -34 33 -18 49 8 8 11 5 11 -11 0
-19 2 -21 14 -10 9 8 10 15 4 19 -6 4 -8 11 -5 16 3 5 2 15 -4 23 -6 11 -9 12
-9 2 0 -7 -4 -11 -8 -8 -4 3 -13 -8 -19 -25 -7 -17 -7 -31 -2 -35 11 -7 12
-24 1 -24 -5 0 -18 9 -29 20 l-22 19 -7 -32 c-4 -18 -9 -26 -11 -19 -6 15 -33
16 -33 0 0 -9 -3 -8 -12 1 -10 10 -10 15 -1 18 7 2 9 11 6 19 -3 8 0 14 6 14
6 0 11 -5 11 -11 0 -5 5 -7 11 -3 8 4 8 9 0 17 -15 15 -14 27 4 27 8 0 15 8
15 18 0 16 -8 18 -62 16 -35 -1 -65 -3 -68 -4 -3 -1 -13 -1 -24 0 -12 1 -16
-2 -11 -11 6 -8 4 -10 -4 -5 -7 5 -10 10 -7 13 12 12 -20 31 -36 22 -10 -6
-18 -6 -18 -1 0 15 -40 8 -40 -8 -1 -13 -2 -13 -13 0 -9 12 -23 14 -55 10 -24
-4 -45 -3 -48 1 -2 5 -11 6 -20 2 -9 -3 -14 0 -12 8 3 15 -3 16 -41 4 -16 -5
-21 -4 -17 4 8 13 -10 13 -39 2 -11 -5 -28 -4 -37 1 -14 6 -18 5 -18 -7 0 -8
-3 -15 -7 -16 -5 0 -18 -2 -31 -3 -16 -2 -21 2 -18 11 3 7 1 13 -3 13 -5 0
-11 -5 -13 -12 -3 -7 -7 -6 -11 5 -5 12 -1 17 13 17 24 0 25 6 5 26 -13 14
-15 14 -15 0 0 -9 -5 -16 -11 -16 -6 0 -8 9 -4 23 7 21 6 21 -7 3 -12 -15 -17
-16 -23 -6 -5 8 -2 17 7 24 8 6 17 18 21 26 4 10 6 11 6 2 1 -7 6 -10 11 -7 6
3 10 -2 10 -12 0 -10 3 -14 8 -8 4 6 19 16 35 22 26 12 37 33 16 33 -5 0 -7
-4 -4 -10 3 -5 2 -10 -4 -10 -6 0 -7 15 -4 35 5 28 2 35 -11 35 -10 0 -14 -4
-11 -10 3 -5 1 -10 -4 -10 -6 0 -11 7 -11 15 0 8 -6 14 -12 12 -8 -1 -12 6
-10 17 2 10 -2 23 -10 27 -13 9 23 14 66 10 10 0 24 4 31 9 9 8 15 8 20 0 4
-6 15 -8 26 -5 11 4 19 2 19 -4 0 -11 -9 -13 -80 -15 -24 -1 -36 -6 -38 -19
-2 -11 3 -17 16 -17 13 0 22 -9 26 -25 4 -14 11 -25 16 -25 5 0 7 -7 3 -16 -5
-13 -2 -15 18 -9 13 4 25 11 27 15 2 4 12 6 23 3 15 -4 18 -2 13 11 -3 9 -16
16 -28 17 -54 3 -61 5 -64 21 -2 10 1 18 7 18 6 0 11 -5 11 -11 0 -6 6 -9 14
-6 7 3 19 0 25 -6 8 -8 14 -8 23 1 9 9 8 12 -8 13 -10 1 -3 5 16 8 54 11 83
-19 35 -36 -41 -14 -15 -33 48 -36 39 -1 57 2 57 10 0 6 5 15 12 19 6 4 8 3 5
-3 -8 -13 20 -26 35 -16 7 3 8 1 4 -6 -8 -13 29 -12 51 2 6 4 14 3 17 -2 4 -5
1 -11 -6 -13 -7 -3 -2 -7 10 -10 12 -4 20 -2 16 3 -3 5 0 9 5 9 6 0 11 -5 11
-11 0 -6 7 -3 16 6 15 14 17 14 31 -2 13 -17 14 -16 8 7 -5 25 -5 25 6 3 9
-17 21 -23 46 -23 18 0 33 4 33 9 0 12 27 8 42 -7 18 -18 27 -14 21 11 -4 17
-2 19 5 8 13 -19 119 -14 159 7 11 6 23 9 26 6 9 -9 99 -11 129 -3 15 4 30 4
33 -1 3 -5 21 -9 40 -8 19 1 32 4 30 8 -2 4 6 6 17 5 12 -1 24 -7 26 -13 2 -7
-2 -10 -10 -7 -7 3 -22 -1 -33 -9 -19 -15 -19 -15 8 -16 16 0 36 -4 46 -10 15
-8 18 -5 19 21 1 37 8 47 24 31 7 -7 20 -12 30 -12 22 0 23 -13 3 -34 -14 -13
-13 -16 7 -27 13 -7 24 -12 26 -11 9 7 32 0 27 -8 -3 -5 -1 -10 4 -10 6 0 11
4 11 9 0 5 24 12 53 16 28 4 57 11 63 16 8 6 13 3 17 -9 3 -14 21 -23 58 -32
30 -7 59 -12 64 -12 6 1 44 5 85 8 41 3 85 12 98 20 12 8 28 12 34 8 6 -4 9
-1 6 7 -3 9 -23 15 -59 17 -80 4 -121 8 -146 16 -12 4 -38 3 -57 -2 -29 -8
-34 -8 -29 5 5 12 -8 14 -81 11 -86 -3 -97 1 -89 33 3 11 12 14 29 11 13 -2
30 0 37 6 14 11 119 4 112 -9 -3 -4 -1 -10 5 -14 9 -5 15 22 11 48 0 4 3 7 9
7 5 0 10 -4 10 -10 0 -5 5 -10 10 -10 15 0 12 27 -3 33 -19 7 -67 -4 -67 -15
0 -6 -13 -7 -32 -2 -18 4 -41 7 -50 6 -10 0 -18 4 -18 9 0 6 -6 9 -12 6 -7 -2
-19 5 -26 17 -9 14 -12 15 -8 4 5 -15 -2 -17 -54 -17 -32 1 -64 -2 -70 -6 -9
-6 -9 -2 -1 12 10 20 6 33 -11 33 -5 0 -6 -4 -3 -10 3 -5 1 -18 -4 -27 -10
-17 -10 -17 -11 0 0 9 -4 17 -10 17 -5 0 -10 -6 -10 -14 0 -11 -9 -13 -35 -10
-22 3 -35 0 -35 -7 0 -7 -7 -8 -17 -4 -10 4 -27 9 -38 10 -16 1 -19 8 -17 31
2 22 0 25 -7 14 -5 -8 -13 -11 -17 -7 -4 4 -14 2 -21 -5 -10 -8 -17 -8 -21 -2
-7 11 -78 12 -88 1 -13 -13 5 -37 22 -30 11 4 15 2 11 -4 -10 -15 -87 -13 -87
3 0 8 -10 12 -25 10 -26 -3 -48 -16 -27 -16 23 0 11 -16 -13 -18 -26 -2 -36
22 -13 31 7 3 3 6 -9 6 -13 1 -23 -3 -23 -9 0 -14 -19 -12 -36 4 -7 8 -32 17
-54 21 -25 4 -40 12 -40 21 0 8 -7 14 -15 14 -18 0 -19 -12 -3 -28 9 -9 4 -12
-22 -12 -31 0 -32 1 -15 14 16 12 13 14 -35 20 -54 7 -75 1 -50 -14 17 -10 13
-17 -15 -22 -16 -2 -20 3 -20 22 0 15 -5 24 -12 23 -7 -2 -13 2 -13 7 0 6 -8
10 -17 10 -11 0 -14 -3 -7 -8 15 -10 25 -42 14 -42 -6 0 -10 6 -10 13 0 8 -2
9 -8 1 -5 -8 -20 -8 -57 1 -27 7 -82 15 -122 19 -39 3 -84 11 -99 16 -19 8
-29 8 -34 0 -8 -12 -160 -20 -160 -8 0 9 -32 11 -54 2 -8 -3 -12 -12 -9 -20 4
-10 0 -12 -11 -8 -9 3 -16 10 -16 14 0 4 -16 11 -35 14 -19 4 -35 11 -35 16 0
13 13 13 27 -1 8 -8 13 -8 17 0 4 6 34 11 66 11 32 0 61 4 64 8 3 5 27 5 53 1
67 -11 85 -11 78 1 -11 18 27 11 41 -7 13 -17 13 -17 14 0 0 9 6 18 13 18 42
5 117 5 117 0 0 -12 84 -14 288 -9 63 2 116 -1 119 -6 3 -4 9 -3 13 3 5 9 29
10 84 5 52 -5 73 -10 64 -16 -9 -6 -6 -7 9 -3 17 5 23 2 23 -9 0 -12 10 -16
36 -16 21 0 33 4 29 10 -4 6 6 10 22 10 22 0 25 -2 13 -10 -8 -5 -10 -10 -4
-10 6 0 17 7 24 15 7 9 17 12 24 7 19 -14 71 -14 114 1 23 8 42 11 42 6 0 -5
5 -9 10 -9 6 0 10 6 10 14 0 8 9 18 21 21 16 5 18 9 8 21 -10 12 1 13 76 8 68
-6 86 -4 81 5 -8 12 28 11 149 -6 22 -3 73 -7 112 -10 63 -4 72 -3 67 11 -3 9
-9 14 -13 12 -4 -3 -13 -1 -21 5 -10 5 -11 9 -3 9 7 0 10 6 7 14 -3 8 -1 17 5
21 6 3 11 0 11 -7 0 -10 2 -10 9 0 6 10 10 3 15 -22 6 -33 10 -36 36 -34 17 1
30 6 30 11 0 5 -9 6 -19 2 -11 -3 -22 -1 -26 5 -4 6 4 10 20 10 15 0 24 4 20
10 -3 6 -17 7 -31 4 -17 -4 -24 -2 -24 8 0 10 11 13 40 10 22 -2 37 -8 34 -13
-3 -5 0 -9 5 -9 6 0 11 5 11 10 0 6 9 10 21 10 13 0 18 -4 13 -12 -6 -10 -5
-10 7 -2 9 8 51 11 119 9 128 -3 123 -2 114 -17 -4 -7 -3 -8 4 -4 19 12 14
-25 -6 -40 -15 -12 -9 -13 43 -13 52 1 56 2 33 11 -25 9 -33 19 -29 41 0 4 -6
7 -14 7 -17 0 -19 18 -6 39 7 11 10 9 15 -7 7 -20 22 -28 71 -38 11 -2 7 3
-10 12 -26 13 -27 14 -5 9 24 -5 164 -9 698 -19 148 -3 228 -9 237 -16 11 -9
19 -8 37 4 24 17 68 22 68 8 0 -5 15 -9 33 -9 105 -1 215 -9 211 -15 -3 -5
-17 -8 -32 -8 -24 -1 -25 -2 -8 -12 11 -6 50 -9 99 -6 45 3 96 2 114 -2 18 -5
35 -4 38 0 3 4 25 6 49 3 l45 -4 0 95 0 96 -27 0 c-16 0 -33 5 -40 12 -9 9
-12 4 -13 -23 -1 -34 -1 -34 -10 -8 -9 24 -49 48 -49 30 0 -8 -191 -3 -199 5
-2 2 25 4 60 4 71 0 105 13 79 30 -13 8 -12 10 3 10 10 0 17 7 17 18 0 14 -2
15 -10 2 -7 -10 -9 3 -7 45 l3 60 -233 0 c-173 0 -233 -3 -233 -12 0 -6 12
-14 28 -16 l27 -4 -27 -2 c-28 -1 -28 -1 -28 -75 0 -50 4 -76 13 -79 6 -3 -85
-5 -203 -4 l-215 2 190 2 190 3 -3 75 -4 75 -196 3 -197 2 198 3 c167 2 197 4
197 17 0 13 -33 15 -234 15 l-234 0 1 -82 c0 -72 -2 -83 -16 -82 -9 1 -17 -4
-17 -12 0 -8 -4 -14 -8 -14 -5 0 -10 30 -11 68 -1 37 -3 76 -4 87 -1 11 3 19
11 17 6 -1 12 2 12 8 0 6 -37 10 -90 10 -97 0 -124 -17 -37 -23 l52 -3 -52 -2
-53 -2 0 -75 0 -75 -107 0 c-115 0 -184 18 -83 21 34 2 43 4 24 6 -25 3 -33
10 -37 32 -8 37 -32 46 -57 21 -16 -16 -25 -18 -39 -11 -40 22 -79 -20 -50
-55 8 -10 0 -12 -33 -9 l-43 3 -7 81 c-4 44 -9 85 -13 91 -10 16 -282 13 -288
-2 -4 -10 -6 -10 -6 0 -1 8 -25 12 -86 12 l-85 0 0 -52 c0 -51 0 -51 -19 -29
-15 18 -20 19 -24 6 -5 -11 -12 -13 -32 -5 -14 5 -25 6 -25 2 -1 -21 -20 27
-20 51 0 26 -1 27 -62 28 -35 1 -74 2 -88 3 -14 1 -31 -3 -38 -8 -22 -15 -19
-2 5 21 20 19 23 20 24 5 0 -14 2 -14 9 3 6 13 9 15 9 5 1 -12 3 -13 10 -1 9
15 93 22 113 10 7 -4 18 -3 25 3 10 8 13 7 13 -3 0 -11 2 -11 10 1 7 11 10 11
10 2 0 -7 5 -10 11 -6 6 3 15 0 20 -7 14 -22 29 8 29 61 0 25 4 56 8 70 5 19
8 10 12 -37 l5 -63 233 -4 232 -4 0 78 c0 43 5 82 10 85 6 4 10 -7 10 -24 l0
-31 83 0 82 0 -71 40 -72 39 -512 7 -511 7 6 -39 c4 -22 11 -56 15 -76 5 -27
4 -38 -4 -38 -6 0 -5 -4 3 -9 7 -5 10 -14 7 -20 -9 -14 -56 -15 -56 -1 0 6 -9
10 -19 10 -11 0 -28 11 -39 24 -10 13 -32 26 -48 29 -16 2 -1 5 32 6 l61 1 7
38 c3 20 6 49 6 63 l0 26 -318 3 c-373 3 -693 6 -740 9 -30 1 -33 4 -30 29 2
22 8 28 36 30 31 3 32 5 33 50 1 48 15 109 19 82 1 -8 2 -21 1 -27 -2 -14 11
-17 23 -6 3 4 20 8 36 9 29 2 30 1 30 -37 l0 -39 49 0 50 0 3 38 c3 34 5 37
33 36 58 -3 57 -2 53 -39 l-4 -35 43 0 c42 0 43 1 44 33 0 17 4 41 9 52 6 15
9 6 9 -32 l1 -53 150 0 150 0 0 50 c0 28 5 50 10 50 6 0 10 -22 10 -50 l0 -50
148 0 148 0 11 63 c5 34 6 64 2 67 -5 3 -235 5 -511 3 -277 -1 -518 1 -535 4
-28 4 -33 9 -33 34 0 26 3 29 33 29 27 1 29 2 14 11 -9 6 -27 12 -40 14 -12 3
-35 8 -52 11 -16 4 -43 7 -60 6 -29 -1 -29 -1 -7 10 26 13 29 28 5 29 -10 0
-39 1 -65 3 -35 2 -45 0 -41 -10z m673 -503 c14 -3 80 -5 147 -3 l121 3 10 47
10 47 1 -47 c1 -48 1 -48 36 -48 24 0 35 -5 35 -15 0 -8 -8 -14 -17 -12 -10 1
-20 -2 -23 -8 -11 -24 -45 -51 -52 -41 -4 6 -2 14 5 19 8 5 5 7 -8 4 -11 -2
-19 -9 -18 -15 2 -7 -2 -12 -7 -12 -6 0 -10 -7 -10 -16 0 -15 -14 -16 -136 -9
l-137 7 5 -25 c4 -18 1 -24 -9 -20 -7 3 -13 14 -13 24 0 18 -9 19 -134 19 -73
0 -154 3 -180 6 l-46 7 0 -32 c0 -17 -5 -31 -11 -31 -7 0 -8 12 -4 33 16 70 9
68 193 67 92 0 173 -1 180 0 6 0 12 13 12 29 0 15 3 50 7 77 l8 49 5 -49 c4
-43 8 -50 30 -55z m152 -438 c0 -10 1 -24 1 -30 -1 -7 5 -13 12 -13 7 0 22 -3
32 -7 12 -4 10 0 -7 15 -14 12 -20 21 -14 22 6 0 14 -3 18 -7 4 -4 17 -8 29
-8 12 0 21 -6 20 -12 -2 -7 1 -13 7 -13 6 0 10 3 10 8 0 4 21 6 47 5 27 -1 65
2 86 6 21 5 39 5 43 0 3 -5 28 -9 55 -9 28 0 70 -5 94 -11 39 -10 42 -13 30
-26 -12 -11 -18 -12 -37 -1 -13 7 -54 14 -93 15 -38 1 -92 4 -118 6 -36 3 -47
1 -43 -8 2 -7 -4 -15 -15 -18 -10 -3 -19 -2 -19 2 0 8 -50 14 -100 13 -82 -2
-175 -1 -178 2 -2 2 25 8 59 13 48 6 63 12 65 26 1 9 -4 17 -12 17 -8 0 -14 7
-14 15 0 21 40 19 42 -2z"/>
<path d="M2958 1613 c2 -38 5 -69 6 -69 0 -1 105 -3 231 -5 l230 -4 3 58 c4
72 22 66 22 -8 l0 -54 235 -1 235 0 1 37 c2 42 5 70 10 93 4 13 -56 15 -486
18 l-491 2 4 -67z"/>
<path d="M1857 1634 c-4 -4 -7 -38 -7 -75 l0 -68 230 -1 230 -1 0 71 0 70
-209 0 c-115 0 -216 2 -223 5 -8 3 -17 2 -21 -1z"/>
<path d="M2747 1623 c-9 -8 -9 -76 -1 -125 l7 -38 78 0 79 0 0 85 0 85 -78 0
c-43 0 -82 -3 -85 -7z"/>
<path d="M2324 1530 c3 -14 6 -38 6 -55 0 -28 7 -34 104 -82 102 -52 105 -53
195 -53 l91 0 0 95 0 95 -188 0 c-137 0 -192 3 -201 13 -11 10 -13 8 -7 -13z"/>
<path d="M2958 1353 c3 -57 7 -73 20 -77 9 -3 69 -6 132 -7 63 -2 121 -7 127
-12 7 -5 22 -7 32 -4 11 3 23 0 26 -7 3 -8 7 -8 11 2 3 6 10 12 15 12 6 0 7
-5 3 -11 -5 -8 1 -10 19 -7 15 3 24 1 21 -3 -3 -5 6 -9 19 -9 30 0 37 16 43
95 6 70 12 91 22 81 9 -9 9 -13 11 -87 1 -54 4 -62 23 -67 21 -5 21 -6 2 -13
-14 -5 -11 -7 13 -6 20 1 28 6 23 12 -5 6 2 10 18 11 15 0 89 1 165 2 l137 2
0 59 c0 60 7 73 48 85 21 7 22 4 22 -38 0 -25 5 -46 10 -46 6 0 10 20 10 43 0
34 4 46 20 53 13 5 -177 9 -487 9 l-508 0 3 -72z"/>
<path d="M4010 1408 c-17 -16 -19 -22 -9 -29 11 -6 10 -9 -4 -15 -18 -7 -24
-44 -7 -44 6 0 10 -6 10 -14 0 -22 32 -29 44 -9 9 16 10 16 16 -2 4 -11 1 -25
-6 -33 -7 -7 -10 -20 -7 -29 5 -14 7 -13 14 4 4 12 14 24 21 28 10 6 11 5 1
-6 -7 -7 -13 -24 -13 -38 0 -20 2 -23 10 -11 5 8 12 11 16 7 4 -3 1 -13 -5
-21 -9 -11 -19 -13 -37 -5 -14 5 -41 9 -59 9 -29 0 -33 -3 -28 -17 4 -10 11
-21 17 -25 7 -5 7 -8 -1 -8 -9 0 -13 -18 -13 -55 0 -52 1 -55 25 -55 19 0 25
-5 25 -21 0 -15 4 -19 16 -15 9 3 31 6 50 6 l34 0 0 184 0 184 -22 -6 c-21 -5
-22 -4 -8 13 13 17 13 18 -1 13 -12 -5 -16 -2 -12 10 6 25 -41 25 -67 0z"/>
<path d="M2838 1403 l-88 -4 0 -84 0 -85 75 0 75 0 0 58 c0 31 3 68 7 82 l7
25 7 -30 c6 -29 7 -29 8 8 0 20 0 36 -1 35 -2 -1 -42 -4 -90 -5z"/>
<path d="M2330 1210 l0 -100 65 0 c41 0 65 -4 65 -11 0 -8 4 -8 14 0 10 8 53
11 128 10 95 -1 113 1 116 14 2 8 -5 17 -15 20 -17 4 -17 5 0 6 14 1 17 12 17
75 0 53 -4 75 -14 79 -7 3 -95 6 -195 7 l-181 1 0 -101z"/>
<path d="M2624 625 c3 -8 1 -15 -3 -15 -5 0 -11 5 -13 11 -2 6 -14 2 -30 -10
-32 -25 -50 -27 -46 -5 2 10 -3 19 -9 21 -7 3 -13 -2 -13 -11 0 -9 -7 -16 -16
-16 -9 0 -14 -6 -12 -12 5 -14 103 -19 129 -7 9 5 24 3 35 -5 10 -8 28 -16 39
-19 11 -3 -4 -4 -33 -2 -42 3 -54 0 -62 -14 -9 -19 -6 -20 53 -22 15 0 27 -4
27 -9 0 -8 45 -6 119 6 38 6 41 8 23 15 -12 5 -22 13 -22 19 0 12 119 2 137
-12 7 -6 28 -10 48 -10 19 0 32 -4 29 -9 -3 -5 3 -9 13 -9 13 -1 11 -5 -9 -16
-16 -8 -28 -17 -28 -20 0 -2 9 0 19 6 26 13 27 13 28 -10 1 -11 -3 -20 -9 -20
-6 0 -8 -3 -5 -7 4 -3 0 -14 -9 -24 -15 -17 -15 -19 0 -34 9 -9 16 -12 16 -6
0 6 9 11 20 11 12 0 20 7 20 18 0 14 -2 15 -10 2 -8 -12 -10 -11 -10 7 0 12 6
24 13 26 8 4 8 8 2 14 -13 11 -17 53 -5 53 6 0 10 -4 10 -10 0 -13 47 -13 55
-1 3 6 14 9 25 8 10 -1 16 -5 13 -10 -3 -4 -11 -6 -19 -3 -21 8 -17 -4 8 -26
12 -11 31 -17 41 -14 13 3 21 -2 25 -16 5 -19 6 -19 17 -5 11 15 14 15 31 2
12 -10 13 -13 4 -10 -11 4 -16 -1 -16 -15 0 -11 4 -20 8 -20 4 0 8 5 8 12 0 6
3 9 6 5 7 -7 28 12 37 33 4 11 6 10 6 -4 1 -12 6 -16 16 -13 22 9 26 -8 9 -39
-16 -29 -16 -29 -10 -3 4 19 2 26 -10 26 -10 0 -14 -7 -11 -17 3 -13 -3 -17
-24 -18 -16 0 -34 -4 -41 -9 -22 -13 -43 -9 -55 12 -11 18 -12 18 -13 2 0 -14
-5 -17 -22 -12 -15 5 -26 1 -37 -13 -9 -12 -29 -24 -45 -28 -27 -6 -29 -5 -24
20 3 14 1 29 -3 32 -5 3 -9 -4 -9 -15 0 -12 -3 -21 -7 -22 -5 0 -21 -2 -37 -3
-15 -1 -34 -10 -42 -21 -8 -10 -14 -14 -14 -7 0 6 -7 9 -16 5 -23 -9 -14 -49
11 -45 11 2 26 4 33 4 8 1 10 9 6 22 -6 19 -6 19 11 3 22 -23 13 -45 -25 -60
-28 -12 -28 -14 -13 -30 15 -15 15 -16 -4 -11 -12 3 -23 14 -26 25 -5 20 -37
27 -37 8 0 -6 6 -9 14 -6 10 4 16 -2 18 -21 2 -18 11 -28 28 -33 16 -5 19 -7
7 -8 -26 -1 -31 -26 -11 -56 9 -14 14 -28 12 -31 -10 -9 -38 8 -39 25 0 11 -3
8 -10 -7 -5 -15 -13 -21 -21 -16 -22 14 -60 13 -75 -2 -8 -7 -19 -14 -24 -14
-16 0 -9 19 11 30 11 6 18 15 15 21 -4 5 -1 9 4 9 6 0 11 -5 11 -11 0 -8 4 -8
14 0 10 9 16 8 26 -4 16 -19 30 -19 30 0 0 8 5 15 12 15 9 0 9 3 1 11 -6 6 -9
17 -7 24 6 14 -22 28 -37 19 -13 -8 -11 20 3 34 9 9 9 12 0 12 -7 0 -12 -4
-12 -10 0 -5 -7 -10 -16 -10 -8 0 -12 5 -9 10 3 6 1 10 -6 10 -6 0 -9 -8 -6
-20 3 -11 1 -20 -4 -20 -5 0 -9 6 -9 13 0 8 -4 7 -10 -3 -7 -11 -10 -11 -10
-2 0 7 -4 10 -10 7 -6 -4 -10 6 -11 22 -1 26 -2 26 -9 -7 -5 -22 -5 -37 2 -41
7 -4 6 -9 -1 -13 -13 -8 10 -36 28 -36 6 0 11 -5 11 -10 0 -7 -6 -7 -18 -1
-25 13 -46 40 -39 48 4 3 2 12 -4 20 -9 9 -8 13 0 13 6 0 11 5 11 11 0 5 -4 7
-10 4 -5 -3 -10 -1 -10 6 0 8 -4 8 -15 -1 -11 -9 -15 -9 -15 -1 0 9 -5 9 -20
1 -11 -6 -20 -8 -20 -5 0 3 -11 -6 -24 -21 -20 -24 -25 -26 -37 -14 -8 8 -14
24 -14 34 0 13 -8 20 -23 21 -20 2 -21 0 -7 -15 20 -22 19 -25 -5 -27 -11 -1
-19 1 -19 5 1 4 1 16 0 27 -1 16 -3 17 -10 6 -8 -12 -12 -12 -25 2 -18 18 -46
13 -46 -8 0 -8 7 -20 15 -29 20 -20 19 -25 -5 -19 -15 4 -20 0 -20 -16 0 -11
5 -21 10 -21 6 0 10 -10 10 -22 -1 -22 -1 -23 -15 -4 -8 11 -15 15 -15 10 0
-6 5 -15 11 -21 14 -14 -4 -79 -20 -75 -7 1 -10 -2 -7 -7 8 -13 49 -10 58 4 5
6 8 6 8 -2 0 -9 18 -13 59 -13 57 0 58 1 53 25 -5 26 3 31 27 16 9 -6 10 -11
2 -15 -16 -10 -14 -26 4 -26 8 0 15 9 15 21 0 13 4 18 12 13 7 -5 9 -2 6 7 -4
10 1 15 13 16 10 1 19 -3 19 -8 0 -6 4 -8 9 -5 4 3 7 18 5 33 -2 16 -1 20 2
10 3 -9 14 -17 25 -17 10 0 19 -7 19 -15 0 -8 4 -15 9 -15 5 0 12 -7 15 -16 5
-14 4 -15 -9 -4 -10 8 -15 9 -15 1 0 -6 -11 -10 -25 -9 -14 1 -25 5 -25 9 0
10 -44 3 -47 -8 -2 -6 42 -10 117 -12 l120 -2 0 23 c0 13 -4 28 -9 34 -6 5 1
10 20 11 34 3 34 2 14 -37 l-16 -30 36 0 c38 0 46 13 18 29 -10 6 -13 11 -8
11 6 1 25 3 43 4 24 3 37 -2 50 -19 16 -21 26 -22 122 -23 87 -1 105 1 117 16
12 16 14 16 26 1 11 -15 55 -17 425 -18 l412 -2 0 136 c0 130 -1 138 -22 156
-27 22 -44 24 -51 7 -3 -7 -6 -4 -7 7 l-1 20 -9 -20 c-7 -16 -9 -17 -9 -3 -1
11 -7 15 -20 11 -12 -3 -20 2 -24 16 -3 12 -1 21 4 21 5 0 9 -7 9 -15 0 -8 6
-12 13 -10 6 3 35 6 62 8 l50 3 3 81 c3 73 1 81 -17 86 -11 2 -22 2 -26 -1 -9
-9 -35 -11 -35 -2 0 13 -123 11 -132 -2 -5 -9 -8 -4 -8 12 0 19 -3 21 -9 11
-11 -17 -39 -23 -47 -10 -3 5 -11 9 -17 9 -7 0 -6 -4 3 -10 23 -15 6 -12 -26
5 -16 8 -38 15 -49 14 l-20 0 20 -10 c14 -6 3 -7 -35 -3 -30 4 -63 6 -73 6
-12 -1 -17 4 -13 14 6 16 -9 19 -19 4 -4 -6 -10 -8 -15 -5 -5 3 -11 1 -15 -5
-3 -5 -13 -10 -21 -10 -9 0 -12 5 -8 11 5 9 -1 10 -20 5 -16 -4 -26 -2 -26 4
0 7 -5 8 -12 3 -23 -14 -56 -10 -50 6 3 9 1 12 -6 7 -7 -4 -12 -13 -12 -20 0
-7 -14 -12 -36 -13 -29 -1 -34 2 -30 15 5 15 4 15 -6 1 -10 -14 -14 -14 -47 3
-31 16 -36 17 -39 3 -4 -19 -10 -19 -28 0 -9 8 -23 15 -32 14 -14 0 -14 -2 2
-8 12 -5 -4 -8 -43 -9 -34 -1 -70 -6 -81 -12 -11 -6 -21 -6 -24 -1 -3 5 1 11
9 15 8 3 12 12 9 20 -4 12 -24 15 -82 16 -43 1 -89 2 -104 2 -16 1 -28 5 -28
9 0 5 -11 9 -25 9 -14 0 -25 -5 -25 -12 0 -6 -7 -3 -16 8 -8 10 -13 14 -10 7
8 -15 -10 -27 -19 -13 -4 6 -16 8 -27 4 -17 -5 -20 -3 -15 10 5 13 0 16 -24
16 -17 0 -39 -4 -49 -10 -15 -8 -17 -6 -13 10 4 14 0 20 -12 20 -11 0 -15 -5
-11 -15z m771 -306 l-40 -6 38 -2 c21 0 36 -5 32 -10 -3 -5 5 -11 17 -13 12
-2 23 -8 25 -15 4 -12 -14 -12 -34 0 -8 5 -13 3 -13 -3 0 -18 -28 -42 -35 -30
-3 5 -16 10 -28 10 -16 0 -19 -3 -8 -9 7 -5 10 -15 7 -22 -4 -8 -1 -6 7 4 15
18 17 16 32 -38 1 -5 -9 -10 -24 -11 -21 -1 -26 4 -28 24 0 13 -6 29 -13 36
-8 8 -10 7 -5 -5 10 -26 -32 -32 -56 -8 -11 11 -17 24 -14 29 4 6 2 10 -4 10
-5 0 -11 -6 -14 -12 -2 -7 -8 -10 -12 -6 -4 4 -2 15 6 24 12 15 11 16 -11 9
-14 -5 -36 -9 -50 -9 -17 -1 -26 -7 -28 -21 -3 -16 -1 -17 7 -5 9 13 11 13 11
-2 0 -10 7 -18 15 -18 8 0 15 -9 15 -20 0 -11 5 -20 10 -20 6 0 10 3 10 8 0 4
17 8 38 9 33 1 35 0 15 -9 -13 -6 -23 -15 -23 -20 0 -5 -8 -17 -17 -26 -16
-16 -16 -16 -11 5 4 16 2 20 -8 16 -8 -3 -14 0 -14 6 0 6 -13 11 -30 11 -20 0
-30 5 -30 15 0 25 -1 29 -13 44 -7 8 -7 12 -2 9 6 -4 11 3 12 15 0 12 -1 16
-4 9 -3 -6 -9 -10 -14 -6 -5 3 -9 -2 -9 -10 0 -19 -5 -20 -31 -6 -15 8 -19 7
-19 -5 0 -8 -7 -15 -15 -15 -8 0 -15 -7 -15 -15 0 -8 5 -15 12 -15 21 0 -1
-13 -27 -16 -24 -2 -24 -2 -9 21 9 14 13 33 9 45 -8 25 3 26 21 3 13 -17 14
-17 8 0 -5 13 1 18 24 23 17 4 32 13 34 20 3 12 7 12 30 0 18 -9 28 -11 30 -4
5 14 78 22 78 8 0 -5 7 -10 17 -10 14 0 14 2 -2 20 -18 19 -17 20 4 20 12 0
19 -4 16 -10 -4 -6 8 -8 31 -5 24 3 41 0 46 -8 6 -9 8 -9 8 1 0 17 39 31 65
23 15 -4 10 -7 -20 -12z"/>
<path d="M2868 505 c-23 -22 -27 -22 -33 -7 -6 15 -8 14 -16 -6 -4 -12 -6 -30
-3 -40 4 -12 3 -14 -4 -4 -7 11 -12 10 -26 -3 -22 -22 -20 -28 5 -20 15 5 19
4 14 -5 -4 -7 -17 -9 -32 -5 -16 4 -22 2 -18 -5 8 -12 -5 -13 -25 0 -9 5 -19
5 -26 -1 -9 -7 -17 -4 -27 11 -12 18 -17 19 -28 7 -20 -19 -31 -21 -40 -5 -7
10 -9 8 -10 -7 0 -11 -3 -15 -6 -8 -3 9 -11 5 -26 -10 -25 -25 -47 -32 -47
-16 0 8 -6 7 -17 -2 -12 -10 -14 -10 -9 -1 5 9 -2 11 -29 6 -25 -4 -35 -2 -30
5 4 7 -6 11 -29 11 -19 0 -37 -6 -39 -12 -3 -8 -6 -6 -6 5 -1 9 -8 17 -16 17
-8 0 -15 5 -15 11 0 5 -4 7 -10 4 -5 -3 -10 -1 -10 6 0 9 -3 9 -14 0 -9 -8
-16 -8 -20 -2 -8 12 -50 5 -54 -8 -2 -6 -10 -7 -18 -4 -10 3 -12 0 -9 -10 5
-11 -1 -14 -24 -11 -22 3 -31 -1 -31 -11 0 -8 -5 -15 -11 -15 -5 0 -7 5 -4 10
3 6 1 10 -4 10 -6 0 -11 -7 -11 -15 0 -8 -7 -16 -15 -16 -31 -3 -35 -4 -35
-11 0 -5 0 -11 0 -14 0 -4 7 -1 15 6 12 10 15 10 15 -3 0 -9 7 -14 18 -12 9 2
21 4 25 4 5 1 6 5 3 9 -2 4 4 8 14 8 10 0 16 -4 14 -8 -8 -12 10 -10 23 3 7 7
15 6 26 -5 13 -14 15 -13 20 5 3 12 10 18 16 14 6 -3 9 -10 6 -15 -3 -4 10
-10 28 -13 17 -3 41 -7 52 -10 11 -2 23 0 26 5 3 5 12 1 20 -8 12 -15 12 -17
0 -9 -10 6 -12 4 -7 -4 6 -9 14 -8 33 4 14 10 23 12 19 7 -3 -6 -2 -13 4 -17
5 -3 10 -2 10 4 0 6 16 13 36 17 20 4 31 10 25 14 -9 5 -8 10 3 19 16 13 32
-1 21 -19 -3 -6 -1 -10 5 -10 8 0 10 9 5 27 -4 16 -3 25 0 21 4 -4 21 0 37 8
48 25 69 26 75 4 4 -15 12 -19 29 -16 13 3 24 0 24 -5 0 -8 -23 -14 -43 -10
-5 1 -6 -3 -2 -9 4 -6 15 -8 26 -5 11 4 19 2 19 -4 0 -6 -6 -11 -14 -11 -10 0
-12 -7 -8 -22 5 -19 7 -20 10 -5 2 9 8 15 13 12 17 -11 31 6 18 21 -6 8 -9 15
-5 15 3 1 11 3 16 4 6 1 16 3 23 4 7 0 17 11 22 23 6 11 21 25 34 30 21 7 22
6 11 -7 -12 -15 -3 -21 24 -16 5 1 3 -6 -5 -15 -13 -16 -12 -16 11 -4 21 10
23 10 13 -1 -7 -7 -13 -20 -13 -28 0 -14 1 -14 10 -1 5 8 10 10 10 3 0 -21 34
-6 40 18 l6 24 8 -25 c7 -20 9 -22 13 -7 2 9 11 17 19 17 9 0 14 11 14 31 0
28 -1 29 -16 15 -17 -17 -34 -21 -34 -7 0 4 -11 6 -24 4 -29 -6 -69 14 -63 30
2 7 15 11 28 9 20 -2 24 2 25 23 2 24 1 25 -12 8 -10 -14 -13 -14 -14 -4 0 8
10 25 22 38 28 30 20 30 -14 -2z"/>
<path d="M1336 495 c6 -16 4 -17 -17 -11 -39 12 -90 15 -83 5 3 -5 -2 -9 -11
-9 -9 0 -14 4 -10 9 6 10 -43 9 -60 -1 -6 -3 -20 -4 -32 -3 -16 1 -23 -4 -23
-16 0 -11 6 -16 18 -15 9 2 20 -2 24 -8 4 -6 11 -1 17 14 l10 25 1 -25 c0 -20
2 -22 10 -10 8 12 10 11 10 -7 0 -12 5 -25 12 -29 7 -4 8 -3 4 4 -4 7 -2 12 3
12 6 0 11 -4 11 -9 0 -4 12 -6 26 -3 18 3 25 1 20 -6 -7 -12 3 -42 14 -42 5 0
7 9 5 20 -5 24 11 36 19 15 8 -22 36 -18 36 5 0 11 4 20 9 20 13 0 23 -17 13
-22 -5 -1 -12 -17 -15 -35 -5 -27 -3 -31 13 -30 10 1 16 5 14 9 -3 4 1 8 9 8
8 0 18 -7 21 -16 6 -15 9 -15 32 1 15 9 24 13 21 9 -3 -5 5 -10 18 -10 23 -2
23 -1 5 18 -10 11 -23 17 -29 13 -6 -3 -11 -1 -11 4 0 6 -7 11 -15 11 -9 0
-15 9 -15 22 0 20 1 20 19 4 18 -16 22 -16 50 -2 22 12 32 13 37 4 5 -7 3 -8
-6 -3 -9 5 -11 4 -6 -3 4 -7 14 -12 22 -12 10 0 12 5 7 13 -4 6 5 4 21 -6 30
-20 46 -18 22 2 -8 7 -12 20 -9 28 4 11 3 14 -6 9 -6 -4 -19 -2 -27 5 -13 10
-17 10 -23 0 -6 -10 -12 -9 -25 4 -9 9 -16 12 -16 8 0 -13 -70 -11 -71 2 0 5
-4 1 -9 -10 -5 -11 -9 -15 -9 -8 -1 7 -12 24 -26 39 -18 19 -24 22 -19 9z"/>
</g>
</svg>
