<svg id="Capa_1" enable-background="new 0 0 512 512" height="512" viewBox="0 0 512 512" width="512" xmlns="http://www.w3.org/2000/svg"><g><path d="m391 208v72c0 5.42-2.92 10.42-7.65 13.07l-120.35 67.7v39.23c0 8.28-6.72 15-15 15s-15-6.72-15-15v-37.43l-102.04-36.44c-5.97-2.14-9.96-7.79-9.96-14.13v-72c0-8.28 6.72-15 15-15s15 6.72 15 15v61.43l82 29.29v-234.72c0-8.28 6.72-15 15-15s15 6.72 15 15v230.35l98-55.12v-63.23c0-8.28 6.72-15 15-15s15 6.72 15 15z" fill="#4d5788"/><path d="m391 208v72c0 5.42-2.92 10.42-7.65 13.07l-120.35 67.7v39.23c0 8.28-6.72 15-15 15v-334c8.28 0 15 6.72 15 15v230.35l98-55.12v-63.23c0-8.28 6.72-15 15-15s15 6.72 15 15z" fill="#313a6b"/><path d="m296 111h-96c-11.6 0-18.824-12.654-12.9-22.65l48-81c5.779-9.761 19.985-9.822 25.8 0l48 81c5.915 9.981-1.281 22.65-12.9 22.65z" fill="#9cd6f4"/><path d="m296 111h-48v-111c5.3 0 10.2 2.79 12.9 7.35l48 81c5.915 9.981-1.281 22.65-12.9 22.65z" fill="#7fa6fb"/><path d="m311 448c0 34.865-28.201 64-63 64-34.717 0-63-29.061-63-64 0-34.74 28.26-63 63-63s63 28.26 63 63z" fill="#e27a4e"/><path d="m311 448c0 34.865-28.201 64-63 64v-127c34.74 0 63 28.26 63 63z" fill="#dc455b"/><circle cx="136" cy="208" fill="#f3d652" r="47"/><path d="m408 129h-64c-8.284 0-15 6.716-15 15v64c0 8.284 6.716 15 15 15h64c8.284 0 15-6.716 15-15v-64c0-8.284-6.716-15-15-15z" fill="#e58f22"/></g></svg>