<?xml version="1.0" encoding="UTF-8" standalone="no"?>
<svg
   xmlns:dc="http://purl.org/dc/elements/1.1/"
   xmlns:cc="http://creativecommons.org/ns#"
   xmlns:rdf="http://www.w3.org/1999/02/22-rdf-syntax-ns#"
   xmlns:svg="http://www.w3.org/2000/svg"
   xmlns="http://www.w3.org/2000/svg"
   viewBox="0 0 666.66669 666.66669"
   height="666.66669"
   width="666.66669"
   xml:space="preserve"
   id="svg2"
   version="1.1"><metadata
     id="metadata8"><rdf:RDF><cc:Work
         rdf:about=""><dc:format>image/svg+xml</dc:format><dc:type
           rdf:resource="http://purl.org/dc/dcmitype/StillImage" /></cc:Work></rdf:RDF></metadata><defs
     id="defs6"><clipPath
       id="clipPath24"
       clipPathUnits="userSpaceOnUse"><path
         style="clip-rule:evenodd"
         id="path22"
         d="m 4287.73,1134.84 c 185.65,0 318.21,-27.14 339.65,-204.828 21.47,-177.676 -91.74,-378.789 -327.17,-381.555 -235.44,-2.773 -342.67,194.055 -344.06,349.934 -1.38,155.889 145.94,236.449 331.58,236.449 v 0" /></clipPath><clipPath
       id="clipPath34"
       clipPathUnits="userSpaceOnUse"><path
         style="clip-rule:evenodd"
         id="path32"
         d="m 4291.91,1157.19 c 185.64,0 330.63,-74.13 336.16,-241.096 5.54,-166.946 -150.52,-298.465 -336.16,-298.465 -185.64,0 -320.29,124.051 -335.5,277.176 -15.22,153.125 149.86,262.385 335.5,262.385 v 0" /></clipPath><clipPath
       id="clipPath46"
       clipPathUnits="userSpaceOnUse"><path
         style="clip-rule:evenodd"
         id="path44"
         d="m 4291.91,1182.1 c 185.64,0 336.2,-120.81 336.2,-269.795 0,-148.953 -150.56,-269.785 -336.2,-269.785 -185.64,0 -336.2,120.832 -336.2,269.785 0,148.985 150.56,269.795 336.2,269.795 v 0" /></clipPath><clipPath
       id="clipPath58"
       clipPathUnits="userSpaceOnUse"><path
         style="clip-rule:evenodd"
         id="path56"
         d="m 4033.36,963.945 c 20.98,66.885 64.86,112.495 117.73,139.665 5.41,-11.34 10.47,-22.91 15.14,-34.68 -53.14,-21.38 -100.66,-55.84 -132.87,-104.985 z m 131.02,146.035 c 112.85,50.21 259.64,21.59 315.34,-60.91 -69.21,49.82 -191.79,62.29 -296.95,26.01 -5.8,11.88 -11.98,23.48 -18.39,34.9 v 0" /></clipPath><clipPath
       id="clipPath68"
       clipPathUnits="userSpaceOnUse"><path
         style="clip-rule:evenodd"
         id="path66"
         d="m 4039.59,957.715 c 29.3,43.555 75.5,79.005 130.39,101.435 3.36,-8.99 6.48,-18.11 9.37,-27.37 -52.76,-15.93 -102.14,-40.042 -139.76,-74.065 z m 147.7,107.945 c 88.65,30.82 196.58,28.42 292.43,-26.27 -58.8,21.79 -174.13,25.61 -280.33,-1.99 -3.75,9.6 -7.81,19.01 -12.1,28.26 v 0" /></clipPath><clipPath
       id="clipPath80"
       clipPathUnits="userSpaceOnUse"><path
         style="clip-rule:evenodd"
         id="path78"
         d="m 3011.95,1668.51 c 327.07,0 560.59,-47.82 598.4,-360.85 37.81,-313.043 -161.62,-667.367 -576.42,-672.25 -414.81,-4.875 -603.73,341.903 -606.16,616.54 -2.44,274.65 257.11,416.56 584.18,416.56 v 0" /></clipPath><clipPath
       id="clipPath90"
       clipPathUnits="userSpaceOnUse"><path
         style="clip-rule:evenodd"
         id="path88"
         d="m 3019.3,1707.91 c 327.07,0 582.5,-130.61 592.26,-424.77 9.75,-294.124 -265.19,-525.867 -592.26,-525.867 -327.07,0 -564.28,218.594 -591.08,488.367 -26.79,269.76 264.01,462.27 591.08,462.27 v 0" /></clipPath><clipPath
       id="clipPath102"
       clipPathUnits="userSpaceOnUse"><path
         style="clip-rule:evenodd"
         id="path100"
         d="m 3019.3,1751.79 c 327.07,0 592.3,-212.85 592.3,-475.31 0,-262.48 -265.23,-475.328 -592.3,-475.328 -327.07,0 -592.31,212.848 -592.31,475.328 0,262.46 265.24,475.31 592.31,475.31 v 0" /></clipPath><clipPath
       id="clipPath114"
       clipPathUnits="userSpaceOnUse"><path
         style="clip-rule:evenodd"
         id="path112"
         d="m 2563.79,1367.43 c 36.95,117.85 114.28,198.2 207.42,246.05 9.55,-19.96 18.46,-40.33 26.66,-61.08 -93.61,-37.65 -177.34,-98.38 -234.08,-184.97 z m 230.82,257.28 c 198.83,88.48 457.44,38.03 555.59,-107.31 -121.96,87.78 -337.9,109.74 -523.17,45.84 -10.21,20.93 -21.11,41.38 -32.42,61.47 v 0" /></clipPath><clipPath
       id="clipPath124"
       clipPathUnits="userSpaceOnUse"><path
         style="clip-rule:evenodd"
         id="path122"
         d="m 2574.75,1356.46 c 51.66,76.73 133.02,139.2 229.74,178.71 5.92,-15.85 11.43,-31.9 16.49,-48.23 -92.93,-28.07 -179.93,-70.53 -246.23,-130.48 z m 260.21,190.18 c 156.21,54.29 346.37,50.07 515.24,-46.3 -103.6,38.42 -306.8,45.14 -493.89,-3.48 -6.6,16.9 -13.75,33.48 -21.35,49.78 v 0" /></clipPath><clipPath
       id="clipPath136"
       clipPathUnits="userSpaceOnUse"><path
         style="clip-rule:evenodd"
         id="path134"
         d="m 589.902,1448.67 c 110.313,0 189.082,-16.12 201.856,-121.72 12.734,-105.57 -54.531,-225.1 -194.453,-226.75 -139.903,-1.64 -203.633,115.33 -204.453,207.98 -0.821,92.63 86.718,140.49 197.05,140.49 v 0" /></clipPath><clipPath
       id="clipPath146"
       clipPathUnits="userSpaceOnUse"><path
         style="clip-rule:evenodd"
         id="path144"
         d="m 592.383,1461.96 c 110.312,0 196.465,-44.06 199.765,-143.27 3.282,-99.22 -89.453,-177.38 -199.765,-177.38 -110.332,0 -190.332,73.73 -199.375,164.74 -9.043,90.98 89.043,155.91 199.375,155.91 v 0" /></clipPath><clipPath
       id="clipPath158"
       clipPathUnits="userSpaceOnUse"><path
         style="clip-rule:evenodd"
         id="path156"
         d="m 592.383,1476.77 c 110.312,0 199.785,-71.8 199.785,-160.33 0,-88.54 -89.473,-160.33 -199.785,-160.33 -110.332,0 -199.805,71.79 -199.805,160.33 0,88.53 89.473,160.33 199.805,160.33 v 0" /></clipPath><clipPath
       id="clipPath170"
       clipPathUnits="userSpaceOnUse"><path
         style="clip-rule:evenodd"
         id="path168"
         d="m 438.73,1347.12 c 12.481,39.74 38.555,66.86 69.961,83 3.223,-6.74 6.231,-13.6 9.004,-20.61 -31.582,-12.7 -59.824,-33.18 -78.965,-62.39 z m 77.852,86.77 c 67.07,29.85 154.297,12.84 187.402,-36.19 -41.132,29.61 -113.964,37.02 -176.464,15.46 -3.438,7.07 -7.129,13.96 -10.938,20.73 v 0" /></clipPath><clipPath
       id="clipPath180"
       clipPathUnits="userSpaceOnUse"><path
         style="clip-rule:evenodd"
         id="path178"
         d="m 442.422,1343.42 c 17.441,25.89 44.883,46.95 77.5,60.28 1.992,-5.35 3.848,-10.76 5.566,-16.27 -31.347,-9.47 -60.683,-23.79 -83.066,-44.01 z m 87.773,64.15 c 52.696,18.31 116.836,16.89 173.789,-15.62 -34.941,12.95 -103.476,15.23 -166.582,-1.18 -2.226,5.71 -4.648,11.3 -7.207,16.8 v 0" /></clipPath><clipPath
       id="clipPath192"
       clipPathUnits="userSpaceOnUse"><path
         style="clip-rule:evenodd"
         id="path190"
         d="m 625.996,4656.64 c 131.66,0 225.664,-19.26 240.891,-145.26 15.222,-126.02 -65.071,-268.65 -232.043,-270.62 -166.985,-1.96 -243.028,137.63 -244.016,248.2 -0.984,110.55 103.508,167.68 235.168,167.68 v 0" /></clipPath><clipPath
       id="clipPath202"
       clipPathUnits="userSpaceOnUse"><path
         style="clip-rule:evenodd"
         id="path200"
         d="m 628.953,4672.5 c 131.652,0 234.485,-52.58 238.41,-171 3.926,-118.39 -106.758,-211.68 -238.41,-211.68 -131.668,0 -227.156,87.99 -237.937,196.59 -10.789,108.59 106.269,186.09 237.937,186.09 v 0" /></clipPath><clipPath
       id="clipPath214"
       clipPathUnits="userSpaceOnUse"><path
         style="clip-rule:evenodd"
         id="path212"
         d="m 628.953,4690.16 c 131.652,0 238.43,-85.69 238.43,-191.34 0,-105.66 -106.778,-191.34 -238.43,-191.34 -131.668,0 -238.426,85.68 -238.426,191.34 0,105.65 106.758,191.34 238.426,191.34 v 0" /></clipPath><clipPath
       id="clipPath226"
       clipPathUnits="userSpaceOnUse"><path
         style="clip-rule:evenodd"
         id="path224"
         d="m 445.586,4535.44 c 14.883,47.43 46.008,79.77 83.496,99.05 3.848,-8.04 7.434,-16.24 10.742,-24.59 -37.695,-15.17 -71.394,-39.61 -94.238,-74.46 z M 538.508,4639 c 80.027,35.62 184.137,15.32 223.64,-43.19 -49.082,35.33 -136.015,44.17 -210.585,18.45 -4.122,8.43 -8.504,16.66 -13.055,24.74 v 0" /></clipPath><clipPath
       id="clipPath236"
       clipPathUnits="userSpaceOnUse"><path
         style="clip-rule:evenodd"
         id="path234"
         d="m 450,4531.02 c 20.793,30.88 53.555,56.04 92.48,71.94 2.383,-6.38 4.598,-12.84 6.641,-19.41 -37.41,-11.3 -72.433,-28.39 -99.121,-52.53 z m 104.746,76.56 c 62.891,21.85 139.434,20.15 207.402,-18.64 -41.699,15.46 -123.496,18.17 -198.808,-1.4 -2.656,6.81 -5.535,13.48 -8.594,20.04 v 0" /></clipPath><clipPath
       id="clipPath248"
       clipPathUnits="userSpaceOnUse"><path
         style="clip-rule:evenodd"
         id="path246"
         d="m 2227.95,682.258 c 129.45,0 221.87,-18.938 236.84,-142.832 14.96,-123.891 -63.97,-264.133 -228.15,-266.059 -164.18,-1.941 -238.94,135.324 -239.92,244.016 -0.96,108.703 101.78,164.875 231.23,164.875 v 0" /></clipPath><clipPath
       id="clipPath258"
       clipPathUnits="userSpaceOnUse"><path
         style="clip-rule:evenodd"
         id="path256"
         d="m 2230.86,697.844 c 129.45,0 230.55,-51.692 234.39,-168.117 3.87,-116.407 -104.94,-208.125 -234.39,-208.125 -129.45,0 -223.34,86.503 -233.95,193.281 -10.62,106.765 104.5,182.961 233.95,182.961 v 0" /></clipPath><clipPath
       id="clipPath270"
       clipPathUnits="userSpaceOnUse"><path
         style="clip-rule:evenodd"
         id="path268"
         d="m 2230.86,715.203 c 129.45,0 234.41,-84.234 234.41,-188.113 0,-103.875 -104.96,-188.125 -234.41,-188.125 -129.45,0 -234.43,84.25 -234.43,188.125 0,103.879 104.98,188.113 234.43,188.113 v 0" /></clipPath><clipPath
       id="clipPath282"
       clipPathUnits="userSpaceOnUse"><path
         style="clip-rule:evenodd"
         id="path280"
         d="m 2050.57,563.086 c 14.63,46.641 45.23,78.445 82.09,97.383 3.79,-7.903 7.3,-15.957 10.56,-24.168 -37.07,-14.906 -70.19,-38.946 -92.65,-73.215 z m 91.36,101.824 c 78.68,35.024 181.04,15.063 219.89,-42.469 -48.27,34.747 -133.73,43.426 -207.07,18.145 -4.05,8.293 -8.34,16.379 -12.82,24.324 v 0" /></clipPath><clipPath
       id="clipPath292"
       clipPathUnits="userSpaceOnUse"><path
         style="clip-rule:evenodd"
         id="path290"
         d="m 2054.9,558.75 c 20.45,30.359 52.66,55.09 90.94,70.73 2.32,-6.277 4.51,-12.625 6.52,-19.089 -36.77,-11.114 -71.21,-27.918 -97.46,-51.641 z m 102.99,75.273 c 61.84,21.485 137.09,19.805 203.93,-18.332 -41.02,15.207 -121.43,17.864 -195.49,-1.382 -2.6,6.687 -5.43,13.257 -8.44,19.714 v 0" /></clipPath><clipPath
       id="clipPath304"
       clipPathUnits="userSpaceOnUse"><path
         style="clip-rule:evenodd"
         id="path302"
         d="m 3775.35,2116.25 c 100.02,0 171.45,-14.62 182.99,-110.34 11.56,-95.73 -49.41,-204.09 -176.27,-205.58 -126.84,-1.49 -184.61,104.55 -185.35,188.54 -0.74,83.98 78.61,127.38 178.63,127.38 v 0" /></clipPath><clipPath
       id="clipPath314"
       clipPathUnits="userSpaceOnUse"><path
         style="clip-rule:evenodd"
         id="path312"
         d="m 3777.62,2128.3 c 100,0 178.1,-39.95 181.09,-129.89 2.99,-89.94 -81.09,-160.81 -181.09,-160.81 -100.02,0 -172.56,66.84 -180.76,149.34 -8.21,82.49 80.74,141.36 180.76,141.36 v 0" /></clipPath><clipPath
       id="clipPath326"
       clipPathUnits="userSpaceOnUse"><path
         style="clip-rule:evenodd"
         id="path324"
         d="m 3777.62,2141.71 c 100,0 181.11,-65.09 181.11,-145.35 0,-80.25 -81.11,-145.34 -181.11,-145.34 -100.02,0 -181.14,65.09 -181.14,145.34 0,80.26 81.12,145.35 181.14,145.35 v 0" /></clipPath><clipPath
       id="clipPath338"
       clipPathUnits="userSpaceOnUse"><path
         style="clip-rule:evenodd"
         id="path336"
         d="m 3638.32,2024.18 c 11.29,36.05 34.94,60.61 63.42,75.25 2.93,-6.11 5.64,-12.34 8.16,-18.68 -28.63,-11.52 -54.24,-30.1 -71.58,-56.57 z m 70.59,78.68 c 60.78,27.05 139.88,11.62 169.88,-32.82 -37.29,26.85 -103.32,33.55 -159.98,14.01 -3.13,6.41 -6.45,12.66 -9.9,18.81 v 0" /></clipPath><clipPath
       id="clipPath348"
       clipPathUnits="userSpaceOnUse"><path
         style="clip-rule:evenodd"
         id="path346"
         d="m 3641.66,2020.83 c 15.8,23.46 40.68,42.56 70.25,54.65 1.82,-4.84 3.5,-9.76 5.06,-14.75 -28.43,-8.59 -55.04,-21.58 -75.31,-39.9 z m 79.59,58.15 c 47.75,16.59 105.9,15.31 157.54,-14.16 -31.68,11.75 -93.81,13.81 -151.04,-1.06 -2.01,5.17 -4.2,10.23 -6.5,15.22 v 0" /></clipPath><clipPath
       id="clipPath360"
       clipPathUnits="userSpaceOnUse"><path
         style="clip-rule:evenodd"
         id="path358"
         d="m 4391.02,3913.95 c 86.71,0 148.63,-12.68 158.65,-95.69 10.04,-82.99 -42.85,-176.93 -152.83,-178.22 -109.96,-1.29 -160.06,90.64 -160.71,163.46 -0.66,72.81 68.19,110.45 154.89,110.45 v 0" /></clipPath><clipPath
       id="clipPath370"
       clipPathUnits="userSpaceOnUse"><path
         style="clip-rule:evenodd"
         id="path368"
         d="m 4392.97,3924.39 c 86.7,0 154.43,-34.62 157.01,-112.62 2.62,-77.98 -70.31,-139.43 -157.01,-139.43 -86.72,0 -149.63,57.96 -156.72,129.48 -7.09,71.52 70,122.57 156.72,122.57 v 0" /></clipPath><clipPath
       id="clipPath382"
       clipPathUnits="userSpaceOnUse"><path
         style="clip-rule:evenodd"
         id="path380"
         d="m 4392.97,3936.02 c 86.7,0 157.03,-56.43 157.03,-126.02 0,-69.59 -70.33,-126.02 -157.03,-126.02 -86.72,0 -157.03,56.43 -157.03,126.02 0,69.59 70.31,126.02 157.03,126.02 v 0" /></clipPath><clipPath
       id="clipPath394"
       clipPathUnits="userSpaceOnUse"><path
         style="clip-rule:evenodd"
         id="path392"
         d="m 4272.19,3834.11 c 9.8,31.25 30.31,52.55 55.02,65.25 2.52,-5.3 4.88,-10.7 7.05,-16.21 -24.83,-9.97 -47.01,-26.08 -62.07,-49.04 z m 61.21,68.23 c 52.71,23.44 121.27,10.08 147.28,-28.46 -32.3,23.27 -89.57,29.09 -138.69,12.16 -2.71,5.54 -5.58,10.95 -8.59,16.3 v 0" /></clipPath><clipPath
       id="clipPath404"
       clipPathUnits="userSpaceOnUse"><path
         style="clip-rule:evenodd"
         id="path402"
         d="m 4275.1,3831.21 c 13.69,20.33 35.27,36.9 60.92,47.38 1.56,-4.2 3.02,-8.46 4.35,-12.79 -24.63,-7.44 -47.67,-18.7 -65.27,-34.59 z m 68.98,50.42 c 41.45,14.39 91.84,13.27 136.6,-12.27 -27.46,10.18 -81.3,11.96 -130.91,-0.93 -1.76,4.48 -3.66,8.87 -5.69,13.2 v 0" /></clipPath><clipPath
       id="clipPath416"
       clipPathUnits="userSpaceOnUse"><path
         style="clip-rule:evenodd"
         id="path414"
         d="m 388.313,4170.29 c 75.515,0 129.453,-11.03 138.191,-83.33 8.723,-72.28 -37.332,-154.1 -133.125,-155.22 -95.781,-1.13 -139.402,78.95 -139.961,142.36 -0.566,63.42 59.363,96.19 134.895,96.19 v 0" /></clipPath><clipPath
       id="clipPath426"
       clipPathUnits="userSpaceOnUse"><path
         style="clip-rule:evenodd"
         id="path424"
         d="m 390,4179.39 c 75.527,0 134.52,-30.15 136.77,-98.08 2.253,-67.91 -61.243,-121.43 -136.77,-121.43 -75.52,0 -130.293,50.48 -136.484,112.78 -6.192,62.29 60.964,106.73 136.484,106.73 v 0" /></clipPath><clipPath
       id="clipPath438"
       clipPathUnits="userSpaceOnUse"><path
         style="clip-rule:evenodd"
         id="path436"
         d="m 390,4189.53 c 75.527,0 136.777,-49.15 136.777,-109.76 0,-60.61 -61.25,-109.77 -136.777,-109.77 -75.52,0 -136.758,49.16 -136.758,109.77 0,60.61 61.238,109.76 136.758,109.76 v 0" /></clipPath><clipPath
       id="clipPath450"
       clipPathUnits="userSpaceOnUse"><path
         style="clip-rule:evenodd"
         id="path448"
         d="m 284.824,4100.77 c 8.535,27.22 26.387,45.78 47.903,56.82 2.195,-4.61 4.253,-9.31 6.152,-14.11 -21.621,-8.69 -40.949,-22.71 -54.055,-42.71 z m 53.301,59.43 c 45.906,20.41 105.625,8.76 128.293,-24.79 -28.156,20.27 -78.02,25.34 -120.813,10.57 -2.363,4.84 -4.875,9.57 -7.48,14.22 v 0" /></clipPath><clipPath
       id="clipPath460"
       clipPathUnits="userSpaceOnUse"><path
         style="clip-rule:evenodd"
         id="path458"
         d="m 287.355,4098.23 c 11.922,17.74 30.711,32.15 53.055,41.26 1.367,-3.65 2.637,-7.34 3.801,-11.12 -21.457,-6.48 -41.547,-16.3 -56.856,-30.14 z m 60.086,43.94 c 36.075,12.52 79.981,11.55 118.977,-10.71 -23.918,8.87 -70.844,10.43 -114.055,-0.8 -1.523,3.89 -3.164,7.73 -4.922,11.51 v 0" /></clipPath><clipPath
       id="clipPath472"
       clipPathUnits="userSpaceOnUse"><path
         style="clip-rule:evenodd"
         id="path470"
         d="m 954.551,1654.7 c 66.799,0 114.469,-9.77 122.189,-73.68 7.71,-63.9 -32.99,-136.25 -117.697,-137.23 -84.668,-1 -123.242,69.8 -123.73,125.87 -0.508,56.07 52.48,85.04 119.238,85.04 v 0" /></clipPath><clipPath
       id="clipPath482"
       clipPathUnits="userSpaceOnUse"><path
         style="clip-rule:evenodd"
         id="path480"
         d="m 956.074,1662.74 c 66.756,0 118.926,-26.65 120.896,-86.72 2.01,-60.04 -54.14,-107.36 -120.896,-107.36 -66.777,0 -115.195,44.63 -120.683,99.71 -5.469,55.07 53.906,94.37 120.683,94.37 v 0" /></clipPath><clipPath
       id="clipPath494"
       clipPathUnits="userSpaceOnUse"><path
         style="clip-rule:evenodd"
         id="path492"
         d="m 956.074,1671.71 c 66.756,0 120.916,-43.46 120.916,-97.05 0,-53.57 -54.16,-97.04 -120.916,-97.04 -66.777,0 -120.918,43.47 -120.918,97.04 0,53.59 54.141,97.05 120.918,97.05 v 0" /></clipPath><clipPath
       id="clipPath506"
       clipPathUnits="userSpaceOnUse"><path
         style="clip-rule:evenodd"
         id="path504"
         d="m 863.086,1593.23 c 7.539,24.07 23.32,40.47 42.324,50.24 1.953,-4.08 3.789,-8.24 5.449,-12.47 -19.101,-7.69 -36.191,-20.09 -47.773,-37.77 z m 47.109,52.53 c 40.586,18.06 93.395,7.76 113.415,-21.91 -24.88,17.92 -68.962,22.41 -106.794,9.36 -2.089,4.26 -4.316,8.44 -6.621,12.55 v 0" /></clipPath><clipPath
       id="clipPath516"
       clipPathUnits="userSpaceOnUse"><path
         style="clip-rule:evenodd"
         id="path514"
         d="m 865.313,1590.98 c 10.546,15.67 27.167,28.42 46.894,36.49 1.211,-3.22 2.344,-6.5 3.359,-9.84 -18.945,-5.73 -36.718,-14.4 -50.253,-26.65 z m 53.105,38.83 c 31.914,11.1 70.723,10.24 105.192,-9.45 -21.15,7.85 -62.614,9.22 -100.817,-0.7 -1.348,3.45 -2.813,6.83 -4.375,10.15 v 0" /></clipPath><clipPath
       id="clipPath528"
       clipPathUnits="userSpaceOnUse"><path
         style="clip-rule:evenodd"
         id="path526"
         d="m 4180.74,1811.13 c 61.55,0 105.49,-9 112.6,-67.91 7.12,-58.9 -30.41,-125.55 -108.46,-126.47 -78.04,-0.93 -113.59,64.34 -114.04,116 -0.47,51.68 48.37,78.38 109.9,78.38 v 0" /></clipPath><clipPath
       id="clipPath538"
       clipPathUnits="userSpaceOnUse"><path
         style="clip-rule:evenodd"
         id="path536"
         d="m 4182.13,1818.55 c 61.54,0 109.61,-24.59 111.44,-79.92 1.84,-55.35 -49.9,-98.96 -111.44,-98.96 -61.54,0 -106.17,41.14 -111.21,91.9 -5.04,50.75 49.67,86.98 111.21,86.98 v 0" /></clipPath><clipPath
       id="clipPath550"
       clipPathUnits="userSpaceOnUse"><path
         style="clip-rule:evenodd"
         id="path548"
         d="m 4182.13,1826.8 c 61.54,0 111.44,-40.04 111.44,-89.42 0,-49.4 -49.9,-89.45 -111.44,-89.45 -61.54,0 -111.45,40.05 -111.45,89.45 0,49.38 49.91,89.42 111.45,89.42 v 0" /></clipPath><clipPath
       id="clipPath562"
       clipPathUnits="userSpaceOnUse"><path
         style="clip-rule:evenodd"
         id="path560"
         d="m 4096.43,1754.47 c 6.95,22.19 21.5,37.31 39.03,46.3 1.79,-3.76 3.47,-7.58 5.01,-11.49 -17.62,-7.09 -33.36,-18.5 -44.04,-34.81 z m 43.43,48.43 c 37.41,16.63 86.07,7.14 104.53,-20.2 -22.94,16.52 -63.57,20.65 -98.43,8.62 -1.94,3.93 -3.98,7.79 -6.1,11.58 v 0" /></clipPath><clipPath
       id="clipPath572"
       clipPathUnits="userSpaceOnUse"><path
         style="clip-rule:evenodd"
         id="path570"
         d="m 4098.5,1752.41 c 9.7,14.45 25.02,26.2 43.22,33.63 1.11,-2.99 2.15,-6 3.09,-9.07 -17.47,-5.28 -33.84,-13.28 -46.31,-24.56 z m 48.94,35.79 c 29.4,10.21 65.18,9.42 96.95,-8.72 -19.49,7.24 -57.72,8.5 -92.93,-0.64 -1.25,3.16 -2.58,6.3 -4.02,9.36 v 0" /></clipPath><clipPath
       id="clipPath584"
       clipPathUnits="userSpaceOnUse"><path
         style="clip-rule:evenodd"
         id="path582"
         d="m 1508.63,4412.49 c 61.27,0 105.02,-8.97 112.1,-67.6 7.08,-58.63 -30.28,-125.01 -107.98,-125.93 -77.71,-0.9 -113.1,64.05 -113.55,115.5 -0.46,51.45 48.16,78.03 109.43,78.03 v 0" /></clipPath><clipPath
       id="clipPath594"
       clipPathUnits="userSpaceOnUse"><path
         style="clip-rule:evenodd"
         id="path592"
         d="m 1510,4419.86 c 61.27,0 109.13,-24.46 110.96,-79.57 1.82,-55.08 -49.69,-98.49 -110.96,-98.49 -61.26,0 -105.7,40.95 -110.72,91.48 -5.02,50.53 49.46,86.58 110.72,86.58 v 0" /></clipPath><clipPath
       id="clipPath606"
       clipPathUnits="userSpaceOnUse"><path
         style="clip-rule:evenodd"
         id="path604"
         d="m 1510,4428.11 c 61.27,0 110.96,-39.89 110.96,-89.06 0,-49.16 -49.69,-89.05 -110.96,-89.05 -61.26,0 -110.95,39.89 -110.95,89.05 0,49.17 49.69,89.06 110.95,89.06 v 0" /></clipPath><clipPath
       id="clipPath618"
       clipPathUnits="userSpaceOnUse"><path
         style="clip-rule:evenodd"
         id="path616"
         d="m 1424.67,4356.09 c 6.93,22.09 21.42,37.13 38.87,46.11 1.78,-3.75 3.45,-7.57 5,-11.45 -17.54,-7.06 -33.23,-18.44 -43.87,-34.66 z m 43.24,48.21 c 37.25,16.56 85.7,7.12 104.08,-20.11 -22.84,16.44 -63.3,20.56 -98,8.59 -1.92,3.91 -3.95,7.74 -6.08,11.52 v 0" /></clipPath><clipPath
       id="clipPath628"
       clipPathUnits="userSpaceOnUse"><path
         style="clip-rule:evenodd"
         id="path626"
         d="m 1426.74,4354.04 c 9.67,14.37 24.92,26.07 43.03,33.47 1.11,-2.96 2.13,-5.97 3.08,-9.03 -17.4,-5.26 -33.69,-13.21 -46.11,-24.44 z m 48.73,35.63 c 29.28,10.17 64.89,9.37 96.52,-8.69 -19.4,7.2 -57.46,8.46 -92.52,-0.65 -1.23,3.18 -2.58,6.27 -4,9.34 v 0" /></clipPath><clipPath
       id="clipPath640"
       clipPathUnits="userSpaceOnUse"><path
         style="clip-rule:evenodd"
         id="path638"
         d="m 921.188,862.004 c 45.027,0 77.179,-6.582 82.382,-49.691 5.21,-43.083 -22.254,-91.864 -79.355,-92.528 -57.106,-0.683 -83.11,47.07 -83.438,84.871 -0.347,37.805 35.383,57.348 80.411,57.348 v 0" /></clipPath><clipPath
       id="clipPath650"
       clipPathUnits="userSpaceOnUse"><path
         style="clip-rule:evenodd"
         id="path648"
         d="m 922.203,867.434 c 45.024,0 80.197,-17.993 81.537,-58.481 1.34,-40.496 -36.513,-72.398 -81.537,-72.398 -45.031,0 -77.687,30.093 -81.375,67.246 -3.683,37.129 36.344,63.633 81.375,63.633 v 0" /></clipPath><clipPath
       id="clipPath662"
       clipPathUnits="userSpaceOnUse"><path
         style="clip-rule:evenodd"
         id="path660"
         d="m 922.203,873.469 c 45.024,0 81.537,-29.297 81.537,-65.434 0,-36.14 -36.513,-65.437 -81.537,-65.437 -45.031,0 -81.543,29.297 -81.543,65.437 0,36.137 36.512,65.434 81.543,65.434 v 0" /></clipPath><clipPath
       id="clipPath674"
       clipPathUnits="userSpaceOnUse"><path
         style="clip-rule:evenodd"
         id="path672"
         d="m 859.492,820.547 c 5.086,16.238 15.738,27.297 28.559,33.879 1.308,-2.754 2.539,-5.547 3.668,-8.41 -12.891,-5.188 -24.41,-13.536 -32.227,-25.469 z m 31.778,35.437 c 27.375,12.168 62.976,5.215 76.488,-14.773 -16.789,12.082 -46.52,15.098 -72.028,6.301 -1.41,2.879 -2.902,5.703 -4.46,8.472 v 0" /></clipPath><clipPath
       id="clipPath684"
       clipPathUnits="userSpaceOnUse"><path
         style="clip-rule:evenodd"
         id="path682"
         d="m 861.012,819.043 c 7.097,10.566 18.304,19.16 31.621,24.602 0.812,-2.192 1.57,-4.387 2.265,-6.633 -12.789,-3.867 -24.765,-9.715 -33.886,-17.969 z m 35.808,26.184 c 21.504,7.468 47.688,6.89 70.938,-6.379 -14.262,5.293 -42.235,6.218 -67.992,-0.469 -0.918,2.312 -1.895,4.609 -2.946,6.848 v 0" /></clipPath><clipPath
       id="clipPath696"
       clipPathUnits="userSpaceOnUse"><path
         style="clip-rule:evenodd"
         id="path694"
         d="m 4051.19,3402 c 45.02,0 77.18,-6.58 82.38,-49.69 5.21,-43.08 -22.25,-91.86 -79.35,-92.52 -57.11,-0.69 -83.11,47.07 -83.44,84.87 -0.35,37.8 35.38,57.34 80.41,57.34 v 0" /></clipPath><clipPath
       id="clipPath706"
       clipPathUnits="userSpaceOnUse"><path
         style="clip-rule:evenodd"
         id="path704"
         d="m 4052.21,3407.43 c 45.02,0 80.19,-17.99 81.53,-58.47 1.34,-40.5 -36.51,-72.41 -81.53,-72.41 -45.04,0 -77.7,30.1 -81.38,67.25 -3.68,37.13 36.34,63.63 81.38,63.63 v 0" /></clipPath><clipPath
       id="clipPath718"
       clipPathUnits="userSpaceOnUse"><path
         style="clip-rule:evenodd"
         id="path716"
         d="m 4052.21,3413.47 c 45.02,0 81.53,-29.3 81.53,-65.43 0,-36.15 -36.51,-65.44 -81.53,-65.44 -45.04,0 -81.55,29.29 -81.55,65.44 0,36.13 36.51,65.43 81.55,65.43 v 0" /></clipPath><clipPath
       id="clipPath730"
       clipPathUnits="userSpaceOnUse"><path
         style="clip-rule:evenodd"
         id="path728"
         d="m 3989.49,3360.55 c 5.09,16.24 15.74,27.29 28.56,33.88 1.31,-2.76 2.54,-5.55 3.67,-8.41 -12.89,-5.19 -24.42,-13.54 -32.23,-25.47 z m 31.78,35.43 c 27.37,12.17 62.98,5.22 76.48,-14.77 -16.78,12.08 -46.51,15.1 -72.02,6.3 -1.41,2.88 -2.9,5.7 -4.46,8.47 v 0" /></clipPath><clipPath
       id="clipPath740"
       clipPathUnits="userSpaceOnUse"><path
         style="clip-rule:evenodd"
         id="path738"
         d="m 3991.02,3359.04 c 7.09,10.57 18.3,19.16 31.62,24.6 0.81,-2.18 1.56,-4.38 2.26,-6.63 -12.79,-3.87 -24.76,-9.71 -33.88,-17.97 z m 35.8,26.19 c 21.5,7.47 47.69,6.89 70.93,-6.38 -14.25,5.29 -42.22,6.22 -67.98,-0.47 -0.92,2.31 -1.9,4.61 -2.95,6.85 v 0" /></clipPath><clipPath
       id="clipPath752"
       clipPathUnits="userSpaceOnUse"><path
         style="clip-rule:evenodd"
         id="path750"
         d="m 3711.19,4552 c 45.02,0 77.18,-6.58 82.38,-49.69 5.21,-43.08 -22.25,-91.86 -79.35,-92.52 -57.11,-0.69 -83.11,47.07 -83.44,84.87 -0.35,37.8 35.38,57.34 80.41,57.34 v 0" /></clipPath><clipPath
       id="clipPath762"
       clipPathUnits="userSpaceOnUse"><path
         style="clip-rule:evenodd"
         id="path760"
         d="m 3712.21,4557.43 c 45.02,0 80.19,-17.99 81.53,-58.47 1.34,-40.5 -36.51,-72.41 -81.53,-72.41 -45.04,0 -77.7,30.1 -81.38,67.25 -3.68,37.13 36.34,63.63 81.38,63.63 v 0" /></clipPath><clipPath
       id="clipPath774"
       clipPathUnits="userSpaceOnUse"><path
         style="clip-rule:evenodd"
         id="path772"
         d="m 3712.21,4563.47 c 45.02,0 81.53,-29.3 81.53,-65.43 0,-36.15 -36.51,-65.44 -81.53,-65.44 -45.04,0 -81.55,29.29 -81.55,65.44 0,36.13 36.51,65.43 81.55,65.43 v 0" /></clipPath><clipPath
       id="clipPath786"
       clipPathUnits="userSpaceOnUse"><path
         style="clip-rule:evenodd"
         id="path784"
         d="m 3649.49,4510.55 c 5.09,16.24 15.74,27.29 28.56,33.88 1.31,-2.76 2.54,-5.55 3.67,-8.41 -12.89,-5.19 -24.42,-13.54 -32.23,-25.47 z m 31.78,35.43 c 27.37,12.17 62.98,5.22 76.48,-14.77 -16.78,12.08 -46.51,15.1 -72.02,6.3 -1.41,2.88 -2.9,5.7 -4.46,8.47 v 0" /></clipPath><clipPath
       id="clipPath796"
       clipPathUnits="userSpaceOnUse"><path
         style="clip-rule:evenodd"
         id="path794"
         d="m 3651.02,4509.04 c 7.09,10.57 18.3,19.16 31.62,24.6 0.81,-2.18 1.56,-4.38 2.26,-6.63 -12.79,-3.87 -24.76,-9.71 -33.88,-17.97 z m 35.8,26.19 c 21.5,7.47 47.69,6.89 70.93,-6.38 -14.25,5.29 -42.22,6.22 -67.98,-0.47 -0.92,2.31 -1.9,4.61 -2.95,6.85 v 0" /></clipPath></defs><g
     transform="matrix(1.3333333,0,0,-1.3333333,0,666.66667)"
     id="g10"><g
       transform="scale(0.1)"
       id="g12"><path
         id="path14"
         d="M 0,0 H 5000 V 5000 H 0 Z" /><path
         id="path16"
         d="M 0,0 H 5000 V 5000 H 0 Z" /><g
         id="g18"><g
           clip-path="url(#clipPath24)"
           id="g20"><path
             id="path26"
             d="m 4287.73,1134.84 c 185.65,0 318.21,-27.14 339.65,-204.828 21.47,-177.676 -91.74,-378.789 -327.17,-381.555 -235.44,-2.773 -342.67,194.055 -344.06,349.934 -1.38,155.889 145.94,236.449 331.58,236.449 v 0" /></g></g><g
         id="g28"><g
           clip-path="url(#clipPath34)"
           id="g30"><path
             id="path36"
             d="m 4291.91,1157.19 c 185.64,0 330.63,-74.13 336.16,-241.096 5.54,-166.946 -150.52,-298.465 -336.16,-298.465 -185.64,0 -320.29,124.051 -335.5,277.176 -15.22,153.125 149.86,262.385 335.5,262.385 v 0" /><path
             id="path38"
             d="m 4291.91,1157.19 c 185.64,0 330.63,-74.13 336.16,-241.096 5.54,-166.946 -150.52,-298.465 -336.16,-298.465 -185.64,0 -320.29,124.051 -335.5,277.176 -15.22,153.125 149.86,262.385 335.5,262.385 v 0" /></g></g><g
         id="g40"><g
           clip-path="url(#clipPath46)"
           id="g42"><path
             id="path48"
             d="m 4291.91,1182.1 c 185.64,0 336.2,-120.81 336.2,-269.795 0,-148.953 -150.56,-269.785 -336.2,-269.785 -185.64,0 -336.2,120.832 -336.2,269.785 0,148.985 150.56,269.795 336.2,269.795 v 0" /><path
             id="path50"
             d="m 4291.91,1182.1 c 185.64,0 336.2,-120.81 336.2,-269.795 0,-148.953 -150.56,-269.785 -336.2,-269.785 -185.64,0 -336.2,120.832 -336.2,269.785 0,148.985 150.56,269.795 336.2,269.795 v 0" /></g></g><g
         id="g52"><g
           clip-path="url(#clipPath58)"
           id="g54"><path
             id="path60"
             d="m 4033.36,963.945 c 20.98,66.885 64.86,112.495 117.73,139.665 5.41,-11.34 10.47,-22.91 15.14,-34.68 -53.14,-21.38 -100.66,-55.84 -132.87,-104.985 z m 131.02,146.035 c 112.85,50.21 259.64,21.59 315.34,-60.91 -69.21,49.82 -191.79,62.29 -296.95,26.01 -5.8,11.88 -11.98,23.48 -18.39,34.9 v 0" /></g></g><g
         id="g62"><g
           clip-path="url(#clipPath68)"
           id="g64"><path
             id="path70"
             d="m 4039.59,957.715 c 29.3,43.555 75.5,79.005 130.39,101.435 3.36,-8.99 6.48,-18.11 9.37,-27.37 -52.76,-15.93 -102.14,-40.042 -139.76,-74.065 z m 147.7,107.945 c 88.65,30.82 196.58,28.42 292.43,-26.27 -58.8,21.79 -174.13,25.61 -280.33,-1.99 -3.75,9.6 -7.81,19.01 -12.1,28.26 v 0" /></g></g><path
         id="path72"
         style="fill:#ffffff;fill-opacity:1;fill-rule:evenodd;stroke:none"
         d="m 4093.98,1050.2 c 14.85,18.65 35.41,35.01 59.67,47.98 2.27,-4.9 4.48,-9.82 6.62,-14.8 -24.2,-8.65 -46.91,-19.58 -66.29,-33.18 z m 73.23,54.68 c 64.59,29.56 150.27,35.91 223.53,0.37 -40.4,9.78 -133.54,8.53 -214.78,-16.66 -2.85,5.47 -5.76,10.92 -8.75,16.29 v 0" /><g
         id="g74"><g
           clip-path="url(#clipPath80)"
           id="g76"><path
             id="path82"
             d="m 3011.95,1668.51 c 327.07,0 560.59,-47.82 598.4,-360.85 37.81,-313.043 -161.62,-667.367 -576.42,-672.25 -414.81,-4.875 -603.73,341.903 -606.16,616.54 -2.44,274.65 257.11,416.56 584.18,416.56 v 0" /></g></g><g
         id="g84"><g
           clip-path="url(#clipPath90)"
           id="g86"><path
             id="path92"
             d="m 3019.3,1707.91 c 327.07,0 582.5,-130.61 592.26,-424.77 9.75,-294.124 -265.19,-525.867 -592.26,-525.867 -327.07,0 -564.28,218.594 -591.08,488.367 -26.79,269.76 264.01,462.27 591.08,462.27 v 0" /><path
             id="path94"
             d="m 3019.3,1707.91 c 327.07,0 582.5,-130.61 592.26,-424.77 9.75,-294.124 -265.19,-525.867 -592.26,-525.867 -327.07,0 -564.28,218.594 -591.08,488.367 -26.79,269.76 264.01,462.27 591.08,462.27 v 0" /></g></g><g
         id="g96"><g
           clip-path="url(#clipPath102)"
           id="g98"><path
             id="path104"
             d="m 3019.3,1751.79 c 327.07,0 592.3,-212.85 592.3,-475.31 0,-262.48 -265.23,-475.328 -592.3,-475.328 -327.07,0 -592.31,212.848 -592.31,475.328 0,262.46 265.24,475.31 592.31,475.31 v 0" /><path
             id="path106"
             d="m 3019.3,1751.79 c 327.07,0 592.3,-212.85 592.3,-475.31 0,-262.48 -265.23,-475.328 -592.3,-475.328 -327.07,0 -592.31,212.848 -592.31,475.328 0,262.46 265.24,475.31 592.31,475.31 v 0" /></g></g><g
         id="g108"><g
           clip-path="url(#clipPath114)"
           id="g110"><path
             id="path116"
             d="m 2563.79,1367.43 c 36.95,117.85 114.28,198.2 207.42,246.05 9.55,-19.96 18.46,-40.33 26.66,-61.08 -93.61,-37.65 -177.34,-98.38 -234.08,-184.97 z m 230.82,257.28 c 198.83,88.48 457.44,38.03 555.59,-107.31 -121.96,87.78 -337.9,109.74 -523.17,45.84 -10.21,20.93 -21.11,41.38 -32.42,61.47 v 0" /></g></g><g
         id="g118"><g
           clip-path="url(#clipPath124)"
           id="g120"><path
             id="path126"
             d="m 2574.75,1356.46 c 51.66,76.73 133.02,139.2 229.74,178.71 5.92,-15.85 11.43,-31.9 16.49,-48.23 -92.93,-28.07 -179.93,-70.53 -246.23,-130.48 z m 260.21,190.18 c 156.21,54.29 346.37,50.07 515.24,-46.3 -103.6,38.42 -306.8,45.14 -493.89,-3.48 -6.6,16.9 -13.75,33.48 -21.35,49.78 v 0" /></g></g><path
         id="path128"
         style="fill:#ffffff;fill-opacity:1;fill-rule:evenodd;stroke:none"
         d="m 2670.61,1519.39 c 26.13,32.87 62.38,61.7 105.11,84.53 4.01,-8.63 7.89,-17.3 11.66,-26.07 -42.63,-15.23 -82.65,-34.49 -116.77,-58.46 z m 129,96.35 c 113.79,52.09 264.75,63.25 393.81,0.65 -71.17,17.24 -235.28,15.02 -378.4,-29.36 -5.02,9.65 -10.16,19.23 -15.41,28.71 v 0" /><g
         id="g130"><g
           clip-path="url(#clipPath136)"
           id="g132"><path
             id="path138"
             d="m 589.902,1448.67 c 110.313,0 189.082,-16.12 201.856,-121.72 12.734,-105.57 -54.531,-225.1 -194.453,-226.75 -139.903,-1.64 -203.633,115.33 -204.453,207.98 -0.821,92.63 86.718,140.49 197.05,140.49 v 0" /></g></g><g
         id="g140"><g
           clip-path="url(#clipPath146)"
           id="g142"><path
             id="path148"
             d="m 592.383,1461.96 c 110.312,0 196.465,-44.06 199.765,-143.27 3.282,-99.22 -89.453,-177.38 -199.765,-177.38 -110.332,0 -190.332,73.73 -199.375,164.74 -9.043,90.98 89.043,155.91 199.375,155.91 v 0" /><path
             id="path150"
             d="m 592.383,1461.96 c 110.312,0 196.465,-44.06 199.765,-143.27 3.282,-99.22 -89.453,-177.38 -199.765,-177.38 -110.332,0 -190.332,73.73 -199.375,164.74 -9.043,90.98 89.043,155.91 199.375,155.91 v 0" /></g></g><g
         id="g152"><g
           clip-path="url(#clipPath158)"
           id="g154"><path
             id="path160"
             d="m 592.383,1476.77 c 110.312,0 199.785,-71.8 199.785,-160.33 0,-88.54 -89.473,-160.33 -199.785,-160.33 -110.332,0 -199.805,71.79 -199.805,160.33 0,88.53 89.473,160.33 199.805,160.33 v 0" /><path
             id="path162"
             d="m 592.383,1476.77 c 110.312,0 199.785,-71.8 199.785,-160.33 0,-88.54 -89.473,-160.33 -199.785,-160.33 -110.332,0 -199.805,71.79 -199.805,160.33 0,88.53 89.473,160.33 199.805,160.33 v 0" /></g></g><g
         id="g164"><g
           clip-path="url(#clipPath170)"
           id="g166"><path
             id="path172"
             d="m 438.73,1347.12 c 12.481,39.74 38.555,66.86 69.961,83 3.223,-6.74 6.231,-13.6 9.004,-20.61 -31.582,-12.7 -59.824,-33.18 -78.965,-62.39 z m 77.852,86.77 c 67.07,29.85 154.297,12.84 187.402,-36.19 -41.132,29.61 -113.964,37.02 -176.464,15.46 -3.438,7.07 -7.129,13.96 -10.938,20.73 v 0" /></g></g><g
         id="g174"><g
           clip-path="url(#clipPath180)"
           id="g176"><path
             id="path182"
             d="m 442.422,1343.42 c 17.441,25.89 44.883,46.95 77.5,60.28 1.992,-5.35 3.848,-10.76 5.566,-16.27 -31.347,-9.47 -60.683,-23.79 -83.066,-44.01 z m 87.773,64.15 c 52.696,18.31 116.836,16.89 173.789,-15.62 -34.941,12.95 -103.476,15.23 -166.582,-1.18 -2.226,5.71 -4.648,11.3 -7.207,16.8 v 0" /></g></g><path
         id="path184"
         style="fill:#ffffff;fill-opacity:1;fill-rule:evenodd;stroke:none"
         d="m 474.746,1398.38 c 8.828,11.08 21.055,20.81 35.488,28.51 1.329,-2.91 2.637,-5.84 3.907,-8.79 -14.375,-5.14 -27.871,-11.65 -39.395,-19.72 z m 43.535,32.49 c 38.379,17.58 89.297,21.35 132.832,0.22 -24.004,5.82 -79.355,5.06 -127.636,-9.9 -1.7,3.25 -3.438,6.5 -5.196,9.68 v 0" /><g
         id="g186"><g
           clip-path="url(#clipPath192)"
           id="g188"><path
             id="path194"
             d="m 625.996,4656.64 c 131.66,0 225.664,-19.26 240.891,-145.26 15.222,-126.02 -65.071,-268.65 -232.043,-270.62 -166.985,-1.96 -243.028,137.63 -244.016,248.2 -0.984,110.55 103.508,167.68 235.168,167.68 v 0" /></g></g><g
         id="g196"><g
           clip-path="url(#clipPath202)"
           id="g198"><path
             id="path204"
             d="m 628.953,4672.5 c 131.652,0 234.485,-52.58 238.41,-171 3.926,-118.39 -106.758,-211.68 -238.41,-211.68 -131.668,0 -227.156,87.99 -237.937,196.59 -10.789,108.59 106.269,186.09 237.937,186.09 v 0" /><path
             id="path206"
             d="m 628.953,4672.5 c 131.652,0 234.485,-52.58 238.41,-171 3.926,-118.39 -106.758,-211.68 -238.41,-211.68 -131.668,0 -227.156,87.99 -237.937,196.59 -10.789,108.59 106.269,186.09 237.937,186.09 v 0" /></g></g><g
         id="g208"><g
           clip-path="url(#clipPath214)"
           id="g210"><path
             id="path216"
             d="m 628.953,4690.16 c 131.652,0 238.43,-85.69 238.43,-191.34 0,-105.66 -106.778,-191.34 -238.43,-191.34 -131.668,0 -238.426,85.68 -238.426,191.34 0,105.65 106.758,191.34 238.426,191.34 v 0" /><path
             id="path218"
             d="m 628.953,4690.16 c 131.652,0 238.43,-85.69 238.43,-191.34 0,-105.66 -106.778,-191.34 -238.43,-191.34 -131.668,0 -238.426,85.68 -238.426,191.34 0,105.65 106.758,191.34 238.426,191.34 v 0" /></g></g><g
         id="g220"><g
           clip-path="url(#clipPath226)"
           id="g222"><path
             id="path228"
             d="m 445.586,4535.44 c 14.883,47.43 46.008,79.77 83.496,99.05 3.848,-8.04 7.434,-16.24 10.742,-24.59 -37.695,-15.17 -71.394,-39.61 -94.238,-74.46 z M 538.508,4639 c 80.027,35.62 184.137,15.32 223.64,-43.19 -49.082,35.33 -136.015,44.17 -210.585,18.45 -4.122,8.43 -8.504,16.66 -13.055,24.74 v 0" /></g></g><g
         id="g230"><g
           clip-path="url(#clipPath236)"
           id="g232"><path
             id="path238"
             d="m 450,4531.02 c 20.793,30.88 53.555,56.04 92.48,71.94 2.383,-6.38 4.598,-12.84 6.641,-19.41 -37.41,-11.3 -72.433,-28.39 -99.121,-52.53 z m 104.746,76.56 c 62.891,21.85 139.434,20.15 207.402,-18.64 -41.699,15.46 -123.496,18.17 -198.808,-1.4 -2.656,6.81 -5.535,13.48 -8.594,20.04 v 0" /></g></g><path
         id="path240"
         style="fill:#ffffff;fill-opacity:1;fill-rule:evenodd;stroke:none"
         d="m 488.586,4596.61 c 10.516,13.23 25.113,24.84 42.312,34.03 1.614,-3.48 3.184,-6.97 4.7,-10.5 -17.16,-6.14 -33.274,-13.88 -47.012,-23.53 z m 51.934,38.78 c 45.796,20.97 106.57,25.47 158.523,0.26 -28.652,6.95 -94.707,6.05 -152.324,-11.81 -2.024,3.89 -4.09,7.74 -6.199,11.55 v 0" /><g
         id="g242"><g
           clip-path="url(#clipPath248)"
           id="g244"><path
             id="path250"
             d="m 2227.95,682.258 c 129.45,0 221.87,-18.938 236.84,-142.832 14.96,-123.891 -63.97,-264.133 -228.15,-266.059 -164.18,-1.941 -238.94,135.324 -239.92,244.016 -0.96,108.703 101.78,164.875 231.23,164.875 v 0" /></g></g><g
         id="g252"><g
           clip-path="url(#clipPath258)"
           id="g254"><path
             id="path260"
             d="m 2230.86,697.844 c 129.45,0 230.55,-51.692 234.39,-168.117 3.87,-116.407 -104.94,-208.125 -234.39,-208.125 -129.45,0 -223.34,86.503 -233.95,193.281 -10.62,106.765 104.5,182.961 233.95,182.961 v 0" /><path
             id="path262"
             d="m 2230.86,697.844 c 129.45,0 230.55,-51.692 234.39,-168.117 3.87,-116.407 -104.94,-208.125 -234.39,-208.125 -129.45,0 -223.34,86.503 -233.95,193.281 -10.62,106.765 104.5,182.961 233.95,182.961 v 0" /></g></g><g
         id="g264"><g
           clip-path="url(#clipPath270)"
           id="g266"><path
             id="path272"
             d="m 2230.86,715.203 c 129.45,0 234.41,-84.234 234.41,-188.113 0,-103.875 -104.96,-188.125 -234.41,-188.125 -129.45,0 -234.43,84.25 -234.43,188.125 0,103.879 104.98,188.113 234.43,188.113 v 0" /><path
             id="path274"
             d="m 2230.86,715.203 c 129.45,0 234.41,-84.234 234.41,-188.113 0,-103.875 -104.96,-188.125 -234.41,-188.125 -129.45,0 -234.43,84.25 -234.43,188.125 0,103.879 104.98,188.113 234.43,188.113 v 0" /></g></g><g
         id="g276"><g
           clip-path="url(#clipPath282)"
           id="g278"><path
             id="path284"
             d="m 2050.57,563.086 c 14.63,46.641 45.23,78.445 82.09,97.383 3.79,-7.903 7.3,-15.957 10.56,-24.168 -37.07,-14.906 -70.19,-38.946 -92.65,-73.215 z m 91.36,101.824 c 78.68,35.024 181.04,15.063 219.89,-42.469 -48.27,34.747 -133.73,43.426 -207.07,18.145 -4.05,8.293 -8.34,16.379 -12.82,24.324 v 0" /></g></g><g
         id="g286"><g
           clip-path="url(#clipPath292)"
           id="g288"><path
             id="path294"
             d="m 2054.9,558.75 c 20.45,30.359 52.66,55.09 90.94,70.73 2.32,-6.277 4.51,-12.625 6.52,-19.089 -36.77,-11.114 -71.21,-27.918 -97.46,-51.641 z m 102.99,75.273 c 61.84,21.485 137.09,19.805 203.93,-18.332 -41.02,15.207 -121.43,17.864 -195.49,-1.382 -2.6,6.687 -5.43,13.257 -8.44,19.714 v 0" /></g></g><path
         id="path296"
         style="fill:#ffffff;fill-opacity:1;fill-rule:evenodd;stroke:none"
         d="m 2092.85,623.23 c 10.33,13.008 24.69,24.415 41.6,33.458 1.59,-3.418 3.13,-6.844 4.61,-10.309 -16.87,-6.035 -32.71,-13.664 -46.21,-23.149 z m 51.06,38.137 c 45.04,20.613 104.76,25.039 155.86,0.254 -28.17,6.824 -93.11,5.945 -149.77,-11.621 -1.97,3.828 -4.02,7.605 -6.09,11.367 v 0" /><g
         id="g298"><g
           clip-path="url(#clipPath304)"
           id="g300"><path
             id="path306"
             d="m 3775.35,2116.25 c 100.02,0 171.45,-14.62 182.99,-110.34 11.56,-95.73 -49.41,-204.09 -176.27,-205.58 -126.84,-1.49 -184.61,104.55 -185.35,188.54 -0.74,83.98 78.61,127.38 178.63,127.38 v 0" /></g></g><g
         id="g308"><g
           clip-path="url(#clipPath314)"
           id="g310"><path
             id="path316"
             d="m 3777.62,2128.3 c 100,0 178.1,-39.95 181.09,-129.89 2.99,-89.94 -81.09,-160.81 -181.09,-160.81 -100.02,0 -172.56,66.84 -180.76,149.34 -8.21,82.49 80.74,141.36 180.76,141.36 v 0" /><path
             id="path318"
             d="m 3777.62,2128.3 c 100,0 178.1,-39.95 181.09,-129.89 2.99,-89.94 -81.09,-160.81 -181.09,-160.81 -100.02,0 -172.56,66.84 -180.76,149.34 -8.21,82.49 80.74,141.36 180.76,141.36 v 0" /></g></g><g
         id="g320"><g
           clip-path="url(#clipPath326)"
           id="g322"><path
             id="path328"
             d="m 3777.62,2141.71 c 100,0 181.11,-65.09 181.11,-145.35 0,-80.25 -81.11,-145.34 -181.11,-145.34 -100.02,0 -181.14,65.09 -181.14,145.34 0,80.26 81.12,145.35 181.14,145.35 v 0" /><path
             id="path330"
             d="m 3777.62,2141.71 c 100,0 181.11,-65.09 181.11,-145.35 0,-80.25 -81.11,-145.34 -181.11,-145.34 -100.02,0 -181.14,65.09 -181.14,145.34 0,80.26 81.12,145.35 181.14,145.35 v 0" /></g></g><g
         id="g332"><g
           clip-path="url(#clipPath338)"
           id="g334"><path
             id="path340"
             d="m 3638.32,2024.18 c 11.29,36.05 34.94,60.61 63.42,75.25 2.93,-6.11 5.64,-12.34 8.16,-18.68 -28.63,-11.52 -54.24,-30.1 -71.58,-56.57 z m 70.59,78.68 c 60.78,27.05 139.88,11.62 169.88,-32.82 -37.29,26.85 -103.32,33.55 -159.98,14.01 -3.13,6.41 -6.45,12.66 -9.9,18.81 v 0" /></g></g><g
         id="g342"><g
           clip-path="url(#clipPath348)"
           id="g344"><path
             id="path350"
             d="m 3641.66,2020.83 c 15.8,23.46 40.68,42.56 70.25,54.65 1.82,-4.84 3.5,-9.76 5.06,-14.75 -28.43,-8.59 -55.04,-21.58 -75.31,-39.9 z m 79.59,58.15 c 47.75,16.59 105.9,15.31 157.54,-14.16 -31.68,11.75 -93.81,13.81 -151.04,-1.06 -2.01,5.17 -4.2,10.23 -6.5,15.22 v 0" /></g></g><path
         id="path352"
         style="fill:#ffffff;fill-opacity:1;fill-rule:evenodd;stroke:none"
         d="m 3670.98,2070.65 c 7.98,10.04 19.08,18.87 32.15,25.84 1.23,-2.63 2.4,-5.28 3.55,-7.97 -13.03,-4.65 -25.25,-10.54 -35.7,-17.87 z m 39.45,29.46 c 34.78,15.94 80.96,19.34 120.43,0.2 -21.78,5.28 -71.95,4.59 -115.72,-8.97 -1.53,2.95 -3.11,5.88 -4.71,8.77 v 0" /><g
         id="g354"><g
           clip-path="url(#clipPath360)"
           id="g356"><path
             id="path362"
             d="m 4391.02,3913.95 c 86.71,0 148.63,-12.68 158.65,-95.69 10.04,-82.99 -42.85,-176.93 -152.83,-178.22 -109.96,-1.29 -160.06,90.64 -160.71,163.46 -0.66,72.81 68.19,110.45 154.89,110.45 v 0" /></g></g><g
         id="g364"><g
           clip-path="url(#clipPath370)"
           id="g366"><path
             id="path372"
             d="m 4392.97,3924.39 c 86.7,0 154.43,-34.62 157.01,-112.62 2.62,-77.98 -70.31,-139.43 -157.01,-139.43 -86.72,0 -149.63,57.96 -156.72,129.48 -7.09,71.52 70,122.57 156.72,122.57 v 0" /><path
             id="path374"
             d="m 4392.97,3924.39 c 86.7,0 154.43,-34.62 157.01,-112.62 2.62,-77.98 -70.31,-139.43 -157.01,-139.43 -86.72,0 -149.63,57.96 -156.72,129.48 -7.09,71.52 70,122.57 156.72,122.57 v 0" /></g></g><g
         id="g376"><g
           clip-path="url(#clipPath382)"
           id="g378"><path
             id="path384"
             d="m 4392.97,3936.02 c 86.7,0 157.03,-56.43 157.03,-126.02 0,-69.59 -70.33,-126.02 -157.03,-126.02 -86.72,0 -157.03,56.43 -157.03,126.02 0,69.59 70.31,126.02 157.03,126.02 v 0" /><path
             id="path386"
             d="m 4392.97,3936.02 c 86.7,0 157.03,-56.43 157.03,-126.02 0,-69.59 -70.33,-126.02 -157.03,-126.02 -86.72,0 -157.03,56.43 -157.03,126.02 0,69.59 70.31,126.02 157.03,126.02 v 0" /></g></g><g
         id="g388"><g
           clip-path="url(#clipPath394)"
           id="g390"><path
             id="path396"
             d="m 4272.19,3834.11 c 9.8,31.25 30.31,52.55 55.02,65.25 2.52,-5.3 4.88,-10.7 7.05,-16.21 -24.83,-9.97 -47.01,-26.08 -62.07,-49.04 z m 61.21,68.23 c 52.71,23.44 121.27,10.08 147.28,-28.46 -32.3,23.27 -89.57,29.09 -138.69,12.16 -2.71,5.54 -5.58,10.95 -8.59,16.3 v 0" /></g></g><g
         id="g398"><g
           clip-path="url(#clipPath404)"
           id="g400"><path
             id="path406"
             d="m 4275.1,3831.21 c 13.69,20.33 35.27,36.9 60.92,47.38 1.56,-4.2 3.02,-8.46 4.35,-12.79 -24.63,-7.44 -47.67,-18.7 -65.27,-34.59 z m 68.98,50.42 c 41.45,14.39 91.84,13.27 136.6,-12.27 -27.46,10.18 -81.3,11.96 -130.91,-0.93 -1.76,4.48 -3.66,8.87 -5.69,13.2 v 0" /></g></g><path
         id="path408"
         style="fill:#ffffff;fill-opacity:1;fill-rule:evenodd;stroke:none"
         d="m 4300.53,3874.41 c 6.93,8.72 16.54,16.35 27.85,22.41 1.05,-2.29 2.11,-4.59 3.1,-6.91 -11.3,-4.05 -21.91,-9.15 -30.95,-15.5 z m 34.2,25.53 c 30.17,13.82 70.19,16.78 104.41,0.19 -18.89,4.57 -62.38,3.97 -100.33,-7.79 -1.33,2.56 -2.72,5.1 -4.08,7.6 v 0" /><g
         id="g410"><g
           clip-path="url(#clipPath416)"
           id="g412"><path
             id="path418"
             d="m 388.313,4170.29 c 75.515,0 129.453,-11.03 138.191,-83.33 8.723,-72.28 -37.332,-154.1 -133.125,-155.22 -95.781,-1.13 -139.402,78.95 -139.961,142.36 -0.566,63.42 59.363,96.19 134.895,96.19 v 0" /></g></g><g
         id="g420"><g
           clip-path="url(#clipPath426)"
           id="g422"><path
             id="path428"
             d="m 390,4179.39 c 75.527,0 134.52,-30.15 136.77,-98.08 2.253,-67.91 -61.243,-121.43 -136.77,-121.43 -75.52,0 -130.293,50.48 -136.484,112.78 -6.192,62.29 60.964,106.73 136.484,106.73 v 0" /><path
             id="path430"
             d="m 390,4179.39 c 75.527,0 134.52,-30.15 136.77,-98.08 2.253,-67.91 -61.243,-121.43 -136.77,-121.43 -75.52,0 -130.293,50.48 -136.484,112.78 -6.192,62.29 60.964,106.73 136.484,106.73 v 0" /></g></g><g
         id="g432"><g
           clip-path="url(#clipPath438)"
           id="g434"><path
             id="path440"
             d="m 390,4189.53 c 75.527,0 136.777,-49.15 136.777,-109.76 0,-60.61 -61.25,-109.77 -136.777,-109.77 -75.52,0 -136.758,49.16 -136.758,109.77 0,60.61 61.238,109.76 136.758,109.76 v 0" /><path
             id="path442"
             d="m 390,4189.53 c 75.527,0 136.777,-49.15 136.777,-109.76 0,-60.61 -61.25,-109.77 -136.777,-109.77 -75.52,0 -136.758,49.16 -136.758,109.77 0,60.61 61.238,109.76 136.758,109.76 v 0" /></g></g><g
         id="g444"><g
           clip-path="url(#clipPath450)"
           id="g446"><path
             id="path452"
             d="m 284.824,4100.77 c 8.535,27.22 26.387,45.78 47.903,56.82 2.195,-4.61 4.253,-9.31 6.152,-14.11 -21.621,-8.69 -40.949,-22.71 -54.055,-42.71 z m 53.301,59.43 c 45.906,20.41 105.625,8.76 128.293,-24.79 -28.156,20.27 -78.02,25.34 -120.813,10.57 -2.363,4.84 -4.875,9.57 -7.48,14.22 v 0" /></g></g><g
         id="g454"><g
           clip-path="url(#clipPath460)"
           id="g456"><path
             id="path462"
             d="m 287.355,4098.23 c 11.922,17.74 30.711,32.15 53.055,41.26 1.367,-3.65 2.637,-7.34 3.801,-11.12 -21.457,-6.48 -41.547,-16.3 -56.856,-30.14 z m 60.086,43.94 c 36.075,12.52 79.981,11.55 118.977,-10.71 -23.918,8.87 -70.844,10.43 -114.055,-0.8 -1.523,3.89 -3.164,7.73 -4.922,11.51 v 0" /></g></g><path
         id="path464"
         style="fill:#ffffff;fill-opacity:1;fill-rule:evenodd;stroke:none"
         d="m 309.492,4135.87 c 6.028,7.58 14.414,14.24 24.27,19.51 0.926,-1.99 1.824,-3.99 2.691,-6.02 -9.844,-3.52 -19.082,-7.95 -26.961,-13.49 z m 29.785,22.24 c 26.27,12.03 61.133,14.6 90.938,0.15 -16.438,3.97 -54.317,3.47 -87.383,-6.76 -1.152,2.2 -2.344,4.43 -3.555,6.61 v 0" /><g
         id="g466"><g
           clip-path="url(#clipPath472)"
           id="g468"><path
             id="path474"
             d="m 954.551,1654.7 c 66.799,0 114.469,-9.77 122.189,-73.68 7.71,-63.9 -32.99,-136.25 -117.697,-137.23 -84.668,-1 -123.242,69.8 -123.73,125.87 -0.508,56.07 52.48,85.04 119.238,85.04 v 0" /></g></g><g
         id="g476"><g
           clip-path="url(#clipPath482)"
           id="g478"><path
             id="path484"
             d="m 956.074,1662.74 c 66.756,0 118.926,-26.65 120.896,-86.72 2.01,-60.04 -54.14,-107.36 -120.896,-107.36 -66.777,0 -115.195,44.63 -120.683,99.71 -5.469,55.07 53.906,94.37 120.683,94.37 v 0" /><path
             id="path486"
             d="m 956.074,1662.74 c 66.756,0 118.926,-26.65 120.896,-86.72 2.01,-60.04 -54.14,-107.36 -120.896,-107.36 -66.777,0 -115.195,44.63 -120.683,99.71 -5.469,55.07 53.906,94.37 120.683,94.37 v 0" /></g></g><g
         id="g488"><g
           clip-path="url(#clipPath494)"
           id="g490"><path
             id="path496"
             d="m 956.074,1671.71 c 66.756,0 120.916,-43.46 120.916,-97.05 0,-53.57 -54.16,-97.04 -120.916,-97.04 -66.777,0 -120.918,43.47 -120.918,97.04 0,53.59 54.141,97.05 120.918,97.05 v 0" /><path
             id="path498"
             d="m 956.074,1671.71 c 66.756,0 120.916,-43.46 120.916,-97.05 0,-53.57 -54.16,-97.04 -120.916,-97.04 -66.777,0 -120.918,43.47 -120.918,97.04 0,53.59 54.141,97.05 120.918,97.05 v 0" /></g></g><g
         id="g500"><g
           clip-path="url(#clipPath506)"
           id="g502"><path
             id="path508"
             d="m 863.086,1593.23 c 7.539,24.07 23.32,40.47 42.324,50.24 1.953,-4.08 3.789,-8.24 5.449,-12.47 -19.101,-7.69 -36.191,-20.09 -47.773,-37.77 z m 47.109,52.53 c 40.586,18.06 93.395,7.76 113.415,-21.91 -24.88,17.92 -68.962,22.41 -106.794,9.36 -2.089,4.26 -4.316,8.44 -6.621,12.55 v 0" /></g></g><g
         id="g510"><g
           clip-path="url(#clipPath516)"
           id="g512"><path
             id="path518"
             d="m 865.313,1590.98 c 10.546,15.67 27.167,28.42 46.894,36.49 1.211,-3.22 2.344,-6.5 3.359,-9.84 -18.945,-5.73 -36.718,-14.4 -50.253,-26.65 z m 53.105,38.83 c 31.914,11.1 70.723,10.24 105.192,-9.45 -21.15,7.85 -62.614,9.22 -100.817,-0.7 -1.348,3.45 -2.813,6.83 -4.375,10.15 v 0" /></g></g><path
         id="path520"
         style="fill:#ffffff;fill-opacity:1;fill-rule:evenodd;stroke:none"
         d="m 884.863,1624.27 c 5.352,6.7 12.754,12.58 21.485,17.25 0.82,-1.76 1.601,-3.54 2.382,-5.32 -8.71,-3.13 -16.875,-7.05 -23.867,-11.93 z m 26.348,19.66 c 23.242,10.63 54.062,12.92 80.41,0.13 -14.531,3.53 -48.027,3.06 -77.266,-5.99 -1.015,1.96 -2.07,3.92 -3.144,5.86 v 0" /><g
         id="g522"><g
           clip-path="url(#clipPath528)"
           id="g524"><path
             id="path530"
             d="m 4180.74,1811.13 c 61.55,0 105.49,-9 112.6,-67.91 7.12,-58.9 -30.41,-125.55 -108.46,-126.47 -78.04,-0.93 -113.59,64.34 -114.04,116 -0.47,51.68 48.37,78.38 109.9,78.38 v 0" /></g></g><g
         id="g532"><g
           clip-path="url(#clipPath538)"
           id="g534"><path
             id="path540"
             d="m 4182.13,1818.55 c 61.54,0 109.61,-24.59 111.44,-79.92 1.84,-55.35 -49.9,-98.96 -111.44,-98.96 -61.54,0 -106.17,41.14 -111.21,91.9 -5.04,50.75 49.67,86.98 111.21,86.98 v 0" /><path
             id="path542"
             d="m 4182.13,1818.55 c 61.54,0 109.61,-24.59 111.44,-79.92 1.84,-55.35 -49.9,-98.96 -111.44,-98.96 -61.54,0 -106.17,41.14 -111.21,91.9 -5.04,50.75 49.67,86.98 111.21,86.98 v 0" /></g></g><g
         id="g544"><g
           clip-path="url(#clipPath550)"
           id="g546"><path
             id="path552"
             d="m 4182.13,1826.8 c 61.54,0 111.44,-40.04 111.44,-89.42 0,-49.4 -49.9,-89.45 -111.44,-89.45 -61.54,0 -111.45,40.05 -111.45,89.45 0,49.38 49.91,89.42 111.45,89.42 v 0" /><path
             id="path554"
             d="m 4182.13,1826.8 c 61.54,0 111.44,-40.04 111.44,-89.42 0,-49.4 -49.9,-89.45 -111.44,-89.45 -61.54,0 -111.45,40.05 -111.45,89.45 0,49.38 49.91,89.42 111.45,89.42 v 0" /></g></g><g
         id="g556"><g
           clip-path="url(#clipPath562)"
           id="g558"><path
             id="path564"
             d="m 4096.43,1754.47 c 6.95,22.19 21.5,37.31 39.03,46.3 1.79,-3.76 3.47,-7.58 5.01,-11.49 -17.62,-7.09 -33.36,-18.5 -44.04,-34.81 z m 43.43,48.43 c 37.41,16.63 86.07,7.14 104.53,-20.2 -22.94,16.52 -63.57,20.65 -98.43,8.62 -1.94,3.93 -3.98,7.79 -6.1,11.58 v 0" /></g></g><g
         id="g566"><g
           clip-path="url(#clipPath572)"
           id="g568"><path
             id="path574"
             d="m 4098.5,1752.41 c 9.7,14.45 25.02,26.2 43.22,33.63 1.11,-2.99 2.15,-6 3.09,-9.07 -17.47,-5.28 -33.84,-13.28 -46.31,-24.56 z m 48.94,35.79 c 29.4,10.21 65.18,9.42 96.95,-8.72 -19.49,7.24 -57.72,8.5 -92.93,-0.64 -1.25,3.16 -2.58,6.3 -4.02,9.36 v 0" /></g></g><path
         id="path576"
         style="fill:#ffffff;fill-opacity:1;fill-rule:evenodd;stroke:none"
         d="m 4116.52,1783.07 c 4.93,6.19 11.74,11.61 19.79,15.91 0.74,-1.62 1.48,-3.26 2.19,-4.91 -8.03,-2.87 -15.55,-6.48 -21.98,-11 z m 24.28,18.13 c 21.41,9.81 49.81,11.91 74.1,0.13 -13.4,3.23 -44.27,2.82 -71.21,-5.52 -0.94,1.8 -1.91,3.62 -2.89,5.39 v 0" /><g
         id="g578"><g
           clip-path="url(#clipPath584)"
           id="g580"><path
             id="path586"
             d="m 1508.63,4412.49 c 61.27,0 105.02,-8.97 112.1,-67.6 7.08,-58.63 -30.28,-125.01 -107.98,-125.93 -77.71,-0.9 -113.1,64.05 -113.55,115.5 -0.46,51.45 48.16,78.03 109.43,78.03 v 0" /></g></g><g
         id="g588"><g
           clip-path="url(#clipPath594)"
           id="g590"><path
             id="path596"
             d="m 1510,4419.86 c 61.27,0 109.13,-24.46 110.96,-79.57 1.82,-55.08 -49.69,-98.49 -110.96,-98.49 -61.26,0 -105.7,40.95 -110.72,91.48 -5.02,50.53 49.46,86.58 110.72,86.58 v 0" /><path
             id="path598"
             d="m 1510,4419.86 c 61.27,0 109.13,-24.46 110.96,-79.57 1.82,-55.08 -49.69,-98.49 -110.96,-98.49 -61.26,0 -105.7,40.95 -110.72,91.48 -5.02,50.53 49.46,86.58 110.72,86.58 v 0" /></g></g><g
         id="g600"><g
           clip-path="url(#clipPath606)"
           id="g602"><path
             id="path608"
             d="m 1510,4428.11 c 61.27,0 110.96,-39.89 110.96,-89.06 0,-49.16 -49.69,-89.05 -110.96,-89.05 -61.26,0 -110.95,39.89 -110.95,89.05 0,49.17 49.69,89.06 110.95,89.06 v 0" /><path
             id="path610"
             d="m 1510,4428.11 c 61.27,0 110.96,-39.89 110.96,-89.06 0,-49.16 -49.69,-89.05 -110.96,-89.05 -61.26,0 -110.95,39.89 -110.95,89.05 0,49.17 49.69,89.06 110.95,89.06 v 0" /></g></g><g
         id="g612"><g
           clip-path="url(#clipPath618)"
           id="g614"><path
             id="path620"
             d="m 1424.67,4356.09 c 6.93,22.09 21.42,37.13 38.87,46.11 1.78,-3.75 3.45,-7.57 5,-11.45 -17.54,-7.06 -33.23,-18.44 -43.87,-34.66 z m 43.24,48.21 c 37.25,16.56 85.7,7.12 104.08,-20.11 -22.84,16.44 -63.3,20.56 -98,8.59 -1.92,3.91 -3.95,7.74 -6.08,11.52 v 0" /></g></g><g
         id="g622"><g
           clip-path="url(#clipPath628)"
           id="g624"><path
             id="path630"
             d="m 1426.74,4354.04 c 9.67,14.37 24.92,26.07 43.03,33.47 1.11,-2.96 2.13,-5.97 3.08,-9.03 -17.4,-5.26 -33.69,-13.21 -46.11,-24.44 z m 48.73,35.63 c 29.28,10.17 64.89,9.37 96.52,-8.69 -19.4,7.2 -57.46,8.46 -92.52,-0.65 -1.23,3.18 -2.58,6.27 -4,9.34 v 0" /></g></g><path
         id="path632"
         style="fill:#ffffff;fill-opacity:1;fill-rule:evenodd;stroke:none"
         d="m 1444.69,4384.57 c 4.89,6.15 11.69,11.56 19.69,15.83 0.75,-1.63 1.48,-3.25 2.18,-4.89 -7.99,-2.87 -15.47,-6.46 -21.87,-10.94 z m 24.16,18.04 c 21.32,9.75 49.6,11.85 73.78,0.12 -13.33,3.24 -44.08,2.81 -70.89,-5.5 -0.94,1.81 -1.9,3.6 -2.89,5.38 v 0" /><g
         id="g634"><g
           clip-path="url(#clipPath640)"
           id="g636"><path
             id="path642"
             d="m 921.188,862.004 c 45.027,0 77.179,-6.582 82.382,-49.691 5.21,-43.083 -22.254,-91.864 -79.355,-92.528 -57.106,-0.683 -83.11,47.07 -83.438,84.871 -0.347,37.805 35.383,57.348 80.411,57.348 v 0" /></g></g><g
         id="g644"><g
           clip-path="url(#clipPath650)"
           id="g646"><path
             id="path652"
             d="m 922.203,867.434 c 45.024,0 80.197,-17.993 81.537,-58.481 1.34,-40.496 -36.513,-72.398 -81.537,-72.398 -45.031,0 -77.687,30.093 -81.375,67.246 -3.683,37.129 36.344,63.633 81.375,63.633 v 0" /><path
             id="path654"
             d="m 922.203,867.434 c 45.024,0 80.197,-17.993 81.537,-58.481 1.34,-40.496 -36.513,-72.398 -81.537,-72.398 -45.031,0 -77.687,30.093 -81.375,67.246 -3.683,37.129 36.344,63.633 81.375,63.633 v 0" /></g></g><g
         id="g656"><g
           clip-path="url(#clipPath662)"
           id="g658"><path
             id="path664"
             d="m 922.203,873.469 c 45.024,0 81.537,-29.297 81.537,-65.434 0,-36.14 -36.513,-65.437 -81.537,-65.437 -45.031,0 -81.543,29.297 -81.543,65.437 0,36.137 36.512,65.434 81.543,65.434 v 0" /><path
             id="path666"
             d="m 922.203,873.469 c 45.024,0 81.537,-29.297 81.537,-65.434 0,-36.14 -36.513,-65.437 -81.537,-65.437 -45.031,0 -81.543,29.297 -81.543,65.437 0,36.137 36.512,65.434 81.543,65.434 v 0" /></g></g><g
         id="g668"><g
           clip-path="url(#clipPath674)"
           id="g670"><path
             id="path676"
             d="m 859.492,820.547 c 5.086,16.238 15.738,27.297 28.559,33.879 1.308,-2.754 2.539,-5.547 3.668,-8.41 -12.891,-5.188 -24.41,-13.536 -32.227,-25.469 z m 31.778,35.437 c 27.375,12.168 62.976,5.215 76.488,-14.773 -16.789,12.082 -46.52,15.098 -72.028,6.301 -1.41,2.879 -2.902,5.703 -4.46,8.472 v 0" /></g></g><g
         id="g678"><g
           clip-path="url(#clipPath684)"
           id="g680"><path
             id="path686"
             d="m 861.012,819.043 c 7.097,10.566 18.304,19.16 31.621,24.602 0.812,-2.192 1.57,-4.387 2.265,-6.633 -12.789,-3.867 -24.765,-9.715 -33.886,-17.969 z m 35.808,26.184 c 21.504,7.468 47.688,6.89 70.938,-6.379 -14.262,5.293 -42.235,6.218 -67.992,-0.469 -0.918,2.312 -1.895,4.609 -2.946,6.848 v 0" /></g></g><path
         id="path688"
         style="fill:#ffffff;fill-opacity:1;fill-rule:evenodd;stroke:none"
         d="m 874.199,841.477 c 3.598,4.519 8.59,8.496 14.477,11.628 0.543,-1.179 1.086,-2.375 1.597,-3.585 -5.871,-2.098 -11.371,-4.747 -16.074,-8.043 z m 17.766,13.257 c 15.656,7.18 36.437,8.711 54.211,0.102 -9.797,2.359 -32.391,2.059 -52.098,-4.043 -0.687,1.316 -1.402,2.645 -2.113,3.941 v 0" /><g
         id="g690"><g
           clip-path="url(#clipPath696)"
           id="g692"><path
             id="path698"
             d="m 4051.19,3402 c 45.02,0 77.18,-6.58 82.38,-49.69 5.21,-43.08 -22.25,-91.86 -79.35,-92.52 -57.11,-0.69 -83.11,47.07 -83.44,84.87 -0.35,37.8 35.38,57.34 80.41,57.34 v 0" /></g></g><g
         id="g700"><g
           clip-path="url(#clipPath706)"
           id="g702"><path
             id="path708"
             d="m 4052.21,3407.43 c 45.02,0 80.19,-17.99 81.53,-58.47 1.34,-40.5 -36.51,-72.41 -81.53,-72.41 -45.04,0 -77.7,30.1 -81.38,67.25 -3.68,37.13 36.34,63.63 81.38,63.63 v 0" /><path
             id="path710"
             d="m 4052.21,3407.43 c 45.02,0 80.19,-17.99 81.53,-58.47 1.34,-40.5 -36.51,-72.41 -81.53,-72.41 -45.04,0 -77.7,30.1 -81.38,67.25 -3.68,37.13 36.34,63.63 81.38,63.63 v 0" /></g></g><g
         id="g712"><g
           clip-path="url(#clipPath718)"
           id="g714"><path
             id="path720"
             d="m 4052.21,3413.47 c 45.02,0 81.53,-29.3 81.53,-65.43 0,-36.15 -36.51,-65.44 -81.53,-65.44 -45.04,0 -81.55,29.29 -81.55,65.44 0,36.13 36.51,65.43 81.55,65.43 v 0" /><path
             id="path722"
             d="m 4052.21,3413.47 c 45.02,0 81.53,-29.3 81.53,-65.43 0,-36.15 -36.51,-65.44 -81.53,-65.44 -45.04,0 -81.55,29.29 -81.55,65.44 0,36.13 36.51,65.43 81.55,65.43 v 0" /></g></g><g
         id="g724"><g
           clip-path="url(#clipPath730)"
           id="g726"><path
             id="path732"
             d="m 3989.49,3360.55 c 5.09,16.24 15.74,27.29 28.56,33.88 1.31,-2.76 2.54,-5.55 3.67,-8.41 -12.89,-5.19 -24.42,-13.54 -32.23,-25.47 z m 31.78,35.43 c 27.37,12.17 62.98,5.22 76.48,-14.77 -16.78,12.08 -46.51,15.1 -72.02,6.3 -1.41,2.88 -2.9,5.7 -4.46,8.47 v 0" /></g></g><g
         id="g734"><g
           clip-path="url(#clipPath740)"
           id="g736"><path
             id="path742"
             d="m 3991.02,3359.04 c 7.09,10.57 18.3,19.16 31.62,24.6 0.81,-2.18 1.56,-4.38 2.26,-6.63 -12.79,-3.87 -24.76,-9.71 -33.88,-17.97 z m 35.8,26.19 c 21.5,7.47 47.69,6.89 70.93,-6.38 -14.25,5.29 -42.22,6.22 -67.98,-0.47 -0.92,2.31 -1.9,4.61 -2.95,6.85 v 0" /></g></g><path
         id="path744"
         style="fill:#ffffff;fill-opacity:1;fill-rule:evenodd;stroke:none"
         d="m 4004.2,3381.48 c 3.59,4.52 8.59,8.49 14.47,11.63 0.55,-1.18 1.1,-2.38 1.6,-3.59 -5.87,-2.1 -11.36,-4.75 -16.07,-8.04 z m 17.76,13.25 c 15.66,7.18 36.44,8.72 54.21,0.11 -9.79,2.36 -32.38,2.05 -52.09,-4.05 -0.69,1.32 -1.4,2.65 -2.12,3.94 v 0" /><g
         id="g746"><g
           clip-path="url(#clipPath752)"
           id="g748"><path
             id="path754"
             d="m 3711.19,4552 c 45.02,0 77.18,-6.58 82.38,-49.69 5.21,-43.08 -22.25,-91.86 -79.35,-92.52 -57.11,-0.69 -83.11,47.07 -83.44,84.87 -0.35,37.8 35.38,57.34 80.41,57.34 v 0" /></g></g><g
         id="g756"><g
           clip-path="url(#clipPath762)"
           id="g758"><path
             id="path764"
             d="m 3712.21,4557.43 c 45.02,0 80.19,-17.99 81.53,-58.47 1.34,-40.5 -36.51,-72.41 -81.53,-72.41 -45.04,0 -77.7,30.1 -81.38,67.25 -3.68,37.13 36.34,63.63 81.38,63.63 v 0" /><path
             id="path766"
             d="m 3712.21,4557.43 c 45.02,0 80.19,-17.99 81.53,-58.47 1.34,-40.5 -36.51,-72.41 -81.53,-72.41 -45.04,0 -77.7,30.1 -81.38,67.25 -3.68,37.13 36.34,63.63 81.38,63.63 v 0" /></g></g><g
         id="g768"><g
           clip-path="url(#clipPath774)"
           id="g770"><path
             id="path776"
             d="m 3712.21,4563.47 c 45.02,0 81.53,-29.3 81.53,-65.43 0,-36.15 -36.51,-65.44 -81.53,-65.44 -45.04,0 -81.55,29.29 -81.55,65.44 0,36.13 36.51,65.43 81.55,65.43 v 0" /><path
             id="path778"
             d="m 3712.21,4563.47 c 45.02,0 81.53,-29.3 81.53,-65.43 0,-36.15 -36.51,-65.44 -81.53,-65.44 -45.04,0 -81.55,29.29 -81.55,65.44 0,36.13 36.51,65.43 81.55,65.43 v 0" /></g></g><g
         id="g780"><g
           clip-path="url(#clipPath786)"
           id="g782"><path
             id="path788"
             d="m 3649.49,4510.55 c 5.09,16.24 15.74,27.29 28.56,33.88 1.31,-2.76 2.54,-5.55 3.67,-8.41 -12.89,-5.19 -24.42,-13.54 -32.23,-25.47 z m 31.78,35.43 c 27.37,12.17 62.98,5.22 76.48,-14.77 -16.78,12.08 -46.51,15.1 -72.02,6.3 -1.41,2.88 -2.9,5.7 -4.46,8.47 v 0" /></g></g><g
         id="g790"><g
           clip-path="url(#clipPath796)"
           id="g792"><path
             id="path798"
             d="m 3651.02,4509.04 c 7.09,10.57 18.3,19.16 31.62,24.6 0.81,-2.18 1.56,-4.38 2.26,-6.63 -12.79,-3.87 -24.76,-9.71 -33.88,-17.97 z m 35.8,26.19 c 21.5,7.47 47.69,6.89 70.93,-6.38 -14.25,5.29 -42.22,6.22 -67.98,-0.47 -0.92,2.31 -1.9,4.61 -2.95,6.85 v 0" /></g></g><path
         id="path800"
         style="fill:#ffffff;fill-opacity:1;fill-rule:evenodd;stroke:none"
         d="m 3664.2,4531.48 c 3.59,4.52 8.59,8.49 14.47,11.63 0.55,-1.18 1.1,-2.38 1.6,-3.59 -5.87,-2.1 -11.36,-4.75 -16.07,-8.04 z m 17.76,13.25 c 15.66,7.18 36.44,8.72 54.21,0.11 -9.79,2.36 -32.38,2.05 -52.09,-4.05 -0.69,1.32 -1.4,2.65 -2.12,3.94 v 0" /></g></g></svg>